<svg xmlns="http://www.w3.org/2000/svg" viewBox="0 0 256 262" preserveAspectRatio="xMidYMid"><path d="M255.878 133.45c0-10.734-.87-18.567-2.756-26.7H130.55v48.448h71.947c-1.45 12.04-9.283 30.172-26.7 42.356l-.244 1.622 38.755 30.023 2.685.268c24.66-22.774 38.875-56.282 38.875-96.027" fill="#4285f4"/><path d="M130.55 261.1c35.248 0 64.84-11.605 86.453-31.622l-41.196-31.913c-11.024 7.688-25.82 13.055-45.257 13.055-34.523 0-63.824-22.773-74.27-54.25l-1.53.13-40.298 31.187-.527 1.465C35.393 231.798 79.5 261.1 130.55 261.1" fill="#34a853"/><path d="M56.28 156.37c-2.756-8.123-4.35-16.827-4.35-25.82s1.595-17.697 4.206-25.82l-.073-1.73L15.26 71.312l-1.335.635C5.077 89.644 0 109.517 0 130.55s5.077 40.905 13.925 58.602L56.28 156.37" fill="#fbbc05"/><path d="M130.55 50.48c24.514 0 41.05 10.59 50.48 19.438l36.844-35.974C195.245 12.9 165.798 0 130.55 0 79.5 0 35.393 29.3 13.925 71.947l42.21 32.783c10.6-31.477 39.89-54.25 74.414-54.25" fill="#eb4335"/></svg>