<svg xmlns="http://www.w3.org/2000/svg" width="704" height="530" fill="none"><style><![CDATA[.B{fill:#797c7f}.C{fill-opacity:.1}.D{fill:#198cff}]]></style><path fill="#fff" d="M0 0h704v530H0z"/><path d="M113.438 453h1.975v-5.708h6.527V453h1.98v-13.09h-1.98v5.69h-6.527v-5.69h-1.975V453zm17.342.198c2.768 0 4.577-2.026 4.577-5.062 0-3.056-1.81-5.082-4.577-5.082s-4.577 2.026-4.577 5.082c0 3.036 1.81 5.062 4.577 5.062zm.006-1.604c-1.81 0-2.652-1.58-2.652-3.465 0-1.88.843-3.477 2.652-3.477 1.796 0 2.64 1.598 2.64 3.477 0 1.886-.844 3.465-2.64 3.465zM139.32 453h1.943l1.994-7.09h.147l1.994 7.09h1.95l2.883-9.818h-1.975l-1.912 7.178h-.095l-1.918-7.178h-1.975l-1.93 7.2h-.095l-1.924-7.2h-1.976l2.9 9.818zm22.07-9.818h-2.013v-2.352h-1.91v2.352h-1.44v1.534h1.44v5.797c-.007 1.784 1.355 2.647 2.863 2.615.608-.007 1.017-.122 1.24-.205l-.345-1.58c-.128.026-.364.084-.67.084-.62 0-1.176-.205-1.176-1.31v-5.4h2.013v-1.534zm6.145 10.016c2.767 0 4.576-2.026 4.576-5.062 0-3.056-1.81-5.082-4.576-5.082s-4.577 2.026-4.577 5.082c0 3.036 1.81 5.062 4.577 5.062zm.006-1.604c-1.81 0-2.653-1.58-2.653-3.465 0-1.88.844-3.477 2.653-3.477 1.796 0 2.64 1.598 2.64 3.477 0 1.886-.844 3.465-2.64 3.465zm11.62 1.406h1.975v-4.954h2.812L186.6 453h2.25l-2.902-5.3c1.604-.594 2.403-1.93 2.403-3.688 0-2.4-1.496-4.104-4.532-4.104h-4.666V453zm1.975-6.654v-4.743h2.48c1.95 0 2.755.927 2.755 2.4 0 1.476-.805 2.333-2.73 2.333h-2.506zm15.692 2.582c.007 1.67-1.233 2.46-2.307 2.46-1.183 0-2-.856-2-2.192v-6.015h-1.91v6.245c0 2.435 1.336 3.7 3.222 3.7 1.476 0 2.48-.78 2.934-1.828h.102v1.7h1.88v-9.818h-1.918v5.746zm6.397-1.758c0-1.566.96-2.46 2.29-2.46 1.297 0 2.083.85 2.083 2.275V453h1.912v-6.245c0-2.43-1.336-3.7-3.343-3.7-1.477 0-2.442.684-2.896 1.726h-.12v-1.598h-1.835V453h1.91v-5.83zm16.468 6.047c1.623 0 2.537-.824 2.902-1.56h.076V453h1.867v-6.52c0-2.857-2.25-3.426-3.8-3.426-1.777 0-3.413.716-4.052 2.506l1.796.41c.28-.697.997-1.368 2.282-1.368 1.234 0 1.866.645 1.866 1.758v.044c0 .697-.716.684-2.48.89-1.86.217-3.765.703-3.765 2.934 0 1.93 1.45 2.99 3.318 2.99zm.415-1.534c-1.08 0-1.86-.486-1.86-1.432 0-1.022.908-1.387 2.014-1.534.62-.083 2.1-.25 2.365-.524v1.266c0 1.163-.927 2.224-2.52 2.224zM232.003 453h1.975v-4.602h2.684c3.037 0 4.54-1.835 4.54-4.25 0-2.4-1.5-4.238-4.532-4.238h-4.666V453zm1.975-6.277v-5.12h2.48c1.956 0 2.755 1.06 2.755 2.544s-.8 2.576-2.73 2.576h-2.505zm9.385 6.277h1.91v-5.996c0-1.285.99-2.21 2.346-2.21a4.5 4.5 0 0 1 .997.115v-1.828a7.65 7.65 0 0 0-.812-.045c-1.15 0-2.135.652-2.493 1.706h-.102v-1.56h-1.847V453zm10.692.198c2.768 0 4.577-2.026 4.577-5.062 0-3.056-1.81-5.082-4.577-5.082s-4.576 2.026-4.576 5.082c0 3.036 1.808 5.062 4.576 5.062zm.007-1.604c-1.81 0-2.653-1.58-2.653-3.465 0-1.88.844-3.477 2.653-3.477 1.796 0 2.64 1.598 2.64 3.477 0 1.886-.844 3.465-2.64 3.465zm10.38 1.598c1.79 0 2.493-1.093 2.838-1.72h.16V453h1.866v-13.09h-1.91v4.864h-.115c-.345-.607-.997-1.72-2.826-1.72-2.37 0-4.116 1.873-4.116 5.056 0 3.177 1.72 5.082 4.104 5.082zm.422-1.63c-1.707 0-2.596-1.502-2.596-3.47 0-1.95.87-3.413 2.596-3.413 1.668 0 2.563 1.36 2.563 3.413 0 2.065-.914 3.47-2.563 3.47zm13.39-2.634c.007 1.67-1.233 2.46-2.307 2.46-1.183 0-2-.856-2-2.192v-6.015h-1.91v6.245c0 2.435 1.336 3.7 3.22 3.7 1.477 0 2.48-.78 2.934-1.828h.103v1.7h1.88v-9.818h-1.918v5.746zm8.622 4.27c2.32 0 3.822-1.393 4.033-3.305h-1.86c-.243 1.062-1.068 1.688-2.16 1.688-1.617 0-2.66-1.35-2.66-3.5 0-2.103 1.06-3.426 2.66-3.426 1.215 0 1.956.767 2.16 1.687h1.86c-.205-1.98-1.822-3.298-4.053-3.298-2.767 0-4.557 2.084-4.557 5.082 0 2.96 1.726 5.062 4.577 5.062zm10.66-10.016h-2.014v-2.352h-1.91v2.352h-1.438v1.534h1.438v5.797c-.006 1.784 1.355 2.647 2.864 2.615.607-.007 1.016-.122 1.24-.205l-.345-1.58c-.128.026-.365.084-.67.084-.62 0-1.177-.205-1.177-1.31v-5.4h2.014v-1.534zm2.114 9.818h1.91v-9.818h-1.91V453zm.965-11.333c.66 0 1.208-.51 1.208-1.138s-.55-1.144-1.208-1.144-1.208.518-1.208 1.144.544 1.138 1.208 1.138zm11.917 1.515h-2.052l-2.48 7.555h-.103l-2.486-7.555h-2.052l3.567 9.818h2.045l3.56-9.818zm5.676 10.016c2.14 0 3.656-1.055 4.09-2.653l-1.81-.326c-.345.927-1.176 1.4-2.263 1.4-1.636 0-2.736-1.06-2.787-2.953h6.98v-.677c0-3.548-2.122-4.935-4.346-4.935-2.736 0-4.54 2.084-4.54 5.1 0 3.05 1.777 5.043 4.673 5.043zm-2.762-5.964c.077-1.393 1.087-2.6 2.64-2.6 1.483 0 2.455 1.1 2.46 2.6h-5.1zm14.012-7.325V453h1.88v-9.48h.12l3.86 9.46h1.56l3.86-9.454h.12V453h1.88v-13.09h-2.397l-4.167 10.176h-.154l-4.167-10.176h-2.397zm20.232 13.29c2.142 0 3.656-1.055 4.09-2.653l-1.81-.326c-.345.927-1.176 1.4-2.263 1.4-1.636 0-2.735-1.06-2.787-2.953h6.98v-.677c0-3.548-2.123-4.935-4.347-4.935-2.736 0-4.538 2.084-4.538 5.1 0 3.05 1.777 5.043 4.672 5.043zm-2.76-5.964c.077-1.393 1.086-2.6 2.64-2.6 1.483 0 2.454 1.1 2.46 2.6h-5.1zm13.326 5.964c2.14 0 3.656-1.055 4.09-2.653l-1.81-.326c-.346.927-1.177 1.4-2.263 1.4-1.637 0-2.736-1.06-2.787-2.953h6.98v-.677c0-3.548-2.122-4.935-4.347-4.935-2.735 0-4.538 2.084-4.538 5.1 0 3.05 1.777 5.043 4.673 5.043zm-2.762-5.964c.077-1.393 1.087-2.6 2.64-2.6 1.483 0 2.455 1.1 2.46 2.6h-5.1zm13.678-4.052h-2.014v-2.352h-1.91v2.352h-1.438v1.534h1.438v5.797c-.006 1.784 1.355 2.647 2.864 2.615.607-.007 1.016-.122 1.24-.205l-.346-1.58c-.127.026-.364.084-.67.084-.62 0-1.176-.205-1.176-1.31v-5.4h2.014v-1.534zm2.114 9.818h1.91v-9.818h-1.91V453zm.965-11.333c.658 0 1.208-.51 1.208-1.138s-.55-1.144-1.208-1.144c-.665 0-1.208.518-1.208 1.144s.543 1.138 1.208 1.138zm5.428 5.503c0-1.566.96-2.46 2.29-2.46 1.297 0 2.084.85 2.084 2.275V453h1.91v-6.245c0-2.43-1.336-3.7-3.343-3.7-1.477 0-2.442.684-2.896 1.726h-.12v-1.598h-1.835V453h1.91v-5.83zm12.964 9.697c2.5 0 4.43-1.144 4.43-3.65v-10.035h-1.873v1.59h-.14c-.34-.607-1.017-1.72-2.845-1.72-2.37 0-4.116 1.873-4.116 5 0 3.132 1.783 4.8 4.104 4.8 1.802 0 2.5-1.016 2.844-1.643h.12v1.93c0 1.515-1.054 2.186-2.505 2.186-1.592 0-2.212-.8-2.55-1.343l-1.642.678c.517 1.182 1.828 2.205 4.174 2.205zm-.02-5.6c-1.706 0-2.595-1.31-2.595-3.24 0-1.886.87-3.35 2.595-3.35 1.67 0 2.564 1.36 2.564 3.35 0 2.026-.914 3.24-2.564 3.24z" fill="#000"/><path d="M113.233 476h6.224v-1.094h-4.99v-3.46h4.594v-1.094h-4.594v-3.44h4.912v-1.094h-6.145V476zm8.208 0h1.173v-4.832c0-1.034.816-1.8 1.93-1.8a3.66 3.66 0 0 1 .716.079v-1.193l-.616-.02c-.915 0-1.7.517-1.99 1.273h-.08v-1.153h-1.134V476zm5.21 0h1.173v-7.636h-1.173V476zm.597-8.91c.457 0 .835-.358.835-.796s-.378-.795-.835-.795-.836.358-.836.795.378.796.836.796zm5.828 9.068c1.7 0 2.804-1.034 3.002-2.386h-1.173c-.22.835-.915 1.332-1.83 1.332-1.392 0-2.287-1.153-2.287-2.923 0-1.73.914-2.864 2.287-2.864 1.034 0 1.65.637 1.83 1.333h1.173c-.198-1.432-1.412-2.387-3.022-2.387-2.068 0-3.44 1.63-3.44 3.958 0 2.287 1.313 3.937 3.46 3.937zm8.814-.16h1.233v-3.72h2.227c2.372 0 3.44-1.442 3.44-3.24s-1.07-3.222-3.46-3.222h-3.44V476zm1.233-4.812v-4.276h2.168c1.655 0 2.287.905 2.287 2.128s-.632 2.148-2.267 2.148h-2.188zm10.515 4.97c2.068 0 3.46-1.57 3.46-3.937 0-2.387-1.392-3.958-3.46-3.958s-3.46 1.57-3.46 3.958c0 2.366 1.392 3.937 3.46 3.937zm0-1.054c-1.57 0-2.287-1.352-2.287-2.883s.716-2.904 2.287-2.904 2.287 1.372 2.287 2.904-.716 2.883-2.287 2.883zm6.722.895h1.153l1.67-5.866h.12l1.67 5.866h1.154l2.326-7.636h-1.233l-1.65 5.826h-.08l-1.6-5.826h-1.253l-1.63 5.846h-.08l-1.65-5.846h-1.233L160.36 476zm12.586.16c1.552 0 2.685-.775 3.043-1.93l-1.133-.318c-.3.795-1 1.193-1.9 1.193-1.377 0-2.326-.9-2.38-2.525h5.543v-.498c0-2.843-1.7-3.818-3.28-3.818-2.068 0-3.44 1.63-3.44 3.977s1.352 3.918 3.56 3.918zm-2.38-4.594c.08-1.188.92-2.247 2.262-2.247 1.273 0 2.088.955 2.088 2.247h-4.35zm8.502-5.747h-1.174V476h1.174v-10.182zm3.322 0h-1.174V476h1.174v-10.182zm9.07 8.392h1.114v-2.724h2.724v-1.114h-2.724v-2.724h-1.114v2.724h-2.724v1.114h2.724v2.724zm13.743-8.392h-1.233l-2.545 1.69v1.252l2.485-1.65h.06V476h1.233v-10.182zm15.616 6.622a.9.9 0 0 0 .895-.895c0-.492-.403-.894-.895-.894s-.895.402-.895.894a.9.9 0 0 0 .895.895zm21.972-6.78c-2.07-.02-3.4 1.53-3.4 3.42 0 1.968 1.452 3.38 3.202 3.38a2.96 2.96 0 0 0 2.505-1.352h.08c0 2.506-.974 3.937-2.545 3.937-1.074 0-1.73-.676-1.95-1.6h-1.213c.238 1.6 1.45 2.704 3.162 2.704 2.286 0 3.698-2.028 3.698-5.648 0-3.758-1.87-4.812-3.54-4.832zm0 1.094c1.272 0 2.207 1.094 2.207 2.307s-.994 2.306-2.247 2.306-2.168-1.014-2.168-2.286c0-1.293.955-2.327 2.208-2.327zm8.875 9.386c2.058.025 3.4-1.526 3.4-3.42 0-1.97-1.457-3.38-3.202-3.38a2.96 2.96 0 0 0-2.506 1.352h-.08c.005-2.5.97-3.937 2.545-3.937 1.074 0 1.72.676 1.95 1.61h1.213c-.248-1.6-1.452-2.705-3.162-2.705-2.292 0-3.7 2.03-3.7 5.648 0 3.763 1.87 4.812 3.54 4.832zm0-1.094c-1.278 0-2.212-1.088-2.207-2.306s.984-2.307 2.247-2.307c1.248 0 2.168 1.024 2.168 2.287 0 1.292-.96 2.326-2.208 2.326zm15.558-6.68h-1.273l-2.108 6.085h-.08l-2.108-6.085h-1.272l2.823 7.636h1.194l2.824-7.636zM268.77 476h1.173v-7.636h-1.173V476zm.597-8.91c.457 0 .835-.358.835-.796s-.378-.795-.835-.795-.835.358-.835.795.377.796.835.796zm5.927 9.068c1.55 0 2.685-.775 3.043-1.93l-1.134-.318c-.298.795-.99 1.193-1.91 1.193-1.377 0-2.327-.9-2.38-2.525h5.543v-.498c0-2.843-1.7-3.818-3.28-3.818-2.068 0-3.44 1.63-3.44 3.977s1.353 3.918 3.56 3.918zm-2.38-4.594c.08-1.188.92-2.247 2.262-2.247 1.273 0 2.088.955 2.088 2.247h-4.35zM281.97 476h1.153l1.67-5.866h.12l1.67 5.866h1.153l2.327-7.636h-1.233l-1.65 5.826h-.08l-1.61-5.826h-1.253l-1.63 5.846h-.08l-1.65-5.846h-1.233L281.97 476zm15.054-5.926c-.368-1.084-1.193-1.8-2.705-1.8-1.6 0-2.804.915-2.804 2.208 0 1.054.627 1.76 2.03 2.088l1.273.298c.77.18 1.133.547 1.133 1.074 0 .656-.696 1.193-1.8 1.193-.96 0-1.56-.413-1.77-1.233l-1.113.278c.273 1.298 1.342 1.99 2.903 1.99 1.775 0 2.983-.97 2.983-2.287 0-1.064-.666-1.735-2.028-2.068l-1.134-.278c-.905-.224-1.312-.527-1.312-1.114 0-.656.696-1.134 1.63-1.134 1.025 0 1.447.567 1.65 1.094l1.054-.298zm14.573 2.366a.9.9 0 0 0 .895-.895c0-.492-.403-.894-.895-.894s-.895.402-.895.894a.9.9 0 0 0 .895.895zm18.87-6.622v7.28c0 1.267-.607 1.948-1.67 1.948-.97 0-1.67-.566-1.67-1.43h-1.213c0 1.566 1.213 2.525 2.883 2.525 1.77 0 2.904-1.09 2.904-3.042v-7.28h-1.233zm8.357 7.06c0 1.432-1.094 2.088-1.97 2.088-.974 0-1.67-.716-1.67-1.83v-4.772h-1.174v4.852c0 1.95 1.034 2.883 2.466 2.883 1.154 0 1.91-.616 2.267-1.392h.08V476h1.173v-7.636h-1.173v4.514zm4.495-1.472c0-1.332.826-2.088 1.95-2.088 1.09 0 1.75.71 1.75 1.91V476h1.174v-4.852c0-1.95-1.04-2.884-2.586-2.884-1.153 0-1.87.517-2.227 1.293h-.1v-1.193h-1.134V476h1.173v-4.594zm14.176-5.747c-2.07-.02-3.4 1.53-3.4 3.42 0 1.968 1.452 3.38 3.202 3.38a2.96 2.96 0 0 0 2.505-1.352h.08c0 2.506-.974 3.937-2.545 3.937-1.074 0-1.73-.676-1.95-1.6h-1.213c.238 1.6 1.45 2.704 3.162 2.704 2.287 0 3.698-2.028 3.698-5.648 0-3.758-1.87-4.812-3.54-4.832zm0 1.094c1.272 0 2.207 1.094 2.207 2.307s-.994 2.306-2.247 2.306-2.168-1.014-2.168-2.286c0-1.293.955-2.327 2.208-2.327zm7.264 7.855h-1.272l-.06.557c-.144 1.347-.428 2.69-.557 3.32h.895c.24-.676.746-2.208.915-3.34l.08-.537zM370.85 476h6.423v-1.094h-4.733v-.08l2.287-2.446c1.75-1.875 2.267-2.75 2.267-3.878 0-1.57-1.273-2.824-3.062-2.824s-3.142 1.213-3.142 3.003h1.173c0-1.16.75-1.93 1.93-1.93 1.104 0 1.95.676 1.95 1.75 0 .94-.552 1.635-1.73 2.923l-3.36 3.68V476zm11.797.14c2.248 0 3.54-1.904 3.54-5.23 0-3.3-1.312-5.23-3.54-5.23s-3.54 1.93-3.54 5.23c0 3.326 1.292 5.23 3.54 5.23zm0-1.094c-1.48 0-2.346-1.486-2.346-4.136 0-2.645.875-4.156 2.346-4.156s2.347 1.51 2.347 4.156c0 2.65-.865 4.136-2.347 4.136zm9.01-9.227h-1.233l-2.545 1.69v1.252l2.485-1.65h.06V476h1.233v-10.182zm6.17-.16c-2.068-.02-3.4 1.53-3.4 3.42 0 1.968 1.452 3.38 3.202 3.38 1.054 0 1.95-.517 2.506-1.352h.08c0 2.506-.974 3.937-2.545 3.937-1.074 0-1.73-.676-1.95-1.6h-1.213c.238 1.6 1.45 2.704 3.162 2.704 2.287 0 3.698-2.028 3.698-5.648 0-3.758-1.87-4.812-3.54-4.832zm0 1.094c1.272 0 2.207 1.094 2.207 2.307s-.994 2.306-2.247 2.306-2.168-1.014-2.168-2.286c0-1.293.955-2.327 2.208-2.327zm18.182 5.687a.9.9 0 0 0 .895-.895c0-.492-.403-.894-.895-.894s-.895.402-.895.894a.9.9 0 0 0 .895.895zm18.015 3.72c1.55 0 2.684-.775 3.042-1.93l-1.133-.318c-.3.795-1 1.193-1.91 1.193-1.378 0-2.327-.9-2.382-2.525h5.544v-.498c0-2.843-1.69-3.818-3.282-3.818-2.068 0-3.44 1.63-3.44 3.977s1.352 3.918 3.56 3.918zm-2.382-4.594c.08-1.188.92-2.247 2.262-2.247 1.273 0 2.088.955 2.088 2.247h-4.35zm10.212 4.594c1.47 0 1.97-.915 2.227-1.332h.14V476h1.134v-10.182h-1.173v3.76h-.1c-.258-.398-.716-1.313-2.207-1.313-1.93 0-3.262 1.53-3.262 3.938 0 2.426 1.333 3.957 3.242 3.957zm.16-1.054c-1.472 0-2.227-1.293-2.227-2.923 0-1.61.735-2.864 2.227-2.864 1.432 0 2.187 1.154 2.187 2.864 0 1.73-.775 2.923-2.187 2.923zm5.653.895h1.173v-7.636h-1.173V476zm.596-8.91c.458 0 .835-.358.835-.796s-.377-.795-.835-.795-.835.358-.835.795.378.796.835.796zm6.047 1.273h-1.63v-1.83h-1.173v1.83h-1.153v.994h1.153v4.773c0 1.332 1.074 1.968 2.068 1.968.438 0 .716-.08.875-.14l-.238-1.054c-.1.02-.26.06-.518.06-.517 0-1.014-.16-1.014-1.154v-4.454h1.63v-.994zm4.885 7.795c1.55 0 2.684-.775 3.042-1.93l-1.133-.318c-.3.795-1 1.193-1.91 1.193-1.378 0-2.327-.9-2.382-2.525h5.543v-.498c0-2.843-1.7-3.818-3.28-3.818-2.068 0-3.44 1.63-3.44 3.977s1.352 3.918 3.56 3.918zm-2.382-4.594c.08-1.188.92-2.247 2.262-2.247 1.273 0 2.088.955 2.088 2.247h-4.35zm10.212 4.594c1.47 0 1.97-.915 2.227-1.332h.14V476h1.134v-10.182h-1.174v3.76h-.1c-.258-.398-.716-1.313-2.207-1.313-1.93 0-3.262 1.53-3.262 3.938 0 2.426 1.333 3.957 3.242 3.957zm.16-1.054c-1.472 0-2.227-1.293-2.227-2.923 0-1.61.735-2.864 2.227-2.864 1.432 0 2.187 1.154 2.187 2.864 0 1.73-.775 2.923-2.187 2.923zm13.01 1.034c1.973 0 3.44-1.238 3.44-2.903 0-1.293-.766-2.232-2.048-2.446v-.08c1.03-.313 1.67-1.158 1.67-2.307 0-1.44-1.138-2.724-3.023-2.724-1.76 0-3.22 1.084-3.28 2.685h1.193c.045-1.015 1.01-1.61 2.068-1.61 1.124 0 1.85.68 1.85 1.7 0 1.074-.84 1.77-2.048 1.77h-.816v1.094h.816c1.546 0 2.406.785 2.406 1.91 0 1.08-.94 1.81-2.247 1.81-1.18 0-2.113-.606-2.188-1.6h-1.253c.075 1.6 1.487 2.684 3.46 2.684zm8.655 0c1.94 0 3.36-1.432 3.36-3.38 0-1.974-1.372-3.42-3.242-3.42-.686 0-1.352.244-1.77.577h-.06l.358-3.003h4.255v-1.094h-5.29l-.617 5.012 1.154.14c.422-.304 1.143-.522 1.77-.517 1.297.01 2.247.994 2.247 2.326 0 1.308-.915 2.267-2.168 2.267-1.044 0-1.874-.67-1.97-1.6h-1.193c.075 1.55 1.412 2.684 3.162 2.684zm9.293-.14h1.174v-4.773c0-1.118.815-1.91 1.73-1.91.9 0 1.51.582 1.51 1.452V476h1.193v-4.972c0-.984.617-1.7 1.69-1.7.835 0 1.55.443 1.55 1.57V476h1.173v-5.11c0-1.795-.965-2.625-2.327-2.625-1.094 0-1.894.502-2.287 1.293h-.08c-.378-.816-1.044-1.293-2.05-1.293-.994 0-1.73.477-2.048 1.293h-.1v-1.193h-1.134V476zm12.168 0h1.173v-7.636H510.3V476zm.597-8.91c.457 0 .835-.358.835-.796s-.378-.795-.835-.795-.835.358-.835.795.377.796.835.796zm3.9 4.315c0-1.332.825-2.088 1.95-2.088 1.088 0 1.75.71 1.75 1.91V476h1.173v-4.852c0-1.95-1.04-2.884-2.585-2.884-1.154 0-1.87.517-2.228 1.293h-.1v-1.193h-1.134V476h1.174v-4.594zm13.2 4.773c1.332 0 2.028-.716 2.267-1.213h.06V476h1.174v-5.03c0-2.426-1.85-2.705-2.824-2.705-1.154 0-2.466.398-3.063 1.8l1.114.398c.258-.557.87-1.154 1.988-1.154 1.08 0 1.61.572 1.61 1.55v.04c0 .567-.576.517-1.968.696-1.417.184-2.964.497-2.964 2.247 0 1.492 1.154 2.347 2.606 2.347zm.18-1.054c-.935 0-1.61-.418-1.61-1.233 0-.895.815-1.173 1.73-1.293.497-.06 1.83-.198 2.028-.437v1.074c0 .954-.755 1.89-2.147 1.89zm8.544 3.898c1.83 0 3.302-.835 3.302-2.804v-7.855h-1.134v1.213h-.12c-.26-.398-.736-1.313-2.228-1.313-1.928 0-3.26 1.53-3.26 3.878 0 2.386 1.392 3.74 3.242 3.74 1.49 0 1.968-.875 2.227-1.293h.1v1.55c0 1.273-.895 1.85-2.128 1.85-1.387 0-1.874-.73-2.187-1.154l-.935.656c.478.8 1.417 1.532 3.122 1.532zm-.04-4.196c-1.472 0-2.228-1.114-2.228-2.705 0-1.55.736-2.804 2.228-2.804 1.432 0 2.187 1.154 2.187 2.804 0 1.7-.775 2.705-2.187 2.705zm8.59 1.332c2.068 0 3.46-1.57 3.46-3.937 0-2.387-1.392-3.958-3.46-3.958s-3.46 1.57-3.46 3.958c0 2.366 1.392 3.937 3.46 3.937zm0-1.054c-1.57 0-2.287-1.352-2.287-2.883s.716-2.904 2.287-2.904 2.287 1.372 2.287 2.904-.716 2.883-2.287 2.883z" class="B"/><g class="D"><circle cx="72" cy="458" r="24" class="C"/><path d="M67.096 462.443h6.207V465h1.886v-2.557h1.732v-1.675h-1.732v-8.86h-2.435l-5.657 8.936v1.598zm6.22-1.675h-4.148v-.102l4.046-6.405h.102v6.507z"/></g><path d="M120.578 347.348h1.905c-.058-2.097-1.91-3.618-4.57-3.618-2.627 0-4.64 1.502-4.64 3.76 0 1.82 1.304 2.89 3.407 3.458l1.547.422c1.4.37 2.48.83 2.48 1.994 0 1.278-1.22 2.122-2.902 2.122-1.52 0-2.787-.677-2.902-2.103h-1.982c.128 2.372 1.963 3.835 4.897 3.835 3.074 0 4.845-1.617 4.845-3.835 0-2.36-2.103-3.273-3.765-3.682l-1.278-.332c-1.023-.262-2.385-.742-2.378-1.994 0-1.113 1.016-1.937 2.627-1.937 1.502 0 2.57.703 2.7 1.91zm8.522 9.85c2.142 0 3.657-1.055 4.09-2.653l-1.81-.326c-.345.927-1.176 1.4-2.263 1.4-1.636 0-2.735-1.06-2.786-2.953h6.98v-.677c0-3.548-2.122-4.935-4.347-4.935-2.736 0-4.538 2.084-4.538 5.1 0 3.05 1.777 5.043 4.672 5.043zm-2.76-5.964c.077-1.393 1.087-2.6 2.64-2.6 1.483 0 2.454 1.1 2.46 2.6h-5.1zm13.677-4.052h-2.013v-2.352h-1.91v2.352h-1.44v1.534h1.44v5.797c-.007 1.784 1.355 2.647 2.863 2.615.607-.007 1.017-.122 1.24-.205l-.345-1.58c-.128.026-.364.084-.67.084-.62 0-1.176-.205-1.176-1.31v-5.4h2.013v-1.534zm6.698 0H144.7v-2.352h-1.91v2.352h-1.438v1.534h1.438v5.797c-.007 1.784 1.355 2.647 2.864 2.615.607-.007 1.016-.122 1.24-.205l-.346-1.58c-.127.026-.364.084-.67.084-.62 0-1.176-.205-1.176-1.31v-5.4h2.014v-1.534zm2.114 9.818h1.91v-9.818h-1.91V357zm.965-11.333c.658 0 1.208-.51 1.208-1.138s-.55-1.144-1.208-1.144c-.665 0-1.208.518-1.208 1.144s.543 1.138 1.208 1.138zm5.428 5.503c0-1.566.96-2.46 2.29-2.46 1.297 0 2.084.85 2.084 2.275V357h1.91v-6.245c0-2.43-1.336-3.7-3.343-3.7-1.477 0-2.442.684-2.896 1.726h-.12v-1.598H153.3V357h1.91v-5.83zm12.963 9.697c2.5 0 4.43-1.144 4.43-3.65v-10.035h-1.873v1.59h-.14c-.34-.607-1.017-1.72-2.845-1.72-2.37 0-4.116 1.873-4.116 5 0 3.132 1.783 4.8 4.103 4.8 1.803 0 2.5-1.016 2.845-1.643h.12v1.93c0 1.515-1.054 2.186-2.505 2.186-1.592 0-2.212-.8-2.55-1.343l-1.643.678c.518 1.182 1.83 2.205 4.174 2.205zm-.02-5.6c-1.706 0-2.595-1.31-2.595-3.24 0-1.886.87-3.35 2.595-3.35 1.67 0 2.564 1.36 2.564 3.35 0 2.026-.915 3.24-2.564 3.24zm17.996-2.34c.006 1.67-1.234 2.46-2.308 2.46-1.183 0-2-.856-2-2.192v-6.015h-1.91v6.245c0 2.435 1.336 3.7 3.222 3.7 1.476 0 2.48-.78 2.934-1.828h.102v1.7h1.88v-9.818h-1.917v5.746zm4.485 7.754h1.91v-5.2h.115c.346.627 1.05 1.72 2.838 1.72 2.378 0 4.104-1.905 4.104-5.082 0-3.183-1.75-5.056-4.123-5.056-1.82 0-2.48 1.112-2.82 1.72h-.16v-1.59h-1.867v13.5zm1.873-8.59c0-2.052.895-3.413 2.563-3.413 1.732 0 2.602 1.463 2.602 3.413 0 1.97-.895 3.47-2.602 3.47-1.643 0-2.563-1.406-2.563-3.47zm13.144-8.182l4.75 7.952V357h1.97v-5.14l4.75-7.952h-2.244l-3.42 5.95h-.14l-3.42-5.95h-2.243zm15.714 13.29c2.768 0 4.577-2.026 4.577-5.062 0-3.056-1.81-5.082-4.577-5.082s-4.576 2.026-4.576 5.082c0 3.036 1.81 5.062 4.576 5.062zm.007-1.604c-1.81 0-2.653-1.58-2.653-3.465 0-1.88.844-3.477 2.653-3.477 1.796 0 2.64 1.598 2.64 3.477 0 1.886-.844 3.465-2.64 3.465zm12.923-2.666c.006 1.67-1.234 2.46-2.308 2.46-1.182 0-2-.856-2-2.192v-6.015h-1.91v6.245c0 2.435 1.335 3.7 3.22 3.7 1.477 0 2.48-.78 2.934-1.828h.102v1.7h1.88v-9.818h-1.918v5.746zm4.486 4.072h1.91v-5.996c0-1.285.99-2.21 2.346-2.21.396 0 .843.07.997.115v-1.828a7.65 7.65 0 0 0-.812-.045c-1.15 0-2.135.652-2.493 1.706h-.102v-1.56h-1.847V357zm11.825 0h8.284v-1.7h-6.31v-4.008h5.804v-1.694h-5.804v-3.99h6.232v-1.7h-8.207V357zm10.692 0h1.91v-6.053c0-1.323.927-2.244 2.014-2.244 1.06 0 1.796.703 1.796 1.77V357h1.905v-6.258c0-1.182.722-2.04 1.97-2.04 1 0 1.84.563 1.84 1.892V357h1.91v-6.584c0-2.243-1.253-3.362-3.03-3.362-1.413 0-2.474.678-2.947 1.726h-.102c-.428-1.074-1.33-1.726-2.64-1.726-1.298 0-2.263.646-2.672 1.726h-.12v-1.598H261.3V357zm18.766.217c1.623 0 2.537-.824 2.902-1.56h.076V357h1.867v-6.52c0-2.857-2.25-3.426-3.8-3.426-1.777 0-3.413.716-4.052 2.506l1.796.41c.28-.697.997-1.368 2.282-1.368 1.233 0 1.866.645 1.866 1.758v.044c0 .697-.716.684-2.48.89-1.86.217-3.765.703-3.765 2.934 0 1.93 1.45 2.99 3.318 2.99zm.415-1.534c-1.08 0-1.86-.486-1.86-1.432 0-1.022.908-1.387 2.014-1.534.62-.083 2.1-.25 2.365-.524v1.266c0 1.163-.927 2.224-2.52 2.224zm6.975 1.317h1.912v-9.818h-1.912V357zm.966-11.333c.658 0 1.208-.51 1.208-1.138s-.55-1.144-1.208-1.144c-.665 0-1.208.518-1.208 1.144s.543 1.138 1.208 1.138zm5.428-1.758h-1.91V357h1.91v-13.09zm8.594 13.09l1.202-3.464h5.114l1.195 3.464h2.096l-4.71-13.09h-2.28l-4.71 13.09h2.096zm1.777-5.126l1.93-5.587h.102l1.93 5.587h-3.963zm13.545 5.324c2.32 0 3.822-1.393 4.033-3.305h-1.86c-.243 1.062-1.067 1.688-2.16 1.688-1.617 0-2.66-1.35-2.66-3.5 0-2.103 1.06-3.426 2.66-3.426 1.214 0 1.956.767 2.16 1.687h1.86c-.204-1.98-1.82-3.298-4.052-3.298-2.768 0-4.558 2.084-4.558 5.082 0 2.96 1.726 5.062 4.577 5.062zm10.213 0c2.32 0 3.822-1.393 4.033-3.305h-1.86c-.243 1.062-1.067 1.688-2.16 1.688-1.618 0-2.66-1.35-2.66-3.5 0-2.103 1.06-3.426 2.66-3.426 1.214 0 1.956.767 2.16 1.687h1.86c-.204-1.98-1.822-3.298-4.052-3.298-2.768 0-4.558 2.084-4.558 5.082 0 2.96 1.726 5.062 4.577 5.062zm10.213 0c2.767 0 4.576-2.026 4.576-5.062 0-3.056-1.81-5.082-4.576-5.082s-4.577 2.026-4.577 5.082c0 3.036 1.81 5.062 4.577 5.062zm.006-1.604c-1.81 0-2.653-1.58-2.653-3.465 0-1.88.844-3.477 2.653-3.477 1.796 0 2.64 1.598 2.64 3.477 0 1.886-.844 3.465-2.64 3.465zm12.923-2.666c.007 1.67-1.233 2.46-2.307 2.46-1.183 0-2-.856-2-2.192v-6.015h-1.91v6.245c0 2.435 1.336 3.7 3.22 3.7 1.477 0 2.48-.78 2.934-1.828h.103v1.7h1.88v-9.818h-1.918v5.746zm6.397-1.758c0-1.566.96-2.46 2.288-2.46 1.298 0 2.084.85 2.084 2.275V357h1.91v-6.245c0-2.43-1.336-3.7-3.343-3.7-1.476 0-2.44.684-2.895 1.726h-.122v-1.598h-1.834V357h1.91v-5.83zm13.43-3.988h-2.014v-2.352h-1.91v2.352h-1.438v1.534h1.438v5.797c-.006 1.784 1.355 2.647 2.864 2.615.607-.007 1.016-.122 1.24-.205l-.345-1.58c-.128.026-.365.084-.672.084-.62 0-1.176-.205-1.176-1.31v-5.4h2.014v-1.534z" fill="#000"/><path d="M113.65 380l1.024-2.884h4.116l1.024 2.884h1.293l-3.74-10.182h-1.272L112.358 380h1.293zm1.41-3.977l1.63-4.594h.08l1.63 4.594h-3.34zm7.473 3.977h1.173v-4.773c0-1.118.815-1.91 1.73-1.91.9 0 1.512.582 1.512 1.452V380h1.193v-4.972c0-.984.616-1.7 1.7-1.7.835 0 1.55.443 1.55 1.57V380h1.174v-5.11c0-1.795-.965-2.625-2.327-2.625-1.094 0-1.894.502-2.287 1.293h-.08c-.377-.816-1.044-1.293-2.048-1.293-.994 0-1.73.477-2.048 1.293h-.1v-1.193h-1.133V380zm12.65 2.844c1.06 0 1.8-.562 2.247-1.73l3.252-8.73-1.283-.02-2.108 6.085h-.08l-2.108-6.085h-1.272l2.824 7.676-.22.596c-.418 1.144-.955 1.253-1.8 1.034l-.298 1.035c.12.06.457.14.855.14zM146.333 380h1.233v-3.72h2.227c2.37 0 3.44-1.442 3.44-3.24s-1.07-3.222-3.46-3.222h-3.44V380zm1.233-4.812v-4.276h2.167c1.656 0 2.287.905 2.287 2.128s-.63 2.148-2.267 2.148h-2.187zm9.74 4.99c1.333 0 2.03-.716 2.267-1.213h.06V380h1.173v-5.03c0-2.426-1.85-2.705-2.824-2.705-1.153 0-2.465.398-3.062 1.8l1.114.398c.258-.557.87-1.154 1.988-1.154 1.08 0 1.61.572 1.61 1.55v.04c0 .567-.577.517-1.97.696-1.417.184-2.963.497-2.963 2.247 0 1.492 1.154 2.347 2.605 2.347zm.18-1.054c-.934 0-1.6-.418-1.6-1.233 0-.895.815-1.173 1.73-1.293.497-.06 1.83-.198 2.028-.437v1.074c0 .954-.756 1.89-2.148 1.89zm8.784-6.76h-1.63v-1.83h-1.173v1.83h-1.154v.994h1.154v4.773c0 1.332 1.074 1.968 2.068 1.968.438 0 .716-.08.875-.14l-.24-1.054c-.1.02-.258.06-.517.06-.517 0-1.014-.16-1.014-1.154v-4.454h1.63v-.994zm5.086 0h-1.63v-1.83h-1.173v1.83h-1.154v.994h1.154v4.773c0 1.332 1.074 1.968 2.068 1.968.438 0 .716-.08.875-.14l-.24-1.054c-.1.02-.258.06-.517.06-.517 0-1.014-.16-1.014-1.154v-4.454h1.63v-.994zm4.884 7.795c1.552 0 2.685-.775 3.043-1.93l-1.133-.318c-.3.795-1 1.193-1.9 1.193-1.377 0-2.326-.9-2.38-2.525h5.543v-.498c0-2.843-1.7-3.818-3.28-3.818-2.068 0-3.44 1.63-3.44 3.977s1.352 3.918 3.56 3.918zm-2.38-4.594c.08-1.188.92-2.247 2.262-2.247 1.273 0 2.088.955 2.088 2.247h-4.35zm7.328 4.435h1.173v-4.832c0-1.034.816-1.8 1.93-1.8a3.66 3.66 0 0 1 .716.079v-1.193l-.616-.02c-.915 0-1.7.517-1.99 1.273h-.08v-1.153h-1.134V380zm10.618-5.926c-.368-1.084-1.193-1.8-2.704-1.8-1.61 0-2.804.915-2.804 2.208 0 1.054.626 1.76 2.028 2.088l1.273.298c.77.18 1.133.547 1.133 1.074 0 .656-.696 1.193-1.79 1.193-.96 0-1.56-.413-1.77-1.233l-1.114.278c.273 1.298 1.342 1.99 2.903 1.99 1.775 0 2.983-.97 2.983-2.287 0-1.064-.666-1.735-2.028-2.068l-1.134-.278c-.904-.224-1.312-.527-1.312-1.114 0-.656.696-1.134 1.63-1.134 1.024 0 1.446.567 1.65 1.094l1.054-.298zm5.008 6.085c2.068 0 3.46-1.57 3.46-3.937 0-2.387-1.392-3.958-3.46-3.958s-3.46 1.57-3.46 3.958c0 2.366 1.392 3.937 3.46 3.937zm0-1.054c-1.57 0-2.287-1.352-2.287-2.883s.716-2.904 2.287-2.904 2.287 1.372 2.287 2.904-.716 2.883-2.287 2.883zm6.424-3.7c0-1.332.826-2.088 1.95-2.088 1.09 0 1.75.71 1.75 1.91V380h1.174v-4.852c0-1.95-1.04-2.884-2.586-2.884-1.153 0-1.87.517-2.227 1.293h-.1v-1.193h-1.134V380h1.173v-4.594zm19.684 1.034a.9.9 0 0 0 .895-.895c0-.492-.403-.894-.895-.894s-.895.402-.895.894a.9.9 0 0 0 .895.895zm22.3-6.622h-1.233l-2.545 1.69v1.252l2.486-1.65h.06V380h1.233v-10.182zM248.16 380h6.424v-1.094h-4.733v-.08l2.287-2.446c1.75-1.875 2.267-2.75 2.267-3.878 0-1.57-1.273-2.824-3.063-2.824s-3.142 1.213-3.142 3.003h1.174c0-1.16.75-1.93 1.928-1.93 1.104 0 1.95.676 1.95 1.75 0 .94-.55 1.635-1.73 2.923l-3.36 3.68V380zm12.057-10.182h-1.233l-2.546 1.69v1.252l2.486-1.65h.06V380h1.233v-10.182zm13.13 2.546h-1.273l-2.108 6.085h-.08l-2.108-6.085h-1.272l2.823 7.636h1.194l2.824-7.636zm1.548 7.636h1.173v-7.636h-1.173V380zm.597-8.91c.457 0 .835-.358.835-.796s-.378-.795-.835-.795-.835.358-.835.795.377.796.835.796zm5.927 9.068c1.55 0 2.685-.775 3.043-1.93l-1.134-.318c-.298.795-.99 1.193-1.91 1.193-1.377 0-2.327-.9-2.38-2.525h5.543v-.498c0-2.843-1.7-3.818-3.28-3.818-2.068 0-3.44 1.63-3.44 3.977s1.353 3.918 3.56 3.918zm-2.38-4.594c.08-1.188.92-2.247 2.262-2.247 1.273 0 2.088.955 2.088 2.247h-4.35zm9.058 4.435h1.153l1.67-5.866h.12l1.67 5.866h1.153l2.327-7.636h-1.233l-1.65 5.826h-.08l-1.61-5.826h-1.253l-1.63 5.846h-.08l-1.65-5.846h-1.233l2.327 7.636zm15.054-5.926c-.368-1.084-1.193-1.8-2.705-1.8-1.6 0-2.804.915-2.804 2.208 0 1.054.627 1.76 2.03 2.088l1.273.298c.77.18 1.133.547 1.133 1.074 0 .656-.696 1.193-1.8 1.193-.96 0-1.56-.413-1.77-1.233l-1.113.278c.273 1.298 1.342 1.99 2.903 1.99 1.775 0 2.983-.97 2.983-2.287 0-1.064-.666-1.735-2.028-2.068l-1.134-.278c-.905-.224-1.312-.527-1.312-1.114 0-.656.696-1.134 1.63-1.134 1.025 0 1.447.567 1.65 1.094l1.054-.298zm14.573 2.366a.9.9 0 0 0 .895-.895c0-.492-.403-.894-.895-.894s-.895.402-.895.894a.9.9 0 0 0 .895.895zm15.4 3.56l1.024-2.884h4.116l1.024 2.884h1.293l-3.74-10.182h-1.272L331.82 380h1.293zm1.41-3.977l1.63-4.594h.08l1.63 4.594h-3.34zm12.285.855c0 1.432-1.094 2.088-1.97 2.088-.974 0-1.67-.716-1.67-1.83v-4.772h-1.173v4.852c0 1.95 1.034 2.883 2.466 2.883 1.153 0 1.91-.616 2.267-1.392h.08V380h1.174v-7.636h-1.174v4.514zm6.405 6.145c1.83 0 3.3-.835 3.3-2.804v-7.855h-1.133v1.213h-.12c-.258-.398-.736-1.313-2.227-1.313-1.93 0-3.26 1.53-3.26 3.878 0 2.386 1.392 3.74 3.24 3.74 1.492 0 1.97-.875 2.227-1.293h.1v1.55c0 1.273-.895 1.85-2.128 1.85-1.387 0-1.874-.73-2.188-1.154l-.934.656c.477.8 1.417 1.532 3.122 1.532zm-.04-4.196c-1.47 0-2.227-1.114-2.227-2.705 0-1.55.736-2.804 2.227-2.804 1.432 0 2.188 1.154 2.188 2.804 0 1.7-.776 2.705-2.188 2.705zM362.58 380h6.424v-1.094h-4.733v-.08l2.287-2.446c1.75-1.875 2.267-2.75 2.267-3.878 0-1.57-1.273-2.824-3.063-2.824s-3.142 1.213-3.142 3.003h1.173c0-1.16.75-1.93 1.93-1.93 1.104 0 1.95.676 1.95 1.75 0 .94-.552 1.635-1.73 2.923l-3.36 3.68V380zm12.056-10.182h-1.232l-2.546 1.69v1.252l2.486-1.65h.06V380h1.232v-10.182zm4.7 8.8h-1.273l-.06.557c-.144 1.347-.427 2.69-.557 3.32h.895c.24-.676.746-2.208.915-3.34l.08-.537zm6.09 1.392h6.423v-1.094h-4.733v-.08l2.287-2.446c1.75-1.875 2.267-2.75 2.267-3.878 0-1.57-1.272-2.824-3.062-2.824s-3.142 1.213-3.142 3.003h1.173c0-1.16.75-1.93 1.93-1.93 1.104 0 1.95.676 1.95 1.75 0 .94-.552 1.635-1.73 2.923l-3.36 3.68V380zm11.798.14c2.247 0 3.54-1.904 3.54-5.23 0-3.3-1.312-5.23-3.54-5.23s-3.54 1.93-3.54 5.23c0 3.326 1.292 5.23 3.54 5.23zm0-1.094c-1.482 0-2.347-1.486-2.347-4.136 0-2.645.875-4.156 2.347-4.156s2.346 1.51 2.346 4.156c0 2.65-.865 4.136-2.346 4.136zm9.008-9.227h-1.233l-2.545 1.69v1.252l2.486-1.65h.06V380h1.233v-10.182zm6.2 10.32c2.033 0 3.45-1.188 3.46-2.844-.01-1.287-.87-2.38-1.97-2.585v-.06c.955-.25 1.58-1.184 1.59-2.267-.01-1.552-1.312-2.705-3.082-2.705-1.8 0-3.093 1.153-3.083 2.705-.01 1.083.617 2.018 1.59 2.267v.06c-1.118.204-1.978 1.298-1.968 2.585-.01 1.656 1.407 2.844 3.46 2.844zm0-1.094c-1.397 0-2.257-.715-2.247-1.81-.01-1.15.94-1.97 2.247-1.97 1.287 0 2.237.82 2.247 1.97-.01 1.094-.87 1.81-2.247 1.81zm0-4.832c-1.114 0-1.9-.696-1.89-1.75-.01-1.034.745-1.7 1.89-1.7 1.123 0 1.88.676 1.89 1.7-.01 1.054-.795 1.75-1.89 1.75zm18.053 2.227a.9.9 0 0 0 .895-.895c0-.492-.403-.894-.895-.894s-.895.402-.895.894a.9.9 0 0 0 .895.895zm18.014 3.72c1.552 0 2.685-.775 3.043-1.93l-1.133-.318c-.3.795-1 1.193-1.9 1.193-1.377 0-2.326-.9-2.38-2.525h5.543v-.498c0-2.843-1.7-3.818-3.28-3.818-2.068 0-3.44 1.63-3.44 3.977s1.352 3.918 3.56 3.918zm-2.38-4.594c.08-1.188.92-2.247 2.262-2.247 1.273 0 2.088.955 2.088 2.247h-4.35zm10.212 4.594c1.47 0 1.968-.915 2.227-1.332h.14V380h1.134v-10.182h-1.174v3.76h-.1c-.26-.398-.716-1.313-2.207-1.313-1.93 0-3.262 1.53-3.262 3.938 0 2.426 1.333 3.957 3.242 3.957zm.16-1.054c-1.472 0-2.227-1.293-2.227-2.923 0-1.61.735-2.864 2.227-2.864 1.432 0 2.187 1.154 2.187 2.864 0 1.73-.775 2.923-2.187 2.923zm5.653.895h1.173v-7.636h-1.173V380zm.596-8.91c.457 0 .835-.358.835-.796s-.378-.795-.835-.795-.835.358-.835.795.378.796.835.796zm6.047 1.273h-1.63v-1.83h-1.173v1.83h-1.154v.994h1.154v4.773c0 1.332 1.074 1.968 2.068 1.968.437 0 .716-.08.875-.14l-.24-1.054c-.1.02-.258.06-.517.06-.517 0-1.014-.16-1.014-1.154v-4.454h1.63v-.994zm4.884 7.795c1.552 0 2.685-.775 3.043-1.93l-1.134-.318c-.298.795-.99 1.193-1.91 1.193-1.377 0-2.326-.9-2.38-2.525h5.543v-.498c0-2.843-1.7-3.818-3.28-3.818-2.068 0-3.44 1.63-3.44 3.977s1.352 3.918 3.56 3.918zm-2.38-4.594c.08-1.188.92-2.247 2.262-2.247 1.273 0 2.088.955 2.088 2.247h-4.35zm10.212 4.594c1.47 0 1.968-.915 2.227-1.332h.14V380h1.134v-10.182h-1.174v3.76h-.1c-.26-.398-.716-1.313-2.207-1.313-1.93 0-3.262 1.53-3.262 3.938 0 2.426 1.333 3.957 3.242 3.957zm.16-1.054c-1.472 0-2.228-1.293-2.228-2.923 0-1.61.736-2.864 2.228-2.864 1.432 0 2.187 1.154 2.187 2.864 0 1.73-.775 2.923-2.187 2.923zm9.57.895h6.423v-1.094h-4.733v-.08l2.287-2.446c1.75-1.875 2.267-2.75 2.267-3.878 0-1.57-1.272-2.824-3.062-2.824-1.785 0-3.142 1.213-3.142 3.003h1.173c0-1.16.75-1.93 1.93-1.93 1.104 0 1.95.676 1.95 1.75 0 .94-.552 1.635-1.73 2.923l-3.36 3.68V380zm15.318.16c1.47 0 1.968-.915 2.227-1.332h.14V380h1.134v-10.182h-1.174v3.76h-.1c-.26-.398-.716-1.313-2.208-1.313-1.93 0-3.26 1.53-3.26 3.938 0 2.426 1.332 3.957 3.242 3.957zm.16-1.054c-1.472 0-2.228-1.293-2.228-2.923 0-1.61.736-2.864 2.228-2.864 1.43 0 2.187 1.154 2.187 2.864 0 1.73-.775 2.923-2.187 2.923zm7.9 1.074c1.333 0 2.03-.716 2.268-1.213h.06V380h1.173v-5.03c0-2.426-1.85-2.705-2.823-2.705-1.154 0-2.466.398-3.063 1.8l1.114.398c.258-.557.87-1.154 1.988-1.154 1.08 0 1.61.572 1.61 1.55v.04c0 .567-.577.517-1.97.696-1.416.184-2.963.497-2.963 2.247 0 1.492 1.154 2.347 2.605 2.347zm.18-1.054c-.934 0-1.6-.418-1.6-1.233 0-.895.815-1.173 1.73-1.293.497-.06 1.83-.198 2.028-.437v1.074c0 .954-.756 1.89-2.148 1.89zm5.945 3.72c1.06 0 1.8-.562 2.247-1.73l3.252-8.73-1.283-.02-2.108 6.085h-.08l-2.108-6.085h-1.273l2.824 7.676-.22.596c-.418 1.144-.954 1.253-1.8 1.034l-.298 1.035c.12.06.457.14.855.14zm12.46-8.77c-.368-1.084-1.193-1.8-2.704-1.8-1.61 0-2.804.915-2.804 2.208 0 1.054.626 1.76 2.028 2.088l1.273.298c.77.18 1.133.547 1.133 1.074 0 .656-.696 1.193-1.79 1.193-.96 0-1.56-.413-1.77-1.233l-1.114.278c.274 1.298 1.342 1.99 2.904 1.99 1.774 0 2.982-.97 2.982-2.287 0-1.064-.666-1.735-2.028-2.068l-1.133-.278c-.905-.224-1.313-.527-1.313-1.114 0-.656.696-1.134 1.63-1.134 1.024 0 1.446.567 1.65 1.094l1.054-.298zm8.1 6.105c1.333 0 2.03-.716 2.267-1.213h.06V380h1.173v-5.03c0-2.426-1.85-2.705-2.824-2.705-1.153 0-2.465.398-3.062 1.8l1.114.398c.258-.557.87-1.154 1.988-1.154 1.08 0 1.61.572 1.61 1.55v.04c0 .567-.577.517-1.97.696-1.417.184-2.963.497-2.963 2.247 0 1.492 1.154 2.347 2.605 2.347zm.18-1.054c-.934 0-1.61-.418-1.61-1.233 0-.895.816-1.173 1.73-1.293.497-.06 1.83-.198 2.028-.437v1.074c0 .954-.756 1.89-2.148 1.89zm8.545 3.898c1.83 0 3.3-.835 3.3-2.804v-7.855h-1.133v1.213h-.12c-.258-.398-.735-1.313-2.227-1.313-1.93 0-3.26 1.53-3.26 3.878 0 2.386 1.392 3.74 3.24 3.74 1.492 0 1.97-.875 2.228-1.293h.1v1.55c0 1.273-.895 1.85-2.128 1.85-1.387 0-1.874-.73-2.187-1.154l-.935.656c.477.8 1.417 1.532 3.122 1.532zm-.04-4.196c-1.47 0-2.227-1.114-2.227-2.705 0-1.55.736-2.804 2.227-2.804 1.432 0 2.188 1.154 2.188 2.804 0 1.7-.776 2.705-2.188 2.705zm8.59 1.332c2.07 0 3.46-1.57 3.46-3.937 0-2.387-1.392-3.958-3.46-3.958s-3.46 1.57-3.46 3.958c0 2.366 1.392 3.937 3.46 3.937zm0-1.054c-1.57 0-2.287-1.352-2.287-2.883s.716-2.904 2.287-2.904 2.287 1.372 2.287 2.904-.716 2.883-2.287 2.883z" class="B"/><g class="D"><circle cx="72" cy="362" r="24" class="C"/><path d="M72.016 369.18c2.672 0 4.634-1.598 4.628-3.77.006-1.656-.997-2.845-2.736-3.113v-.103c1.368-.35 2.256-1.425 2.25-2.895.006-1.924-1.572-3.567-4.09-3.567-2.403 0-4.334 1.45-4.398 3.58h1.91c.045-1.202 1.176-1.93 2.46-1.93 1.336 0 2.212.812 2.205 2.02.006 1.266-1 2.097-2.46 2.097H70.68v1.61h1.106c1.815 0 2.864.92 2.864 2.237 0 1.272-1.106 2.135-2.646 2.135-1.42 0-2.525-.73-2.602-1.892h-2.007c.083 2.135 1.975 3.592 4.622 3.592z"/></g><path d="M117.676 261c3.99 0 6.296-2.474 6.296-6.565 0-4.07-2.307-6.526-6.162-6.526h-4.372V261h4.238zm-2.263-1.726v-9.64h2.276c2.864 0 4.34 1.713 4.34 4.8 0 3.1-1.476 4.84-4.462 4.84h-2.154zm15.094 1.924c2.14 0 3.656-1.055 4.1-2.653l-1.808-.326c-.346.927-1.177 1.4-2.263 1.4-1.637 0-2.736-1.06-2.787-2.953h6.98v-.677c0-3.548-2.122-4.935-4.347-4.935-2.735 0-4.538 2.084-4.538 5.1 0 3.05 1.777 5.043 4.673 5.043zm-2.762-5.964c.077-1.393 1.087-2.6 2.64-2.6 1.483 0 2.455 1.1 2.46 2.6h-5.1zm16.452-1.655c-.397-1.528-1.592-2.525-3.714-2.525-2.218 0-3.79 1.17-3.79 2.908 0 1.394.844 2.32 2.685 2.73l1.662.364c.946.21 1.387.633 1.387 1.247 0 .76-.812 1.355-2.064 1.355-1.145 0-1.88-.493-2.1-1.458l-1.847.282c.32 1.738 1.764 2.716 3.97 2.716 2.372 0 4.014-1.26 4.014-3.036 0-1.387-.882-2.244-2.684-2.66l-1.56-.358c-1.08-.256-1.547-.62-1.54-1.285-.007-.754.81-1.29 1.898-1.29 1.19 0 1.74.658 1.962 1.317l1.733-.307zM146.5 261h1.91v-3.484l.953-.952L152.7 261h2.346l-4.244-5.606 3.976-4.212h-2.29l-3.912 4.155h-.166v-7.428h-1.91V261zm22.076-9.652h1.905c-.057-2.097-1.91-3.618-4.57-3.618-2.627 0-4.64 1.502-4.64 3.76 0 1.82 1.304 2.89 3.407 3.458l1.547.422c1.4.37 2.48.83 2.48 1.994 0 1.278-1.22 2.122-2.902 2.122-1.52 0-2.787-.677-2.902-2.103h-1.98c.128 2.372 1.962 3.835 4.896 3.835 3.075 0 4.845-1.617 4.845-3.835 0-2.36-2.103-3.273-3.765-3.682l-1.278-.332c-1.023-.262-2.384-.742-2.378-1.994 0-1.113 1.016-1.937 2.627-1.937 1.502 0 2.57.703 2.7 1.91zm8.523 9.85c2.14 0 3.656-1.055 4.09-2.653l-1.81-.326c-.346.927-1.177 1.4-2.263 1.4-1.637 0-2.736-1.06-2.787-2.953h6.98v-.677c0-3.548-2.122-4.935-4.347-4.935-2.735 0-4.538 2.084-4.538 5.1 0 3.05 1.777 5.043 4.673 5.043zm-2.762-5.964c.077-1.393 1.087-2.6 2.64-2.6 1.483 0 2.455 1.1 2.46 2.6h-5.1zm13.678-4.052h-2.014v-2.352h-1.91v2.352h-1.438v1.534h1.438v5.797c-.006 1.784 1.355 2.647 2.864 2.615.607-.007 1.016-.122 1.24-.205l-.346-1.58c-.127.026-.364.084-.67.084-.62 0-1.176-.205-1.176-1.31v-5.4h2.014v-1.534zm8.333 5.746c.007 1.67-1.233 2.46-2.307 2.46-1.183 0-2-.856-2-2.192v-6.015h-1.91v6.245c0 2.435 1.336 3.7 3.22 3.7 1.477 0 2.48-.78 2.934-1.828h.103v1.7h1.88v-9.818h-1.918v5.746zm4.486 7.754h1.91v-5.2h.115c.345.627 1.048 1.72 2.838 1.72 2.378 0 4.104-1.905 4.104-5.082 0-3.183-1.752-5.056-4.123-5.056-1.822 0-2.48 1.112-2.82 1.72h-.16v-1.59h-1.866v13.5zm1.873-8.59c0-2.052.895-3.413 2.563-3.413 1.732 0 2.602 1.463 2.602 3.413 0 1.97-.895 3.47-2.602 3.47-1.643 0-2.563-1.406-2.563-3.47z" fill="#000"/><path d="M116.375 284c3.102 0 4.852-1.93 4.852-5.11 0-3.162-1.75-5.07-4.713-5.07h-3.28V284h3.142zm-1.91-1.094v-7.994h1.97c2.386 0 3.6 1.51 3.6 3.977 0 2.486-1.213 4.017-3.74 4.017h-1.83zm10.918 1.273c1.332 0 2.028-.716 2.267-1.213h.06V284h1.174v-5.03c0-2.426-1.85-2.705-2.824-2.705-1.154 0-2.466.398-3.063 1.8l1.114.398c.258-.557.87-1.154 1.988-1.154 1.08 0 1.61.572 1.61 1.55v.04c0 .567-.576.517-1.97.696-1.416.184-2.963.497-2.963 2.247 0 1.492 1.154 2.347 2.606 2.347zm.178-1.054c-.934 0-1.6-.418-1.6-1.233 0-.895.815-1.173 1.73-1.293.497-.06 1.83-.198 2.028-.437v1.074c0 .954-.755 1.89-2.148 1.89zm6.636-3.72c0-1.332.826-2.088 1.95-2.088 1.09 0 1.75.71 1.75 1.91V284h1.173v-4.852c0-1.95-1.04-2.884-2.585-2.884-1.153 0-1.87.517-2.227 1.293h-.1v-1.193h-1.134V284h1.173v-4.594zm7.016 4.594h1.174v-7.636h-1.174V284zm.597-8.91c.457 0 .835-.358.835-.796s-.378-.795-.835-.795-.835.358-.835.795.378.796.835.796zm5.927 9.068c1.552 0 2.685-.775 3.043-1.93l-1.133-.318c-.3.795-1 1.193-1.9 1.193-1.377 0-2.326-.9-2.38-2.525h5.543v-.498c0-2.843-1.7-3.818-3.28-3.818-2.068 0-3.44 1.63-3.44 3.977s1.352 3.918 3.56 3.918zm-2.38-4.594c.08-1.188.92-2.247 2.262-2.247 1.273 0 2.088.955 2.088 2.247h-4.35zm8.5-5.747h-1.173V284h1.173v-10.182zm11.814 2.546h1.193c-.054-1.537-1.47-2.685-3.44-2.685-1.95 0-3.48 1.133-3.48 2.844 0 1.372.994 2.187 2.585 2.645l1.253.358c1.074.298 2.028.676 2.028 1.7 0 1.114-1.073 1.85-2.485 1.85-1.213 0-2.287-.537-2.387-1.7h-1.272c.12 1.67 1.47 2.804 3.66 2.804 2.346 0 3.68-1.293 3.68-2.943 0-1.91-1.8-2.526-2.864-2.804l-1.034-.28c-.756-.198-1.97-.596-1.97-1.7 0-.974.895-1.7 2.247-1.7 1.233 0 2.168.586 2.287 1.59zm6.303 7.795c1.7 0 2.804-1.034 3.003-2.386h-1.173c-.22.835-.915 1.332-1.83 1.332-1.392 0-2.287-1.153-2.287-2.923 0-1.73.915-2.864 2.287-2.864 1.034 0 1.65.637 1.83 1.333h1.173c-.2-1.432-1.412-2.387-3.023-2.387-2.068 0-3.44 1.63-3.44 3.958 0 2.287 1.312 3.937 3.46 3.937zm5.89-4.753c0-1.332.85-2.088 2.01-2.088 1.104 0 1.77.696 1.77 1.91V284h1.173v-4.852c0-1.964-1.044-2.884-2.605-2.884-1.203 0-1.89.502-2.247 1.293h-.1v-3.74h-1.173V284h1.173v-4.594zm7.098 4.594h1.174v-4.832c0-1.034.815-1.8 1.93-1.8a3.68 3.68 0 0 1 .716.079v-1.193l-.617-.02c-.915 0-1.7.517-1.988 1.273h-.08v-1.153h-1.134V284zm7.457.18c1.332 0 2.028-.716 2.267-1.213h.06V284h1.174v-5.03c0-2.426-1.85-2.705-2.824-2.705-1.154 0-2.466.398-3.063 1.8l1.114.398c.258-.557.87-1.154 1.99-1.154 1.078 0 1.6.572 1.6 1.55v.04c0 .567-.576.517-1.968.696-1.417.184-2.963.497-2.963 2.247 0 1.492 1.153 2.347 2.605 2.347zm.18-1.054c-.935 0-1.61-.418-1.61-1.233 0-.895.815-1.173 1.73-1.293.497-.06 1.83-.198 2.028-.437v1.074c0 .954-.755 1.89-2.147 1.89zm5.462.875h1.173v-4.773c0-1.118.816-1.91 1.73-1.91.89 0 1.51.582 1.51 1.452V284h1.193v-4.972c0-.984.617-1.7 1.7-1.7.836 0 1.552.443 1.552 1.57V284h1.173v-5.11c0-1.795-.965-2.625-2.327-2.625-1.094 0-1.894.502-2.287 1.293h-.08c-.378-.816-1.044-1.293-2.05-1.293-.994 0-1.73.477-2.048 1.293h-.1v-1.193h-1.134V284zm12.168 0h1.173v-4.773c0-1.118.816-1.91 1.73-1.91.89 0 1.51.582 1.51 1.452V284h1.193v-4.972c0-.984.617-1.7 1.7-1.7.836 0 1.552.443 1.552 1.57V284h1.173v-5.11c0-1.795-.965-2.625-2.327-2.625-1.094 0-1.894.502-2.287 1.293h-.08c-.378-.816-1.044-1.293-2.05-1.293-.994 0-1.73.477-2.048 1.293h-.1v-1.193h-1.134V284zm19.09-1.8h1.113v-2.724h2.725v-1.114h-2.725v-2.724h-1.113v2.724h-2.725v1.114h2.725v2.724zm13.742-8.392h-1.233l-2.545 1.69v1.252l2.486-1.65h.06V284h1.233v-10.182zm15.616 6.622a.9.9 0 0 0 .895-.895c0-.492-.403-.894-.895-.894s-.895.402-.895.894a.9.9 0 0 0 .895.895zm22.3-6.622h-1.233l-2.545 1.69v1.252l2.485-1.65h.06V284h1.233v-10.182zm6.17-.16c-2.068-.02-3.4 1.53-3.4 3.42 0 1.968 1.452 3.38 3.202 3.38 1.054 0 1.95-.517 2.506-1.352h.08c0 2.506-.974 3.937-2.545 3.937-1.074 0-1.73-.676-1.95-1.6h-1.213c.238 1.6 1.45 2.704 3.162 2.704 2.287 0 3.7-2.028 3.7-5.648 0-3.758-1.87-4.812-3.54-4.832zm0 1.094c1.273 0 2.207 1.094 2.207 2.307s-.994 2.306-2.247 2.306-2.168-1.014-2.168-2.286c0-1.293.955-2.327 2.208-2.327zm5.54 9.247h1.293l4.534-9.028v-1.154H290v1.094h5.25v.08l-4.554 9.01zm17.882-7.636h-1.273l-2.108 6.085h-.08L303 276.364h-1.273L304.56 284h1.193l2.824-7.636zm1.55 7.636h1.173v-7.636h-1.173V284zm.596-8.91c.458 0 .835-.358.835-.796s-.377-.795-.835-.795-.835.358-.835.795.378.796.835.796zm5.928 9.068c1.55 0 2.684-.775 3.042-1.93l-1.133-.318c-.3.795-1 1.193-1.91 1.193-1.378 0-2.327-.9-2.382-2.525h5.543v-.498c0-2.843-1.7-3.818-3.28-3.818-2.068 0-3.44 1.63-3.44 3.977s1.352 3.918 3.56 3.918zm-2.382-4.594c.08-1.188.92-2.247 2.262-2.247 1.273 0 2.088.955 2.088 2.247h-4.35zm9.058 4.435h1.154l1.67-5.866h.12l1.67 5.866h1.153l2.327-7.636h-1.233l-1.65 5.826h-.08l-1.61-5.826h-1.253l-1.63 5.846h-.08l-1.65-5.846H321l2.326 7.636zm15.054-5.926c-.368-1.084-1.193-1.8-2.704-1.8-1.61 0-2.804.915-2.804 2.208 0 1.054.626 1.76 2.028 2.088l1.273.298c.77.18 1.134.547 1.134 1.074 0 .656-.696 1.193-1.8 1.193-.96 0-1.56-.413-1.77-1.233l-1.114.278c.274 1.298 1.343 1.99 2.904 1.99 1.774 0 2.983-.97 2.983-2.287 0-1.064-.667-1.735-2.03-2.068l-1.133-.278c-.905-.224-1.313-.527-1.313-1.114 0-.656.696-1.134 1.63-1.134 1.024 0 1.447.567 1.65 1.094l1.054-.298zm14.573 2.366c.493 0 .895-.402.895-.895s-.402-.894-.895-.894-.895.402-.895.894a.9.9 0 0 0 .895.895zm14.972-6.622V284h1.154v-7.736h.1L372.36 284h1.114l3.18-7.736h.1V284h1.153v-10.182h-1.47l-3.46 8.452h-.12l-3.46-8.452h-1.472zm14.543 10.36c1.333 0 2.03-.716 2.268-1.213h.06V284h1.173v-5.03c0-2.426-1.85-2.705-2.823-2.705-1.154 0-2.466.398-3.063 1.8l1.114.398c.258-.557.87-1.154 1.988-1.154 1.08 0 1.61.572 1.61 1.55v.04c0 .567-.577.517-1.97.696-1.416.184-2.963.497-2.963 2.247 0 1.492 1.154 2.347 2.605 2.347zm.18-1.054c-.934 0-1.6-.418-1.6-1.233 0-.895.815-1.173 1.73-1.293.497-.06 1.83-.198 2.028-.437v1.074c0 .954-.756 1.89-2.148 1.89zm5.945 3.72c1.06 0 1.8-.562 2.247-1.73l3.252-8.73-1.283-.02-2.108 6.085h-.08l-2.108-6.085h-1.273l2.824 7.676-.22.596c-.418 1.144-.954 1.253-1.8 1.034l-.298 1.035c.12.06.457.14.855.14zm10.97-2.844h6.423v-1.094h-4.733v-.08l2.287-2.446c1.75-1.875 2.267-2.75 2.267-3.878 0-1.57-1.273-2.824-3.062-2.824s-3.142 1.213-3.142 3.003h1.173c0-1.16.75-1.93 1.93-1.93 1.104 0 1.95.676 1.95 1.75 0 .94-.552 1.635-1.73 2.923l-3.36 3.68V284zm10.246-1.392h-1.272l-.06.557c-.144 1.347-.428 2.69-.557 3.32h.895c.24-.676.746-2.208.915-3.34l.08-.537zM415.9 284h6.423v-1.094H417.6v-.08l2.287-2.446c1.75-1.875 2.267-2.75 2.267-3.878 0-1.57-1.273-2.824-3.063-2.824-1.784 0-3.142 1.213-3.142 3.003h1.174c0-1.16.75-1.93 1.93-1.93 1.103 0 1.95.676 1.95 1.75 0 .94-.552 1.635-1.73 2.923l-3.36 3.68V284zm11.797.14c2.247 0 3.54-1.904 3.54-5.23 0-3.3-1.312-5.23-3.54-5.23s-3.54 1.93-3.54 5.23c0 3.326 1.293 5.23 3.54 5.23zm0-1.094c-1.48 0-2.346-1.486-2.346-4.136 0-2.645.875-4.156 2.346-4.156s2.347 1.51 2.347 4.156c0 2.65-.865 4.136-2.347 4.136zm9.01-9.227h-1.233l-2.546 1.69v1.252l2.486-1.65h.06V284h1.233v-10.182zm6.19 10.32c2.034 0 3.45-1.188 3.46-2.844-.01-1.287-.87-2.38-1.97-2.585v-.06c.954-.25 1.58-1.184 1.59-2.267-.01-1.552-1.313-2.705-3.083-2.705-1.79 0-3.092 1.153-3.082 2.705-.01 1.083.617 2.018 1.59 2.267v.06c-1.12.204-1.98 1.298-1.97 2.585-.01 1.656 1.407 2.844 3.46 2.844zm0-1.094c-1.397 0-2.257-.715-2.247-1.81-.01-1.15.94-1.97 2.247-1.97 1.288 0 2.238.82 2.248 1.97-.01 1.094-.87 1.81-2.248 1.81zm0-4.832c-1.113 0-1.9-.696-1.89-1.75-.01-1.034.746-1.7 1.89-1.7 1.124 0 1.88.676 1.9 1.7-.01 1.054-.796 1.75-1.9 1.75zm18.054 2.227c.492 0 .894-.402.894-.895s-.402-.894-.894-.894-.895.402-.895.894.402.895.895.895zm18.014 3.72c1.55 0 2.685-.775 3.043-1.93l-1.134-.318c-.298.795-.99 1.193-1.91 1.193-1.377 0-2.327-.9-2.38-2.525h5.543v-.498c0-2.843-1.7-3.818-3.28-3.818-2.068 0-3.44 1.63-3.44 3.977s1.353 3.918 3.56 3.918zm-2.38-4.594c.08-1.188.92-2.247 2.262-2.247 1.272 0 2.088.955 2.088 2.247h-4.35zm10.21 4.594c1.472 0 1.97-.915 2.228-1.332h.14V284h1.133v-10.182h-1.173v3.76h-.1c-.26-.398-.716-1.313-2.208-1.313-1.93 0-3.26 1.53-3.26 3.938 0 2.426 1.332 3.957 3.24 3.957zm.16-1.054c-1.47 0-2.227-1.293-2.227-2.923 0-1.61.736-2.864 2.227-2.864 1.432 0 2.188 1.154 2.188 2.864 0 1.73-.776 2.923-2.188 2.923zm5.653.895h1.173v-7.636h-1.173V284zm.597-8.91c.457 0 .835-.358.835-.796s-.378-.795-.835-.795-.836.358-.836.795.378.796.836.796zm6.046 1.273h-1.63v-1.83h-1.174v1.83h-1.153v.994h1.153v4.773c0 1.332 1.074 1.968 2.07 1.968.437 0 .716-.08.875-.14l-.24-1.054c-.1.02-.26.06-.517.06-.517 0-1.014-.16-1.014-1.154v-4.454h1.63v-.994zm4.885 7.795c1.55 0 2.685-.775 3.043-1.93l-1.134-.318c-.298.795-.99 1.193-1.91 1.193-1.377 0-2.327-.9-2.38-2.525h5.543v-.498c0-2.843-1.7-3.818-3.28-3.818-2.07 0-3.44 1.63-3.44 3.977s1.353 3.918 3.56 3.918zm-2.38-4.594c.08-1.188.92-2.247 2.262-2.247 1.272 0 2.088.955 2.088 2.247h-4.35zm10.21 4.594c1.472 0 1.97-.915 2.228-1.332h.14V284h1.133v-10.182H514.3v3.76h-.1c-.26-.398-.716-1.313-2.208-1.313-1.93 0-3.26 1.53-3.26 3.938 0 2.426 1.332 3.957 3.24 3.957zm.16-1.054c-1.47 0-2.227-1.293-2.227-2.923 0-1.61.736-2.864 2.227-2.864 1.432 0 2.188 1.154 2.188 2.864 0 1.73-.776 2.923-2.188 2.923zm13.15-9.287h-1.233l-2.545 1.69v1.252l2.486-1.65h.06V284h1.233v-10.182zm6.2 10.32c2.033 0 3.45-1.188 3.46-2.844-.01-1.287-.87-2.38-1.97-2.585v-.06c.955-.25 1.58-1.184 1.59-2.267-.01-1.552-1.312-2.705-3.082-2.705-1.8 0-3.093 1.153-3.083 2.705-.01 1.083.617 2.018 1.59 2.267v.06c-1.118.204-1.978 1.298-1.968 2.585-.01 1.656 1.407 2.844 3.46 2.844zm0-1.094c-1.397 0-2.257-.715-2.247-1.81-.01-1.15.94-1.97 2.247-1.97 1.287 0 2.237.82 2.247 1.97-.01 1.094-.87 1.81-2.247 1.81zm0-4.832c-1.114 0-1.9-.696-1.89-1.75-.01-1.034.745-1.7 1.89-1.7 1.123 0 1.88.676 1.89 1.7-.01 1.054-.795 1.75-1.89 1.75zm12.206 5.946c1.472 0 1.97-.915 2.228-1.332h.14V284h1.133v-10.182h-1.173v3.76h-.1c-.26-.398-.716-1.313-2.208-1.313-1.93 0-3.26 1.53-3.26 3.938 0 2.426 1.332 3.957 3.24 3.957zm.16-1.054c-1.47 0-2.227-1.293-2.227-2.923 0-1.61.736-2.864 2.227-2.864 1.432 0 2.188 1.154 2.188 2.864 0 1.73-.776 2.923-2.188 2.923zm7.9 1.074c1.333 0 2.03-.716 2.267-1.213h.06V284h1.173v-5.03c0-2.426-1.85-2.705-2.824-2.705-1.153 0-2.465.398-3.062 1.8l1.114.398c.258-.557.87-1.154 1.988-1.154 1.08 0 1.61.572 1.61 1.55v.04c0 .567-.577.517-1.97.696-1.417.184-2.963.497-2.963 2.247 0 1.492 1.154 2.347 2.605 2.347zm.18-1.054c-.934 0-1.61-.418-1.61-1.233 0-.895.816-1.173 1.73-1.293.497-.06 1.83-.198 2.028-.437v1.074c0 .954-.756 1.89-2.148 1.89zm5.945 3.72c1.06 0 1.8-.562 2.247-1.73l3.252-8.73-1.283-.02-2.108 6.085h-.08l-2.108-6.085H556.5l2.824 7.676-.22.596c-.418 1.144-.955 1.253-1.8 1.034l-.298 1.035c.12.06.457.14.855.14zm12.46-8.77c-.368-1.084-1.193-1.8-2.704-1.8-1.61 0-2.804.915-2.804 2.208 0 1.054.626 1.76 2.028 2.088l1.273.298c.77.18 1.133.547 1.133 1.074 0 .656-.696 1.193-1.8 1.193-.96 0-1.56-.413-1.77-1.233l-1.114.278c.273 1.298 1.342 1.99 2.903 1.99 1.775 0 2.983-.97 2.983-2.287 0-1.064-.666-1.735-2.028-2.068l-1.134-.278c-.904-.224-1.312-.527-1.312-1.114 0-.656.696-1.134 1.63-1.134 1.024 0 1.446.567 1.65 1.094l1.054-.298zm8.1 6.105c1.332 0 2.03-.716 2.267-1.213h.06V284h1.173v-5.03c0-2.426-1.85-2.705-2.824-2.705-1.153 0-2.466.398-3.062 1.8l1.113.398c.26-.557.87-1.154 1.99-1.154 1.08 0 1.61.572 1.61 1.55v.04c0 .567-.577.517-1.97.696-1.417.184-2.963.497-2.963 2.247 0 1.492 1.153 2.347 2.605 2.347zm.18-1.054c-.935 0-1.61-.418-1.61-1.233 0-.895.816-1.173 1.73-1.293.498-.06 1.83-.198 2.03-.437v1.074c0 .954-.756 1.89-2.148 1.89zm8.545 3.898c1.83 0 3.3-.835 3.3-2.804v-7.855h-1.133v1.213h-.12c-.258-.398-.735-1.313-2.227-1.313-1.93 0-3.26 1.53-3.26 3.878 0 2.386 1.392 3.74 3.24 3.74 1.492 0 1.97-.875 2.227-1.293h.1v1.55c0 1.273-.895 1.85-2.128 1.85-1.387 0-1.874-.73-2.187-1.154l-.935.656c.477.8 1.417 1.532 3.122 1.532zm-.04-4.196c-1.47 0-2.227-1.114-2.227-2.705 0-1.55.736-2.804 2.227-2.804 1.432 0 2.188 1.154 2.188 2.804 0 1.7-.776 2.705-2.188 2.705zm8.59 1.332c2.068 0 3.46-1.57 3.46-3.937 0-2.387-1.392-3.958-3.46-3.958s-3.46 1.57-3.46 3.958c0 2.366 1.392 3.937 3.46 3.937zm0-1.054c-1.57 0-2.287-1.352-2.287-2.883s.716-2.904 2.287-2.904 2.287 1.372 2.287 2.904-.716 2.883-2.287 2.883z" class="B"/><g class="D"><circle cx="72" cy="266" r="24" class="C"/><path d="M67.74 273h8.617v-1.694h-5.894v-.096l2.602-2.723c2.397-2.422 3.08-3.58 3.08-5.043 0-2.103-1.713-3.714-4.18-3.714-2.448 0-4.238 1.585-4.238 3.976h1.886c-.006-1.406.9-2.327 2.314-2.327 1.33 0 2.34.818 2.34 2.122 0 1.157-.7 1.988-2.097 3.478l-4.43 4.59V273z"/></g><path d="M116 165h1.995l2.755-9.805h.102l2.755 9.805h1.988l3.637-13.09h-2.084l-2.544 10.144h-.12l-2.653-10.144h-2.058l-2.653 10.138H117l-2.55-10.138h-2.077L116 165zm18.144.198c2.142 0 3.656-1.055 4.09-2.653l-1.81-.326c-.345.927-1.176 1.4-2.263 1.4-1.636 0-2.735-1.06-2.787-2.953h6.98v-.677c0-3.548-2.123-4.935-4.347-4.935-2.736 0-4.538 2.084-4.538 5.1 0 3.05 1.777 5.043 4.672 5.043zm-2.76-5.964c.077-1.393 1.087-2.6 2.64-2.6 1.483 0 2.454 1.1 2.46 2.6h-5.1zm11.005-7.325h-1.91V165h1.91v-13.09zm6.707 13.29c2.32 0 3.823-1.393 4.034-3.305h-1.86c-.243 1.062-1.068 1.688-2.16 1.688-1.617 0-2.66-1.35-2.66-3.5 0-2.103 1.06-3.426 2.66-3.426 1.215 0 1.956.767 2.16 1.687h1.86c-.205-1.98-1.822-3.298-4.053-3.298-2.768 0-4.557 2.084-4.557 5.082 0 2.96 1.725 5.062 4.576 5.062zm10.213 0c2.768 0 4.577-2.026 4.577-5.062 0-3.056-1.81-5.082-4.577-5.082s-4.577 2.026-4.577 5.082c0 3.036 1.81 5.062 4.577 5.062zm.007-1.604c-1.81 0-2.653-1.58-2.653-3.465 0-1.88.844-3.477 2.653-3.477 1.796 0 2.64 1.598 2.64 3.477 0 1.886-.843 3.465-2.64 3.465zM166.02 165h1.91v-6.053c0-1.323.927-2.244 2.014-2.244 1.06 0 1.796.703 1.796 1.77V165h1.905v-6.258c0-1.182.722-2.04 1.97-2.04 1 0 1.84.563 1.84 1.892V165h1.91v-6.584c0-2.243-1.253-3.362-3.03-3.362-1.413 0-2.474.678-2.947 1.726h-.102c-.428-1.074-1.33-1.726-2.64-1.726-1.298 0-2.263.646-2.672 1.726h-.12v-1.598h-1.835V165zm20.14.198c2.14 0 3.656-1.055 4.09-2.653l-1.81-.326c-.345.927-1.176 1.4-2.263 1.4-1.636 0-2.736-1.06-2.787-2.953h6.98v-.677c0-3.548-2.122-4.935-4.346-4.935-2.736 0-4.54 2.084-4.54 5.1 0 3.05 1.777 5.043 4.673 5.043zm-2.76-5.964c.076-1.393 1.086-2.6 2.64-2.6 1.483 0 2.455 1.1 2.46 2.6h-5.1zm18.44-4.052h-2.014v-2.352h-1.91v2.352h-1.438v1.534h1.438v5.797c-.007 1.784 1.355 2.647 2.864 2.615.607-.007 1.016-.122 1.24-.205l-.346-1.58c-.127.026-.364.084-.67.084-.62 0-1.176-.205-1.176-1.31v-5.4h2.014v-1.534zm6.144 10.016c2.768 0 4.577-2.026 4.577-5.062 0-3.056-1.81-5.082-4.577-5.082s-4.577 2.026-4.577 5.082c0 3.036 1.81 5.062 4.577 5.062zm.006-1.604c-1.81 0-2.652-1.58-2.652-3.465 0-1.88.843-3.477 2.652-3.477 1.797 0 2.64 1.598 2.64 3.477 0 1.886-.843 3.465-2.64 3.465zm16.05-8.412h-2.014v-2.352h-1.91v2.352h-1.438v1.534h1.438v5.797c-.006 1.784 1.355 2.647 2.864 2.615.607-.007 1.016-.122 1.24-.205l-.345-1.58c-.128.026-.365.084-.672.084-.62 0-1.176-.205-1.176-1.31v-5.4h2.014v-1.534zm4.236 3.988c0-1.566.99-2.46 2.352-2.46 1.317 0 2.103.837 2.103 2.275V165h1.912v-6.245c0-2.448-1.343-3.7-3.363-3.7-1.527 0-2.448.665-2.908 1.726h-.12v-4.87h-1.886V165h1.91v-5.83zm13.15 6.028c2.14 0 3.656-1.055 4.1-2.653l-1.81-.326c-.345.927-1.176 1.4-2.262 1.4-1.637 0-2.736-1.06-2.787-2.953h6.98v-.677c0-3.548-2.122-4.935-4.347-4.935-2.735 0-4.538 2.084-4.538 5.1 0 3.05 1.777 5.043 4.673 5.043zm-2.762-5.964c.077-1.393 1.087-2.6 2.64-2.6 1.483 0 2.455 1.1 2.46 2.6h-5.1zm13.366-5.625h4.078V165h1.97v-11.39h4.084v-1.7h-10.13v1.7zm15.024 11.59c2.142 0 3.657-1.055 4.09-2.653l-1.81-.326c-.345.927-1.176 1.4-2.262 1.4-1.637 0-2.736-1.06-2.787-2.953h6.98v-.677c0-3.548-2.122-4.935-4.347-4.935-2.736 0-4.538 2.084-4.538 5.1 0 3.05 1.777 5.043 4.672 5.043zm-2.76-5.964c.077-1.393 1.087-2.6 2.64-2.6 1.483 0 2.455 1.1 2.46 2.6h-5.1zm11.952 5.983c1.623 0 2.537-.824 2.902-1.56h.076V165h1.867v-6.52c0-2.857-2.25-3.426-3.8-3.426-1.777 0-3.413.716-4.052 2.506l1.796.41c.28-.697.997-1.368 2.282-1.368 1.233 0 1.866.645 1.866 1.758v.044c0 .697-.716.684-2.48.89-1.86.217-3.765.703-3.765 2.934 0 1.93 1.45 2.99 3.318 2.99zm.415-1.534c-1.08 0-1.86-.486-1.86-1.432 0-1.022.908-1.387 2.013-1.534.62-.083 2.09-.25 2.366-.524v1.266c0 1.163-.927 2.224-2.52 2.224zm6.975 1.317h1.912v-6.053c0-1.323.926-2.244 2.013-2.244 1.06 0 1.796.703 1.796 1.77V165h1.905v-6.258c0-1.182.722-2.04 1.97-2.04 1 0 1.84.563 1.84 1.892V165h1.91v-6.584c0-2.243-1.253-3.362-3.03-3.362-1.412 0-2.474.678-2.947 1.726h-.102c-.428-1.074-1.33-1.726-2.64-1.726-1.297 0-2.263.646-2.672 1.726h-.12v-1.598h-1.835V165z" fill="#000"/><path d="M113.233 177.818V188h1.153v-7.736h.1l3.182 7.736h1.113l3.182-7.736h.1V188h1.154v-10.182h-1.472l-3.46 8.452h-.12l-3.46-8.452h-1.472zm14.543 10.36c1.332 0 2.03-.716 2.267-1.213h.06V188h1.173v-5.03c0-2.426-1.85-2.705-2.824-2.705-1.153 0-2.466.398-3.062 1.8l1.113.398c.26-.557.87-1.154 1.99-1.154 1.08 0 1.61.572 1.61 1.55v.04c0 .567-.577.517-1.97.696-1.417.184-2.963.497-2.963 2.247 0 1.492 1.153 2.347 2.605 2.347zm.18-1.054c-.935 0-1.61-.418-1.61-1.233 0-.895.816-1.173 1.73-1.293.498-.06 1.83-.198 2.03-.437v1.074c0 .954-.756 1.89-2.148 1.89zm5.463.875h1.173v-4.832c0-1.034.815-1.8 1.93-1.8a3.68 3.68 0 0 1 .716.079v-1.193l-.617-.02c-.914 0-1.7.517-1.988 1.273h-.08v-1.153h-1.133V188zm11.685-7.636h-1.272l-2.108 6.085h-.08l-2.108-6.085h-1.273l2.824 7.636h1.193l2.824-7.636zm1.55 7.636h1.173v-7.636h-1.173V188zm.597-8.91c.457 0 .835-.358.835-.796s-.378-.795-.835-.795-.836.358-.836.795.378.796.836.796zm3.9 4.315c0-1.332.825-2.088 1.948-2.088 1.09 0 1.75.71 1.75 1.91V188h1.174v-4.852c0-1.95-1.04-2.884-2.586-2.884-1.153 0-1.87.517-2.227 1.293h-.1v-1.193h-1.134V188h1.174v-4.594zM162.26 188h3.68c2.407 0 3.4-1.173 3.4-2.705 0-1.6-1.114-2.485-2.048-2.545v-.1c.875-.24 1.65-.816 1.65-2.128 0-1.492-.994-2.705-3.122-2.705h-3.56V188zm1.233-1.094v-3.54H166c1.332 0 2.168.895 2.168 1.93 0 .895-.617 1.61-2.228 1.61h-2.446zm0-4.613v-3.38h2.327c1.352 0 1.95.716 1.95 1.61 0 1.074-.875 1.77-1.99 1.77h-2.287zm8.887-4.475h-1.173V188h1.173v-10.182zm6.96 7.06c0 1.432-1.093 2.088-1.968 2.088-.975 0-1.67-.716-1.67-1.83v-4.772h-1.173v4.852c0 1.95 1.034 2.883 2.466 2.883 1.153 0 1.91-.616 2.267-1.392h.08V188h1.174v-7.636h-1.174v4.514zm3.323 3.122h1.173v-4.773c0-1.118.815-1.91 1.73-1.91.9 0 1.51.582 1.51 1.452V188h1.194v-4.972c0-.984.616-1.7 1.7-1.7.835 0 1.55.443 1.55 1.57V188h1.173v-5.11c0-1.795-.964-2.625-2.326-2.625-1.094 0-1.894.502-2.287 1.293h-.08c-.378-.816-1.044-1.293-2.048-1.293-.994 0-1.73.477-2.048 1.293h-.1v-1.193h-1.133V188zm19.088-1.8h1.114v-2.724h2.724v-1.114h-2.724v-2.724h-1.114v2.724h-2.724v1.114h2.724v2.724zm13.604 1.93c1.973 0 3.44-1.238 3.44-2.903 0-1.293-.766-2.232-2.048-2.446v-.08c1.03-.313 1.67-1.158 1.67-2.307 0-1.44-1.138-2.724-3.023-2.724-1.76 0-3.22 1.084-3.28 2.685h1.193c.045-1.015 1-1.61 2.07-1.61 1.123 0 1.85.68 1.85 1.7 0 1.074-.84 1.77-2.048 1.77h-.816v1.094h.816c1.546 0 2.406.785 2.406 1.91 0 1.08-.94 1.81-2.247 1.81-1.18 0-2.113-.606-2.188-1.6h-1.253c.075 1.6 1.487 2.684 3.46 2.684zm18.16-3.7a.9.9 0 0 0 .895-.895c0-.492-.403-.894-.895-.894s-.895.402-.895.894a.9.9 0 0 0 .895.895zM248.3 188h6.423v-1.094H250v-.08l2.287-2.446c1.75-1.875 2.267-2.75 2.267-3.878 0-1.57-1.273-2.824-3.062-2.824s-3.142 1.213-3.142 3.003h1.173c0-1.16.75-1.93 1.93-1.93 1.104 0 1.95.676 1.95 1.75 0 .94-.552 1.635-1.73 2.923l-3.36 3.68V188zm12.056-10.182h-1.233l-2.545 1.69v1.252l2.485-1.65h.06V188h1.233v-10.182zm6.508 0h-1.233l-2.546 1.69v1.252l2.486-1.65h.06V188h1.233v-10.182zm13.13 2.546h-1.273l-2.108 6.085h-.08l-2.108-6.085h-1.273l2.824 7.636h1.193l2.824-7.636zm1.548 7.636h1.174v-7.636h-1.174V188zm.597-8.91c.457 0 .835-.358.835-.796s-.378-.795-.835-.795-.835.358-.835.795.378.796.835.796zm5.927 9.068c1.55 0 2.685-.775 3.043-1.93l-1.134-.318c-.298.795-.99 1.193-1.91 1.193-1.377 0-2.326-.9-2.38-2.525h5.543v-.498c0-2.843-1.7-3.818-3.28-3.818-2.068 0-3.44 1.63-3.44 3.977s1.352 3.918 3.56 3.918zm-2.38-4.594c.08-1.188.92-2.247 2.262-2.247 1.273 0 2.088.955 2.088 2.247h-4.35zm9.058 4.435h1.154l1.67-5.866h.12l1.67 5.866h1.153l2.327-7.636h-1.233l-1.65 5.826h-.08l-1.61-5.826h-1.253l-1.63 5.846h-.08l-1.65-5.846h-1.233l2.327 7.636zm15.054-5.926c-.368-1.084-1.193-1.8-2.704-1.8-1.61 0-2.804.915-2.804 2.208 0 1.054.626 1.76 2.028 2.088l1.273.298c.77.18 1.133.547 1.133 1.074 0 .656-.696 1.193-1.79 1.193-.96 0-1.562-.413-1.77-1.233l-1.114.278c.273 1.298 1.342 1.99 2.903 1.99 1.775 0 2.983-.97 2.983-2.287 0-1.064-.666-1.735-2.028-2.068l-1.134-.278c-.904-.224-1.312-.527-1.312-1.114 0-.656.696-1.134 1.63-1.134 1.024 0 1.446.567 1.65 1.094l1.054-.298zm14.573 2.366a.9.9 0 0 0 .895-.895c0-.492-.403-.894-.895-.894s-.895.402-.895.894a.9.9 0 0 0 .895.895zm14.972 3.56h1.233v-4.554H345v-1.094h-4.415v-3.44h4.872v-1.094h-6.105V188zm10.7.16c1.55 0 2.685-.775 3.043-1.93l-1.134-.318c-.298.795-.99 1.193-1.91 1.193-1.377 0-2.327-.9-2.38-2.525h5.543v-.498c0-2.843-1.7-3.818-3.28-3.818-2.07 0-3.44 1.63-3.44 3.977s1.353 3.918 3.56 3.918zm-2.38-4.594c.08-1.188.92-2.247 2.262-2.247 1.272 0 2.088.955 2.088 2.247h-4.35zm7.487 4.435h1.133v-1.173h.14c.258.417.755 1.332 2.227 1.332 1.91 0 3.24-1.53 3.24-3.957 0-2.407-1.332-3.938-3.26-3.938-1.492 0-1.95.915-2.207 1.313h-.1v-3.76h-1.173V188zm1.153-3.818c0-1.7.756-2.864 2.188-2.864 1.49 0 2.227 1.253 2.227 2.864 0 1.63-.756 2.923-2.227 2.923-1.412 0-2.188-1.193-2.188-2.923zm14.88-6.364h-1.233l-2.545 1.69v1.252l2.486-1.65h.06V188h1.233v-10.182zM374.437 188h1.292l4.534-9.028v-1.154h-6.522v1.094h5.25v.08l-4.554 9.01zm7.7-1.392h-1.272l-.06.557c-.144 1.347-.428 2.69-.557 3.32h.895c.24-.676.746-2.208.915-3.34l.08-.537zm6.092 1.392h6.423v-1.094h-4.733v-.08l2.287-2.446c1.75-1.875 2.267-2.75 2.267-3.878 0-1.57-1.273-2.824-3.062-2.824s-3.142 1.213-3.142 3.003h1.173c0-1.16.75-1.93 1.93-1.93 1.104 0 1.95.676 1.95 1.75 0 .94-.552 1.635-1.73 2.923l-3.36 3.68V188zm11.797.14c2.248 0 3.54-1.904 3.54-5.23 0-3.3-1.312-5.23-3.54-5.23s-3.54 1.93-3.54 5.23c0 3.326 1.292 5.23 3.54 5.23zm0-1.094c-1.48 0-2.346-1.486-2.346-4.136 0-2.645.875-4.156 2.346-4.156s2.347 1.51 2.347 4.156c0 2.65-.865 4.136-2.347 4.136zm9.01-9.227H407.8l-2.545 1.69v1.252l2.485-1.65h.06V188h1.233v-10.182zm6.2 10.32c2.033 0 3.45-1.188 3.46-2.844-.01-1.287-.87-2.38-1.97-2.585v-.06c.955-.25 1.58-1.184 1.59-2.267-.01-1.552-1.313-2.705-3.082-2.705-1.8 0-3.093 1.153-3.083 2.705-.01 1.083.617 2.018 1.59 2.267v.06c-1.12.204-1.98 1.298-1.97 2.585-.01 1.656 1.407 2.844 3.46 2.844zm0-1.094c-1.397 0-2.258-.715-2.248-1.81-.01-1.15.94-1.97 2.248-1.97 1.287 0 2.237.82 2.247 1.97-.01 1.094-.87 1.81-2.247 1.81zm0-4.832c-1.114 0-1.9-.696-1.9-1.75-.01-1.034.746-1.7 1.9-1.7 1.123 0 1.88.676 1.89 1.7-.01 1.054-.796 1.75-1.89 1.75zm18.053 2.227a.9.9 0 0 0 .895-.895c0-.492-.403-.894-.895-.894s-.895.402-.895.894.402.895.895.895zm18.014 3.72c1.55 0 2.685-.775 3.043-1.93l-1.134-.318c-.298.795-.99 1.193-1.91 1.193-1.377 0-2.327-.9-2.38-2.525h5.543v-.498c0-2.843-1.7-3.818-3.28-3.818-2.068 0-3.44 1.63-3.44 3.977s1.352 3.918 3.56 3.918zm-2.38-4.594c.08-1.188.92-2.247 2.262-2.247 1.273 0 2.088.955 2.088 2.247h-4.35zm10.21 4.594c1.472 0 1.97-.915 2.228-1.332h.14V188h1.133v-10.182h-1.173v3.76h-.1c-.26-.398-.716-1.313-2.208-1.313-1.93 0-3.26 1.53-3.26 3.938 0 2.426 1.332 3.957 3.24 3.957zm.16-1.054c-1.472 0-2.228-1.293-2.228-2.923 0-1.61.736-2.864 2.228-2.864 1.43 0 2.187 1.154 2.187 2.864 0 1.73-.776 2.923-2.187 2.923zm5.652.895h1.174v-7.636h-1.174V188zm.597-8.91c.457 0 .835-.358.835-.796s-.378-.795-.835-.795-.835.358-.835.795.377.796.835.796zm6.047 1.273h-1.63v-1.83h-1.173v1.83h-1.154v.994h1.154v4.773c0 1.332 1.073 1.968 2.068 1.968.437 0 .716-.08.875-.14l-.24-1.054c-.1.02-.258.06-.517.06-.517 0-1.014-.16-1.014-1.154v-4.454h1.63v-.994zm4.884 7.795c1.55 0 2.685-.775 3.043-1.93l-1.134-.318c-.298.795-.99 1.193-1.91 1.193-1.377 0-2.327-.9-2.38-2.525h5.543v-.498c0-2.843-1.7-3.818-3.28-3.818-2.068 0-3.44 1.63-3.44 3.977s1.353 3.918 3.56 3.918zm-2.38-4.594c.08-1.188.92-2.247 2.262-2.247 1.273 0 2.088.955 2.088 2.247h-4.35zm10.21 4.594c1.472 0 1.97-.915 2.228-1.332h.14V188h1.133v-10.182h-1.173v3.76h-.1c-.26-.398-.716-1.313-2.208-1.313-1.93 0-3.26 1.53-3.26 3.938 0 2.426 1.332 3.957 3.24 3.957zm.16-1.054c-1.47 0-2.227-1.293-2.227-2.923 0-1.61.736-2.864 2.227-2.864 1.432 0 2.188 1.154 2.188 2.864 0 1.73-.776 2.923-2.188 2.923zm13.15-9.287h-1.233l-2.545 1.69v1.252l2.486-1.65h.06V188h1.233v-10.182zm6.1 10.32c1.94 0 3.36-1.432 3.36-3.38 0-1.974-1.372-3.42-3.24-3.42-.686 0-1.353.244-1.77.577H502l.358-3.003h4.256v-1.094h-5.3l-.616 5.012 1.153.14c.423-.304 1.143-.522 1.77-.517 1.297.01 2.247.994 2.247 2.326 0 1.308-.915 2.267-2.168 2.267-1.044 0-1.874-.67-1.968-1.6h-1.194c.075 1.55 1.412 2.684 3.162 2.684zm12.177.02c1.472 0 1.97-.915 2.227-1.332h.14V188h1.133v-10.182h-1.173v3.76h-.1c-.258-.398-.716-1.313-2.207-1.313-1.93 0-3.26 1.53-3.26 3.938 0 2.426 1.332 3.957 3.24 3.957zm.16-1.054c-1.47 0-2.227-1.293-2.227-2.923 0-1.61.736-2.864 2.227-2.864 1.432 0 2.188 1.154 2.188 2.864 0 1.73-.776 2.923-2.188 2.923zm7.9 1.074c1.332 0 2.028-.716 2.267-1.213h.06V188h1.173v-5.03c0-2.426-1.85-2.705-2.824-2.705-1.153 0-2.466.398-3.062 1.8l1.113.398c.26-.557.87-1.154 1.99-1.154 1.08 0 1.61.572 1.61 1.55v.04c0 .567-.577.517-1.97.696-1.417.184-2.963.497-2.963 2.247 0 1.492 1.153 2.347 2.605 2.347zm.18-1.054c-.935 0-1.61-.418-1.61-1.233 0-.895.816-1.173 1.73-1.293.497-.06 1.83-.198 2.03-.437v1.074c0 .954-.756 1.89-2.148 1.89zm5.945 3.72c1.06 0 1.81-.562 2.247-1.73l3.25-8.73-1.282-.02-2.108 6.085h-.08L530 180.364h-1.272l2.823 7.676-.218.596c-.418 1.144-.955 1.253-1.8 1.034l-.298 1.035c.12.06.457.14.855.14zm12.46-8.77c-.368-1.084-1.193-1.8-2.705-1.8-1.61 0-2.804.915-2.804 2.208 0 1.054.627 1.76 2.03 2.088l1.272.298c.77.18 1.134.547 1.134 1.074 0 .656-.696 1.193-1.8 1.193-.96 0-1.56-.413-1.77-1.233l-1.113.278c.273 1.298 1.342 1.99 2.903 1.99 1.775 0 2.983-.97 2.983-2.287 0-1.064-.666-1.735-2.028-2.068l-1.134-.278c-.905-.224-1.312-.527-1.312-1.114 0-.656.696-1.134 1.63-1.134 1.024 0 1.447.567 1.65 1.094l1.054-.298zm8.1 6.105c1.332 0 2.028-.716 2.267-1.213h.06V188h1.173v-5.03c0-2.426-1.85-2.705-2.824-2.705-1.153 0-2.466.398-3.063 1.8l1.114.398c.26-.557.87-1.154 1.99-1.154 1.08 0 1.61.572 1.61 1.55v.04c0 .567-.577.517-1.97.696-1.417.184-2.963.497-2.963 2.247 0 1.492 1.153 2.347 2.605 2.347zm.18-1.054c-.935 0-1.61-.418-1.61-1.233 0-.895.815-1.173 1.73-1.293.497-.06 1.83-.198 2.03-.437v1.074c0 .954-.756 1.89-2.148 1.89zm8.545 3.898c1.83 0 3.3-.835 3.3-2.804v-7.855h-1.134v1.213h-.12c-.258-.398-.736-1.313-2.227-1.313-1.93 0-3.262 1.53-3.262 3.878 0 2.386 1.392 3.74 3.242 3.74 1.49 0 1.97-.875 2.227-1.293h.1v1.55c0 1.273-.895 1.85-2.128 1.85-1.387 0-1.875-.73-2.188-1.154l-.934.656c.477.8 1.416 1.532 3.122 1.532zm-.04-4.196c-1.472 0-2.227-1.114-2.227-2.705 0-1.55.735-2.804 2.227-2.804 1.432 0 2.187 1.154 2.187 2.804 0 1.7-.775 2.705-2.187 2.705zm8.59 1.332c2.068 0 3.46-1.57 3.46-3.937 0-2.387-1.392-3.958-3.46-3.958s-3.46 1.57-3.46 3.958c0 2.366 1.392 3.937 3.46 3.937zm0-1.054c-1.57 0-2.287-1.352-2.287-2.883s.716-2.904 2.287-2.904 2.287 1.372 2.287 2.904-.716 2.883-2.287 2.883z" class="B"/><g class="D"><circle cx="72" cy="170" r="24" class="C"/><path d="M73.472 163.91h-1.924l-3.266 2.135v1.892l3.132-2.045h.077V177h1.982v-13.09z"/></g><path d="M119.915 86.818v6.742c0 1.59-1.273 2.466-2.725 2.466s-2.724-.875-2.724-2.466v-6.742h-1.233v6.742c0 2.287 1.8 3.62 3.957 3.62s3.958-1.332 3.958-3.62v-6.742h-1.233zm8.945 4.256c-.368-1.084-1.193-1.8-2.705-1.8-1.6 0-2.804.915-2.804 2.207 0 1.054.627 1.76 2.03 2.088l1.273.298c.77.18 1.133.547 1.133 1.074 0 .656-.696 1.193-1.8 1.193-.96 0-1.56-.413-1.77-1.233l-1.113.28c.273 1.297 1.342 1.99 2.903 1.99 1.775 0 2.983-.97 2.983-2.287 0-1.064-.666-1.735-2.028-2.068l-1.134-.278c-.905-.224-1.312-.527-1.312-1.114 0-.656.696-1.133 1.63-1.133 1.025 0 1.447.567 1.65 1.094l1.054-.298zm5.107 6.085c1.55 0 2.685-.776 3.043-1.93l-1.134-.318c-.298.796-.99 1.193-1.91 1.193-1.377 0-2.327-.9-2.38-2.526h5.543v-.497c0-2.844-1.7-3.818-3.28-3.818-2.07 0-3.44 1.63-3.44 3.977s1.353 3.918 3.56 3.918zm-2.38-4.594c.08-1.188.92-2.247 2.262-2.247 1.272 0 2.088.954 2.088 2.247h-4.35zm10.728-3.202h-1.7v-.776c0-.756.318-1.153 1.094-1.153.338 0 .537.08.656.12l.338-1.014c-.18-.08-.537-.2-1.114-.2-1.093 0-2.147.656-2.147 1.97v1.054h-1.233v.994h1.233V97h1.173v-6.642h1.7v-.994zm6.457 4.514c0 1.432-1.094 2.088-1.97 2.088-.974 0-1.67-.716-1.67-1.83v-4.773h-1.173v4.852c0 1.95 1.034 2.883 2.466 2.883 1.153 0 1.91-.616 2.267-1.392h.08V97h1.173v-7.636h-1.173v4.514zm4.496-7.06h-1.174V97h1.174V86.818zM159.353 97h1.173v-4.832c0-1.034.816-1.8 1.93-1.8.314 0 .637.06.716.08v-1.193l-.616-.02c-.915 0-1.7.517-1.99 1.273h-.08v-1.153h-1.134V97zm8.178.16c1.552 0 2.685-.776 3.043-1.93l-1.133-.318c-.3.796-1 1.193-1.9 1.193-1.377 0-2.326-.9-2.38-2.526h5.543v-.497c0-2.844-1.7-3.818-3.28-3.818-2.068 0-3.44 1.63-3.44 3.977s1.352 3.918 3.56 3.918zm-2.38-4.594c.08-1.188.92-2.247 2.262-2.247 1.273 0 2.088.954 2.088 2.247h-4.35zm9.575 4.614c1.333 0 2.03-.716 2.267-1.213h.06V97h1.173v-5.03c0-2.426-1.85-2.705-2.824-2.705-1.153 0-2.465.398-3.062 1.8l1.114.398c.258-.557.87-1.153 1.988-1.153 1.08 0 1.61.572 1.61 1.55v.04c0 .567-.577.517-1.97.696-1.417.184-2.963.497-2.963 2.247 0 1.49 1.154 2.347 2.605 2.347zm.18-1.054c-.934 0-1.6-.418-1.6-1.233 0-.895.815-1.173 1.73-1.293.497-.06 1.83-.2 2.028-.437v1.074c0 .954-.756 1.89-2.148 1.89zm8.346 1.034c1.472 0 1.97-.915 2.228-1.332h.14V97h1.133V86.818h-1.173v3.758h-.1c-.26-.398-.716-1.312-2.208-1.312-1.93 0-3.26 1.53-3.26 3.938 0 2.426 1.332 3.957 3.24 3.957zm.16-1.054c-1.47 0-2.227-1.293-2.227-2.923 0-1.61.736-2.864 2.227-2.864 1.432 0 2.188 1.153 2.188 2.864 0 1.73-.776 2.923-2.188 2.923zm11.062-5.03c-.368-1.084-1.193-1.8-2.704-1.8-1.61 0-2.804.915-2.804 2.207 0 1.054.626 1.76 2.028 2.088l1.273.298c.77.18 1.133.547 1.133 1.074 0 .656-.696 1.193-1.79 1.193-.96 0-1.56-.413-1.77-1.233l-1.114.28c.274 1.297 1.342 1.99 2.903 1.99 1.775 0 2.983-.97 2.983-2.287 0-1.064-.666-1.735-2.028-2.068l-1.133-.278c-.905-.224-1.313-.527-1.313-1.114 0-.656.696-1.133 1.63-1.133 1.024 0 1.446.567 1.65 1.094l1.054-.298zm9.244-1.7h-1.71v-.776c0-.756.32-1.153 1.094-1.153.338 0 .537.08.656.12l.34-1.014c-.18-.08-.537-.2-1.114-.2-1.094 0-2.148.656-2.148 1.97v1.054h-1.233v.994h1.233V97h1.173v-6.642h1.71v-.994zm4.432 7.795c2.068 0 3.46-1.57 3.46-3.937 0-2.386-1.392-3.957-3.46-3.957s-3.46 1.57-3.46 3.957c0 2.367 1.392 3.938 3.46 3.938zm0-1.054c-1.57 0-2.287-1.352-2.287-2.883s.716-2.903 2.287-2.903 2.287 1.372 2.287 2.903-.716 2.883-2.287 2.883zm5.25.895h1.173v-4.832c0-1.034.816-1.8 1.93-1.8.314 0 .637.06.716.08v-1.193l-.616-.02c-.915 0-1.7.517-1.99 1.273h-.08v-1.153h-1.134V97zm9.902 2.844c1.06 0 1.8-.562 2.247-1.73l3.252-8.73-1.283-.02-2.108 6.085h-.08l-2.108-6.085h-1.273l2.824 7.676-.22.597c-.418 1.143-.954 1.253-1.8 1.034l-.298 1.034c.12.06.458.14.855.14zm9.88-2.685c2.068 0 3.46-1.57 3.46-3.937 0-2.386-1.392-3.957-3.46-3.957s-3.46 1.57-3.46 3.957c0 2.367 1.392 3.938 3.46 3.938zm0-1.054c-1.57 0-2.287-1.352-2.287-2.883s.716-2.903 2.287-2.903 2.287 1.372 2.287 2.903-.716 2.883-2.287 2.883zm10.064-2.227c0 1.432-1.094 2.088-1.97 2.088-.974 0-1.67-.716-1.67-1.83v-4.773h-1.174v4.852c0 1.95 1.034 2.883 2.466 2.883 1.154 0 1.91-.616 2.267-1.392h.08V97h1.173v-7.636h-1.173v4.514zM246.566 97h1.173v-4.832c0-1.034.816-1.8 1.93-1.8.314 0 .637.06.716.08v-1.193l-.616-.02c-.915 0-1.7.517-1.99 1.273h-.08v-1.153h-1.134V97zm12.547-7.636h-1.7v-.776c0-.756.318-1.153 1.094-1.153.338 0 .537.08.656.12l.338-1.014c-.18-.08-.537-.2-1.114-.2-1.093 0-2.147.656-2.147 1.97v1.054h-1.233v.994h1.233V97h1.173v-6.642h1.7v-.994zM260.757 97h1.174v-7.636h-1.174V97zm.597-8.91c.457 0 .835-.358.835-.795s-.378-.796-.835-.796-.835.358-.835.796.378.795.835.795zM264.08 97h1.173v-4.832c0-1.034.815-1.8 1.93-1.8.313 0 .636.06.716.08v-1.193l-.617-.02c-.914 0-1.7.517-1.988 1.273h-.08v-1.153h-1.133V97zm10.618-5.926c-.368-1.084-1.193-1.8-2.705-1.8-1.61 0-2.804.915-2.804 2.207 0 1.054.627 1.76 2.03 2.088l1.272.298c.77.18 1.134.547 1.134 1.074 0 .656-.696 1.193-1.8 1.193-.96 0-1.56-.413-1.77-1.233l-1.113.28c.273 1.297 1.342 1.99 2.903 1.99 1.775 0 2.983-.97 2.983-2.287 0-1.064-.666-1.735-2.028-2.068l-1.134-.278c-.905-.224-1.312-.527-1.312-1.114 0-.656.696-1.133 1.63-1.133 1.024 0 1.447.567 1.65 1.094l1.054-.298zm5.226-1.7h-1.63v-1.83h-1.174v1.83h-1.153v.994h1.153v4.773c0 1.332 1.074 1.97 2.068 1.97.438 0 .716-.08.875-.14l-.238-1.054c-.1.02-.26.06-.517.06-.517 0-1.014-.16-1.014-1.153v-4.454h1.63v-.994zm8.586 7.795c1.472 0 1.97-.915 2.227-1.332h.14V97H292V86.818h-1.173v3.758h-.1c-.258-.398-.716-1.312-2.207-1.312-1.93 0-3.26 1.53-3.26 3.938 0 2.426 1.332 3.957 3.24 3.957zm.16-1.054c-1.47 0-2.227-1.293-2.227-2.923 0-1.61.736-2.864 2.227-2.864 1.432 0 2.188 1.153 2.188 2.864 0 1.73-.776 2.923-2.188 2.923zm7.9 1.074c1.332 0 2.028-.716 2.267-1.213h.06V97h1.173v-5.03c0-2.426-1.85-2.705-2.824-2.705-1.153 0-2.466.398-3.062 1.8l1.113.398c.26-.557.87-1.153 1.99-1.153 1.08 0 1.61.572 1.61 1.55v.04c0 .567-.577.517-1.97.696-1.417.184-2.963.497-2.963 2.247 0 1.49 1.153 2.347 2.605 2.347zm.18-1.054c-.935 0-1.61-.418-1.61-1.233 0-.895.816-1.173 1.73-1.293.498-.06 1.83-.2 2.03-.437v1.074c0 .954-.756 1.89-2.148 1.89zm5.945 3.72c1.06 0 1.81-.562 2.247-1.73l3.25-8.73-1.282-.02-2.108 6.085h-.08l-2.108-6.085h-1.272l2.823 7.676-.218.597c-.418 1.143-.955 1.253-1.8 1.034l-.298 1.034c.12.06.457.14.855.14zm19.718-6.404c.493 0 .895-.403.895-.895s-.402-.895-.895-.895-.894.403-.894.895.402.895.894.895zM337.383 97h1.233v-4.554h4.415v-1.094h-4.415v-3.44h4.872v-1.094h-6.105V97zm10.7.16c1.55 0 2.685-.776 3.043-1.93l-1.134-.318c-.298.796-.99 1.193-1.91 1.193-1.377 0-2.326-.9-2.38-2.526h5.543v-.497c0-2.844-1.7-3.818-3.28-3.818-2.068 0-3.44 1.63-3.44 3.977s1.352 3.918 3.56 3.918zm-2.38-4.594c.08-1.188.92-2.247 2.262-2.247 1.273 0 2.088.954 2.088 2.247h-4.35zM353.188 97h1.134v-1.173h.14c.258.418.755 1.332 2.227 1.332 1.91 0 3.242-1.53 3.242-3.957 0-2.406-1.333-3.937-3.262-3.937-1.49 0-1.95.915-2.207 1.313h-.1v-3.758h-1.173V97zm1.153-3.818c0-1.7.756-2.864 2.188-2.864 1.49 0 2.227 1.253 2.227 2.864 0 1.63-.755 2.923-2.227 2.923-1.412 0-2.188-1.193-2.188-2.923zm11.3 3.818h6.423v-1.094h-4.733v-.08l2.287-2.446c1.75-1.874 2.267-2.75 2.267-3.878 0-1.57-1.273-2.824-3.062-2.824s-3.142 1.213-3.142 3.003h1.173c0-1.158.75-1.93 1.93-1.93 1.104 0 1.95.676 1.95 1.75 0 .94-.552 1.636-1.73 2.923l-3.36 3.68V97zm10.246-1.392h-1.272l-.06.557c-.144 1.347-.428 2.7-.557 3.32h.895c.24-.676.746-2.207.915-3.34l.08-.537zM381.98 97h6.423v-1.094h-4.733v-.08l2.287-2.446c1.75-1.874 2.267-2.75 2.267-3.878 0-1.57-1.273-2.824-3.062-2.824s-3.142 1.213-3.142 3.003h1.173c0-1.158.75-1.93 1.93-1.93 1.103 0 1.95.676 1.95 1.75 0 .94-.552 1.636-1.73 2.923l-3.36 3.68V97zm11.797.14c2.248 0 3.54-1.904 3.54-5.23 0-3.3-1.312-5.23-3.54-5.23s-3.54 1.93-3.54 5.23c0 3.326 1.292 5.23 3.54 5.23zm0-1.094c-1.48 0-2.346-1.487-2.346-4.136s.875-4.156 2.346-4.156 2.347 1.51 2.347 4.156-.865 4.136-2.347 4.136zm9.01-9.227h-1.233l-2.546 1.7v1.253l2.486-1.65h.06V97h1.233V86.818zm6.19 10.32c2.034 0 3.45-1.188 3.46-2.844-.01-1.288-.87-2.38-1.97-2.585v-.06c.955-.25 1.58-1.183 1.59-2.267-.01-1.55-1.313-2.704-3.083-2.704-1.79 0-3.092 1.153-3.082 2.704-.01 1.084.617 2.02 1.59 2.267v.06c-1.12.204-1.98 1.298-1.97 2.585-.01 1.655 1.407 2.844 3.46 2.844zm0-1.094c-1.397 0-2.257-.716-2.247-1.8-.01-1.148.94-1.97 2.247-1.97 1.288 0 2.238.82 2.248 1.97-.01 1.094-.87 1.8-2.248 1.8zm0-4.832c-1.113 0-1.9-.696-1.89-1.75-.01-1.034.746-1.7 1.89-1.7 1.124 0 1.88.676 1.9 1.7-.01 1.054-.796 1.75-1.9 1.75zm18.054 2.227c.492 0 .894-.403.894-.895s-.402-.895-.894-.895-.895.403-.895.895.402.895.895.895zm18.014 3.72c1.55 0 2.685-.776 3.043-1.93l-1.134-.318c-.298.796-.99 1.193-1.91 1.193-1.377 0-2.327-.9-2.38-2.526h5.543v-.497c0-2.844-1.7-3.818-3.28-3.818-2.068 0-3.44 1.63-3.44 3.977s1.353 3.918 3.56 3.918zm-2.38-4.594c.08-1.188.92-2.247 2.262-2.247 1.273 0 2.088.954 2.088 2.247h-4.35zm10.21 4.594c1.472 0 1.97-.915 2.228-1.332h.14V97h1.133V86.818H455.2v3.758h-.1c-.26-.398-.716-1.312-2.208-1.312-1.93 0-3.26 1.53-3.26 3.938 0 2.426 1.332 3.957 3.24 3.957zm.16-1.054c-1.47 0-2.227-1.293-2.227-2.923 0-1.61.736-2.864 2.227-2.864 1.432 0 2.188 1.153 2.188 2.864 0 1.73-.776 2.923-2.188 2.923zm5.653.895h1.173v-7.636h-1.173V97zm.597-8.91c.457 0 .835-.358.835-.795s-.378-.796-.835-.796-.835.358-.835.796.377.795.835.795zm6.046 1.273h-1.63v-1.83h-1.173v1.83h-1.154v.994h1.154v4.773c0 1.332 1.073 1.97 2.068 1.97.437 0 .716-.08.875-.14l-.24-1.054c-.1.02-.258.06-.517.06-.517 0-1.014-.16-1.014-1.153v-4.454h1.63v-.994zm4.885 7.795c1.55 0 2.685-.776 3.043-1.93l-1.134-.318c-.298.796-.99 1.193-1.91 1.193-1.377 0-2.327-.9-2.38-2.526h5.543v-.497c0-2.844-1.7-3.818-3.28-3.818-2.068 0-3.44 1.63-3.44 3.977s1.353 3.918 3.56 3.918zm-2.38-4.594c.08-1.188.92-2.247 2.262-2.247 1.272 0 2.088.954 2.088 2.247h-4.35zm10.21 4.594c1.472 0 1.97-.915 2.228-1.332h.14V97h1.133V86.818h-1.173v3.758h-.1c-.26-.398-.716-1.312-2.208-1.312-1.93 0-3.26 1.53-3.26 3.938 0 2.426 1.332 3.957 3.24 3.957zm.16-1.054c-1.47 0-2.227-1.293-2.227-2.923 0-1.61.736-2.864 2.227-2.864 1.432 0 2.188 1.153 2.188 2.864 0 1.73-.776 2.923-2.188 2.923zm13.01 1.034c1.974 0 3.44-1.238 3.44-2.903 0-1.293-.765-2.232-2.048-2.446v-.08c1.03-.313 1.67-1.158 1.67-2.307 0-1.442-1.14-2.724-3.023-2.724-1.76 0-3.222 1.084-3.28 2.685h1.193c.045-1.014 1.01-1.61 2.068-1.61 1.124 0 1.85.68 1.85 1.7 0 1.074-.84 1.77-2.048 1.77h-.815v1.094h.815c1.546 0 2.406.785 2.406 1.91 0 1.08-.94 1.8-2.247 1.8-1.178 0-2.113-.607-2.187-1.59h-1.253c.074 1.6 1.486 2.685 3.46 2.685zm10.604-4.733c0-1.332.85-2.088 2.01-2.088 1.104 0 1.77.696 1.77 1.91V97h1.173v-4.852c0-1.964-1.044-2.883-2.605-2.883-1.203 0-1.89.502-2.247 1.293h-.1v-3.74h-1.173V97h1.173v-4.594zm10.2 4.753c2.068 0 3.46-1.57 3.46-3.937 0-2.386-1.392-3.957-3.46-3.957s-3.46 1.57-3.46 3.957c0 2.367 1.392 3.938 3.46 3.938zm0-1.054c-1.57 0-2.287-1.352-2.287-2.883s.716-2.903 2.287-2.903 2.287 1.372 2.287 2.903-.716 2.883-2.287 2.883zm10.064-2.227c0 1.432-1.094 2.088-1.97 2.088-.975 0-1.67-.716-1.67-1.83v-4.773h-1.173v4.852c0 1.95 1.034 2.883 2.466 2.883 1.153 0 1.91-.616 2.267-1.392h.08V97h1.173v-7.636h-1.173v4.514zM525.404 97h1.173v-4.832c0-1.034.816-1.8 1.93-1.8.313 0 .637.06.716.08v-1.193l-.616-.02c-.915 0-1.71.517-1.99 1.273h-.08v-1.153h-1.133V97zm10.618-5.926c-.368-1.084-1.193-1.8-2.705-1.8-1.6 0-2.804.915-2.804 2.207 0 1.054.627 1.76 2.03 2.088l1.273.298c.77.18 1.133.547 1.133 1.074 0 .656-.696 1.193-1.8 1.193-.96 0-1.56-.413-1.77-1.233l-1.113.28c.273 1.297 1.342 1.99 2.903 1.99 1.775 0 2.983-.97 2.983-2.287 0-1.064-.666-1.735-2.028-2.068L533 92.526c-.905-.224-1.312-.527-1.312-1.114 0-.656.696-1.133 1.63-1.133 1.025 0 1.447.567 1.65 1.094l1.054-.298zm8.1 6.105c1.332 0 2.028-.716 2.267-1.213h.06V97h1.173v-5.03c0-2.426-1.85-2.705-2.824-2.705-1.153 0-2.466.398-3.062 1.8l1.113.398c.26-.557.87-1.153 1.99-1.153 1.08 0 1.61.572 1.61 1.55v.04c0 .567-.577.517-1.97.696-1.417.184-2.963.497-2.963 2.247 0 1.49 1.153 2.347 2.605 2.347zm.18-1.054c-.935 0-1.61-.418-1.61-1.233 0-.895.816-1.173 1.73-1.293.497-.06 1.83-.2 2.03-.437v1.074c0 .954-.756 1.89-2.148 1.89zm8.545 3.898c1.83 0 3.3-.835 3.3-2.804v-7.855h-1.133v1.213h-.12c-.258-.398-.736-1.312-2.227-1.312-1.93 0-3.26 1.53-3.26 3.878 0 2.386 1.392 3.74 3.24 3.74 1.492 0 1.97-.875 2.227-1.293h.1v1.55c0 1.273-.895 1.85-2.128 1.85-1.387 0-1.874-.73-2.188-1.153l-.934.656c.477.8 1.417 1.53 3.122 1.53zm-.04-4.196c-1.47 0-2.227-1.114-2.227-2.704 0-1.55.736-2.804 2.227-2.804 1.432 0 2.188 1.153 2.188 2.804 0 1.7-.776 2.704-2.188 2.704zm8.59 1.332c2.068 0 3.46-1.57 3.46-3.937 0-2.386-1.392-3.957-3.46-3.957s-3.46 1.57-3.46 3.957c0 2.367 1.392 3.938 3.46 3.938zm0-1.054c-1.57 0-2.287-1.352-2.287-2.883s.716-2.903 2.287-2.903 2.287 1.372 2.287 2.903-.716 2.883-2.287 2.883z" class="B"/><path d="M129.08 62.273c0-5.582-3.34-8.966-7.858-8.966-4.534 0-7.867 3.383-7.867 8.966 0 5.574 3.333 8.966 7.867 8.966 4.517 0 7.858-3.384 7.858-8.966zm-2.608 0c0 4.253-2.25 6.563-5.25 6.563-3.01 0-5.25-2.3-5.25-6.562s2.24-6.562 5.25-6.562c3 0 5.25 2.3 5.25 6.563zm8.235.955c0-2.088 1.278-3.28 3.05-3.28 1.73 0 2.778 1.134 2.778 3.034V71h2.55v-8.327c0-3.24-1.782-4.935-4.458-4.935-1.97 0-3.256.912-3.86 2.3h-.162v-2.13h-2.446V71h2.55v-7.773zm12 7.773h2.488v-2.037h.213c.46.835 1.398 2.293 3.784 2.293 3.17 0 5.472-2.54 5.472-6.776 0-4.244-2.335-6.74-5.497-6.74-2.43 0-3.307 1.483-3.76 2.293h-.153v-6.486h-2.548V71zm2.497-6.546c0-2.736 1.193-4.55 3.417-4.55 2.3 0 3.47 1.952 3.47 4.55 0 2.625-1.193 4.628-3.47 4.628-2.2 0-3.417-1.875-3.417-4.628zm17.836 6.8c3.7 0 6.102-2.702 6.102-6.75 0-4.074-2.412-6.776-6.102-6.776s-6.102 2.702-6.102 6.776c0 4.048 2.41 6.75 6.102 6.75zm.008-2.14c-2.412 0-3.537-2.105-3.537-4.62 0-2.506 1.125-4.636 3.537-4.636 2.395 0 3.52 2.13 3.52 4.636 0 2.514-1.125 4.62-3.52 4.62zm12.748 2.165c2.165 0 3.384-1.1 3.87-2.08h.103V71h2.488v-8.693c0-3.8-3-4.568-5.08-4.568-2.37 0-4.55.955-5.404 3.34l2.395.545c.375-.93 1.33-1.824 3.043-1.824 1.645 0 2.49.86 2.49 2.344v.06c0 .93-.955.912-3.307 1.185-2.48.3-5.02.938-5.02 3.912 0 2.574 1.935 3.99 4.423 3.99zm.554-2.046c-1.44 0-2.48-.648-2.48-1.91 0-1.364 1.2-1.85 2.685-2.045.826-.11 2.787-.332 3.153-.7v1.688c0 1.55-1.236 2.966-3.358 2.966zm9.3 1.756h2.548v-7.994c0-1.713 1.32-2.95 3.128-2.95.528 0 1.125.094 1.33.153v-2.437a10.33 10.33 0 0 0-1.082-.06c-1.534 0-2.847.87-3.324 2.276h-.136v-2.08h-2.463V71zm13.642.256c2.387 0 3.324-1.457 3.784-2.293h.213V71h2.49V53.546h-2.548v6.486h-.154c-.46-.8-1.33-2.293-3.767-2.293-3.162 0-5.488 2.497-5.488 6.74 0 4.236 2.292 6.776 5.47 6.776zm.563-2.173c-2.276 0-3.46-2.003-3.46-4.628 0-2.6 1.16-4.55 3.46-4.55 2.224 0 3.417 1.815 3.417 4.55 0 2.753-1.218 4.628-3.417 4.628zm9.56 1.918h2.548V57.91h-2.548V71zm1.287-15.11c.878 0 1.61-.682 1.61-1.517s-.733-1.526-1.61-1.526c-.886 0-1.61.7-1.61 1.526s.725 1.517 1.61 1.517zm7.238 7.338c0-2.088 1.278-3.28 3.05-3.28 1.73 0 2.78 1.134 2.78 3.034V71h2.548v-8.327c0-3.24-1.78-4.935-4.457-4.935-1.97 0-3.256.912-3.86 2.3h-.162v-2.13h-2.446V71h2.548v-7.773zm17.284 12.93c3.333 0 5.906-1.525 5.906-4.866V57.91h-2.497v2.122h-.187c-.452-.8-1.355-2.293-3.793-2.293-3.162 0-5.49 2.497-5.49 6.665 0 4.176 2.378 6.4 5.472 6.4 2.403 0 3.332-1.355 3.793-2.2h.162v2.574c0 2.02-1.407 2.915-3.34 2.915-2.122 0-2.95-1.065-3.4-1.8l-2.2.903c.7 1.577 2.437 2.94 5.565 2.94zM239.2 68.7c-2.276 0-3.46-1.747-3.46-4.32 0-2.514 1.16-4.466 3.46-4.466 2.224 0 3.417 1.815 3.417 4.466 0 2.702-1.22 4.32-3.417 4.32zm15.905 2.3h6.7c4.057 0 5.9-2.02 5.9-4.696 0-2.702-1.892-4.227-3.623-4.32v-.17c1.603-.41 2.94-1.5 2.94-3.682 0-2.582-1.8-4.585-5.506-4.585h-6.392V71zm2.634-2.258v-5.59h3.895c2.113 0 3.434 1.364 3.434 3.026 0 1.466-.997 2.565-3.528 2.565h-3.8zm0-7.645v-5.3h3.596c2.088 0 3.085 1.1 3.085 2.548 0 1.688-1.38 2.76-3.153 2.76h-3.528zM274.413 71.3c2.165 0 3.384-1.1 3.87-2.08h.102V71h2.49v-8.693c0-3.8-3-4.568-5.08-4.568-2.37 0-4.55.955-5.403 3.34l2.395.545c.375-.93 1.33-1.824 3.042-1.824 1.645 0 2.49.86 2.49 2.344v.06c0 .93-.955.912-3.307 1.185-2.48.3-5.02.938-5.02 3.912 0 2.574 1.935 3.99 4.423 3.99zm.554-2.046c-1.44 0-2.48-.648-2.48-1.91 0-1.364 1.2-1.85 2.685-2.045.827-.11 2.787-.332 3.153-.7v1.688c0 1.55-1.236 2.966-3.358 2.966zm19.1-8.14c-.528-2.037-2.122-3.367-4.95-3.367-2.958 0-5.054 1.56-5.054 3.878 0 1.858 1.125 3.094 3.58 3.64l2.216.486c1.262.28 1.85.844 1.85 1.662 0 1.014-1.083 1.807-2.753 1.807-1.526 0-2.506-.656-2.813-1.943l-2.463.375c.426 2.318 2.352 3.622 5.293 3.622 3.162 0 5.352-1.68 5.352-4.048 0-1.85-1.176-2.992-3.58-3.545l-2.08-.477c-1.44-.34-2.062-.827-2.054-1.713-.008-1.006 1.082-1.722 2.53-1.722 1.586 0 2.318.878 2.617 1.756l2.31-.41zM297.135 71h2.548V57.91h-2.548V71zm1.287-15.11c.878 0 1.61-.682 1.61-1.517s-.733-1.526-1.61-1.526c-.886 0-1.61.7-1.61 1.526s.725 1.517 1.61 1.517zm10.204 15.375c3.093 0 5.096-1.858 5.378-4.406h-2.48c-.323 1.415-1.423 2.25-2.88 2.25-2.156 0-3.546-1.798-3.546-4.654 0-2.804 1.415-4.568 3.546-4.568 1.62 0 2.608 1.023 2.88 2.25h2.48c-.273-2.642-2.43-4.398-5.404-4.398-3.7 0-6.077 2.778-6.077 6.776 0 3.946 2.302 6.75 6.103 6.75zm17.912-10.16c-.528-2.037-2.122-3.367-4.95-3.367-2.958 0-5.054 1.56-5.054 3.878 0 1.858 1.125 3.094 3.58 3.64l2.216.486c1.26.28 1.85.844 1.85 1.662 0 1.014-1.083 1.807-2.753 1.807-1.526 0-2.506-.656-2.813-1.943l-2.463.375c.426 2.318 2.352 3.622 5.293 3.622 3.162 0 5.352-1.68 5.352-4.048 0-1.85-1.176-2.992-3.58-3.545l-2.08-.477c-1.44-.34-2.063-.827-2.054-1.713-.01-1.006 1.082-1.722 2.53-1.722 1.585 0 2.318.878 2.617 1.756l2.31-.41z" fill="#000"/><circle cx="72" cy="74" r="24" fill="#14cc52" class="C"/><path d="M65 68a1 1 0 1 0 0-2 1 1 0 1 0 0 2zm0 7a1 1 0 1 0 0-2 1 1 0 1 0 0 2zm0 7a1 1 0 1 0 0-2 1 1 0 1 0 0 2zm4-15h12m-12 7h12m-12 7h12" stroke="#14cc52" stroke-width="2" stroke-miterlimit="10"/></svg>