<svg xmlns="http://www.w3.org/2000/svg" width="704" height="372" fill="none"><style><![CDATA[.B{stroke-width:2}.C{stroke-miterlimit:10}.D{fill:#797c7f}.E{fill-opacity:.1}]]></style><path d="M0 0H704V372H0V0Z" fill="#fff"/><rect x="35" y="26" width="634" height="44" rx="4" fill="#f5f6f7"/><path d="M94.773 327.273h1.364c-.062-1.756-1.682-3.068-3.932-3.068-2.227 0-3.977 1.295-3.977 3.25 0 1.568 1.136 2.5 2.954 3.022l1.432.41c1.227.34 2.318.773 2.318 1.932 0 1.273-1.227 2.114-2.84 2.114-1.386 0-2.614-.614-2.727-1.932H87.91c.136 1.91 1.682 3.205 4.182 3.205 2.682 0 4.205-1.478 4.205-3.364 0-2.182-2.068-2.886-3.273-3.205l-1.182-.318c-.864-.227-2.25-.682-2.25-1.932 0-1.113 1.023-1.93 2.568-1.93 1.41 0 2.477.67 2.614 1.818zm5 3.477c0-1.523.972-2.386 2.296-2.386 1.26 0 2.022.795 2.022 2.18V336h1.34v-5.545c0-2.245-1.193-3.296-2.977-3.296-1.375 0-2.16.574-2.568 1.477h-.114v-4.272h-1.34V336h1.34v-5.25zm11.658 5.432c2.364 0 3.955-1.796 3.955-4.5 0-2.727-1.59-4.523-3.955-4.523s-3.955 1.796-3.955 4.523c0 2.704 1.59 4.5 3.955 4.5zm0-1.205c-1.795 0-2.614-1.545-2.614-3.295s.82-3.318 2.614-3.318 2.614 1.568 2.614 3.318-.82 3.295-2.614 3.295zM119.11 336h1.318l1.91-6.705h.136l1.9 6.705h1.318l2.66-8.727h-1.41l-1.887 6.66h-.09l-1.84-6.66h-1.432l-1.864 6.682h-.09l-1.886-6.682h-1.41l2.66 8.727zm16.182 0l1.17-3.295h4.705l1.17 3.295h1.477l-4.272-11.636h-1.455L133.815 336h1.478zm1.613-4.545l1.864-5.25h.09l1.863 5.25h-3.818zm9.88-7.09h-1.34V336h1.34v-11.636zm3.797 0h-1.34V336h1.34v-11.636z" fill="#000"/><path d="M575.547 261.91c0-3.22-1.9-5.23-4.495-5.23s-4.494 2.01-4.494 5.23 1.89 5.23 4.494 5.23 4.495-2.008 4.495-5.23zm-1.194 0c0 2.645-1.45 4.077-3.3 4.077s-3.3-1.432-3.3-4.077 1.452-4.077 3.3-4.077 3.3 1.432 3.3 4.077zm6.2 5.25c1.7 0 2.804-1.034 3.003-2.386h-1.174c-.218.835-.914 1.332-1.83 1.332-1.392 0-2.287-1.153-2.287-2.923 0-1.73.915-2.864 2.287-2.864 1.034 0 1.65.637 1.83 1.333h1.174c-.2-1.432-1.412-2.387-3.023-2.387-2.068 0-3.44 1.63-3.44 3.958 0 2.287 1.312 3.937 3.46 3.937zm8.04-7.795h-1.63v-1.83h-1.173v1.83h-1.153v.994h1.153v4.773c0 1.332 1.074 1.968 2.068 1.968.438 0 .716-.08.875-.14l-.24-1.054c-.1.02-.258.06-.517.06-.517 0-1.014-.16-1.014-1.154v-4.454h1.63v-.994zm9.262-2.546h-1.233l-2.545 1.69v1.252l2.485-1.65h.06V267h1.233v-10.182zm6.1 10.32c1.94 0 3.36-1.432 3.36-3.38 0-1.974-1.372-3.42-3.242-3.42-.686 0-1.352.244-1.77.577h-.06l.358-3.003h4.255v-1.094h-5.29l-.617 5.012 1.154.14c.422-.304 1.143-.522 1.77-.517 1.297.01 2.247.994 2.247 2.326 0 1.308-.915 2.267-2.168 2.267-1.044 0-1.874-.67-1.97-1.6h-1.193c.075 1.55 1.412 2.684 3.162 2.684zm6.627-1.53h-1.273l-.06.557c-.144 1.347-.428 2.69-.557 3.32h.895c.24-.676.746-2.208.915-3.34l.08-.537zm6.092 1.392h6.423v-1.094h-4.733v-.08l2.287-2.446c1.75-1.875 2.267-2.75 2.267-3.878 0-1.57-1.273-2.824-3.063-2.824-1.784 0-3.142 1.213-3.142 3.003h1.174c0-1.16.75-1.93 1.93-1.93 1.103 0 1.95.676 1.95 1.75 0 .94-.552 1.635-1.73 2.923l-3.36 3.68V267zm11.797.14c2.247 0 3.54-1.904 3.54-5.23 0-3.3-1.312-5.23-3.54-5.23s-3.54 1.93-3.54 5.23c0 3.326 1.293 5.23 3.54 5.23zm0-1.094c-1.48 0-2.346-1.486-2.346-4.136 0-2.645.875-4.156 2.346-4.156s2.347 1.51 2.347 4.156c0 2.65-.865 4.136-2.347 4.136zm9.01-9.227h-1.233l-2.546 1.69v1.252l2.486-1.65h.06V267h1.233v-10.182zm6.19 10.32c2.034 0 3.45-1.188 3.46-2.844-.01-1.287-.87-2.38-1.97-2.585v-.06c.954-.25 1.58-1.184 1.59-2.267-.01-1.552-1.313-2.705-3.083-2.705-1.79 0-3.092 1.153-3.082 2.705-.01 1.083.616 2.018 1.59 2.267v.06c-1.12.204-1.98 1.298-1.97 2.585-.01 1.656 1.407 2.844 3.46 2.844zm0-1.094c-1.397 0-2.257-.715-2.247-1.81-.01-1.15.94-1.97 2.247-1.97 1.288 0 2.238.82 2.248 1.97-.01 1.094-.87 1.81-2.248 1.81zm0-4.832c-1.113 0-1.9-.696-1.89-1.75-.01-1.034.746-1.7 1.89-1.7 1.124 0 1.88.676 1.9 1.7-.01 1.054-.796 1.75-1.9 1.75z" class="D"/><path d="M99.96 268.192c1.8 0 2.493-1.093 2.838-1.72h.16V268h1.867v-13.09h-1.912v4.864h-.115c-.345-.607-.997-1.72-2.825-1.72-2.37 0-4.117 1.873-4.117 5.056 0 3.177 1.72 5.082 4.104 5.082zm.422-1.63c-1.707 0-2.595-1.502-2.595-3.47 0-1.95.87-3.413 2.595-3.413 1.668 0 2.563 1.36 2.563 3.413 0 2.065-.914 3.47-2.563 3.47zm11.402 1.636c2.14 0 3.656-1.055 4.09-2.653l-1.81-.326c-.345.927-1.176 1.4-2.263 1.4-1.636 0-2.736-1.06-2.787-2.953h6.98v-.677c0-3.548-2.122-4.935-4.346-4.935-2.736 0-4.54 2.084-4.54 5.1 0 3.05 1.777 5.043 4.673 5.043zm-2.76-5.964c.076-1.393 1.086-2.6 2.64-2.6 1.483 0 2.455 1.1 2.46 2.6h-5.1zm17.44-4.052h-2.052l-2.48 7.555h-.102l-2.486-7.555h-2.052l3.566 9.818h2.046l3.56-9.818zm5.676 10.016c2.142 0 3.657-1.055 4.09-2.653l-1.81-.326c-.345.927-1.176 1.4-2.262 1.4-1.637 0-2.736-1.06-2.787-2.953h6.98v-.677c0-3.548-2.122-4.935-4.347-4.935-2.736 0-4.538 2.084-4.538 5.1 0 3.05 1.777 5.043 4.672 5.043zm-2.76-5.964c.077-1.393 1.087-2.6 2.64-2.6 1.483 0 2.454 1.1 2.46 2.6h-5.1zm11.006-7.325h-1.912V268h1.912v-13.09zm6.706 13.29c2.768 0 4.577-2.026 4.577-5.062 0-3.056-1.81-5.082-4.577-5.082s-4.576 2.026-4.576 5.082c0 3.036 1.81 5.062 4.576 5.062zm.007-1.604c-1.81 0-2.653-1.58-2.653-3.465 0-1.88.844-3.477 2.653-3.477 1.796 0 2.64 1.598 2.64 3.477 0 1.886-.844 3.465-2.64 3.465zm6.703 5.088h1.912v-5.2h.115c.345.627 1.048 1.72 2.838 1.72 2.378 0 4.103-1.905 4.103-5.082 0-3.183-1.75-5.056-4.122-5.056-1.822 0-2.48 1.112-2.82 1.72h-.16v-1.59H153.8v13.5zm1.873-8.59c0-2.052.895-3.413 2.564-3.413 1.732 0 2.6 1.463 2.6 3.413 0 1.97-.895 3.47-2.6 3.47-1.643 0-2.564-1.406-2.564-3.47zM164.9 268h1.91v-6.053c0-1.323.927-2.244 2.014-2.244 1.06 0 1.796.703 1.796 1.77V268h1.905v-6.258c0-1.182.722-2.04 1.968-2.04 1 0 1.84.563 1.84 1.892V268h1.91v-6.584c0-2.243-1.252-3.362-3.03-3.362-1.413 0-2.474.678-2.947 1.726h-.102c-.43-1.074-1.33-1.726-2.64-1.726-1.298 0-2.263.646-2.672 1.726h-.122v-1.598H164.9V268zm20.14.198c2.14 0 3.656-1.055 4.1-2.653l-1.81-.326c-.345.927-1.176 1.4-2.262 1.4-1.637 0-2.736-1.06-2.787-2.953h6.98v-.677c0-3.548-2.122-4.935-4.347-4.935-2.735 0-4.538 2.084-4.538 5.1 0 3.05 1.777 5.043 4.673 5.043zm-2.762-5.964c.077-1.393 1.087-2.6 2.64-2.6 1.483 0 2.455 1.1 2.46 2.6h-5.1zm11.006-.064c0-1.566.958-2.46 2.288-2.46 1.298 0 2.084.85 2.084 2.275V268h1.91v-6.245c0-2.43-1.336-3.7-3.343-3.7-1.477 0-2.442.684-2.896 1.726h-.12v-1.598h-1.835V268h1.912v-5.83zm13.43-3.988H204.7v-2.352h-1.91v2.352h-1.44v1.534h1.44v5.797c-.007 1.784 1.355 2.647 2.863 2.615.608-.007 1.017-.122 1.24-.205l-.345-1.58c-.128.026-.364.084-.67.084-.62 0-1.176-.205-1.176-1.31v-5.4h2.013v-1.534zm7.434 3.273c0 3.208.857 5.88 2.48 8.156h1.752c-1.26-1.688-2.25-5.114-2.25-8.156 0-3.037.99-6.463 2.25-8.15h-1.752c-1.623 2.275-2.48 4.947-2.48 8.15zm6.22 6.545h8.617v-1.694H223.1v-.096l2.602-2.723c2.397-2.422 3.08-3.58 3.08-5.043 0-2.103-1.713-3.714-4.18-3.714-2.45 0-4.238 1.585-4.238 3.976h1.885c-.006-1.406.902-2.327 2.314-2.327 1.33 0 2.34.818 2.34 2.122 0 1.157-.69 1.988-2.097 3.478l-4.43 4.59V268zm16.006-13.09h-1.924l-3.266 2.135v1.892l3.132-2.045h.077V268h1.98v-13.09zm7.242 6.552c0-3.21-.856-5.88-2.48-8.156h-1.75c1.26 1.687 2.25 5.113 2.25 8.156 0 3.036-.99 6.462-2.25 8.15h1.75c1.624-2.276 2.48-4.948 2.48-8.15z" fill="#000"/><circle cx="63" cy="262" r="20" fill="#ff8c19" class="E"/><g stroke="#ff8c19" class="B C"><path d="M66.154 258H71l-1 4 1 4h-9m-5-11h9v8h-9"/><path d="M57 253v18"/></g><path d="M411.342 195h1.233v-4.554H417v-1.094h-4.415v-3.44h4.872v-1.094h-6.105V195zm10.7.16c1.55 0 2.685-.775 3.043-1.93l-1.134-.318c-.298.795-.99 1.193-1.91 1.193-1.377 0-2.327-.9-2.38-2.525h5.543v-.498c0-2.843-1.7-3.818-3.28-3.818-2.068 0-3.44 1.63-3.44 3.977s1.352 3.918 3.56 3.918zm-2.38-4.594c.08-1.188.92-2.247 2.262-2.247 1.273 0 2.088.955 2.088 2.247h-4.35zm7.487 4.435h1.134v-1.173h.14c.258.417.755 1.332 2.227 1.332 1.91 0 3.24-1.53 3.24-3.957 0-2.407-1.332-3.938-3.26-3.938-1.49 0-1.95.915-2.207 1.313h-.1v-3.76h-1.173V195zm1.153-3.818c0-1.7.756-2.864 2.188-2.864 1.49 0 2.227 1.253 2.227 2.864 0 1.63-.755 2.923-2.227 2.923-1.412 0-2.188-1.193-2.188-2.923zM439.6 195h6.423v-1.094h-4.733v-.08l2.287-2.446c1.75-1.875 2.267-2.75 2.267-3.878 0-1.57-1.273-2.824-3.062-2.824s-3.142 1.213-3.142 3.003h1.173c0-1.16.75-1.93 1.93-1.93 1.104 0 1.95.676 1.95 1.75 0 .94-.552 1.635-1.73 2.923l-3.36 3.68V195zm11.738.14c2.033 0 3.45-1.188 3.46-2.844-.01-1.287-.87-2.38-1.97-2.585v-.06c.955-.25 1.58-1.184 1.59-2.267-.01-1.552-1.312-2.705-3.082-2.705-1.8 0-3.093 1.153-3.083 2.705-.01 1.083.617 2.018 1.59 2.267v.06c-1.118.204-1.978 1.298-1.968 2.585-.01 1.656 1.407 2.844 3.46 2.844zm0-1.094c-1.397 0-2.257-.715-2.247-1.81-.01-1.15.94-1.97 2.247-1.97 1.287 0 2.237.82 2.247 1.97-.01 1.094-.87 1.81-2.247 1.81zm0-4.832c-1.114 0-1.9-.696-1.89-1.75-.01-1.034.745-1.7 1.89-1.7 1.123 0 1.88.676 1.89 1.7-.01 1.054-.795 1.75-1.89 1.75zm6.657 4.395h-1.273l-.06.557c-.144 1.347-.427 2.69-.556 3.32H457c.24-.676.746-2.208.915-3.34l.08-.537zm6.09 1.392h6.423v-1.094h-4.732v-.08l2.286-2.446c1.75-1.875 2.267-2.75 2.267-3.878 0-1.57-1.272-2.824-3.062-2.824s-3.142 1.213-3.142 3.003h1.173c0-1.16.75-1.93 1.93-1.93 1.104 0 1.95.676 1.95 1.75 0 .94-.552 1.635-1.73 2.923l-3.36 3.68V195zm11.798.14c2.247 0 3.54-1.904 3.54-5.23 0-3.3-1.313-5.23-3.54-5.23s-3.54 1.93-3.54 5.23c0 3.326 1.293 5.23 3.54 5.23zm0-1.094c-1.482 0-2.347-1.486-2.347-4.136 0-2.645.875-4.156 2.347-4.156s2.346 1.51 2.346 4.156c0 2.65-.865 4.136-2.346 4.136zm9.008-9.227h-1.233l-2.545 1.69v1.252l2.486-1.65h.06V195h1.233v-10.182zm6.17-.16c-2.068-.02-3.4 1.53-3.4 3.42 0 1.968 1.452 3.38 3.202 3.38 1.054 0 1.95-.517 2.506-1.352h.08c0 2.506-.974 3.937-2.545 3.937-1.074 0-1.73-.676-1.95-1.6h-1.213c.24 1.6 1.452 2.704 3.162 2.704 2.287 0 3.7-2.028 3.7-5.648 0-3.758-1.87-4.812-3.54-4.832zm0 1.094c1.273 0 2.207 1.094 2.207 2.307s-.994 2.306-2.247 2.306-2.167-1.014-2.167-2.286c0-1.293.954-2.327 2.207-2.327zm18.182 5.687c.493 0 .895-.402.895-.895s-.402-.894-.895-.894-.895.402-.895.894a.9.9 0 0 0 .895.895zm18.015 3.72c1.55 0 2.685-.775 3.043-1.93l-1.134-.318c-.298.795-.99 1.193-1.91 1.193-1.377 0-2.327-.9-2.38-2.525h5.543v-.498c0-2.843-1.7-3.818-3.28-3.818-2.07 0-3.44 1.63-3.44 3.977s1.353 3.918 3.56 3.918zm-2.38-4.594c.08-1.188.92-2.247 2.262-2.247 1.272 0 2.088.955 2.088 2.247h-4.35zm10.21 4.594c1.472 0 1.97-.915 2.227-1.332h.14V195h1.133v-10.182h-1.173v3.76h-.1c-.258-.398-.715-1.313-2.207-1.313-1.93 0-3.26 1.53-3.26 3.938 0 2.426 1.332 3.957 3.24 3.957zm.16-1.054c-1.47 0-2.227-1.293-2.227-2.923 0-1.61.736-2.864 2.227-2.864 1.432 0 2.188 1.154 2.188 2.864 0 1.73-.776 2.923-2.188 2.923zm5.653.895h1.173v-7.636h-1.173V195zm.597-8.91c.457 0 .835-.358.835-.796s-.378-.795-.835-.795-.836.358-.836.795.378.796.836.796zm6.046 1.273h-1.63v-1.83h-1.174v1.83h-1.153v.994h1.153v4.773c0 1.332 1.074 1.968 2.068 1.968.438 0 .716-.08.875-.14l-.238-1.054c-.1.02-.26.06-.517.06-.517 0-1.014-.16-1.014-1.154v-4.454h1.63v-.994zm4.885 7.795c1.55 0 2.685-.775 3.042-1.93l-1.133-.318c-.298.795-.99 1.193-1.91 1.193-1.377 0-2.327-.9-2.382-2.525h5.544v-.498c0-2.843-1.69-3.818-3.28-3.818-2.07 0-3.44 1.63-3.44 3.977s1.352 3.918 3.56 3.918zm-2.382-4.594c.08-1.188.92-2.247 2.263-2.247 1.272 0 2.088.955 2.088 2.247h-4.35zm10.212 4.594c1.472 0 1.97-.915 2.227-1.332h.14V195h1.133v-10.182h-1.173v3.76h-.1c-.258-.398-.716-1.313-2.207-1.313-1.93 0-3.26 1.53-3.26 3.938 0 2.426 1.332 3.957 3.24 3.957zm.16-1.054c-1.47 0-2.227-1.293-2.227-2.923 0-1.61.736-2.864 2.227-2.864 1.432 0 2.188 1.154 2.188 2.864 0 1.73-.776 2.923-2.188 2.923zm13.15-9.287h-1.233l-2.545 1.69v1.252l2.485-1.65h.06V195h1.233v-10.182zM576.497 195h6.424v-1.094h-4.733v-.08l2.287-2.446c1.75-1.875 2.267-2.75 2.267-3.878 0-1.57-1.273-2.824-3.063-2.824-1.785 0-3.142 1.213-3.142 3.003h1.173c0-1.16.75-1.93 1.93-1.93 1.104 0 1.95.676 1.95 1.75 0 .94-.552 1.635-1.73 2.923l-3.36 3.68V195zm15.318.16c1.47 0 1.97-.915 2.227-1.332h.14V195h1.134v-10.182h-1.173v3.76h-.1c-.258-.398-.716-1.313-2.207-1.313-1.93 0-3.262 1.53-3.262 3.938 0 2.426 1.333 3.957 3.242 3.957zm.16-1.054c-1.472 0-2.227-1.293-2.227-2.923 0-1.61.735-2.864 2.227-2.864 1.432 0 2.187 1.154 2.187 2.864 0 1.73-.775 2.923-2.187 2.923zm7.9 1.074c1.332 0 2.028-.716 2.267-1.213h.06V195h1.174v-5.03c0-2.426-1.85-2.705-2.824-2.705-1.154 0-2.466.398-3.063 1.8l1.114.398c.26-.557.87-1.154 1.99-1.154 1.08 0 1.6.572 1.6 1.55v.04c0 .567-.576.517-1.968.696-1.417.184-2.963.497-2.963 2.247 0 1.492 1.153 2.347 2.605 2.347zm.18-1.054c-.935 0-1.61-.418-1.61-1.233 0-.895.815-1.173 1.73-1.293.497-.06 1.83-.198 2.028-.437v1.074c0 .954-.755 1.89-2.147 1.89zm5.945 3.72c1.058 0 1.81-.562 2.247-1.73l3.25-8.73-1.283-.02-2.108 6.085h-.08l-2.108-6.085h-1.273l2.824 7.676-.22.596c-.417 1.144-.954 1.253-1.81 1.034l-.3 1.035c.12.06.458.14.856.14zm12.46-8.77c-.368-1.084-1.194-1.8-2.705-1.8-1.61 0-2.804.915-2.804 2.208 0 1.054.626 1.76 2.028 2.088l1.273.298c.77.18 1.134.547 1.134 1.074 0 .656-.696 1.193-1.8 1.193-.96 0-1.56-.413-1.77-1.233l-1.114.278c.274 1.298 1.343 1.99 2.904 1.99 1.775 0 2.983-.97 2.983-2.287 0-1.064-.666-1.735-2.03-2.068l-1.133-.278c-.905-.224-1.313-.527-1.313-1.114 0-.656.696-1.134 1.63-1.134 1.024 0 1.447.567 1.65 1.094l1.054-.298zm8.1 6.105c1.332 0 2.028-.716 2.267-1.213h.06V195h1.174v-5.03c0-2.426-1.85-2.705-2.824-2.705-1.154 0-2.466.398-3.063 1.8l1.114.398c.258-.557.87-1.154 1.988-1.154 1.08 0 1.61.572 1.61 1.55v.04c0 .567-.576.517-1.968.696-1.417.184-2.964.497-2.964 2.247 0 1.492 1.154 2.347 2.606 2.347zm.18-1.054c-.935 0-1.61-.418-1.61-1.233 0-.895.815-1.173 1.73-1.293.497-.06 1.83-.198 2.028-.437v1.074c0 .954-.755 1.89-2.147 1.89zm8.544 3.898c1.83 0 3.302-.835 3.302-2.804v-7.855h-1.134v1.213h-.12c-.26-.398-.736-1.313-2.227-1.313-1.93 0-3.262 1.53-3.262 3.878 0 2.386 1.392 3.74 3.242 3.74 1.49 0 1.968-.875 2.227-1.293h.1v1.55c0 1.273-.895 1.85-2.128 1.85-1.387 0-1.874-.73-2.187-1.154l-.935.656c.478.8 1.417 1.532 3.122 1.532zm-.04-4.196c-1.472 0-2.228-1.114-2.228-2.705 0-1.55.736-2.804 2.228-2.804 1.432 0 2.187 1.154 2.187 2.804 0 1.7-.775 2.705-2.187 2.705zm8.59 1.332c2.068 0 3.46-1.57 3.46-3.937 0-2.387-1.392-3.958-3.46-3.958s-3.46 1.57-3.46 3.958c0 2.366 1.392 3.937 3.46 3.937zm0-1.054c-1.57 0-2.287-1.352-2.287-2.883s.716-2.904 2.287-2.904 2.287 1.372 2.287 2.904-.716 2.883-2.287 2.883z" class="D"/><path d="M100.676 196c3.99 0 6.296-2.474 6.296-6.565 0-4.07-2.307-6.526-6.162-6.526h-4.372V196h4.238zm-2.263-1.726v-9.64h2.276c2.864 0 4.34 1.713 4.34 4.8 0 3.1-1.476 4.84-4.462 4.84h-2.154zm15.094 1.924c2.14 0 3.656-1.055 4.1-2.653l-1.808-.326c-.346.927-1.177 1.4-2.263 1.4-1.637 0-2.736-1.06-2.787-2.953h6.98v-.677c0-3.548-2.122-4.935-4.347-4.935-2.735 0-4.538 2.084-4.538 5.1 0 3.05 1.777 5.043 4.673 5.043zm-2.762-5.964c.077-1.393 1.087-2.6 2.64-2.6 1.483 0 2.455 1.1 2.46 2.6h-5.1zm17.44-4.052h-2.052l-2.48 7.555h-.102l-2.487-7.555h-2.052L122.58 196h2.046l3.56-9.818zm5.676 10.016c2.14 0 3.656-1.055 4.09-2.653l-1.81-.326c-.345.927-1.176 1.4-2.263 1.4-1.636 0-2.736-1.06-2.787-2.953h6.98v-.677c0-3.548-2.122-4.935-4.346-4.935-2.736 0-4.54 2.084-4.54 5.1 0 3.05 1.777 5.043 4.673 5.043zm-2.76-5.964c.076-1.393 1.086-2.6 2.64-2.6 1.483 0 2.454 1.1 2.46 2.6h-5.1zm11.005-7.325h-1.91V196h1.91v-13.09zm6.707 13.29c2.768 0 4.577-2.026 4.577-5.062 0-3.056-1.81-5.082-4.577-5.082s-4.577 2.026-4.577 5.082c0 3.036 1.81 5.062 4.577 5.062zm.006-1.604c-1.81 0-2.652-1.58-2.652-3.465 0-1.88.843-3.477 2.652-3.477 1.797 0 2.64 1.598 2.64 3.477 0 1.886-.843 3.465-2.64 3.465zm6.704 5.088h1.91v-5.2h.115c.346.627 1.05 1.72 2.838 1.72 2.378 0 4.104-1.905 4.104-5.082 0-3.183-1.75-5.056-4.123-5.056-1.82 0-2.48 1.112-2.82 1.72h-.16v-1.59h-1.867v13.5zm1.873-8.59c0-2.052.895-3.413 2.563-3.413 1.732 0 2.602 1.463 2.602 3.413 0 1.97-.895 3.47-2.602 3.47-1.643 0-2.563-1.406-2.563-3.47zm9.236 4.91h1.912v-6.053c0-1.323.927-2.244 2.013-2.244 1.06 0 1.796.703 1.796 1.77V196h1.905v-6.258c0-1.182.722-2.04 1.97-2.04 1 0 1.84.563 1.84 1.892V196h1.91v-6.584c0-2.243-1.253-3.362-3.03-3.362-1.412 0-2.474.678-2.947 1.726h-.102c-.428-1.074-1.33-1.726-2.64-1.726-1.297 0-2.262.646-2.672 1.726h-.12v-1.598h-1.835V196zm20.14.198c2.142 0 3.656-1.055 4.09-2.653l-1.81-.326c-.345.927-1.176 1.4-2.263 1.4-1.636 0-2.735-1.06-2.787-2.953h6.98v-.677c0-3.548-2.123-4.935-4.347-4.935-2.736 0-4.538 2.084-4.538 5.1 0 3.05 1.777 5.043 4.672 5.043zm-2.76-5.964c.077-1.393 1.086-2.6 2.64-2.6 1.483 0 2.454 1.1 2.46 2.6h-5.1zm11.005-.064c0-1.566.96-2.46 2.29-2.46 1.297 0 2.083.85 2.083 2.275V196h1.912v-6.245c0-2.43-1.336-3.7-3.343-3.7-1.477 0-2.442.684-2.896 1.726h-.12v-1.598h-1.835V196h1.91v-5.83zm13.43-3.988h-2.013v-2.352h-1.912v2.352h-1.438v1.534h1.438v5.797c-.006 1.784 1.355 2.647 2.864 2.615.607-.007 1.016-.122 1.24-.205l-.345-1.58c-.128.026-.365.084-.67.084-.62 0-1.176-.205-1.176-1.31v-5.4h2.013v-1.534zm7.03 9.818h8.284v-1.7h-6.31v-4.008h5.804v-1.694h-5.804v-3.99h6.233v-1.7h-8.208V196zm12.604-5.83c0-1.566.96-2.46 2.288-2.46 1.298 0 2.084.85 2.084 2.275V196h1.91v-6.245c0-2.43-1.336-3.7-3.343-3.7-1.476 0-2.442.684-2.895 1.726h-.122v-1.598h-1.834V196h1.91v-5.83zm16.894-3.988h-2.052l-2.48 7.555h-.102l-2.487-7.555h-2.052L239.37 196h2.046l3.56-9.818zM246.77 196h1.91v-9.818h-1.91V196zm.965-11.333c.66 0 1.208-.51 1.208-1.138s-.55-1.144-1.208-1.144-1.208.518-1.208 1.144.544 1.138 1.208 1.138zM251.254 196h1.91v-5.996c0-1.285.99-2.21 2.346-2.21.396 0 .843.07.997.115v-1.828a7.65 7.65 0 0 0-.812-.045c-1.15 0-2.135.652-2.493 1.706h-.102v-1.56h-1.847V196zm10.692.198c2.768 0 4.577-2.026 4.577-5.062 0-3.056-1.81-5.082-4.577-5.082s-4.577 2.026-4.577 5.082c0 3.036 1.81 5.062 4.577 5.062zm.006-1.604c-1.81 0-2.652-1.58-2.652-3.465 0-1.88.843-3.477 2.652-3.477 1.796 0 2.64 1.598 2.64 3.477 0 1.886-.844 3.465-2.64 3.465zm8.615-4.424c0-1.566.96-2.46 2.288-2.46 1.298 0 2.084.85 2.084 2.275V196h1.91v-6.245c0-2.43-1.335-3.7-3.343-3.7-1.476 0-2.44.684-2.895 1.726h-.122v-1.598h-1.834V196h1.91v-5.83zm8.847 5.83h1.91v-6.053c0-1.323.927-2.244 2.013-2.244 1.062 0 1.797.703 1.797 1.77V196h1.904v-6.258c0-1.182.723-2.04 1.97-2.04 1 0 1.84.563 1.84 1.892V196h1.91v-6.584c0-2.243-1.253-3.362-3.03-3.362-1.412 0-2.473.678-2.946 1.726h-.103c-.428-1.074-1.33-1.726-2.64-1.726-1.298 0-2.263.646-2.672 1.726h-.122v-1.598h-1.834V196zm20.14.198c2.142 0 3.657-1.055 4.09-2.653l-1.81-.326c-.345.927-1.176 1.4-2.262 1.4-1.637 0-2.736-1.06-2.787-2.953h6.98v-.677c0-3.548-2.122-4.935-4.347-4.935-2.736 0-4.538 2.084-4.538 5.1 0 3.05 1.777 5.043 4.672 5.043zm-2.76-5.964c.077-1.393 1.087-2.6 2.64-2.6 1.483 0 2.455 1.1 2.46 2.6h-5.1zm11.006-.064c0-1.566.958-2.46 2.288-2.46 1.298 0 2.084.85 2.084 2.275V196h1.91v-6.245c0-2.43-1.336-3.7-3.343-3.7-1.477 0-2.442.684-2.896 1.726h-.12v-1.598h-1.835V196h1.912v-5.83zm13.43-3.988h-2.013v-2.352h-1.91v2.352h-1.44v1.534h1.44v5.797c-.007 1.784 1.355 2.647 2.863 2.615.607-.007 1.017-.122 1.24-.205l-.345-1.58c-.128.026-.364.084-.67.084-.62 0-1.176-.205-1.176-1.31v-5.4h2.013v-1.534zm7.434 3.273c0 3.208.857 5.88 2.48 8.156h1.752c-1.26-1.688-2.25-5.114-2.25-8.156s.99-6.463 2.25-8.15h-1.752c-1.623 2.275-2.48 4.947-2.48 8.15zm6.662 6.545h2.065l5.695-11.34v-1.752h-8.655v1.694h6.6v.096l-5.715 11.3zm13.684-6.54c0-3.21-.856-5.88-2.48-8.156h-1.75c1.26 1.687 2.25 5.113 2.25 8.156 0 3.036-.99 6.462-2.25 8.15h1.75c1.624-2.276 2.48-4.948 2.48-8.15z" fill="#000"/><circle cx="63" cy="190" r="20" fill="#14cc52" class="E"/><path d="M56 184a1 1 0 1 0 0-2 1 1 0 1 0 0 2zm0 7a1 1 0 1 0 0-2 1 1 0 1 0 0 2zm0 7a1 1 0 1 0 0-2 1 1 0 1 0 0 2zm4-15h12m-12 7h12m-12 7h12" stroke="#14cc52" class="B C"/><g filter="url(#A)"><rect x="32" y="86" width="640" height="64" rx="4" fill="#fff"/></g><path d="M340.548 123h6.423v-1.094h-4.733v-.08l2.287-2.446c1.75-1.875 2.267-2.75 2.267-3.878 0-1.57-1.272-2.824-3.062-2.824s-3.142 1.213-3.142 3.003h1.173c0-1.16.75-1.93 1.93-1.93 1.104 0 1.95.676 1.95 1.75 0 .94-.552 1.635-1.73 2.923l-3.36 3.68V123zm11.917.14c1.974 0 3.44-1.238 3.44-2.903 0-1.293-.765-2.232-2.048-2.446v-.08c1.03-.313 1.67-1.158 1.67-2.307 0-1.44-1.14-2.724-3.023-2.724-1.76 0-3.222 1.084-3.28 2.685h1.193c.044-1.015 1.01-1.61 2.068-1.61 1.123 0 1.85.68 1.85 1.7 0 1.074-.84 1.77-2.048 1.77h-.815v1.094h.815c1.546 0 2.406.785 2.406 1.91 0 1.08-.94 1.81-2.247 1.81-1.178 0-2.113-.606-2.187-1.6h-1.253c.074 1.6 1.486 2.684 3.46 2.684zm15.675-7.775h-1.272l-2.108 6.085h-.08l-2.108-6.085H361.3l2.823 7.636h1.194l2.823-7.636zm1.55 7.636h1.173v-7.636h-1.173V123zm.597-8.91c.457 0 .835-.358.835-.796s-.378-.795-.835-.795-.836.358-.836.795.378.796.836.796zm5.927 9.068c1.55 0 2.685-.775 3.043-1.93l-1.134-.318c-.298.795-.99 1.193-1.91 1.193-1.377 0-2.327-.9-2.38-2.525h5.543v-.498c0-2.843-1.7-3.818-3.28-3.818-2.068 0-3.44 1.63-3.44 3.977s1.353 3.918 3.56 3.918zm-2.38-4.594c.08-1.188.92-2.247 2.262-2.247 1.272 0 2.088.955 2.088 2.247h-4.35zM382.9 123h1.153l1.67-5.866h.12l1.67 5.866h1.153l2.327-7.636h-1.233l-1.65 5.826h-.08l-1.61-5.826h-1.253l-1.63 5.846h-.08l-1.65-5.846h-1.233L382.9 123zm15.054-5.926c-.368-1.084-1.193-1.8-2.705-1.8-1.6 0-2.804.915-2.804 2.208 0 1.054.627 1.76 2.03 2.088l1.273.298c.77.18 1.133.547 1.133 1.074 0 .656-.696 1.193-1.8 1.193-.96 0-1.56-.413-1.77-1.233l-1.113.278c.273 1.298 1.342 1.99 2.903 1.99 1.775 0 2.983-.97 2.983-2.287 0-1.064-.666-1.735-2.028-2.068l-1.134-.278c-.905-.224-1.312-.527-1.312-1.114 0-.656.696-1.134 1.63-1.134 1.024 0 1.447.567 1.65 1.094l1.054-.298zm14.573 2.366a.9.9 0 0 0 .895-.895c0-.492-.403-.894-.895-.894s-.895.402-.895.894a.9.9 0 0 0 .895.895zm18.87-6.622v7.28c0 1.267-.607 1.948-1.67 1.948-.97 0-1.67-.566-1.67-1.43h-1.213c0 1.566 1.213 2.525 2.883 2.525 1.77 0 2.903-1.09 2.903-3.042v-7.28h-1.232zm8.357 7.06c0 1.432-1.094 2.088-1.97 2.088-.974 0-1.67-.716-1.67-1.83v-4.772h-1.174v4.852c0 1.95 1.034 2.883 2.466 2.883 1.154 0 1.91-.616 2.267-1.392h.08V123h1.173v-7.636h-1.173v4.514zm4.495-1.472c0-1.332.826-2.088 1.95-2.088 1.09 0 1.75.71 1.75 1.91V123h1.174v-4.852c0-1.95-1.04-2.884-2.586-2.884-1.153 0-1.87.517-2.227 1.293h-.1v-1.193h-1.134V123h1.173v-4.594zm14.116 4.733c1.94 0 3.36-1.432 3.36-3.38 0-1.974-1.372-3.42-3.242-3.42-.686 0-1.352.244-1.77.577h-.06l.358-3.003h4.255v-1.094h-5.29l-.617 5.012 1.154.14c.422-.304 1.143-.522 1.77-.517 1.298.01 2.248.994 2.248 2.326 0 1.308-.915 2.267-2.168 2.267-1.044 0-1.874-.67-1.97-1.6h-1.193c.075 1.55 1.412 2.684 3.162 2.684zm6.627-1.53h-1.273l-.06.557c-.144 1.347-.428 2.69-.557 3.32h.895c.238-.676.745-2.208.915-3.34l.08-.537zm6.092 1.392h6.423v-1.094h-4.733v-.08l2.287-2.446c1.75-1.875 2.267-2.75 2.267-3.878 0-1.57-1.273-2.824-3.063-2.824-1.784 0-3.142 1.213-3.142 3.003h1.174c0-1.16.75-1.93 1.93-1.93 1.103 0 1.948.676 1.948 1.75 0 .94-.55 1.635-1.73 2.923l-3.36 3.68V123zm11.797.14c2.247 0 3.54-1.904 3.54-5.23 0-3.3-1.313-5.23-3.54-5.23s-3.54 1.93-3.54 5.23c0 3.326 1.293 5.23 3.54 5.23zm0-1.094c-1.48 0-2.346-1.486-2.346-4.136s.875-4.156 2.346-4.156 2.347 1.51 2.347 4.156-.865 4.136-2.347 4.136zm9.01-9.227h-1.233l-2.546 1.69v1.252l2.486-1.65h.06V123h1.233v-10.182zm6.17-.16c-2.068-.02-3.4 1.53-3.4 3.42 0 1.968 1.45 3.38 3.2 3.38 1.054 0 1.95-.517 2.506-1.352h.08c0 2.506-.975 3.937-2.546 3.937-1.074 0-1.73-.676-1.95-1.6h-1.213c.24 1.6 1.452 2.704 3.162 2.704 2.287 0 3.7-2.028 3.7-5.648 0-3.758-1.87-4.812-3.54-4.832zm0 1.094c1.273 0 2.208 1.094 2.208 2.307s-.995 2.306-2.247 2.306-2.168-1.014-2.168-2.286c0-1.293.955-2.327 2.207-2.327zm18.183 5.687a.9.9 0 0 0 .895-.895c0-.492-.403-.894-.895-.894s-.895.402-.895.894a.9.9 0 0 0 .895.895zm18.014 3.72c1.55 0 2.685-.775 3.043-1.93l-1.134-.318c-.298.795-.99 1.193-1.91 1.193-1.377 0-2.326-.9-2.38-2.525h5.543v-.498c0-2.843-1.7-3.818-3.28-3.818-2.068 0-3.44 1.63-3.44 3.977s1.352 3.918 3.56 3.918zm-2.38-4.594c.08-1.188.92-2.247 2.262-2.247 1.273 0 2.088.955 2.088 2.247h-4.35zm10.212 4.594c1.47 0 1.968-.915 2.227-1.332h.14V123h1.134v-10.182h-1.174v3.76h-.1c-.26-.398-.716-1.313-2.208-1.313-1.93 0-3.26 1.53-3.26 3.938 0 2.426 1.332 3.957 3.242 3.957zm.16-1.054c-1.472 0-2.228-1.293-2.228-2.923 0-1.61.736-2.864 2.228-2.864 1.43 0 2.187 1.154 2.187 2.864 0 1.73-.775 2.923-2.187 2.923zm5.652.895h1.174v-7.636h-1.174V123zm.597-8.91c.457 0 .835-.358.835-.796s-.378-.795-.835-.795-.835.358-.835.795.378.796.835.796zm6.047 1.273h-1.63v-1.83h-1.173v1.83h-1.154v.994h1.154v4.773c0 1.332 1.073 1.968 2.068 1.968.437 0 .716-.08.875-.14l-.24-1.054c-.1.02-.258.06-.517.06-.517 0-1.014-.16-1.014-1.154v-4.454h1.63v-.994zm4.884 7.795c1.55 0 2.685-.775 3.043-1.93l-1.134-.318c-.298.795-.99 1.193-1.91 1.193-1.377 0-2.327-.9-2.38-2.525h5.543v-.498c0-2.843-1.7-3.818-3.28-3.818-2.068 0-3.44 1.63-3.44 3.977s1.352 3.918 3.56 3.918zm-2.38-4.594c.08-1.188.92-2.247 2.262-2.247 1.273 0 2.088.955 2.088 2.247h-4.35zm10.21 4.594c1.472 0 1.97-.915 2.228-1.332h.14V123h1.133v-10.182h-1.173v3.76h-.1c-.26-.398-.716-1.313-2.208-1.313-1.93 0-3.26 1.53-3.26 3.938 0 2.426 1.332 3.957 3.24 3.957zm.16-1.054c-1.472 0-2.228-1.293-2.228-2.923 0-1.61.736-2.864 2.228-2.864 1.43 0 2.187 1.154 2.187 2.864 0 1.73-.776 2.923-2.187 2.923zm9.888.895h1.293l4.534-9.028v-1.154h-6.523v1.094h5.25v.08l-4.554 9.01zm14.52.16c1.47 0 1.97-.915 2.227-1.332h.14V123h1.134v-10.182h-1.173v3.76h-.1c-.258-.398-.716-1.313-2.207-1.313-1.93 0-3.262 1.53-3.262 3.938 0 2.426 1.333 3.957 3.242 3.957zm.16-1.054c-1.472 0-2.227-1.293-2.227-2.923 0-1.61.735-2.864 2.227-2.864 1.432 0 2.187 1.154 2.187 2.864 0 1.73-.775 2.923-2.187 2.923zm7.9 1.074c1.332 0 2.028-.716 2.267-1.213h.06V123h1.174v-5.03c0-2.426-1.85-2.705-2.824-2.705-1.154 0-2.466.398-3.063 1.8l1.114.398c.26-.557.87-1.154 1.99-1.154 1.08 0 1.6.572 1.6 1.55v.04c0 .567-.576.517-1.968.696-1.417.184-2.963.497-2.963 2.247 0 1.492 1.153 2.347 2.605 2.347zm.18-1.054c-.935 0-1.61-.418-1.61-1.233 0-.895.815-1.173 1.73-1.293.497-.06 1.83-.198 2.028-.437v1.074c0 .954-.755 1.89-2.147 1.89zm5.945 3.72c1.058 0 1.81-.562 2.247-1.73l3.25-8.73-1.283-.02-2.108 6.085h-.08l-2.108-6.085h-1.273l2.824 7.676-.22.596c-.417 1.144-.954 1.253-1.81 1.034l-.3 1.035c.12.06.458.14.856.14zm12.46-8.77c-.368-1.084-1.194-1.8-2.705-1.8-1.61 0-2.804.915-2.804 2.208 0 1.054.626 1.76 2.028 2.088l1.273.298c.77.18 1.134.547 1.134 1.074 0 .656-.696 1.193-1.8 1.193-.96 0-1.56-.413-1.77-1.233l-1.114.278c.274 1.298 1.343 1.99 2.904 1.99 1.775 0 2.983-.97 2.983-2.287 0-1.064-.666-1.735-2.03-2.068l-1.133-.278c-.905-.224-1.313-.527-1.313-1.114 0-.656.696-1.134 1.63-1.134 1.024 0 1.447.567 1.65 1.094l1.054-.298zm8.1 6.105c1.332 0 2.028-.716 2.267-1.213h.06V123h1.174v-5.03c0-2.426-1.85-2.705-2.824-2.705-1.154 0-2.466.398-3.063 1.8l1.114.398c.258-.557.87-1.154 1.988-1.154 1.08 0 1.61.572 1.61 1.55v.04c0 .567-.576.517-1.968.696-1.417.184-2.964.497-2.964 2.247 0 1.492 1.154 2.347 2.606 2.347zm.18-1.054c-.935 0-1.61-.418-1.61-1.233 0-.895.815-1.173 1.73-1.293.497-.06 1.83-.198 2.028-.437v1.074c0 .954-.755 1.89-2.147 1.89zm8.544 3.898c1.83 0 3.302-.835 3.302-2.804v-7.855h-1.134v1.213h-.12c-.26-.398-.736-1.313-2.227-1.313-1.93 0-3.262 1.53-3.262 3.878 0 2.386 1.392 3.74 3.242 3.74 1.49 0 1.968-.875 2.227-1.293h.1v1.55c0 1.273-.895 1.85-2.128 1.85-1.387 0-1.874-.73-2.187-1.154l-.935.656c.478.8 1.417 1.532 3.122 1.532zm-.04-4.196c-1.472 0-2.228-1.114-2.228-2.705 0-1.55.736-2.804 2.228-2.804 1.432 0 2.187 1.154 2.187 2.804 0 1.7-.775 2.705-2.187 2.705zm8.59 1.332c2.068 0 3.46-1.57 3.46-3.937 0-2.387-1.392-3.958-3.46-3.958s-3.46 1.57-3.46 3.958c0 2.366 1.392 3.937 3.46 3.937zm0-1.054c-1.57 0-2.287-1.352-2.287-2.883s.716-2.904 2.287-2.904 2.287 1.372 2.287 2.904-.716 2.883-2.287 2.883z" class="D"/><path d="M100.676 124c3.99 0 6.296-2.474 6.296-6.565 0-4.07-2.307-6.526-6.162-6.526h-4.372V124h4.238zm-2.263-1.726v-9.64h2.276c2.864 0 4.34 1.713 4.34 4.8 0 3.1-1.476 4.84-4.462 4.84h-2.154zm15.094 1.924c2.14 0 3.656-1.055 4.1-2.653l-1.808-.326c-.346.927-1.177 1.4-2.263 1.4-1.637 0-2.736-1.06-2.787-2.953h6.98v-.677c0-3.548-2.122-4.935-4.347-4.935-2.735 0-4.538 2.084-4.538 5.1 0 3.05 1.777 5.043 4.673 5.043zm-2.762-5.964c.077-1.393 1.087-2.6 2.64-2.6 1.483 0 2.455 1.1 2.46 2.6h-5.1zm17.44-4.052h-2.052l-2.48 7.555h-.102l-2.487-7.555h-2.052L122.58 124h2.046l3.56-9.818zm5.676 10.016c2.14 0 3.656-1.055 4.09-2.653l-1.81-.326c-.345.927-1.176 1.4-2.263 1.4-1.636 0-2.736-1.06-2.787-2.953h6.98v-.677c0-3.548-2.122-4.935-4.346-4.935-2.736 0-4.54 2.084-4.54 5.1 0 3.05 1.777 5.043 4.673 5.043zm-2.76-5.964c.076-1.393 1.086-2.6 2.64-2.6 1.483 0 2.454 1.1 2.46 2.6h-5.1zm11.005-7.325h-1.91V124h1.91v-13.09zm6.707 13.29c2.768 0 4.577-2.026 4.577-5.062 0-3.056-1.81-5.082-4.577-5.082s-4.577 2.026-4.577 5.082c0 3.036 1.81 5.062 4.577 5.062zm.006-1.604c-1.81 0-2.652-1.58-2.652-3.465 0-1.88.843-3.477 2.652-3.477 1.797 0 2.64 1.598 2.64 3.477 0 1.886-.843 3.465-2.64 3.465zm6.704 5.088h1.91v-5.2h.115c.346.627 1.05 1.72 2.838 1.72 2.378 0 4.104-1.905 4.104-5.082 0-3.183-1.75-5.056-4.123-5.056-1.82 0-2.48 1.112-2.82 1.72h-.16v-1.59h-1.867v13.5zm1.873-8.59c0-2.052.895-3.413 2.563-3.413 1.732 0 2.602 1.463 2.602 3.413 0 1.97-.895 3.47-2.602 3.47-1.643 0-2.563-1.406-2.563-3.47zm9.236 4.91h1.912v-6.053c0-1.323.927-2.244 2.013-2.244 1.06 0 1.796.703 1.796 1.77V124h1.905v-6.258c0-1.182.722-2.04 1.97-2.04 1 0 1.84.563 1.84 1.892V124h1.91v-6.584c0-2.243-1.253-3.362-3.03-3.362-1.412 0-2.474.678-2.947 1.726h-.102c-.428-1.074-1.33-1.726-2.64-1.726-1.297 0-2.262.646-2.672 1.726h-.12v-1.598h-1.835V124zm20.14.198c2.142 0 3.656-1.055 4.09-2.653l-1.81-.326c-.345.927-1.176 1.4-2.263 1.4-1.636 0-2.735-1.06-2.787-2.953h6.98v-.677c0-3.548-2.123-4.935-4.347-4.935-2.736 0-4.538 2.084-4.538 5.1 0 3.05 1.777 5.043 4.672 5.043zm-2.76-5.964c.077-1.393 1.086-2.6 2.64-2.6 1.483 0 2.454 1.1 2.46 2.6h-5.1zm11.005-.064c0-1.566.96-2.46 2.29-2.46 1.297 0 2.083.85 2.083 2.275V124h1.912v-6.245c0-2.43-1.336-3.7-3.343-3.7-1.477 0-2.442.684-2.896 1.726h-.12v-1.598h-1.835V124h1.91v-5.83zm13.43-3.988h-2.013v-2.352h-1.912v2.352h-1.438v1.534h1.438v5.797c-.006 1.784 1.355 2.647 2.864 2.615.607-.007 1.016-.122 1.24-.205l-.345-1.58c-.128.026-.365.084-.67.084-.62 0-1.176-.205-1.176-1.31v-5.4h2.013v-1.534zm7.03 9.818h1.975v-4.954h2.813l2.66 4.954h2.25l-2.902-5.3c1.604-.594 2.403-1.93 2.403-3.688 0-2.4-1.495-4.104-4.532-4.104h-4.666V124zm1.975-6.654v-4.743h2.48c1.95 0 2.755.927 2.755 2.4 0 1.476-.806 2.333-2.73 2.333h-2.506zm13.486 6.852c2.768 0 4.577-2.026 4.577-5.062 0-3.056-1.81-5.082-4.577-5.082s-4.577 2.026-4.577 5.082c0 3.036 1.81 5.062 4.577 5.062zm.006-1.604c-1.81 0-2.652-1.58-2.652-3.465 0-1.88.843-3.477 2.652-3.477 1.797 0 2.64 1.598 2.64 3.477 0 1.886-.843 3.465-2.64 3.465zm9.56 1.623c1.624 0 2.538-.824 2.902-1.56h.077V124h1.866v-6.52c0-2.857-2.25-3.426-3.81-3.426-1.777 0-3.414.716-4.053 2.506l1.796.41c.282-.697.998-1.368 2.282-1.368 1.234 0 1.867.645 1.867 1.758v.044c0 .697-.716.684-2.48.89-1.86.217-3.765.703-3.765 2.934 0 1.93 1.45 2.99 3.317 2.99zm.416-1.534c-1.08 0-1.86-.486-1.86-1.432 0-1.022.907-1.387 2.013-1.534.62-.083 2.1-.25 2.365-.524v1.266c0 1.163-.927 2.224-2.518 2.224zm10.65 1.51c1.79 0 2.492-1.093 2.838-1.72h.16V124h1.867v-13.09h-1.91v4.864h-.115c-.346-.607-.998-1.72-2.826-1.72-2.37 0-4.116 1.873-4.116 5.056 0 3.177 1.72 5.082 4.104 5.082zm.42-1.63c-1.706 0-2.595-1.502-2.595-3.47 0-1.95.87-3.413 2.595-3.413 1.67 0 2.564 1.36 2.564 3.413 0 2.065-.914 3.47-2.564 3.47zm7.17 1.438h1.91v-6.053c0-1.323.927-2.244 2.013-2.244 1.062 0 1.797.703 1.797 1.77V124h1.904v-6.258c0-1.182.723-2.04 1.97-2.04 1 0 1.84.563 1.84 1.892V124h1.91v-6.584c0-2.243-1.253-3.362-3.03-3.362-1.412 0-2.473.678-2.946 1.726h-.103c-.428-1.074-1.33-1.726-2.64-1.726-1.298 0-2.263.646-2.672 1.726h-.122v-1.598h-1.834V124zm18.765.217c1.624 0 2.538-.824 2.902-1.56h.077V124h1.866v-6.52c0-2.857-2.25-3.426-3.81-3.426-1.777 0-3.414.716-4.053 2.506l1.796.41c.282-.697.997-1.368 2.282-1.368 1.234 0 1.867.645 1.867 1.758v.044c0 .697-.716.684-2.48.89-1.86.217-3.765.703-3.765 2.934 0 1.93 1.45 2.99 3.317 2.99zm.416-1.534c-1.08 0-1.86-.486-1.86-1.432 0-1.022.907-1.387 2.013-1.534.62-.083 2.1-.25 2.365-.524v1.266c0 1.163-.927 2.224-2.518 2.224zm6.975 5h1.91v-5.2h.115c.345.627 1.05 1.72 2.838 1.72 2.378 0 4.104-1.905 4.104-5.082 0-3.183-1.75-5.056-4.123-5.056-1.822 0-2.48 1.112-2.82 1.72h-.16v-1.59h-1.866v13.5zm1.873-8.59c0-2.052.895-3.413 2.563-3.413 1.732 0 2.602 1.463 2.602 3.413 0 1.97-.895 3.47-2.602 3.47-1.643 0-2.563-1.406-2.563-3.47z" fill="#000"/><circle cx="63" cy="118" r="20" fill="#198cff" class="E"/><g class="B C"><g stroke="#198cff"><path d="M70 109H56v18h14v-18z"/><path d="M59 114h8m-8 4h8m-8 4h4"/></g><g stroke="#b9bcbf"><path d="M55 327l8 8 8-8M650 43l-10 10"/><path d="M650 53L640 43"/></g></g><path d="M168 38h1v22h-1zM90.063 56.234c2.188 0 3.047-1.336 3.47-2.102h.195V56h2.28V40h-2.336v5.945h-.14c-.422-.742-1.22-2.102-3.453-2.102-2.898 0-5.03 2.3-5.03 6.18 0 3.883 2.102 6.2 5.016 6.2zm.516-1.992c-2.086 0-3.172-1.836-3.172-4.242 0-2.383 1.063-4.172 3.172-4.172 2.04 0 3.133 1.664 3.133 4.172 0 2.523-1.117 4.242-3.133 4.242zm13.936 2c2.617 0 4.468-1.3 5-3.242l-2.2-.398c-.422 1.133-1.438 1.7-2.766 1.7-2 0-3.344-1.297-3.406-3.6h8.53v-.828c0-4.336-2.594-6.03-5.312-6.03-3.344 0-5.547 2.547-5.547 6.234 0 3.727 2.172 6.164 5.7 6.164zm-3.375-7.3c.093-1.703 1.328-3.18 3.226-3.18 1.813 0 3 1.344 3.008 3.18h-6.234zM122.455 44h-2.508l-3.03 9.234h-.125L113.752 44h-2.508l4.36 12h2.5l4.35-12zm6.938 12.242c2.617 0 4.468-1.3 5-3.242l-2.2-.398c-.422 1.133-1.438 1.7-2.766 1.7-2 0-3.344-1.297-3.406-3.6h8.53v-.828c0-4.336-2.594-6.03-5.312-6.03-3.344 0-5.547 2.547-5.547 6.234 0 3.727 2.172 6.164 5.7 6.164zm-3.375-7.3c.093-1.703 1.328-3.18 3.226-3.18 1.813 0 3 1.344 3.008 3.18h-6.234zM139.47 40h-2.336v16h2.336V40zm8.197 16.242c3.383 0 5.594-2.477 5.594-6.187 0-3.734-2.2-6.2-5.594-6.2s-5.594 2.477-5.594 6.2c0 3.7 2.2 6.188 5.594 6.188zm.008-1.96c-2.2 0-3.242-1.93-3.242-4.234 0-2.297 1.03-4.25 3.242-4.25 2.195 0 3.226 1.953 3.226 4.25 0 2.305-1.03 4.234-3.226 4.234zm8.193 6.22h2.336v-6.367h.14c.422.766 1.28 2.102 3.47 2.102 2.906 0 5.015-2.328 5.015-6.2 0-3.9-2.14-6.18-5.04-6.18-2.226 0-3.03 1.36-3.445 2.102h-.196V44h-2.28v16.5zm2.3-10.5c0-2.508 1.094-4.172 3.133-4.172 2.117 0 3.18 1.8 3.18 4.172 0 2.406-1.094 4.242-3.18 4.242-2.008 0-3.133-1.72-3.133-4.242z" fill="#000"/><path d="M66.04 52L71 56.96 67.96 60 63 55.04M57 56a10 10 0 1 0 0-20 10 10 0 1 0 0 20z" stroke="#198cff" class="B C"/><defs><filter id="A" x="16" y="74" width="672" height="96" filterUnits="userSpaceOnUse" color-interpolation-filters="sRGB"><feFlood flood-opacity="0" result="A"/><feColorMatrix in="SourceAlpha" values="0 0 0 0 0 0 0 0 0 0 0 0 0 0 0 0 0 0 127 0"/><feOffset dy="4"/><feGaussianBlur stdDeviation="8"/><feColorMatrix values="0 0 0 0 0 0 0 0 0 0 0 0 0 0 0 0 0 0 0.08 0"/><feBlend in2="A"/><feBlend in="SourceGraphic"/></filter></defs></svg>