<svg xmlns="http://www.w3.org/2000/svg" viewBox="0 0 75 27" width="100%" height="100%" fill="#fff"><path d="M74 8h-4v18h4V8zm-2-2.5a2.5 2.5 0 1 0 0-5 2.5 2.5 0 1 0 0 5zM48 8l6.626 15.995A3.65 3.65 0 0 0 58 26.25c1.477 0 2.8-.9 3.374-2.254L68 8h-4.33L58 21.7 52.33 8H48zM23 9.76c1.37-1.23 3.158-2 5-2 2.208 0 4.177 1.022 5.46 2.62C35.294 8.8 37.844 7.76 40 7.76a7 7 0 0 1 7 7V26h-4V15a3.5 3.5 0 0 0-3.5-3.5c-2.5 0-4.5 2-4.5 3.65V26h-4V15a3.5 3.5 0 0 0-3.5-3.5c-2.5 0-4.5 2-4.5 3.65V26h-4V8h4v1.76zM4 4v7h10v4H4v7h12v4H0V0h16v4H4z"/></svg>
