<svg xmlns="http://www.w3.org/2000/svg" width="100%" height="100%" viewBox="0 0 24 38" fill="none"><path d="M1.5 1.5a4.95 4.95 0 0 0 0 7L4 11c.333.333.667.667.667 1s-.333.667-.667 1l-2.464 2.464a5 5 0 0 0 0 7.071L4 25c.333.333.667.667.667 1s-.333.667-.667 1l-2.5 2.5a4.95 4.95 0 0 0 0 7 4.95 4.95 0 0 0 7 0L11 34c.333-.333.667-.667 1-.667s.667.333 1 .667l2.5 2.5a4.95 4.95 0 0 0 7-7 4.95 4.95 0 0 0-7 0L13 32c-.333.333-.667.667-1 .667-.344 0-.667-.333-1-.667l-5-5c-.333-.333-.667-.667-.667-1 0-.344.333-.667.667-1l5-5c.333-.333.667-.667 1-.667s.667.333 1 .667l1.75 1.75a3.89 3.89 0 0 0 5.5-5.5 3.89 3.89 0 0 0-5.5 0L13 18c-.333.333-.667.667-1 .667-.344 0-.667-.333-1-.667l-5-5c-.333-.333-.667-.667-.667-1 0-.344.333-.667.667-1l5-5c.333-.333.667-.667 1-.667s.667.333 1 .667l2.5 2.5a4.95 4.95 0 0 0 7-7 4.95 4.95 0 0 0-7 0L13 4c-.333.333-.667.667-1 .667-.344 0-.667-.333-1-.667L8.5 1.5a4.95 4.95 0 0 0-7 0z" fill="#fff"/></svg>
