<svg xmlns="http://www.w3.org/2000/svg" xmlns:xlink="http://www.w3.org/1999/xlink" width="704" height="473" fill="none" xmlns:v="https://vecta.io/nano"><style><![CDATA[.B{stroke-linejoin:round}.C{fill:#555759}.D{fill-opacity:.1}.E{stroke-width:2}.F{stroke-miterlimit:10}.G{stroke-linecap:round}.H{fill:#198cff}.I{stroke:#198cff}]]></style><path fill="#fff" d="M0 0h704v473H0z"/><path d="M101.41 396h1.41v-5.205h6.205V396h1.41v-11.636h-1.41v5.18h-6.205v-5.18h-1.41V396zm15.207.182c2.364 0 3.955-1.796 3.955-4.5 0-2.727-1.59-4.523-3.955-4.523s-3.954 1.796-3.954 4.523c0 2.704 1.59 4.5 3.954 4.5zm0-1.205c-1.795 0-2.613-1.545-2.613-3.295s.818-3.318 2.613-3.318 2.614 1.568 2.614 3.318-.818 3.295-2.614 3.295zm7.682 1.023h1.318l1.9-6.705h.136l1.91 6.705h1.318l2.66-8.727h-1.41l-1.886 6.66h-.09l-1.84-6.66h-1.432l-1.863 6.682h-.09l-1.887-6.682h-1.41l2.66 8.727zm19.318-8.727h-1.863v-2.09h-1.34v2.09h-1.318v1.136h1.318v5.455c0 1.522 1.227 2.25 2.364 2.25.5 0 .818-.09 1-.16l-.273-1.205c-.114.023-.296.068-.59.068-.59 0-1.16-.182-1.16-1.318v-5.09h1.863v-1.136zm5.47 8.91c2.364 0 3.955-1.796 3.955-4.5 0-2.727-1.59-4.523-3.955-4.523s-3.954 1.796-3.954 4.523c0 2.704 1.59 4.5 3.954 4.5zm0-1.205c-1.795 0-2.613-1.545-2.613-3.295s.818-3.318 2.613-3.318 2.614 1.568 2.614 3.318-.818 3.295-2.614 3.295zM159.768 396h1.4v-4.545h2.545l.295-.006 2.455 4.55h1.636l-2.63-4.807c1.483-.505 2.176-1.716 2.176-3.26 0-2.057-1.227-3.568-3.955-3.568h-3.932V396zm1.4-5.818v-4.568h2.477c1.886 0 2.613.92 2.613 2.318s-.727 2.25-2.6 2.25h-2.5zm14.143 2.25c0 1.636-1.25 2.386-2.25 2.386-1.114 0-1.91-.818-1.91-2.09v-5.454h-1.34v5.545c0 2.227 1.182 3.296 2.818 3.296 1.318 0 2.182-.705 2.59-1.59h.09V396h1.34v-8.727h-1.34v5.16zm5.138-1.682c0-1.523.943-2.386 2.227-2.386 1.244 0 2 .812 2 2.18V396h1.34v-5.545c0-2.228-1.188-3.296-2.955-3.296-1.318 0-2.136.59-2.545 1.477h-.114v-1.363h-1.295V396h1.34v-5.25zm15.086 5.455c1.523 0 2.32-.82 2.59-1.387h.07V396h1.34v-5.75c0-2.773-2.113-3.09-3.227-3.09-1.318 0-2.818.455-3.5 2.046l1.273.454c.295-.636.994-1.318 2.273-1.318 1.233 0 1.84.653 1.84 1.773v.045c0 .648-.66.59-2.25.796-1.62.2-3.387.568-3.387 2.568 0 1.704 1.318 2.682 2.977 2.682zm.205-1.205c-1.068 0-1.84-.477-1.84-1.41 0-1.023.932-1.34 1.977-1.477.57-.07 2.09-.228 2.32-.5v1.227c0 1.09-.864 2.16-2.455 2.16zm10.925 1h1.41v-4.25h2.545c2.7 0 3.932-1.648 3.932-3.705s-1.222-3.68-3.954-3.68h-3.932V396zm1.41-5.5v-4.886h2.477c1.892 0 2.614 1.034 2.614 2.43s-.722 2.455-2.59 2.455h-2.5zm8.565 5.5H218v-5.523c0-1.182.932-2.045 2.205-2.045.358 0 .727.068.818.09v-1.364l-.705-.023c-1.045 0-1.954.59-2.272 1.455h-.09v-1.318h-1.296V396zm9.233.182c2.364 0 3.955-1.796 3.955-4.5 0-2.727-1.59-4.523-3.955-4.523s-3.954 1.796-3.954 4.523c0 2.704 1.6 4.5 3.954 4.5zm0-1.205c-1.795 0-2.614-1.545-2.614-3.295s.82-3.318 2.614-3.318 2.614 1.568 2.614 3.318-.818 3.295-2.614 3.295zm9.297 1.205c1.682 0 2.25-1.046 2.545-1.523h.16V396h1.295v-11.636h-1.34v4.295h-.114c-.295-.454-.818-1.5-2.522-1.5-2.205 0-3.728 1.75-3.728 4.5 0 2.773 1.523 4.523 3.705 4.523zm.182-1.205c-1.682 0-2.546-1.477-2.546-3.34 0-1.84.84-3.272 2.546-3.272 1.636 0 2.5 1.318 2.5 3.272 0 1.978-.887 3.34-2.5 3.34zm11.96-2.545c0 1.636-1.25 2.386-2.25 2.386-1.114 0-1.91-.818-1.91-2.09v-5.454h-1.34v5.545c0 2.227 1.182 3.296 2.818 3.296 1.318 0 2.182-.705 2.59-1.59h.09V396h1.34v-8.727h-1.34v5.16zm7.342 3.75c1.932 0 3.205-1.182 3.432-2.727h-1.34c-.25.954-1.045 1.522-2.09 1.522-1.59 0-2.613-1.318-2.613-3.34 0-1.977 1.045-3.272 2.613-3.272 1.182 0 1.887.727 2.09 1.522h1.34c-.227-1.636-1.613-2.727-3.454-2.727-2.364 0-3.932 1.864-3.932 4.523 0 2.613 1.5 4.5 3.954 4.5zm9.188-8.91h-1.864v-2.09h-1.34v2.09h-1.318v1.136h1.318v5.455c0 1.522 1.228 2.25 2.364 2.25.5 0 .818-.09 1-.16l-.273-1.205c-.113.023-.295.068-.59.068-.59 0-1.16-.182-1.16-1.318v-5.09h1.864v-1.136zm2.017 8.727h1.34v-8.727h-1.34V396zm.682-10.182c.522 0 .954-.41.954-.91s-.432-.91-.954-.91-.955.41-.955.91.432.91.955.91zm10.25 1.455h-1.454l-2.41 6.954h-.09l-2.41-6.954h-1.455L272.2 396h1.364l3.227-8.727zm5.117 8.91c1.772 0 3.068-.887 3.477-2.205l-1.296-.363c-.34.91-1.13 1.363-2.18 1.363-1.574 0-2.66-1.017-2.722-2.886h6.335v-.568c0-3.25-1.932-4.364-3.75-4.364-2.363 0-3.932 1.864-3.932 4.546s1.546 4.477 4.07 4.477zm-2.722-5.25c.09-1.358 1.05-2.568 2.585-2.568 1.455 0 2.387 1.09 2.387 2.568h-4.972zm13.057-6.568V396h1.318v-8.84h.114l3.636 8.84h1.273l3.636-8.84h.114V396h1.318v-11.636h-1.682l-3.954 9.66h-.137l-3.954-9.66h-1.682zm17.71 11.818c1.773 0 3.07-.887 3.478-2.205l-1.296-.363c-.34.91-1.13 1.363-2.182 1.363-1.573 0-2.66-1.017-2.72-2.886h6.335v-.568c0-3.25-1.932-4.364-3.75-4.364-2.364 0-3.932 1.864-3.932 4.546s1.546 4.477 4.068 4.477zm-2.72-5.25c.09-1.358 1.05-2.568 2.585-2.568 1.455 0 2.386 1.09 2.386 2.568h-4.97zm12.034 5.25c1.773 0 3.068-.887 3.477-2.205l-1.295-.363c-.34.91-1.13 1.363-2.182 1.363-1.574 0-2.66-1.017-2.722-2.886h6.336v-.568c0-3.25-1.932-4.364-3.75-4.364-2.364 0-3.932 1.864-3.932 4.546s1.545 4.477 4.068 4.477zm-2.722-5.25c.09-1.358 1.052-2.568 2.586-2.568 1.454 0 2.386 1.09 2.386 2.568h-4.972zm12.17-3.66h-1.864v-2.09h-1.34v2.09h-1.318v1.136h1.318v5.455c0 1.522 1.228 2.25 2.364 2.25.5 0 .818-.09 1-.16l-.273-1.205c-.113.023-.295.068-.59.068-.59 0-1.16-.182-1.16-1.318v-5.09h1.864v-1.136zm2.017 8.727h1.34v-8.727h-1.34V396zm.682-10.182c.522 0 .954-.41.954-.91s-.432-.91-.954-.91-.955.41-.955.91.432.91.955.91zm4.456 4.932c0-1.523.943-2.386 2.227-2.386 1.244 0 2 .812 2 2.18V396h1.34v-5.545c0-2.228-1.188-3.296-2.955-3.296-1.318 0-2.136.59-2.545 1.477h-.114v-1.363h-1.295V396h1.34v-5.25zm11.54 8.705c2.09 0 3.773-.955 3.773-3.205v-8.977H349.9v1.386h-.136c-.296-.454-.84-1.5-2.546-1.5-2.204 0-3.727 1.75-3.727 4.432 0 2.727 1.59 4.273 3.705 4.273 1.704 0 2.25-1 2.545-1.478h.114v1.773c0 1.455-1.023 2.114-2.432 2.114-1.585 0-2.142-.835-2.5-1.318l-1.068.75c.545.914 1.62 1.75 3.568 1.75zm-.046-4.796c-1.68 0-2.545-1.273-2.545-3.09 0-1.773.84-3.204 2.545-3.204 1.637 0 2.5 1.318 2.5 3.204 0 1.932-.886 3.09-2.5 3.09z" fill="#000"/><path d="M101.233 418h6.224v-1.094h-4.99v-3.46h4.594v-1.094h-4.594v-3.44h4.912v-1.094h-6.145V418zm8.208 0h1.173v-4.832c0-1.034.816-1.8 1.93-1.8a3.66 3.66 0 0 1 .716.079v-1.193l-.616-.02c-.915 0-1.7.517-1.99 1.273h-.08v-1.153h-1.134V418zm5.21 0h1.173v-7.636h-1.173V418zm.597-8.91c.457 0 .835-.358.835-.796s-.378-.795-.835-.795-.836.358-.836.795.378.796.836.796zm5.828 9.068c1.7 0 2.804-1.034 3.002-2.386h-1.173c-.22.835-.915 1.332-1.83 1.332-1.392 0-2.287-1.153-2.287-2.923 0-1.73.914-2.864 2.287-2.864 1.034 0 1.65.637 1.83 1.333h1.173c-.198-1.432-1.412-2.387-3.022-2.387-2.068 0-3.44 1.63-3.44 3.958 0 2.287 1.313 3.937 3.46 3.937zm8.814-.16h1.233v-3.72h2.227c2.372 0 3.44-1.442 3.44-3.24s-1.07-3.222-3.46-3.222h-3.44V418zm1.233-4.812v-4.276h2.168c1.655 0 2.287.905 2.287 2.128s-.632 2.148-2.267 2.148h-2.188zm10.515 4.97c2.068 0 3.46-1.57 3.46-3.937 0-2.387-1.392-3.958-3.46-3.958s-3.46 1.57-3.46 3.958c0 2.366 1.392 3.937 3.46 3.937zm0-1.054c-1.57 0-2.287-1.352-2.287-2.883s.716-2.904 2.287-2.904 2.287 1.372 2.287 2.904-.716 2.883-2.287 2.883zm6.722.895h1.153l1.67-5.866h.12l1.67 5.866h1.154l2.326-7.636h-1.233l-1.65 5.826h-.08l-1.6-5.826h-1.253l-1.63 5.846h-.08l-1.65-5.846h-1.233L148.36 418zm12.586.16c1.552 0 2.685-.775 3.043-1.93l-1.133-.318c-.3.795-1 1.193-1.9 1.193-1.377 0-2.326-.9-2.38-2.525h5.543v-.498c0-2.843-1.7-3.818-3.28-3.818-2.068 0-3.44 1.63-3.44 3.977s1.352 3.918 3.56 3.918zm-2.38-4.594c.08-1.188.92-2.247 2.262-2.247 1.273 0 2.088.955 2.088 2.247h-4.35zm8.502-5.747h-1.174V418h1.174v-10.182zm3.322 0h-1.174V418h1.174v-10.182zm9.07 8.392h1.114v-2.724h2.724v-1.114h-2.724v-2.724h-1.114v2.724h-2.724v1.114h2.724v2.724zm13.743-8.392h-1.233l-2.545 1.69v1.252l2.485-1.65h.06V418h1.233v-10.182zm11.678 6.622a.9.9 0 0 0 .895-.895c0-.492-.403-.894-.895-.894s-.895.402-.895.894a.9.9 0 0 0 .895.895zm14.097-6.78c-2.068-.02-3.4 1.53-3.4 3.42 0 1.968 1.45 3.38 3.2 3.38 1.054 0 1.95-.517 2.506-1.352h.08c0 2.506-.975 3.937-2.546 3.937-1.074 0-1.73-.676-1.95-1.6h-1.213c.24 1.6 1.452 2.704 3.162 2.704 2.287 0 3.7-2.028 3.7-5.648 0-3.758-1.87-4.812-3.54-4.832zm0 1.094c1.273 0 2.208 1.094 2.208 2.307s-.995 2.306-2.248 2.306-2.167-1.014-2.167-2.286c0-1.293.954-2.327 2.207-2.327zm8.876 9.386c2.058.025 3.4-1.526 3.4-3.42 0-1.97-1.456-3.38-3.2-3.38a2.96 2.96 0 0 0-2.506 1.352h-.08c.005-2.5.97-3.937 2.546-3.937 1.074 0 1.72.676 1.95 1.61h1.213c-.25-1.6-1.452-2.705-3.162-2.705-2.292 0-3.7 2.03-3.7 5.648 0 3.763 1.87 4.812 3.54 4.832zm0-1.094c-1.278 0-2.213-1.088-2.208-2.306s.985-2.307 2.247-2.307c1.248 0 2.168 1.024 2.168 2.287 0 1.292-.96 2.326-2.207 2.326zm15.557-6.68h-1.273l-2.108 6.085h-.08l-2.108-6.085h-1.273L239.39 418h1.193l2.824-7.636zm1.55 7.636h1.173v-7.636h-1.173V418zm.596-8.91c.458 0 .835-.358.835-.796s-.377-.795-.835-.795-.835.358-.835.795.378.796.835.796zm5.928 9.068c1.55 0 2.684-.775 3.042-1.93l-1.133-.318c-.3.795-1 1.193-1.91 1.193-1.377 0-2.327-.9-2.382-2.525h5.544v-.498c0-2.843-1.69-3.818-3.282-3.818-2.068 0-3.44 1.63-3.44 3.977s1.352 3.918 3.56 3.918zm-2.382-4.594c.08-1.188.92-2.247 2.262-2.247 1.273 0 2.088.955 2.088 2.247h-4.35zm9.058 4.435h1.154l1.67-5.866h.12l1.67 5.866h1.154l2.326-7.636h-1.233l-1.65 5.826h-.08l-1.61-5.826h-1.252l-1.63 5.846h-.08l-1.65-5.846h-1.233l2.326 7.636zm15.054-5.926c-.367-1.084-1.193-1.8-2.704-1.8-1.61 0-2.804.915-2.804 2.208 0 1.054.626 1.76 2.028 2.088l1.273.298c.77.18 1.134.547 1.134 1.074 0 .656-.696 1.193-1.8 1.193-.96 0-1.56-.413-1.77-1.233l-1.114.278c.274 1.298 1.343 1.99 2.904 1.99 1.775 0 2.983-.97 2.983-2.287 0-1.064-.667-1.735-2.03-2.068l-1.133-.278c-.905-.224-1.313-.527-1.313-1.114 0-.656.696-1.134 1.63-1.134 1.024 0 1.447.567 1.65 1.094l1.054-.298zm10.636 2.366a.9.9 0 0 0 .895-.895c0-.492-.403-.894-.895-.894s-.895.402-.895.894a.9.9 0 0 0 .895.895zm14.932-6.622v7.28c0 1.267-.606 1.948-1.67 1.948-.97 0-1.67-.566-1.67-1.43h-1.213c0 1.566 1.213 2.525 2.884 2.525 1.77 0 2.903-1.09 2.903-3.042v-7.28h-1.233zm8.357 7.06c0 1.432-1.093 2.088-1.968 2.088-.975 0-1.67-.716-1.67-1.83v-4.772h-1.173v4.852c0 1.95 1.034 2.883 2.466 2.883 1.153 0 1.91-.616 2.267-1.392h.08V418h1.174v-7.636h-1.174v4.514zm4.496-1.472c0-1.332.825-2.088 1.95-2.088 1.09 0 1.75.71 1.75 1.91V418h1.173v-4.852c0-1.95-1.04-2.884-2.585-2.884-1.154 0-1.87.517-2.227 1.293h-.1v-1.193h-1.133V418h1.173v-4.594zm14.175-5.747c-2.068-.02-3.4 1.53-3.4 3.42 0 1.968 1.45 3.38 3.2 3.38 1.054 0 1.95-.517 2.506-1.352h.08c0 2.506-.975 3.937-2.546 3.937-1.074 0-1.73-.676-1.95-1.6h-1.213c.24 1.6 1.452 2.704 3.162 2.704 2.287 0 3.7-2.028 3.7-5.648 0-3.758-1.87-4.812-3.54-4.832zm0 1.094c1.273 0 2.208 1.094 2.208 2.307s-.995 2.306-2.248 2.306-2.167-1.014-2.167-2.286c0-1.293.954-2.327 2.207-2.327zm7.265 7.855H331.8l-.06.557c-.145 1.347-.428 2.69-.557 3.32h.895c.238-.676.745-2.208.914-3.34l.08-.537zm6.09 1.392h6.424v-1.094h-4.733v-.08l2.287-2.446c1.75-1.875 2.267-2.75 2.267-3.878 0-1.57-1.273-2.824-3.063-2.824s-3.142 1.213-3.142 3.003h1.173c0-1.16.75-1.93 1.93-1.93 1.104 0 1.95.676 1.95 1.75 0 .94-.552 1.635-1.73 2.923l-3.36 3.68V418zm11.798.14c2.247 0 3.54-1.904 3.54-5.23 0-3.3-1.313-5.23-3.54-5.23s-3.54 1.93-3.54 5.23c0 3.326 1.293 5.23 3.54 5.23zm0-1.094c-1.482 0-2.347-1.486-2.347-4.136 0-2.645.875-4.156 2.347-4.156s2.347 1.51 2.347 4.156c0 2.65-.866 4.136-2.347 4.136zm9.008-9.227h-1.232l-2.546 1.69v1.252l2.486-1.65h.06V418h1.232v-10.182zm6.17-.16c-2.068-.02-3.4 1.53-3.4 3.42 0 1.968 1.45 3.38 3.2 3.38 1.054 0 1.95-.517 2.506-1.352h.08c0 2.506-.975 3.937-2.546 3.937-1.074 0-1.73-.676-1.95-1.6h-1.213c.24 1.6 1.452 2.704 3.162 2.704 2.287 0 3.7-2.028 3.7-5.648 0-3.758-1.87-4.812-3.54-4.832zm0 1.094c1.273 0 2.208 1.094 2.208 2.307s-.995 2.306-2.248 2.306-2.167-1.014-2.167-2.286c0-1.293.954-2.327 2.207-2.327zm14.245 5.687a.9.9 0 0 0 .895-.895c0-.492-.403-.894-.895-.894s-.895.402-.895.894a.9.9 0 0 0 .895.895zm14.077 3.72c1.55 0 2.685-.775 3.043-1.93l-1.134-.318c-.298.795-.99 1.193-1.91 1.193-1.377 0-2.327-.9-2.38-2.525h5.543v-.498c0-2.843-1.7-3.818-3.28-3.818-2.068 0-3.44 1.63-3.44 3.977s1.353 3.918 3.56 3.918zm-2.38-4.594c.08-1.188.92-2.247 2.262-2.247 1.273 0 2.088.955 2.088 2.247h-4.35zm10.21 4.594c1.472 0 1.97-.915 2.228-1.332h.14V418h1.133v-10.182h-1.173v3.76h-.1c-.26-.398-.716-1.313-2.208-1.313-1.93 0-3.26 1.53-3.26 3.938 0 2.426 1.332 3.957 3.24 3.957zm.16-1.054c-1.47 0-2.227-1.293-2.227-2.923 0-1.61.736-2.864 2.227-2.864 1.432 0 2.188 1.154 2.188 2.864 0 1.73-.776 2.923-2.188 2.923zm5.653.895h1.173v-7.636h-1.173V418zm.597-8.91c.457 0 .835-.358.835-.796s-.378-.795-.835-.795-.835.358-.835.795.377.796.835.796zm6.046 1.273h-1.63v-1.83h-1.174v1.83h-1.153v.994h1.153v4.773c0 1.332 1.074 1.968 2.07 1.968.437 0 .716-.08.875-.14l-.24-1.054c-.1.02-.26.06-.517.06-.517 0-1.014-.16-1.014-1.154v-4.454h1.63v-.994zm4.885 7.795c1.55 0 2.685-.775 3.043-1.93l-1.134-.318c-.298.795-.99 1.193-1.91 1.193-1.377 0-2.327-.9-2.38-2.525h5.543v-.498c0-2.843-1.7-3.818-3.28-3.818-2.068 0-3.44 1.63-3.44 3.977s1.353 3.918 3.56 3.918zm-2.38-4.594c.08-1.188.92-2.247 2.262-2.247 1.272 0 2.088.955 2.088 2.247h-4.35zm10.21 4.594c1.472 0 1.97-.915 2.228-1.332h.14V418h1.133v-10.182h-1.173v3.76h-.1c-.26-.398-.716-1.313-2.208-1.313-1.93 0-3.26 1.53-3.26 3.938 0 2.426 1.332 3.957 3.24 3.957zm.16-1.054c-1.47 0-2.227-1.293-2.227-2.923 0-1.61.736-2.864 2.227-2.864 1.432 0 2.188 1.154 2.188 2.864 0 1.73-.776 2.923-2.188 2.923zm13.01 1.034c1.974 0 3.44-1.238 3.44-2.903 0-1.293-.765-2.232-2.048-2.446v-.08c1.03-.313 1.67-1.158 1.67-2.307 0-1.44-1.14-2.724-3.023-2.724-1.76 0-3.222 1.084-3.28 2.685h1.193c.044-1.015 1.01-1.61 2.068-1.61 1.124 0 1.85.68 1.85 1.7 0 1.074-.84 1.77-2.048 1.77h-.815v1.094h.815c1.546 0 2.406.785 2.406 1.91 0 1.08-.94 1.81-2.247 1.81-1.178 0-2.113-.606-2.187-1.6h-1.253c.074 1.6 1.486 2.684 3.46 2.684zm8.656 0c1.938 0 3.36-1.432 3.36-3.38 0-1.974-1.372-3.42-3.24-3.42-.686 0-1.352.244-1.77.577h-.06l.358-3.003h4.256v-1.094h-5.3l-.616 5.012 1.153.14c.423-.304 1.144-.522 1.77-.517 1.298.01 2.247.994 2.247 2.326 0 1.308-.915 2.267-2.167 2.267-1.044 0-1.875-.67-1.97-1.6h-1.193c.074 1.55 1.412 2.684 3.162 2.684zm9.293-.14h1.173v-4.773c0-1.118.815-1.91 1.73-1.91.9 0 1.51.582 1.51 1.452V418h1.194v-4.972c0-.984.616-1.7 1.7-1.7.835 0 1.55.443 1.55 1.57V418h1.173v-5.11c0-1.795-.964-2.625-2.326-2.625-1.094 0-1.894.502-2.287 1.293h-.08c-.378-.816-1.044-1.293-2.048-1.293-.994 0-1.73.477-2.048 1.293h-.1v-1.193h-1.133V418zm12.168 0h1.173v-7.636h-1.173V418zm.596-8.91c.458 0 .836-.358.836-.796s-.378-.795-.836-.795-.835.358-.835.795.378.796.835.796zm3.9 4.315c0-1.332.826-2.088 1.95-2.088 1.09 0 1.75.71 1.75 1.91V418h1.173v-4.852c0-1.95-1.04-2.884-2.585-2.884-1.153 0-1.87.517-2.227 1.293h-.1v-1.193h-1.133V418h1.173v-4.594zm13.2 4.773c1.332 0 2.028-.716 2.267-1.213h.06V418h1.173v-5.03c0-2.426-1.85-2.705-2.824-2.705-1.153 0-2.466.398-3.062 1.8l1.113.398c.26-.557.87-1.154 1.99-1.154 1.08 0 1.61.572 1.61 1.55v.04c0 .567-.577.517-1.97.696-1.417.184-2.963.497-2.963 2.247 0 1.492 1.153 2.347 2.605 2.347zm.18-1.054c-.935 0-1.61-.418-1.61-1.233 0-.895.816-1.173 1.73-1.293.498-.06 1.83-.198 2.03-.437v1.074c0 .954-.756 1.89-2.148 1.89zm8.545 3.898c1.83 0 3.3-.835 3.3-2.804v-7.855h-1.133v1.213h-.12c-.258-.398-.736-1.313-2.227-1.313-1.93 0-3.26 1.53-3.26 3.878 0 2.386 1.392 3.74 3.24 3.74 1.492 0 1.97-.875 2.227-1.293h.1v1.55c0 1.273-.895 1.85-2.128 1.85-1.387 0-1.874-.73-2.188-1.154l-.934.656c.477.8 1.417 1.532 3.122 1.532zm-.04-4.196c-1.47 0-2.227-1.114-2.227-2.705 0-1.55.736-2.804 2.227-2.804 1.432 0 2.188 1.154 2.188 2.804 0 1.7-.776 2.705-2.188 2.705zm8.59 1.332c2.068 0 3.46-1.57 3.46-3.937 0-2.387-1.392-3.958-3.46-3.958s-3.46 1.57-3.46 3.958c0 2.366 1.392 3.937 3.46 3.937zm0-1.054c-1.57 0-2.287-1.352-2.287-2.883s.716-2.904 2.287-2.904 2.287 1.372 2.287 2.904-.716 2.883-2.287 2.883z" class="C"/><rect x="48" y="380" width="40" height="40" rx="20" class="D H"/><g class="E F I B"><path d="M65 404h3m-3-4h6m-6-4h6" class="G"/><use xlink:href="#B"/></g><path d="M107.773 311.273h1.363c-.062-1.756-1.68-3.068-3.93-3.068-2.228 0-3.978 1.295-3.978 3.25 0 1.568 1.137 2.5 2.955 3.022l1.432.41c1.227.34 2.318.773 2.318 1.932 0 1.273-1.227 2.114-2.84 2.114-1.386 0-2.614-.614-2.727-1.932h-1.455c.136 1.91 1.682 3.205 4.182 3.205 2.682 0 4.204-1.478 4.204-3.364 0-2.182-2.068-2.886-3.272-3.205l-1.182-.318c-.864-.227-2.25-.682-2.25-1.932 0-1.113 1.023-1.93 2.568-1.93 1.41 0 2.477.67 2.614 1.818zm7.316 8.91c1.773 0 3.07-.887 3.478-2.205l-1.296-.363c-.34.91-1.13 1.363-2.182 1.363-1.573 0-2.66-1.017-2.72-2.886h6.335v-.568c0-3.25-1.932-4.364-3.75-4.364-2.364 0-3.932 1.864-3.932 4.546s1.546 4.477 4.068 4.477zm-2.72-5.25c.09-1.358 1.05-2.568 2.585-2.568 1.455 0 2.386 1.09 2.386 2.568h-4.97zm12.17-3.66h-1.863v-2.09h-1.34v2.09h-1.318v1.136h1.318v5.455c0 1.522 1.227 2.25 2.363 2.25.5 0 .82-.09 1-.16l-.272-1.205c-.114.023-.296.068-.59.068-.59 0-1.16-.182-1.16-1.318v-5.09h1.863v-1.136zm5.813 0h-1.864v-2.09h-1.34v2.09h-1.318v1.136h1.318v5.455c0 1.522 1.228 2.25 2.364 2.25.5 0 .818-.09 1-.16l-.273-1.205c-.113.023-.295.068-.59.068-.59 0-1.16-.182-1.16-1.318v-5.09h1.864v-1.136zm2.017 8.727h1.34v-8.727h-1.34V320zm.682-10.182c.522 0 .954-.41.954-.91s-.432-.91-.954-.91-.955.41-.955.91.432.91.955.91zm4.456 4.932c0-1.523.943-2.386 2.227-2.386 1.244 0 2 .812 2 2.18V320h1.34v-5.545c0-2.228-1.188-3.296-2.955-3.296-1.318 0-2.136.59-2.545 1.477h-.114v-1.363h-1.295V320h1.34v-5.25zm11.54 8.705c2.09 0 3.773-.955 3.773-3.205v-8.977h-1.296v1.386h-.136c-.296-.454-.84-1.5-2.546-1.5-2.204 0-3.727 1.75-3.727 4.432 0 2.727 1.59 4.273 3.705 4.273 1.704 0 2.25-1 2.545-1.478h.114v1.773c0 1.455-1.023 2.114-2.432 2.114-1.585 0-2.142-.835-2.5-1.318l-1.068.75c.545.914 1.62 1.75 3.568 1.75zM149 318.66c-1.68 0-2.545-1.273-2.545-3.09 0-1.773.84-3.204 2.545-3.204 1.637 0 2.5 1.318 2.5 3.204 0 1.932-.886 3.09-2.5 3.09zm16.273-2.227c0 1.636-1.25 2.386-2.25 2.386-1.113 0-1.91-.818-1.91-2.09v-5.454h-1.34v5.545c0 2.227 1.182 3.296 2.818 3.296 1.32 0 2.182-.705 2.59-1.59h.09V320h1.34v-8.727h-1.34v5.16zm3.797 6.84h1.34v-4.614h.114c.295.477.863 1.523 2.545 1.523 2.182 0 3.705-1.75 3.705-4.523 0-2.75-1.523-4.5-3.728-4.5-1.704 0-2.227 1.046-2.522 1.5h-.16v-1.386h-1.295v12zm1.318-7.637c0-1.954.864-3.272 2.5-3.272 1.705 0 2.546 1.43 2.546 3.272 0 1.864-.864 3.34-2.546 3.34-1.613 0-2.5-1.363-2.5-3.34zm12.114-7.272l4.204 6.84V320h1.41v-4.795l4.205-6.84h-1.614l-3.227 5.43h-.136l-3.228-5.43h-1.613zm13.77 11.818c2.363 0 3.954-1.796 3.954-4.5 0-2.727-1.59-4.523-3.954-4.523s-3.955 1.796-3.955 4.523c0 2.704 1.59 4.5 3.955 4.5zm0-1.205c-1.796 0-2.614-1.545-2.614-3.295s.818-3.318 2.614-3.318 2.613 1.568 2.613 3.318-.818 3.295-2.613 3.295zm11.5-2.545c0 1.636-1.25 2.386-2.25 2.386-1.113 0-1.91-.818-1.91-2.09v-5.454h-1.34v5.545c0 2.227 1.182 3.296 2.818 3.296 1.32 0 2.182-.705 2.59-1.59h.09V320h1.34v-8.727h-1.34v5.16zM211.57 320h1.34v-5.523c0-1.182.932-2.045 2.204-2.045a4.09 4.09 0 0 1 .819.091v-1.364l-.705-.023c-1.045 0-1.954.59-2.273 1.455h-.09v-1.318h-1.295V320zm10.635 0h7.114v-1.25h-5.705v-3.955h5.25v-1.25h-5.25v-3.93h5.614v-1.25h-7.023V320zm9.38 0h1.34v-5.455c0-1.278.93-2.18 1.977-2.18 1.017 0 1.727.664 1.727 1.66V320h1.364v-5.682c0-1.125.704-1.954 1.932-1.954.954 0 1.772.505 1.772 1.795V320h1.34v-5.84c0-2.05-1.102-3-2.66-3-1.25 0-2.165.574-2.614 1.477h-.1c-.432-.93-1.194-1.477-2.34-1.477-1.137 0-1.978.546-2.34 1.477h-.114v-1.363h-1.295V320zm16.474.205c1.523 0 2.318-.82 2.59-1.387h.068V320h1.34v-5.75c0-2.773-2.114-3.09-3.227-3.09-1.318 0-2.818.455-3.5 2.046l1.273.454c.295-.636.994-1.318 2.272-1.318 1.233 0 1.84.653 1.84 1.773v.045c0 .648-.66.59-2.25.796-1.62.2-3.386.568-3.386 2.568 0 1.704 1.318 2.682 2.977 2.682zm.205-1.205c-1.07 0-1.84-.477-1.84-1.41 0-1.023.932-1.34 1.977-1.477.568-.07 2.09-.228 2.318-.5v1.227c0 1.09-.863 2.16-2.454 2.16zm6.243 1h1.34v-8.727h-1.34V320zm.68-10.182c.523 0 .955-.41.955-.91s-.432-.91-.955-.91-.954.41-.954.91.432.91.954.91zm4.456-1.454h-1.34V320h1.34v-11.636zM267.26 320l1.17-3.295h4.704l1.17 3.295h1.477l-4.273-11.636h-1.454L265.784 320h1.477zm1.614-4.545l1.864-5.25h.09l1.863 5.25h-3.818zm12.085 4.727c1.932 0 3.205-1.182 3.432-2.727h-1.34c-.25.954-1.045 1.522-2.09 1.522-1.59 0-2.613-1.318-2.613-3.34 0-1.977 1.045-3.272 2.613-3.272 1.182 0 1.887.727 2.09 1.522h1.34c-.227-1.636-1.614-2.727-3.454-2.727-2.364 0-3.932 1.864-3.932 4.523 0 2.613 1.5 4.5 3.954 4.5zm8.938 0c1.932 0 3.204-1.182 3.432-2.727h-1.34c-.25.954-1.046 1.522-2.09 1.522-1.59 0-2.614-1.318-2.614-3.34 0-1.977 1.046-3.272 2.614-3.272 1.182 0 1.886.727 2.09 1.522h1.34c-.228-1.636-1.614-2.727-3.455-2.727-2.364 0-3.932 1.864-3.932 4.523 0 2.613 1.5 4.5 3.955 4.5zm8.937 0c2.364 0 3.955-1.796 3.955-4.5 0-2.727-1.59-4.523-3.955-4.523s-3.954 1.796-3.954 4.523c0 2.704 1.59 4.5 3.954 4.5zm0-1.205c-1.795 0-2.613-1.545-2.613-3.295s.818-3.318 2.613-3.318 2.614 1.568 2.614 3.318-.818 3.295-2.614 3.295zm11.502-2.545c0 1.636-1.25 2.386-2.25 2.386-1.114 0-1.91-.818-1.91-2.09v-5.454h-1.34v5.545c0 2.227 1.18 3.296 2.818 3.296 1.318 0 2.182-.705 2.59-1.59h.09V320h1.34v-8.727h-1.34v5.16zm5.137-1.682c0-1.523.944-2.386 2.228-2.386 1.244 0 2 .812 2 2.18V320h1.34v-5.545c0-2.228-1.188-3.296-2.955-3.296-1.318 0-2.136.59-2.545 1.477h-.114v-1.363h-1.295V320h1.34v-5.25zm11.814-3.477h-1.863v-2.09h-1.34v2.09h-1.318v1.136h1.318v5.455c0 1.522 1.227 2.25 2.363 2.25.5 0 .82-.09 1-.16l-.272-1.205c-.114.023-.296.068-.59.068-.59 0-1.16-.182-1.16-1.318v-5.09h1.863v-1.136z" fill="#000"/><path d="M101.65 342l1.024-2.884h4.116l1.024 2.884h1.293l-3.74-10.182h-1.272L100.358 342h1.293zm1.41-3.977l1.63-4.594h.08l1.63 4.594h-3.34zm7.473 3.977h1.173v-4.773c0-1.118.815-1.91 1.73-1.91.9 0 1.512.582 1.512 1.452V342h1.193v-4.972c0-.984.616-1.7 1.7-1.7.835 0 1.55.443 1.55 1.57V342h1.174v-5.11c0-1.795-.965-2.625-2.327-2.625-1.094 0-1.894.502-2.287 1.293h-.08c-.377-.816-1.044-1.293-2.048-1.293-.994 0-1.73.477-2.048 1.293h-.1v-1.193h-1.133V342zm12.65 2.844c1.06 0 1.8-.562 2.247-1.73l3.252-8.73-1.283-.02-2.108 6.085h-.08l-2.108-6.085h-1.272l2.824 7.676-.22.596c-.418 1.144-.955 1.253-1.8 1.034l-.298 1.035c.12.06.457.14.855.14zM134.333 342h1.233v-3.72h2.227c2.37 0 3.44-1.442 3.44-3.24s-1.07-3.222-3.46-3.222h-3.44V342zm1.233-4.812v-4.276h2.167c1.656 0 2.287.905 2.287 2.128s-.63 2.148-2.267 2.148h-2.187zm9.74 4.99c1.333 0 2.03-.716 2.267-1.213h.06V342h1.173v-5.03c0-2.426-1.85-2.705-2.824-2.705-1.153 0-2.465.398-3.062 1.8l1.114.398c.258-.557.87-1.154 1.988-1.154 1.08 0 1.61.572 1.61 1.55v.04c0 .567-.577.517-1.97.696-1.417.184-2.963.497-2.963 2.247 0 1.492 1.154 2.347 2.605 2.347zm.18-1.054c-.934 0-1.6-.418-1.6-1.233 0-.895.815-1.173 1.73-1.293.497-.06 1.83-.198 2.028-.437v1.074c0 .954-.756 1.89-2.148 1.89zm8.784-6.76h-1.63v-1.83h-1.173v1.83h-1.154v.994h1.154v4.773c0 1.332 1.074 1.968 2.068 1.968.438 0 .716-.08.875-.14l-.24-1.054c-.1.02-.258.06-.517.06-.517 0-1.014-.16-1.014-1.154v-4.454h1.63v-.994zm5.086 0h-1.63v-1.83h-1.173v1.83h-1.154v.994h1.154v4.773c0 1.332 1.074 1.968 2.068 1.968.438 0 .716-.08.875-.14l-.24-1.054c-.1.02-.258.06-.517.06-.517 0-1.014-.16-1.014-1.154v-4.454h1.63v-.994zm4.884 7.795c1.552 0 2.685-.775 3.043-1.93l-1.133-.318c-.3.795-1 1.193-1.9 1.193-1.377 0-2.326-.9-2.38-2.525h5.543v-.498c0-2.843-1.7-3.818-3.28-3.818-2.068 0-3.44 1.63-3.44 3.977s1.352 3.918 3.56 3.918zm-2.38-4.594c.08-1.188.92-2.247 2.262-2.247 1.273 0 2.088.955 2.088 2.247h-4.35zm7.328 4.435h1.173v-4.832c0-1.034.816-1.8 1.93-1.8a3.66 3.66 0 0 1 .716.079v-1.193l-.616-.02c-.915 0-1.7.517-1.99 1.273h-.08v-1.153h-1.134V342zm10.618-5.926c-.368-1.084-1.193-1.8-2.704-1.8-1.61 0-2.804.915-2.804 2.208 0 1.054.626 1.76 2.028 2.088l1.273.298c.77.18 1.133.547 1.133 1.074 0 .656-.696 1.193-1.79 1.193-.96 0-1.56-.413-1.77-1.233l-1.114.278c.273 1.298 1.342 1.99 2.903 1.99 1.775 0 2.983-.97 2.983-2.287 0-1.064-.666-1.735-2.028-2.068l-1.134-.278c-.904-.224-1.312-.527-1.312-1.114 0-.656.696-1.134 1.63-1.134 1.024 0 1.446.567 1.65 1.094l1.054-.298zm5.008 6.085c2.068 0 3.46-1.57 3.46-3.937 0-2.387-1.392-3.958-3.46-3.958s-3.46 1.57-3.46 3.958c0 2.366 1.392 3.937 3.46 3.937zm0-1.054c-1.57 0-2.287-1.352-2.287-2.883s.716-2.904 2.287-2.904 2.287 1.372 2.287 2.904-.716 2.883-2.287 2.883zm6.424-3.7c0-1.332.826-2.088 1.95-2.088 1.09 0 1.75.71 1.75 1.91V342h1.174v-4.852c0-1.95-1.04-2.884-2.586-2.884-1.153 0-1.87.517-2.227 1.293h-.1v-1.193h-1.134V342h1.173v-4.594zm15.747 1.034a.9.9 0 0 0 .895-.895c0-.492-.403-.894-.895-.894s-.895.402-.895.894.402.895.895.895zm14.435-6.622h-1.233l-2.546 1.69v1.252l2.486-1.65h.06V342h1.233v-10.182zM224.347 342h6.423v-1.094h-4.733v-.08l2.287-2.446c1.75-1.875 2.267-2.75 2.267-3.878 0-1.57-1.272-2.824-3.062-2.824s-3.142 1.213-3.142 3.003h1.173c0-1.16.75-1.93 1.93-1.93 1.104 0 1.95.676 1.95 1.75 0 .94-.552 1.635-1.73 2.923l-3.36 3.68V342zm12.056-10.182h-1.233l-2.545 1.69v1.252l2.485-1.65h.06V342h1.233v-10.182zm13.13 2.546h-1.273l-2.108 6.085h-.08l-2.108-6.085h-1.273l2.824 7.636h1.193l2.824-7.636zm1.55 7.636h1.173v-7.636h-1.173V342zm.596-8.91c.458 0 .835-.358.835-.796s-.377-.795-.835-.795-.835.358-.835.795.378.796.835.796zm5.928 9.068c1.55 0 2.684-.775 3.042-1.93l-1.133-.318c-.3.795-1 1.193-1.91 1.193-1.377 0-2.327-.9-2.382-2.525h5.544v-.498c0-2.843-1.69-3.818-3.282-3.818-2.068 0-3.44 1.63-3.44 3.977s1.352 3.918 3.56 3.918zm-2.382-4.594c.08-1.188.92-2.247 2.262-2.247 1.273 0 2.088.955 2.088 2.247h-4.35zm9.058 4.435h1.154l1.67-5.866h.12l1.67 5.866h1.154l2.326-7.636h-1.233l-1.65 5.826h-.08l-1.61-5.826h-1.252l-1.63 5.846h-.08l-1.65-5.846h-1.233l2.326 7.636zm15.054-5.926c-.367-1.084-1.193-1.8-2.704-1.8-1.61 0-2.804.915-2.804 2.208 0 1.054.626 1.76 2.028 2.088l1.273.298c.77.18 1.134.547 1.134 1.074 0 .656-.696 1.193-1.8 1.193-.96 0-1.56-.413-1.77-1.233l-1.114.278c.274 1.298 1.343 1.99 2.904 1.99 1.775 0 2.983-.97 2.983-2.287 0-1.064-.667-1.735-2.03-2.068l-1.133-.278c-.905-.224-1.313-.527-1.313-1.114 0-.656.696-1.134 1.63-1.134 1.024 0 1.447.567 1.65 1.094l1.054-.298zm10.636 2.366a.9.9 0 0 0 .895-.895c0-.492-.403-.894-.895-.894s-.895.402-.895.894a.9.9 0 0 0 .895.895zm11.452 3.56l1.024-2.884h4.117L307.59 342h1.292l-3.738-10.182h-1.273L300.13 342h1.293zm1.412-3.977l1.63-4.594h.08l1.63 4.594h-3.34zm12.285.855c0 1.432-1.094 2.088-1.97 2.088-.974 0-1.67-.716-1.67-1.83v-4.772h-1.174v4.852c0 1.95 1.034 2.883 2.466 2.883 1.154 0 1.91-.616 2.267-1.392h.08V342h1.173v-7.636h-1.173v4.514zm6.404 6.145c1.83 0 3.302-.835 3.302-2.804v-7.855h-1.134v1.213h-.12c-.26-.398-.736-1.313-2.228-1.313-1.93 0-3.26 1.53-3.26 3.878 0 2.386 1.392 3.74 3.242 3.74 1.49 0 1.968-.875 2.227-1.293h.1v1.55c0 1.273-.895 1.85-2.128 1.85-1.387 0-1.874-.73-2.187-1.154l-.935.656c.478.8 1.417 1.532 3.122 1.532zm-.04-4.196c-1.472 0-2.228-1.114-2.228-2.705 0-1.55.736-2.804 2.228-2.804 1.43 0 2.187 1.154 2.187 2.804 0 1.7-.775 2.705-2.187 2.705zm9.406 1.173h6.423v-1.094h-4.733v-.08l2.287-2.446c1.75-1.875 2.267-2.75 2.267-3.878 0-1.57-1.273-2.824-3.062-2.824s-3.142 1.213-3.142 3.003h1.173c0-1.16.75-1.93 1.93-1.93 1.104 0 1.95.676 1.95 1.75 0 .94-.552 1.635-1.73 2.923l-3.36 3.68V342zm12.056-10.182h-1.233l-2.545 1.69v1.252l2.485-1.65h.06V342h1.233v-10.182zm4.698 8.8h-1.273l-.06.557c-.144 1.347-.428 2.69-.557 3.32h.895c.238-.676.746-2.208.915-3.34l.08-.537zm6.092 1.392h6.423v-1.094h-4.733v-.08l2.287-2.446c1.75-1.875 2.267-2.75 2.267-3.878 0-1.57-1.273-2.824-3.063-2.824-1.784 0-3.142 1.213-3.142 3.003h1.174c0-1.16.75-1.93 1.93-1.93 1.103 0 1.948.676 1.948 1.75 0 .94-.55 1.635-1.73 2.923l-3.36 3.68V342zm11.797.14c2.247 0 3.54-1.904 3.54-5.23 0-3.3-1.313-5.23-3.54-5.23s-3.54 1.93-3.54 5.23c0 3.326 1.293 5.23 3.54 5.23zm0-1.094c-1.48 0-2.346-1.486-2.346-4.136 0-2.645.875-4.156 2.346-4.156s2.347 1.51 2.347 4.156c0 2.65-.865 4.136-2.347 4.136zm9.01-9.227h-1.233l-2.546 1.69v1.252l2.486-1.65h.06V342h1.233v-10.182zm6.19 10.32c2.034 0 3.45-1.188 3.46-2.844-.01-1.287-.87-2.38-1.97-2.585v-.06c.954-.25 1.58-1.184 1.59-2.267-.01-1.552-1.313-2.705-3.083-2.705-1.79 0-3.092 1.153-3.082 2.705-.01 1.083.616 2.018 1.59 2.267v.06c-1.12.204-1.98 1.298-1.97 2.585-.01 1.656 1.407 2.844 3.46 2.844zm0-1.094c-1.397 0-2.257-.715-2.247-1.81-.01-1.15.94-1.97 2.247-1.97 1.288 0 2.238.82 2.247 1.97-.01 1.094-.87 1.81-2.247 1.81zm0-4.832c-1.113 0-1.9-.696-1.89-1.75-.01-1.034.746-1.7 1.89-1.7 1.124 0 1.88.676 1.9 1.7-.01 1.054-.796 1.75-1.9 1.75zm14.116 2.227a.9.9 0 0 0 .895-.895c0-.492-.403-.894-.895-.894s-.895.402-.895.894a.9.9 0 0 0 .895.895zm14.077 3.72c1.55 0 2.685-.775 3.043-1.93l-1.134-.318c-.298.795-.99 1.193-1.91 1.193-1.377 0-2.327-.9-2.38-2.525h5.543v-.498c0-2.843-1.7-3.818-3.28-3.818-2.07 0-3.44 1.63-3.44 3.977s1.353 3.918 3.56 3.918zm-2.38-4.594c.08-1.188.92-2.247 2.262-2.247 1.272 0 2.088.955 2.088 2.247h-4.35zm10.21 4.594c1.472 0 1.97-.915 2.227-1.332h.14V342h1.133v-10.182h-1.173v3.76h-.1c-.258-.398-.715-1.313-2.207-1.313-1.93 0-3.26 1.53-3.26 3.938 0 2.426 1.332 3.957 3.24 3.957zm.16-1.054c-1.47 0-2.227-1.293-2.227-2.923 0-1.61.736-2.864 2.227-2.864 1.432 0 2.188 1.154 2.188 2.864 0 1.73-.776 2.923-2.188 2.923zm5.653.895h1.173v-7.636h-1.173V342zm.597-8.91c.457 0 .835-.358.835-.796s-.378-.795-.835-.795-.836.358-.836.795.378.796.836.796zm6.046 1.273h-1.63v-1.83h-1.174v1.83h-1.153v.994h1.153v4.773c0 1.332 1.074 1.968 2.068 1.968.438 0 .716-.08.875-.14l-.238-1.054c-.1.02-.26.06-.517.06-.517 0-1.014-.16-1.014-1.154v-4.454h1.63v-.994zm4.885 7.795c1.55 0 2.685-.775 3.042-1.93l-1.133-.318c-.298.795-.99 1.193-1.91 1.193-1.377 0-2.327-.9-2.382-2.525h5.544v-.498c0-2.843-1.69-3.818-3.28-3.818-2.07 0-3.44 1.63-3.44 3.977s1.352 3.918 3.56 3.918zm-2.382-4.594c.08-1.188.92-2.247 2.263-2.247 1.272 0 2.088.955 2.088 2.247h-4.35zm10.212 4.594c1.472 0 1.97-.915 2.227-1.332h.14V342h1.133v-10.182h-1.173v3.76h-.1c-.258-.398-.715-1.313-2.207-1.313-1.93 0-3.26 1.53-3.26 3.938 0 2.426 1.332 3.957 3.24 3.957zm.16-1.054c-1.47 0-2.227-1.293-2.227-2.923 0-1.61.736-2.864 2.227-2.864 1.432 0 2.188 1.154 2.188 2.864 0 1.73-.776 2.923-2.188 2.923zm9.57.895h6.423v-1.094h-4.733v-.08l2.287-2.446c1.75-1.875 2.267-2.75 2.267-3.878 0-1.57-1.273-2.824-3.063-2.824-1.784 0-3.142 1.213-3.142 3.003h1.174c0-1.16.75-1.93 1.93-1.93 1.103 0 1.948.676 1.948 1.75 0 .94-.55 1.635-1.73 2.923l-3.36 3.68V342zm15.317.16c1.472 0 1.97-.915 2.227-1.332h.14V342h1.134v-10.182H469.3v3.76h-.1c-.258-.398-.716-1.313-2.207-1.313-1.93 0-3.26 1.53-3.26 3.938 0 2.426 1.332 3.957 3.24 3.957zm.16-1.054c-1.47 0-2.227-1.293-2.227-2.923 0-1.61.736-2.864 2.227-2.864 1.432 0 2.188 1.154 2.188 2.864 0 1.73-.776 2.923-2.188 2.923zm7.9 1.074c1.332 0 2.028-.716 2.267-1.213h.06V342h1.173v-5.03c0-2.426-1.85-2.705-2.824-2.705-1.153 0-2.466.398-3.062 1.8l1.113.398c.26-.557.87-1.154 1.99-1.154 1.08 0 1.61.572 1.61 1.55v.04c0 .567-.577.517-1.97.696-1.417.184-2.963.497-2.963 2.247 0 1.492 1.153 2.347 2.605 2.347zm.18-1.054c-.935 0-1.61-.418-1.61-1.233 0-.895.815-1.173 1.73-1.293.497-.06 1.83-.198 2.03-.437v1.074c0 .954-.756 1.89-2.148 1.89zm5.945 3.72c1.06 0 1.81-.562 2.247-1.73l3.25-8.73-1.282-.02-2.108 6.085h-.08l-2.108-6.085h-1.273l2.824 7.676-.218.596c-.418 1.144-.955 1.253-1.8 1.034l-.298 1.035c.12.06.457.14.855.14zm12.46-8.77c-.368-1.084-1.193-1.8-2.705-1.8-1.61 0-2.804.915-2.804 2.208 0 1.054.627 1.76 2.03 2.088l1.272.298c.77.18 1.134.547 1.134 1.074 0 .656-.696 1.193-1.8 1.193-.96 0-1.56-.413-1.77-1.233l-1.113.278c.273 1.298 1.342 1.99 2.903 1.99 1.775 0 2.983-.97 2.983-2.287 0-1.064-.666-1.735-2.028-2.068l-1.134-.278c-.905-.224-1.312-.527-1.312-1.114 0-.656.696-1.134 1.63-1.134 1.024 0 1.447.567 1.65 1.094l1.054-.298zm8.1 6.105c1.332 0 2.028-.716 2.267-1.213h.06V342h1.174v-5.03c0-2.426-1.85-2.705-2.824-2.705-1.153 0-2.466.398-3.063 1.8l1.114.398c.26-.557.87-1.154 1.99-1.154 1.08 0 1.6.572 1.6 1.55v.04c0 .567-.576.517-1.968.696-1.417.184-2.963.497-2.963 2.247 0 1.492 1.153 2.347 2.605 2.347zm.18-1.054c-.935 0-1.61-.418-1.61-1.233 0-.895.815-1.173 1.73-1.293.497-.06 1.83-.198 2.028-.437v1.074c0 .954-.755 1.89-2.147 1.89zm8.545 3.898c1.83 0 3.3-.835 3.3-2.804v-7.855h-1.134v1.213h-.12c-.26-.398-.736-1.313-2.227-1.313-1.93 0-3.262 1.53-3.262 3.878 0 2.386 1.392 3.74 3.242 3.74 1.49 0 1.97-.875 2.227-1.293h.1v1.55c0 1.273-.895 1.85-2.128 1.85-1.387 0-1.875-.73-2.188-1.154l-.934.656c.477.8 1.416 1.532 3.122 1.532zm-.04-4.196c-1.472 0-2.227-1.114-2.227-2.705 0-1.55.735-2.804 2.227-2.804 1.432 0 2.187 1.154 2.187 2.804 0 1.7-.775 2.705-2.187 2.705zm8.59 1.332c2.068 0 3.46-1.57 3.46-3.937 0-2.387-1.392-3.958-3.46-3.958s-3.46 1.57-3.46 3.958c0 2.366 1.392 3.937 3.46 3.937zm0-1.054c-1.57 0-2.287-1.352-2.287-2.883s.716-2.904 2.287-2.904 2.287 1.372 2.287 2.904-.716 2.883-2.287 2.883z" class="C"/><rect x="48" y="304" width="40" height="40" rx="20" class="D H"/><g class="E F I B"><path d="M65 328h3m-3-4h6m-6-4h6" class="G"/><use xlink:href="#B" y="-76"/></g><path d="M105 244c3.545 0 5.545-2.205 5.545-5.84 0-3.614-2-5.795-5.386-5.795h-3.75V244H105zm-2.182-1.25v-9.136h2.25c2.727 0 4.114 1.727 4.114 4.545 0 2.84-1.387 4.59-4.273 4.59h-2.09zm13.568 1.432c1.773 0 3.07-.887 3.478-2.205l-1.296-.363c-.34.91-1.13 1.363-2.182 1.363-1.574 0-2.66-1.017-2.72-2.886H120v-.568c0-3.25-1.932-4.364-3.75-4.364-2.364 0-3.932 1.864-3.932 4.546s1.546 4.477 4.068 4.477zm-2.72-5.25c.09-1.358 1.05-2.568 2.585-2.568 1.455 0 2.386 1.09 2.386 2.568h-4.97zm14.557-1.705c-.42-1.238-1.364-2.068-3.09-2.068-1.84 0-3.205 1.046-3.205 2.523 0 1.204.716 2.01 2.318 2.386l1.455.34c.88.205 1.295.625 1.295 1.227 0 .75-.795 1.364-2.045 1.364-1.097 0-1.784-.472-2.023-1.41l-1.273.318c.313 1.483 1.535 2.273 3.32 2.273 2.028 0 3.41-1.108 3.41-2.614 0-1.216-.762-1.983-2.32-2.363l-1.295-.32c-1.034-.255-1.5-.602-1.5-1.272 0-.75.795-1.296 1.864-1.296 1.17 0 1.653.648 1.886 1.25l1.205-.34zM130.4 244h1.34v-3.267l.938-.87 3.267 4.136h1.704l-3.96-5 3.687-3.727h-1.66l-3.818 3.886h-.16v-6.795h-1.34V244zm19.75-8.727h1.363c-.062-1.756-1.68-3.068-3.93-3.068-2.228 0-3.978 1.295-3.978 3.25 0 1.568 1.137 2.5 2.955 3.022l1.432.41c1.227.34 2.318.773 2.318 1.932 0 1.273-1.227 2.114-2.84 2.114-1.386 0-2.614-.614-2.727-1.932h-1.455c.136 1.91 1.682 3.205 4.182 3.205 2.682 0 4.204-1.478 4.204-3.364 0-2.182-2.068-2.886-3.272-3.205l-1.182-.318c-.864-.227-2.25-.682-2.25-1.932 0-1.113 1.023-1.93 2.568-1.93 1.41 0 2.477.67 2.614 1.818zm7.316 8.91c1.773 0 3.07-.887 3.478-2.205l-1.296-.363c-.34.91-1.13 1.363-2.182 1.363-1.573 0-2.66-1.017-2.72-2.886h6.335v-.568c0-3.25-1.932-4.364-3.75-4.364-2.364 0-3.932 1.864-3.932 4.546s1.546 4.477 4.068 4.477zm-2.72-5.25c.09-1.358 1.05-2.568 2.585-2.568 1.455 0 2.386 1.09 2.386 2.568h-4.97zm12.17-3.66h-1.863v-2.09h-1.34v2.09h-1.318v1.136h1.318v5.455c0 1.522 1.227 2.25 2.363 2.25.5 0 .82-.09 1-.16l-.272-1.205c-.114.023-.296.068-.59.068-.59 0-1.16-.182-1.16-1.318v-5.09h1.863v-1.136zm7.517 5.16c0 1.636-1.25 2.386-2.25 2.386-1.113 0-1.91-.818-1.91-2.09v-5.454h-1.34v5.545c0 2.227 1.182 3.296 2.82 3.296 1.318 0 2.18-.705 2.6-1.59h.09V244h1.34v-8.727h-1.34v5.16zm3.797 6.84h1.34v-4.614h.114c.295.477.863 1.523 2.545 1.523 2.182 0 3.705-1.75 3.705-4.523 0-2.75-1.523-4.5-3.727-4.5-1.705 0-2.228 1.046-2.523 1.5h-.16v-1.386h-1.296v12zm1.318-7.637c0-1.954.864-3.272 2.5-3.272 1.705 0 2.546 1.43 2.546 3.272 0 1.864-.864 3.34-2.546 3.34-1.613 0-2.5-1.363-2.5-3.34z" fill="#000"/><path d="M104.375 266c3.102 0 4.852-1.93 4.852-5.11 0-3.162-1.75-5.07-4.713-5.07h-3.28V266h3.142zm-1.91-1.094v-7.994h1.97c2.386 0 3.6 1.51 3.6 3.977 0 2.486-1.213 4.017-3.74 4.017h-1.83zm10.918 1.273c1.332 0 2.028-.716 2.267-1.213h.06V266h1.174v-5.03c0-2.426-1.85-2.705-2.824-2.705-1.154 0-2.466.398-3.063 1.8l1.114.398c.258-.557.87-1.154 1.988-1.154 1.08 0 1.61.572 1.61 1.55v.04c0 .567-.576.517-1.97.696-1.416.184-2.963.497-2.963 2.247 0 1.492 1.154 2.347 2.606 2.347zm.178-1.054c-.934 0-1.6-.418-1.6-1.233 0-.895.815-1.173 1.73-1.293.497-.06 1.83-.198 2.028-.437v1.074c0 .954-.755 1.89-2.148 1.89zm6.636-3.72c0-1.332.826-2.088 1.95-2.088 1.09 0 1.75.71 1.75 1.91V266h1.173v-4.852c0-1.95-1.04-2.884-2.585-2.884-1.153 0-1.87.517-2.227 1.293h-.1v-1.193h-1.134V266h1.173v-4.594zm7.016 4.594h1.174v-7.636h-1.174V266zm.597-8.91c.457 0 .835-.358.835-.796s-.378-.795-.835-.795-.835.358-.835.795.378.796.835.796zm5.927 9.068c1.552 0 2.685-.775 3.043-1.93l-1.133-.318c-.3.795-1 1.193-1.9 1.193-1.377 0-2.326-.9-2.38-2.525h5.543v-.498c0-2.843-1.7-3.818-3.28-3.818-2.068 0-3.44 1.63-3.44 3.977s1.352 3.918 3.56 3.918zm-2.38-4.594c.08-1.188.92-2.247 2.262-2.247 1.273 0 2.088.955 2.088 2.247h-4.35zm8.5-5.747h-1.173V266h1.173v-10.182zm11.814 2.546h1.193c-.054-1.537-1.47-2.685-3.44-2.685-1.95 0-3.48 1.133-3.48 2.844 0 1.372.994 2.187 2.585 2.645l1.253.358c1.074.298 2.028.676 2.028 1.7 0 1.114-1.073 1.85-2.485 1.85-1.213 0-2.287-.537-2.387-1.7h-1.272c.12 1.67 1.47 2.804 3.66 2.804 2.346 0 3.68-1.293 3.68-2.943 0-1.91-1.8-2.526-2.864-2.804l-1.034-.28c-.756-.198-1.97-.596-1.97-1.7 0-.974.895-1.7 2.247-1.7 1.233 0 2.168.586 2.287 1.59zm6.303 7.795c1.7 0 2.804-1.034 3.003-2.386h-1.173c-.22.835-.915 1.332-1.83 1.332-1.392 0-2.287-1.153-2.287-2.923 0-1.73.915-2.864 2.287-2.864 1.034 0 1.65.637 1.83 1.333h1.173c-.2-1.432-1.412-2.387-3.023-2.387-2.068 0-3.44 1.63-3.44 3.958 0 2.287 1.312 3.937 3.46 3.937zm5.89-4.753c0-1.332.85-2.088 2.01-2.088 1.104 0 1.77.696 1.77 1.91V266h1.173v-4.852c0-1.964-1.044-2.884-2.605-2.884-1.203 0-1.89.502-2.247 1.293h-.1v-3.74h-1.173V266h1.173v-4.594zm7.098 4.594h1.174v-4.832c0-1.034.815-1.8 1.93-1.8a3.68 3.68 0 0 1 .716.079v-1.193l-.617-.02c-.915 0-1.7.517-1.988 1.273h-.08v-1.153h-1.134V266zm7.457.18c1.332 0 2.028-.716 2.267-1.213h.06V266h1.174v-5.03c0-2.426-1.85-2.705-2.824-2.705-1.154 0-2.466.398-3.063 1.8l1.114.398c.258-.557.87-1.154 1.99-1.154 1.078 0 1.6.572 1.6 1.55v.04c0 .567-.576.517-1.968.696-1.417.184-2.963.497-2.963 2.247 0 1.492 1.153 2.347 2.605 2.347zm.18-1.054c-.935 0-1.61-.418-1.61-1.233 0-.895.815-1.173 1.73-1.293.497-.06 1.83-.198 2.028-.437v1.074c0 .954-.755 1.89-2.147 1.89zm5.462.875h1.173v-4.773c0-1.118.816-1.91 1.73-1.91.89 0 1.51.582 1.51 1.452V266h1.193v-4.972c0-.984.617-1.7 1.7-1.7.836 0 1.552.443 1.552 1.57V266h1.173v-5.11c0-1.795-.965-2.625-2.327-2.625-1.094 0-1.894.502-2.287 1.293h-.08c-.378-.816-1.044-1.293-2.05-1.293-.994 0-1.73.477-2.048 1.293h-.1v-1.193h-1.134V266zm12.168 0h1.173v-4.773c0-1.118.816-1.91 1.73-1.91.89 0 1.51.582 1.51 1.452V266h1.193v-4.972c0-.984.617-1.7 1.7-1.7.836 0 1.552.443 1.552 1.57V266h1.173v-5.11c0-1.795-.965-2.625-2.327-2.625-1.094 0-1.894.502-2.287 1.293h-.08c-.378-.816-1.044-1.293-2.05-1.293-.994 0-1.73.477-2.048 1.293h-.1v-1.193h-1.134V266zm19.09-1.8h1.113v-2.724h2.725v-1.114h-2.725v-2.724h-1.113v2.724h-2.725v1.114h2.725v2.724zm13.742-8.392h-1.233l-2.545 1.69v1.252l2.486-1.65h.06V266h1.233v-10.182zm11.68 6.622c.492 0 .894-.402.894-.895s-.402-.894-.894-.894-.895.402-.895.894.402.895.895.895zm14.435-6.622h-1.233l-2.546 1.69v1.252l2.486-1.65h.06V266h1.233v-10.182zm6.17-.16c-2.068-.02-3.4 1.53-3.4 3.42 0 1.968 1.45 3.38 3.2 3.38 1.054 0 1.95-.517 2.506-1.352h.08c0 2.506-.975 3.937-2.546 3.937-1.074 0-1.73-.676-1.95-1.6h-1.213c.24 1.6 1.452 2.704 3.162 2.704 2.287 0 3.7-2.028 3.7-5.648 0-3.758-1.87-4.812-3.54-4.832zm0 1.094c1.273 0 2.208 1.094 2.208 2.307s-.995 2.306-2.247 2.306-2.168-1.014-2.168-2.286c0-1.293.954-2.327 2.207-2.327zm5.54 9.247h1.292l4.535-9.028v-1.154h-6.523v1.094h5.25v.08l-4.554 9.01zm17.88-7.636h-1.272l-2.108 6.085h-.08l-2.108-6.085h-1.272l2.823 7.636h1.194l2.823-7.636zm1.55 7.636h1.173v-7.636h-1.173V266zm.597-8.91c.457 0 .835-.358.835-.796s-.378-.795-.835-.795-.836.358-.836.795.378.796.836.796zm5.927 9.068c1.55 0 2.685-.775 3.043-1.93l-1.134-.318c-.298.795-.99 1.193-1.91 1.193-1.377 0-2.327-.9-2.38-2.525H296v-.498c0-2.843-1.7-3.818-3.28-3.818-2.068 0-3.44 1.63-3.44 3.977s1.353 3.918 3.56 3.918zm-2.38-4.594c.08-1.188.92-2.247 2.262-2.247 1.272 0 2.088.955 2.088 2.247h-4.35zm9.058 4.435h1.153l1.67-5.866h.12l1.67 5.866h1.153l2.327-7.636h-1.233l-1.65 5.826h-.08l-1.61-5.826h-1.253l-1.63 5.846h-.08l-1.65-5.846h-1.233l2.327 7.636zm15.054-5.926c-.368-1.084-1.193-1.8-2.705-1.8-1.6 0-2.804.915-2.804 2.208 0 1.054.627 1.76 2.03 2.088l1.273.298c.77.18 1.133.547 1.133 1.074 0 .656-.696 1.193-1.8 1.193-.96 0-1.56-.413-1.77-1.233l-1.113.278c.273 1.298 1.342 1.99 2.903 1.99 1.775 0 2.983-.97 2.983-2.287 0-1.064-.666-1.735-2.028-2.068l-1.134-.278c-.905-.224-1.312-.527-1.312-1.114 0-.656.696-1.134 1.63-1.134 1.024 0 1.447.567 1.65 1.094l1.054-.298zm10.635 2.366c.493 0 .895-.402.895-.895s-.402-.894-.895-.894-.895.402-.895.894a.9.9 0 0 0 .895.895zm11.035-6.622V266h1.153v-7.736h.1l3.18 7.736h1.114l3.182-7.736h.1V266h1.154v-10.182h-1.472l-3.46 8.452h-.12l-3.46-8.452h-1.47zm14.543 10.36c1.332 0 2.028-.716 2.267-1.213h.06V266h1.173v-5.03c0-2.426-1.85-2.705-2.824-2.705-1.153 0-2.466.398-3.062 1.8l1.113.398c.26-.557.87-1.154 1.99-1.154 1.08 0 1.61.572 1.61 1.55v.04c0 .567-.577.517-1.97.696-1.417.184-2.963.497-2.963 2.247 0 1.492 1.153 2.347 2.605 2.347zm.18-1.054c-.935 0-1.61-.418-1.61-1.233 0-.895.815-1.173 1.73-1.293.497-.06 1.83-.198 2.03-.437v1.074c0 .954-.756 1.89-2.148 1.89zm5.945 3.72c1.06 0 1.81-.562 2.247-1.73l3.25-8.73-1.282-.02-2.108 6.085h-.08l-2.108-6.085h-1.273l2.824 7.676-.218.596c-.418 1.144-.955 1.253-1.8 1.034l-.298 1.035c.12.06.457.14.855.14zM367.874 266h6.424v-1.094h-4.733v-.08l2.287-2.446c1.75-1.875 2.267-2.75 2.267-3.878 0-1.57-1.273-2.824-3.063-2.824-1.785 0-3.142 1.213-3.142 3.003h1.173c0-1.16.75-1.93 1.93-1.93 1.104 0 1.95.676 1.95 1.75 0 .94-.552 1.635-1.73 2.923l-3.36 3.68V266zm10.247-1.392h-1.273l-.06.557c-.144 1.347-.427 2.69-.556 3.32h.894c.24-.676.746-2.208.915-3.34l.08-.537zm6.09 1.392h6.423v-1.094h-4.732v-.08l2.286-2.446c1.75-1.875 2.267-2.75 2.267-3.878 0-1.57-1.272-2.824-3.062-2.824s-3.142 1.213-3.142 3.003h1.173c0-1.16.75-1.93 1.93-1.93 1.104 0 1.95.676 1.95 1.75 0 .94-.552 1.635-1.73 2.923l-3.36 3.68V266zm11.798.14c2.247 0 3.54-1.904 3.54-5.23 0-3.3-1.313-5.23-3.54-5.23s-3.54 1.93-3.54 5.23c0 3.326 1.293 5.23 3.54 5.23zm0-1.094c-1.482 0-2.347-1.486-2.347-4.136 0-2.645.875-4.156 2.347-4.156s2.346 1.51 2.346 4.156c0 2.65-.865 4.136-2.346 4.136zm9.008-9.227h-1.233l-2.545 1.69v1.252l2.486-1.65h.06V266h1.233v-10.182zm6.2 10.32c2.033 0 3.45-1.188 3.46-2.844-.01-1.287-.87-2.38-1.97-2.585v-.06c.955-.25 1.58-1.184 1.59-2.267-.01-1.552-1.312-2.705-3.082-2.705-1.8 0-3.092 1.153-3.082 2.705-.01 1.083.616 2.018 1.6 2.267v.06c-1.118.204-1.978 1.298-1.968 2.585-.01 1.656 1.407 2.844 3.46 2.844zm0-1.094c-1.397 0-2.257-.715-2.247-1.81-.01-1.15.94-1.97 2.247-1.97 1.288 0 2.237.82 2.247 1.97-.01 1.094-.87 1.81-2.247 1.81zm0-4.832c-1.114 0-1.9-.696-1.89-1.75-.01-1.034.745-1.7 1.89-1.7 1.123 0 1.88.676 1.89 1.7-.01 1.054-.795 1.75-1.89 1.75zm14.116 2.227c.492 0 .894-.402.894-.895s-.402-.894-.894-.894-.895.402-.895.894.402.895.895.895zm14.077 3.72c1.55 0 2.684-.775 3.042-1.93l-1.133-.318c-.3.795-1 1.193-1.91 1.193-1.378 0-2.327-.9-2.382-2.525h5.543v-.498c0-2.843-1.7-3.818-3.28-3.818-2.068 0-3.44 1.63-3.44 3.977s1.352 3.918 3.56 3.918zm-2.382-4.594c.08-1.188.92-2.247 2.262-2.247 1.273 0 2.088.955 2.088 2.247h-4.35zm10.212 4.594c1.47 0 1.97-.915 2.227-1.332h.14V266h1.134v-10.182h-1.173v3.76h-.1c-.258-.398-.716-1.313-2.207-1.313-1.93 0-3.262 1.53-3.262 3.938 0 2.426 1.333 3.957 3.242 3.957zm.16-1.054c-1.472 0-2.227-1.293-2.227-2.923 0-1.61.735-2.864 2.227-2.864 1.432 0 2.187 1.154 2.187 2.864 0 1.73-.775 2.923-2.187 2.923zm5.653.895h1.173v-7.636h-1.173V266zm.596-8.91c.458 0 .835-.358.835-.796s-.377-.795-.835-.795-.835.358-.835.795.378.796.835.796zm6.047 1.273h-1.63v-1.83h-1.173v1.83h-1.153v.994h1.153v4.773c0 1.332 1.074 1.968 2.068 1.968.438 0 .716-.08.875-.14l-.24-1.054c-.1.02-.258.06-.517.06-.517 0-1.014-.16-1.014-1.154v-4.454h1.63v-.994zm4.884 7.795c1.552 0 2.685-.775 3.043-1.93l-1.133-.318c-.3.795-1 1.193-1.9 1.193-1.377 0-2.326-.9-2.38-2.525h5.543v-.498c0-2.843-1.7-3.818-3.28-3.818-2.068 0-3.44 1.63-3.44 3.977s1.352 3.918 3.56 3.918zm-2.38-4.594c.08-1.188.92-2.247 2.262-2.247 1.273 0 2.088.955 2.088 2.247h-4.35zm10.212 4.594c1.47 0 1.968-.915 2.227-1.332h.14V266h1.134v-10.182h-1.174v3.76h-.1c-.26-.398-.716-1.313-2.207-1.313-1.93 0-3.262 1.53-3.262 3.938 0 2.426 1.333 3.957 3.242 3.957zm.16-1.054c-1.472 0-2.227-1.293-2.227-2.923 0-1.61.735-2.864 2.227-2.864 1.432 0 2.187 1.154 2.187 2.864 0 1.73-.775 2.923-2.187 2.923zm13.15-9.287h-1.233l-2.546 1.69v1.252l2.486-1.65h.06V266h1.233v-10.182zm6.19 10.32c2.034 0 3.45-1.188 3.46-2.844-.01-1.287-.87-2.38-1.97-2.585v-.06c.954-.25 1.58-1.184 1.59-2.267-.01-1.552-1.313-2.705-3.083-2.705-1.79 0-3.092 1.153-3.082 2.705-.01 1.083.616 2.018 1.59 2.267v.06c-1.12.204-1.98 1.298-1.97 2.585-.01 1.656 1.407 2.844 3.46 2.844zm0-1.094c-1.397 0-2.257-.715-2.247-1.81-.01-1.15.94-1.97 2.247-1.97 1.288 0 2.238.82 2.247 1.97-.01 1.094-.87 1.81-2.247 1.81zm0-4.832c-1.113 0-1.9-.696-1.89-1.75-.01-1.034.746-1.7 1.89-1.7 1.124 0 1.88.676 1.9 1.7-.01 1.054-.796 1.75-1.9 1.75zm12.207 5.946c1.47 0 1.97-.915 2.227-1.332h.14V266h1.134v-10.182h-1.173v3.76h-.1c-.258-.398-.716-1.313-2.207-1.313-1.93 0-3.262 1.53-3.262 3.938 0 2.426 1.333 3.957 3.242 3.957zm.16-1.054c-1.472 0-2.227-1.293-2.227-2.923 0-1.61.735-2.864 2.227-2.864 1.432 0 2.187 1.154 2.187 2.864 0 1.73-.775 2.923-2.187 2.923zm7.9 1.074c1.332 0 2.028-.716 2.267-1.213h.06V266h1.174v-5.03c0-2.426-1.85-2.705-2.824-2.705-1.153 0-2.466.398-3.063 1.8l1.114.398c.26-.557.87-1.154 1.99-1.154 1.08 0 1.6.572 1.6 1.55v.04c0 .567-.576.517-1.968.696-1.417.184-2.963.497-2.963 2.247 0 1.492 1.153 2.347 2.605 2.347zm.18-1.054c-.935 0-1.61-.418-1.61-1.233 0-.895.815-1.173 1.73-1.293.497-.06 1.83-.198 2.028-.437v1.074c0 .954-.755 1.89-2.147 1.89zm5.945 3.72c1.058 0 1.81-.562 2.247-1.73l3.25-8.73-1.283-.02-2.108 6.085h-.08l-2.108-6.085h-1.273l2.824 7.676-.22.596c-.417 1.144-.954 1.253-1.81 1.034l-.3 1.035c.12.06.458.14.856.14zm12.46-8.77c-.368-1.084-1.194-1.8-2.705-1.8-1.61 0-2.804.915-2.804 2.208 0 1.054.626 1.76 2.028 2.088l1.273.298c.77.18 1.134.547 1.134 1.074 0 .656-.696 1.193-1.8 1.193-.96 0-1.56-.413-1.77-1.233l-1.114.278c.274 1.298 1.343 1.99 2.904 1.99 1.775 0 2.983-.97 2.983-2.287 0-1.064-.666-1.735-2.03-2.068l-1.133-.278c-.905-.224-1.313-.527-1.313-1.114 0-.656.696-1.134 1.63-1.134 1.024 0 1.447.567 1.65 1.094l1.054-.298zm8.1 6.105c1.332 0 2.028-.716 2.267-1.213h.06V266h1.174v-5.03c0-2.426-1.85-2.705-2.824-2.705-1.154 0-2.466.398-3.063 1.8l1.114.398c.258-.557.87-1.154 1.99-1.154 1.078 0 1.6.572 1.6 1.55v.04c0 .567-.576.517-1.968.696-1.417.184-2.964.497-2.964 2.247 0 1.492 1.154 2.347 2.606 2.347zm.18-1.054c-.935 0-1.61-.418-1.61-1.233 0-.895.815-1.173 1.73-1.293.497-.06 1.83-.198 2.028-.437v1.074c0 .954-.755 1.89-2.147 1.89zm8.544 3.898c1.83 0 3.302-.835 3.302-2.804v-7.855h-1.134v1.213h-.12c-.26-.398-.736-1.313-2.227-1.313-1.93 0-3.262 1.53-3.262 3.878 0 2.386 1.392 3.74 3.242 3.74 1.49 0 1.968-.875 2.227-1.293h.1v1.55c0 1.273-.895 1.85-2.128 1.85-1.387 0-1.874-.73-2.187-1.154l-.935.656c.478.8 1.417 1.532 3.122 1.532zm-.04-4.196c-1.472 0-2.228-1.114-2.228-2.705 0-1.55.736-2.804 2.228-2.804 1.432 0 2.187 1.154 2.187 2.804 0 1.7-.775 2.705-2.187 2.705zm8.59 1.332c2.068 0 3.46-1.57 3.46-3.937 0-2.387-1.392-3.958-3.46-3.958s-3.46 1.57-3.46 3.958c0 2.366 1.392 3.937 3.46 3.937zm0-1.054c-1.57 0-2.287-1.352-2.287-2.883s.716-2.904 2.287-2.904 2.287 1.372 2.287 2.904-.716 2.883-2.287 2.883z" class="C"/><rect x="48" y="228" width="40" height="40" rx="20" class="D H"/><g class="E F I B"><path d="M65 252h3m-3-4h6m-6-4h6" class="G"/><use xlink:href="#B" y="-152"/></g><path d="M103.523 168h1.454l2.568-9.273h.09l2.57 9.273h1.454l3.182-11.636h-1.432l-2.432 9.477h-.113l-2.478-9.477h-1.59l-2.477 9.477h-.113l-2.432-9.477h-1.432L103.523 168zm15.738.182c1.773 0 3.07-.887 3.478-2.205l-1.296-.363c-.34.91-1.13 1.363-2.182 1.363-1.573 0-2.66-1.017-2.72-2.886h6.335v-.568c0-3.25-1.932-4.364-3.75-4.364-2.364 0-3.932 1.864-3.932 4.546s1.546 4.477 4.068 4.477zm-2.72-5.25c.09-1.358 1.05-2.568 2.585-2.568 1.455 0 2.386 1.09 2.386 2.568h-4.97zm9.716-6.568h-1.34V168h1.34v-11.636zm6 11.818c1.932 0 3.205-1.182 3.432-2.727h-1.34c-.25.954-1.045 1.522-2.09 1.522-1.59 0-2.614-1.318-2.614-3.34 0-1.977 1.046-3.272 2.614-3.272 1.182 0 1.886.727 2.09 1.522h1.34c-.227-1.636-1.614-2.727-3.455-2.727-2.363 0-3.93 1.864-3.93 4.523 0 2.613 1.5 4.5 3.954 4.5zm8.938 0c2.363 0 3.954-1.796 3.954-4.5 0-2.727-1.59-4.523-3.954-4.523s-3.955 1.796-3.955 4.523c0 2.704 1.59 4.5 3.955 4.5zm0-1.205c-1.796 0-2.614-1.545-2.614-3.295s.818-3.318 2.614-3.318 2.613 1.568 2.613 3.318-.818 3.295-2.613 3.295zm6 1.023h1.34v-5.455c0-1.278.932-2.18 1.977-2.18 1.017 0 1.727.664 1.727 1.66V168h1.364v-5.682c0-1.125.705-1.954 1.932-1.954.954 0 1.773.505 1.773 1.795V168h1.34v-5.84c0-2.05-1.103-3-2.66-3-1.25 0-2.164.574-2.613 1.477h-.09c-.432-.93-1.193-1.477-2.34-1.477-1.136 0-1.977.546-2.34 1.477h-.114v-1.363h-1.295V168zm17.565.182c1.773 0 3.07-.887 3.478-2.205l-1.296-.363c-.34.91-1.13 1.363-2.182 1.363-1.573 0-2.66-1.017-2.72-2.886h6.335v-.568c0-3.25-1.932-4.364-3.75-4.364-2.364 0-3.932 1.864-3.932 4.546s1.546 4.477 4.068 4.477zm-2.72-5.25c.09-1.358 1.05-2.568 2.585-2.568 1.455 0 2.386 1.09 2.386 2.568h-4.97zm16.67-3.66h-1.863v-2.09h-1.34v2.09h-1.318v1.136h1.318v5.455c0 1.522 1.227 2.25 2.363 2.25.5 0 .82-.09 1-.16l-.272-1.205c-.114.023-.296.068-.59.068-.59 0-1.16-.182-1.16-1.318v-5.09h1.863v-1.136zm5.47 8.91c2.364 0 3.955-1.796 3.955-4.5 0-2.727-1.59-4.523-3.955-4.523s-3.955 1.796-3.955 4.523c0 2.704 1.59 4.5 3.955 4.5zm0-1.205c-1.795 0-2.614-1.545-2.614-3.295s.82-3.318 2.614-3.318 2.614 1.568 2.614 3.318-.82 3.295-2.614 3.295zm14.297-7.704h-1.864v-2.09h-1.34v2.09h-1.318v1.136h1.318v5.455c0 1.522 1.228 2.25 2.364 2.25.5 0 .818-.09 1-.16l-.273-1.205c-.113.023-.295.068-.59.068-.59 0-1.16-.182-1.16-1.318v-5.09h1.864v-1.136zm3.545 3.477c0-1.523.972-2.386 2.296-2.386 1.26 0 2.022.795 2.022 2.18V168h1.34v-5.545c0-2.245-1.193-3.296-2.977-3.296-1.375 0-2.16.574-2.568 1.477h-.114v-4.272h-1.34V168h1.34v-5.25zm11.772 5.432c1.772 0 3.068-.887 3.477-2.205l-1.296-.363c-.34.91-1.13 1.363-2.18 1.363-1.574 0-2.66-1.017-2.722-2.886h6.335v-.568c0-3.25-1.932-4.364-3.75-4.364-2.363 0-3.932 1.864-3.932 4.546s1.546 4.477 4.07 4.477zm-2.722-5.25c.09-1.358 1.05-2.568 2.585-2.568 1.455 0 2.387 1.09 2.387 2.568h-4.972zm12.42-5.318h3.66V168h1.41v-10.386h3.66v-1.25h-8.728v1.25zm13.114 10.568c1.773 0 3.068-.887 3.477-2.205l-1.295-.363c-.34.91-1.13 1.363-2.182 1.363-1.574 0-2.66-1.017-2.72-2.886h6.335v-.568c0-3.25-1.932-4.364-3.75-4.364-2.364 0-3.932 1.864-3.932 4.546s1.545 4.477 4.068 4.477zm-2.72-5.25c.1-1.358 1.05-2.568 2.585-2.568 1.454 0 2.386 1.09 2.386 2.568h-4.97zm10.943 5.273c1.522 0 2.318-.82 2.59-1.387h.068V168h1.34v-5.75c0-2.773-2.114-3.09-3.228-3.09-1.318 0-2.818.455-3.5 2.046l1.273.454c.296-.636.994-1.318 2.273-1.318 1.233 0 1.84.653 1.84 1.773v.045c0 .648-.66.59-2.25.796-1.62.2-3.387.568-3.387 2.568 0 1.704 1.32 2.682 2.978 2.682zm.204-1.205c-1.068 0-1.84-.477-1.84-1.41 0-1.023.932-1.34 1.978-1.477.568-.07 2.09-.228 2.318-.5v1.227c0 1.09-.864 2.16-2.455 2.16zm6.243 1h1.34v-5.455c0-1.278.932-2.18 1.977-2.18 1.017 0 1.728.664 1.728 1.66V168h1.363v-5.682c0-1.125.705-1.954 1.932-1.954.955 0 1.773.505 1.773 1.795V168h1.34v-5.84c0-2.05-1.103-3-2.66-3-1.25 0-2.165.574-2.614 1.477h-.09c-.432-.93-1.193-1.477-2.34-1.477-1.136 0-1.977.546-2.34 1.477h-.113v-1.363h-1.296V168z" fill="#000"/><path d="M101.233 179.818V190h1.153v-7.736h.1l3.182 7.736h1.113l3.182-7.736h.1V190h1.154v-10.182h-1.472l-3.46 8.452h-.12l-3.46-8.452h-1.472zm14.543 10.36c1.332 0 2.03-.716 2.267-1.213h.06V190h1.173v-5.03c0-2.426-1.85-2.705-2.824-2.705-1.153 0-2.466.398-3.062 1.8l1.113.398c.26-.557.87-1.154 1.99-1.154 1.08 0 1.61.572 1.61 1.55v.04c0 .567-.577.517-1.97.696-1.417.184-2.963.497-2.963 2.247 0 1.492 1.153 2.347 2.605 2.347zm.18-1.054c-.935 0-1.61-.418-1.61-1.233 0-.895.816-1.173 1.73-1.293.498-.06 1.83-.198 2.03-.437v1.074c0 .954-.756 1.89-2.148 1.89zm5.463.875h1.173v-4.832c0-1.034.815-1.8 1.93-1.8a3.68 3.68 0 0 1 .716.079v-1.193l-.617-.02c-.914 0-1.7.517-1.988 1.273h-.08v-1.153h-1.133V190zm11.685-7.636h-1.272l-2.108 6.085h-.08l-2.108-6.085h-1.273l2.824 7.636h1.193l2.824-7.636zm1.55 7.636h1.173v-7.636h-1.173V190zm.597-8.91c.457 0 .835-.358.835-.796s-.378-.795-.835-.795-.836.358-.836.795.378.796.836.796zm3.9 4.315c0-1.332.825-2.088 1.948-2.088 1.09 0 1.75.71 1.75 1.91V190h1.174v-4.852c0-1.95-1.04-2.884-2.586-2.884-1.153 0-1.87.517-2.227 1.293h-.1v-1.193h-1.134V190h1.174v-4.594zM150.26 190h3.68c2.407 0 3.4-1.173 3.4-2.705 0-1.6-1.114-2.485-2.048-2.545v-.1c.875-.24 1.65-.816 1.65-2.128 0-1.492-.994-2.705-3.122-2.705h-3.56V190zm1.233-1.094v-3.54H154c1.332 0 2.168.895 2.168 1.93 0 .895-.617 1.61-2.228 1.61h-2.446zm0-4.613v-3.38h2.327c1.352 0 1.95.716 1.95 1.61 0 1.074-.875 1.77-1.99 1.77h-2.287zm8.887-4.475h-1.173V190h1.173v-10.182zm6.96 7.06c0 1.432-1.093 2.088-1.968 2.088-.975 0-1.67-.716-1.67-1.83v-4.772h-1.173v4.852c0 1.95 1.034 2.883 2.466 2.883 1.153 0 1.91-.616 2.267-1.392h.08V190h1.174v-7.636h-1.174v4.514zm3.323 3.122h1.173v-4.773c0-1.118.815-1.91 1.73-1.91.9 0 1.51.582 1.51 1.452V190h1.194v-4.972c0-.984.616-1.7 1.7-1.7.835 0 1.55.443 1.55 1.57V190h1.173v-5.11c0-1.795-.964-2.625-2.326-2.625-1.094 0-1.894.502-2.287 1.293h-.08c-.378-.816-1.044-1.293-2.048-1.293-.994 0-1.73.477-2.048 1.293h-.1v-1.193h-1.133V190zm19.088-1.8h1.114v-2.724h2.724v-1.114h-2.724v-2.724h-1.114v2.724h-2.724v1.114h2.724v2.724zm13.604 1.93c1.973 0 3.44-1.238 3.44-2.903 0-1.293-.766-2.232-2.048-2.446v-.08c1.03-.313 1.67-1.158 1.67-2.307 0-1.44-1.138-2.724-3.023-2.724-1.76 0-3.22 1.084-3.28 2.685h1.193c.045-1.015 1-1.61 2.07-1.61 1.123 0 1.85.68 1.85 1.7 0 1.074-.84 1.77-2.048 1.77h-.816v1.094h.816c1.546 0 2.406.785 2.406 1.91 0 1.08-.94 1.81-2.247 1.81-1.18 0-2.113-.606-2.188-1.6h-1.253c.075 1.6 1.487 2.684 3.46 2.684zm14.223-3.7c.493 0 .895-.402.895-.895s-.402-.894-.895-.894-.895.402-.895.894a.9.9 0 0 0 .895.895zm10.856 3.56h6.423v-1.094h-4.733v-.08l2.287-2.446c1.75-1.875 2.267-2.75 2.267-3.878 0-1.57-1.273-2.824-3.062-2.824s-3.142 1.213-3.142 3.003h1.173c0-1.16.75-1.93 1.93-1.93 1.104 0 1.95.676 1.95 1.75 0 .94-.552 1.635-1.73 2.923l-3.36 3.68V190zm12.056-10.182h-1.233l-2.545 1.69v1.252l2.485-1.65h.06V190h1.233v-10.182zm6.508 0h-1.233l-2.546 1.69v1.252l2.486-1.65h.06V190H247v-10.182zm13.13 2.546h-1.273l-2.108 6.085h-.08l-2.108-6.085h-1.273l2.824 7.636h1.193l2.824-7.636zm1.548 7.636h1.174v-7.636h-1.174V190zm.597-8.91c.457 0 .835-.358.835-.796s-.378-.795-.835-.795-.835.358-.835.795.378.796.835.796zm5.927 9.068c1.55 0 2.685-.775 3.043-1.93l-1.134-.318c-.298.795-.99 1.193-1.91 1.193-1.377 0-2.326-.9-2.38-2.525h5.543v-.498c0-2.843-1.7-3.818-3.28-3.818-2.068 0-3.44 1.63-3.44 3.977s1.352 3.918 3.56 3.918zm-2.38-4.594c.08-1.188.92-2.247 2.262-2.247 1.273 0 2.088.955 2.088 2.247h-4.35zm9.058 4.435h1.154l1.67-5.866h.12l1.67 5.866h1.153l2.327-7.636h-1.233l-1.65 5.826h-.08l-1.61-5.826h-1.253l-1.63 5.846h-.08l-1.65-5.846h-1.233l2.327 7.636zm15.054-5.926c-.368-1.084-1.193-1.8-2.704-1.8-1.61 0-2.804.915-2.804 2.208 0 1.054.626 1.76 2.028 2.088l1.273.298c.77.18 1.133.547 1.133 1.074 0 .656-.696 1.193-1.79 1.193-.96 0-1.562-.413-1.77-1.233l-1.114.278c.273 1.298 1.342 1.99 2.903 1.99 1.775 0 2.983-.97 2.983-2.287 0-1.064-.666-1.735-2.028-2.068l-1.134-.278c-.904-.224-1.312-.527-1.312-1.114 0-.656.696-1.134 1.63-1.134 1.024 0 1.446.567 1.65 1.094l1.054-.298zm10.636 2.366a.9.9 0 0 0 .895-.895c0-.492-.403-.894-.895-.894s-.895.402-.895.894.402.895.895.895zm11.034 3.56h1.233v-4.554h4.415v-1.094h-4.415v-3.44h4.872v-1.094h-6.105V190zm10.7.16c1.55 0 2.685-.775 3.043-1.93l-1.134-.318c-.298.795-.99 1.193-1.91 1.193-1.377 0-2.327-.9-2.38-2.525h5.543v-.498c0-2.843-1.7-3.818-3.28-3.818-2.07 0-3.44 1.63-3.44 3.977s1.353 3.918 3.56 3.918zm-2.38-4.594c.08-1.188.92-2.247 2.262-2.247 1.272 0 2.088.955 2.088 2.247h-4.35zm7.487 4.435h1.133v-1.173h.14c.258.417.755 1.332 2.227 1.332 1.91 0 3.24-1.53 3.24-3.957 0-2.407-1.332-3.938-3.26-3.938-1.492 0-1.95.915-2.207 1.313h-.1v-3.76h-1.173V190zm1.153-3.818c0-1.7.756-2.864 2.188-2.864 1.49 0 2.227 1.253 2.227 2.864 0 1.63-.756 2.923-2.227 2.923-1.412 0-2.188-1.193-2.188-2.923zm14.88-6.364h-1.233l-2.545 1.69v1.252l2.486-1.65h.06V190h1.233v-10.182zM346.687 190h1.292l4.534-9.028v-1.154h-6.522v1.094h5.25v.08l-4.554 9.01zm7.7-1.392h-1.272l-.06.557c-.144 1.347-.428 2.69-.557 3.32h.895c.24-.676.746-2.208.915-3.34l.08-.537zm6.092 1.392h6.423v-1.094h-4.733v-.08l2.287-2.446c1.75-1.875 2.267-2.75 2.267-3.878 0-1.57-1.273-2.824-3.062-2.824s-3.142 1.213-3.142 3.003h1.173c0-1.16.75-1.93 1.93-1.93 1.104 0 1.95.676 1.95 1.75 0 .94-.552 1.635-1.73 2.923l-3.36 3.68V190zm11.797.14c2.248 0 3.54-1.904 3.54-5.23 0-3.3-1.312-5.23-3.54-5.23s-3.54 1.93-3.54 5.23c0 3.326 1.292 5.23 3.54 5.23zm0-1.094c-1.48 0-2.346-1.486-2.346-4.136 0-2.645.875-4.156 2.346-4.156s2.347 1.51 2.347 4.156c0 2.65-.865 4.136-2.347 4.136zm9.01-9.227h-1.233l-2.545 1.69v1.252l2.485-1.65h.06V190h1.233v-10.182zm6.2 10.32c2.033 0 3.45-1.188 3.46-2.844-.01-1.287-.87-2.38-1.97-2.585v-.06c.955-.25 1.58-1.184 1.59-2.267-.01-1.552-1.313-2.705-3.082-2.705-1.8 0-3.093 1.153-3.083 2.705-.01 1.083.617 2.018 1.59 2.267v.06c-1.12.204-1.98 1.298-1.97 2.585-.01 1.656 1.407 2.844 3.46 2.844zm0-1.094c-1.397 0-2.258-.715-2.248-1.81-.01-1.15.94-1.97 2.248-1.97 1.287 0 2.237.82 2.247 1.97-.01 1.094-.87 1.81-2.247 1.81zm0-4.832c-1.114 0-1.9-.696-1.9-1.75-.01-1.034.746-1.7 1.9-1.7 1.123 0 1.88.676 1.89 1.7-.01 1.054-.796 1.75-1.89 1.75zm14.115 2.227a.9.9 0 0 0 .895-.895c0-.492-.403-.894-.895-.894s-.895.402-.895.894a.9.9 0 0 0 .895.895zm14.077 3.72c1.55 0 2.685-.775 3.043-1.93l-1.134-.318c-.298.795-.99 1.193-1.91 1.193-1.377 0-2.327-.9-2.38-2.525h5.543v-.498c0-2.843-1.7-3.818-3.28-3.818-2.068 0-3.44 1.63-3.44 3.977s1.352 3.918 3.56 3.918zm-2.38-4.594c.08-1.188.92-2.247 2.262-2.247 1.273 0 2.088.955 2.088 2.247h-4.35zm10.21 4.594c1.472 0 1.97-.915 2.228-1.332h.14V190h1.133v-10.182h-1.173v3.76h-.1c-.26-.398-.716-1.313-2.208-1.313-1.93 0-3.26 1.53-3.26 3.938 0 2.426 1.332 3.957 3.24 3.957zm.16-1.054c-1.472 0-2.228-1.293-2.228-2.923 0-1.61.736-2.864 2.228-2.864 1.43 0 2.187 1.154 2.187 2.864 0 1.73-.776 2.923-2.187 2.923zm5.652.895h1.174v-7.636h-1.174V190zm.597-8.91c.457 0 .835-.358.835-.796s-.378-.795-.835-.795-.835.358-.835.795.377.796.835.796zm6.047 1.273h-1.63v-1.83h-1.173v1.83h-1.154v.994h1.154v4.773c0 1.332 1.073 1.968 2.068 1.968.437 0 .716-.08.875-.14l-.24-1.054c-.1.02-.258.06-.517.06-.517 0-1.014-.16-1.014-1.154v-4.454h1.63v-.994zm4.884 7.795c1.55 0 2.685-.775 3.043-1.93l-1.134-.318c-.298.795-.99 1.193-1.91 1.193-1.377 0-2.327-.9-2.38-2.525h5.543v-.498c0-2.843-1.7-3.818-3.28-3.818-2.068 0-3.44 1.63-3.44 3.977s1.353 3.918 3.56 3.918zm-2.38-4.594c.08-1.188.92-2.247 2.262-2.247 1.273 0 2.088.955 2.088 2.247h-4.35zm10.21 4.594c1.472 0 1.97-.915 2.228-1.332h.14V190h1.133v-10.182h-1.173v3.76h-.1c-.26-.398-.716-1.313-2.208-1.313-1.93 0-3.26 1.53-3.26 3.938 0 2.426 1.332 3.957 3.24 3.957zm.16-1.054c-1.47 0-2.227-1.293-2.227-2.923 0-1.61.736-2.864 2.227-2.864 1.432 0 2.188 1.154 2.188 2.864 0 1.73-.776 2.923-2.188 2.923zm13.15-9.287h-1.233l-2.545 1.69v1.252l2.486-1.65h.06V190h1.233v-10.182zm6.1 10.32c1.94 0 3.36-1.432 3.36-3.38 0-1.974-1.372-3.42-3.24-3.42-.686 0-1.353.244-1.77.577h-.06l.358-3.003h4.256v-1.094h-5.3l-.616 5.012 1.153.14c.423-.304 1.143-.522 1.77-.517 1.297.01 2.247.994 2.247 2.326 0 1.308-.915 2.267-2.168 2.267-1.044 0-1.874-.67-1.968-1.6h-1.194c.075 1.55 1.412 2.684 3.162 2.684zm12.177.02c1.472 0 1.97-.915 2.227-1.332h.14V190h1.133v-10.182h-1.173v3.76h-.1c-.258-.398-.716-1.313-2.207-1.313-1.93 0-3.26 1.53-3.26 3.938 0 2.426 1.332 3.957 3.24 3.957zm.16-1.054c-1.47 0-2.227-1.293-2.227-2.923 0-1.61.736-2.864 2.227-2.864 1.432 0 2.188 1.154 2.188 2.864 0 1.73-.776 2.923-2.188 2.923zm7.9 1.074c1.332 0 2.028-.716 2.267-1.213h.06V190h1.173v-5.03c0-2.426-1.85-2.705-2.824-2.705-1.153 0-2.466.398-3.062 1.8l1.113.398c.26-.557.87-1.154 1.99-1.154 1.08 0 1.61.572 1.61 1.55v.04c0 .567-.577.517-1.97.696-1.417.184-2.963.497-2.963 2.247 0 1.492 1.153 2.347 2.605 2.347zm.18-1.054c-.935 0-1.61-.418-1.61-1.233 0-.895.816-1.173 1.73-1.293.497-.06 1.83-.198 2.03-.437v1.074c0 .954-.756 1.89-2.148 1.89zm5.945 3.72c1.06 0 1.81-.562 2.247-1.73l3.25-8.73-1.282-.02-2.108 6.085h-.08l-2.108-6.085h-1.272l2.823 7.676-.218.596c-.418 1.144-.955 1.253-1.8 1.034l-.298 1.035c.12.06.457.14.855.14zm12.46-8.77c-.368-1.084-1.193-1.8-2.705-1.8-1.61 0-2.804.915-2.804 2.208 0 1.054.627 1.76 2.03 2.088l1.272.298c.77.18 1.134.547 1.134 1.074 0 .656-.696 1.193-1.8 1.193-.96 0-1.56-.413-1.77-1.233l-1.113.278c.273 1.298 1.342 1.99 2.903 1.99 1.775 0 2.983-.97 2.983-2.287 0-1.064-.666-1.735-2.028-2.068l-1.134-.278c-.905-.224-1.312-.527-1.312-1.114 0-.656.696-1.134 1.63-1.134 1.024 0 1.447.567 1.65 1.094l1.054-.298zm8.1 6.105c1.332 0 2.028-.716 2.267-1.213h.06V190h1.173v-5.03c0-2.426-1.85-2.705-2.824-2.705-1.153 0-2.466.398-3.063 1.8l1.114.398c.26-.557.87-1.154 1.99-1.154 1.08 0 1.61.572 1.61 1.55v.04c0 .567-.577.517-1.97.696-1.417.184-2.963.497-2.963 2.247 0 1.492 1.153 2.347 2.605 2.347zm.18-1.054c-.935 0-1.61-.418-1.61-1.233 0-.895.815-1.173 1.73-1.293.497-.06 1.83-.198 2.03-.437v1.074c0 .954-.756 1.89-2.148 1.89zm8.545 3.898c1.83 0 3.3-.835 3.3-2.804v-7.855h-1.134v1.213h-.12c-.258-.398-.736-1.313-2.227-1.313-1.93 0-3.262 1.53-3.262 3.878 0 2.386 1.392 3.74 3.242 3.74 1.49 0 1.97-.875 2.227-1.293h.1v1.55c0 1.273-.895 1.85-2.128 1.85-1.387 0-1.875-.73-2.188-1.154l-.934.656c.477.8 1.416 1.532 3.122 1.532zm-.04-4.196c-1.472 0-2.227-1.114-2.227-2.705 0-1.55.736-2.804 2.227-2.804 1.432 0 2.187 1.154 2.187 2.804 0 1.7-.775 2.705-2.187 2.705zm8.59 1.332c2.068 0 3.46-1.57 3.46-3.937 0-2.387-1.392-3.958-3.46-3.958s-3.46 1.57-3.46 3.958c0 2.366 1.392 3.937 3.46 3.937zm0-1.054c-1.57 0-2.287-1.352-2.287-2.883s.716-2.904 2.287-2.904 2.287 1.372 2.287 2.904-.716 2.883-2.287 2.883z" class="C"/><rect x="48" y="151" width="40" height="40" rx="20" class="D H"/><g class="E F I B"><path d="M65 175h3m-3-4h6m-6-4h6" class="G"/><use xlink:href="#B" y="-229"/></g><path d="M55.915 51.818v6.742c0 1.59-1.273 2.466-2.724 2.466s-2.724-.875-2.724-2.466v-6.742h-1.233v6.742c0 2.287 1.8 3.62 3.957 3.62s3.957-1.332 3.957-3.62v-6.742h-1.233zm8.945 4.256c-.368-1.084-1.193-1.8-2.704-1.8-1.61 0-2.804.915-2.804 2.207 0 1.054.626 1.76 2.028 2.088l1.273.298c.77.18 1.133.547 1.133 1.074 0 .656-.696 1.193-1.8 1.193-.96 0-1.56-.413-1.77-1.233l-1.114.278c.274 1.298 1.342 1.99 2.904 1.99 1.775 0 2.983-.97 2.983-2.287 0-1.064-.666-1.735-2.028-2.068l-1.133-.278c-.905-.224-1.312-.527-1.312-1.114 0-.656.696-1.134 1.63-1.134 1.024 0 1.447.567 1.65 1.094l1.054-.298zm5.107 6.085c1.55 0 2.685-.776 3.043-1.93l-1.134-.318c-.298.795-.99 1.193-1.91 1.193-1.377 0-2.327-.9-2.38-2.526h5.543v-.497c0-2.844-1.7-3.818-3.28-3.818-2.068 0-3.44 1.63-3.44 3.977s1.352 3.918 3.56 3.918zm-2.38-4.594c.08-1.188.92-2.247 2.262-2.247 1.273 0 2.088.955 2.088 2.247h-4.35zm10.73-3.202h-1.7v-.776c0-.756.318-1.153 1.094-1.153.338 0 .537.08.656.12l.338-1.014c-.18-.08-.537-.2-1.114-.2-1.094 0-2.148.656-2.148 1.97v1.054h-1.233v.994h1.233V62h1.173v-6.642h1.7v-.994zm6.457 4.514c0 1.432-1.094 2.088-1.97 2.088-.975 0-1.67-.716-1.67-1.83v-4.773H79.96v4.852c0 1.95 1.034 2.884 2.466 2.884 1.153 0 1.91-.616 2.267-1.392h.08V62h1.173v-7.636H84.77v4.514zm4.496-7.06h-1.173V62h1.173V51.818zM95.353 62h1.173v-4.832c0-1.034.815-1.8 1.93-1.8.313 0 .636.06.716.08v-1.193l-.616-.02c-.915 0-1.7.517-1.99 1.273h-.08v-1.153h-1.133V62zm8.178.16c1.552 0 2.685-.776 3.043-1.93l-1.133-.318c-.3.795-1 1.193-1.9 1.193-1.377 0-2.326-.9-2.38-2.526h5.543v-.497c0-2.844-1.7-3.818-3.28-3.818-2.068 0-3.44 1.63-3.44 3.977s1.352 3.918 3.56 3.918zm-2.38-4.594c.08-1.188.92-2.247 2.262-2.247 1.273 0 2.088.955 2.088 2.247h-4.35zm9.575 4.614c1.333 0 2.03-.716 2.267-1.213h.06V62h1.173v-5.03c0-2.426-1.85-2.705-2.824-2.705-1.153 0-2.465.398-3.062 1.8l1.114.398c.258-.557.87-1.153 1.988-1.153 1.08 0 1.61.572 1.61 1.55v.04c0 .567-.577.517-1.97.696-1.417.184-2.963.497-2.963 2.247 0 1.492 1.154 2.347 2.605 2.347zm.18-1.054c-.934 0-1.6-.418-1.6-1.233 0-.895.815-1.173 1.73-1.293.497-.06 1.83-.2 2.028-.437v1.074c0 .955-.756 1.89-2.148 1.89zm8.346 1.034c1.472 0 1.97-.915 2.228-1.332h.14V62h1.133V51.818h-1.173v3.76h-.1c-.26-.398-.716-1.312-2.208-1.312-1.93 0-3.26 1.53-3.26 3.938 0 2.426 1.332 3.957 3.24 3.957zm.16-1.054c-1.47 0-2.227-1.293-2.227-2.923 0-1.61.736-2.864 2.227-2.864 1.432 0 2.188 1.153 2.188 2.864 0 1.73-.776 2.923-2.188 2.923zm11.062-5.03c-.368-1.084-1.193-1.8-2.704-1.8-1.61 0-2.804.915-2.804 2.207 0 1.054.626 1.76 2.028 2.088l1.273.298c.77.18 1.133.547 1.133 1.074 0 .656-.696 1.193-1.79 1.193-.96 0-1.56-.413-1.77-1.233l-1.114.278c.274 1.298 1.342 1.99 2.903 1.99 1.775 0 2.983-.97 2.983-2.287 0-1.064-.666-1.735-2.028-2.068l-1.133-.278c-.905-.224-1.313-.527-1.313-1.114 0-.656.696-1.134 1.63-1.134 1.024 0 1.446.567 1.65 1.094l1.054-.298zm9.244-1.7h-1.71v-.776c0-.756.32-1.153 1.094-1.153.338 0 .537.08.656.12l.34-1.014c-.18-.08-.537-.2-1.114-.2-1.094 0-2.148.656-2.148 1.97v1.054h-1.233v.994h1.233V62h1.173v-6.642h1.71v-.994zm4.432 7.796c2.068 0 3.46-1.57 3.46-3.937 0-2.386-1.392-3.957-3.46-3.957s-3.46 1.57-3.46 3.957c0 2.366 1.392 3.938 3.46 3.938zm0-1.054c-1.57 0-2.287-1.352-2.287-2.883s.716-2.903 2.287-2.903 2.287 1.372 2.287 2.903-.716 2.883-2.287 2.883zm5.25.895h1.173v-4.832c0-1.034.816-1.8 1.93-1.8.314 0 .637.06.716.08v-1.193l-.616-.02c-.915 0-1.7.517-1.99 1.273h-.08v-1.153h-1.134V62zm9.902 2.844c1.06 0 1.8-.562 2.247-1.73l3.252-8.73-1.283-.02-2.108 6.085h-.08l-2.108-6.085h-1.273l2.824 7.676-.22.597c-.418 1.143-.954 1.253-1.8 1.034l-.298 1.034c.12.06.458.14.855.14zm9.88-2.685c2.068 0 3.46-1.57 3.46-3.937 0-2.386-1.392-3.957-3.46-3.957s-3.46 1.57-3.46 3.957c0 2.366 1.392 3.938 3.46 3.938zm0-1.054c-1.57 0-2.287-1.352-2.287-2.883s.716-2.903 2.287-2.903 2.287 1.372 2.287 2.903-.716 2.883-2.287 2.883zm10.064-2.227c0 1.432-1.094 2.088-1.97 2.088-.974 0-1.67-.716-1.67-1.83v-4.773h-1.174v4.852c0 1.95 1.034 2.884 2.466 2.884 1.154 0 1.91-.616 2.267-1.392h.08V62h1.173v-7.636h-1.173v4.514zM182.566 62h1.173v-4.832c0-1.034.816-1.8 1.93-1.8.314 0 .637.06.716.08v-1.193l-.616-.02c-.915 0-1.7.517-1.99 1.273h-.08v-1.153h-1.134V62zm12.547-7.636h-1.7v-.776c0-.756.318-1.153 1.094-1.153.338 0 .537.08.656.12l.338-1.014c-.18-.08-.537-.2-1.114-.2-1.093 0-2.147.656-2.147 1.97v1.054h-1.233v.994h1.233V62h1.173v-6.642h1.7v-.994zM196.757 62h1.174v-7.636h-1.174V62zm.597-8.91c.457 0 .835-.358.835-.795s-.378-.795-.835-.795-.835.358-.835.795.378.795.835.795zM200.08 62h1.173v-4.832c0-1.034.815-1.8 1.93-1.8.313 0 .636.06.716.08v-1.193l-.617-.02c-.914 0-1.7.517-1.988 1.273h-.08v-1.153h-1.133V62zm10.618-5.926c-.368-1.084-1.193-1.8-2.705-1.8-1.61 0-2.804.915-2.804 2.207 0 1.054.627 1.76 2.03 2.088l1.272.298c.77.18 1.134.547 1.134 1.074 0 .656-.696 1.193-1.8 1.193-.96 0-1.56-.413-1.77-1.233l-1.113.278c.273 1.298 1.342 1.99 2.903 1.99 1.775 0 2.983-.97 2.983-2.287 0-1.064-.666-1.735-2.028-2.068l-1.134-.278c-.905-.224-1.312-.527-1.312-1.114 0-.656.696-1.134 1.63-1.134 1.024 0 1.447.567 1.65 1.094l1.054-.298zm5.226-1.7h-1.63v-1.83h-1.174v1.83h-1.153v.994h1.153v4.773c0 1.332 1.074 1.97 2.068 1.97.438 0 .716-.08.875-.14l-.238-1.054c-.1.02-.26.06-.517.06-.517 0-1.014-.16-1.014-1.153v-4.455h1.63v-.994zm8.586 7.796c1.472 0 1.97-.915 2.227-1.332h.14V62H228V51.818h-1.173v3.76h-.1c-.258-.398-.716-1.312-2.207-1.312-1.93 0-3.26 1.53-3.26 3.938 0 2.426 1.332 3.957 3.24 3.957zm.16-1.054c-1.47 0-2.227-1.293-2.227-2.923 0-1.61.736-2.864 2.227-2.864 1.432 0 2.188 1.153 2.188 2.864 0 1.73-.776 2.923-2.188 2.923zm7.9 1.074c1.332 0 2.028-.716 2.267-1.213h.06V62h1.173v-5.03c0-2.426-1.85-2.705-2.824-2.705-1.153 0-2.466.398-3.062 1.8l1.113.398c.26-.557.87-1.153 1.99-1.153 1.08 0 1.61.572 1.61 1.55v.04c0 .567-.577.517-1.97.696-1.417.184-2.963.497-2.963 2.247 0 1.492 1.153 2.347 2.605 2.347zm.18-1.054c-.935 0-1.61-.418-1.61-1.233 0-.895.816-1.173 1.73-1.293.498-.06 1.83-.2 2.03-.437v1.074c0 .955-.756 1.89-2.148 1.89zm5.945 3.72c1.06 0 1.81-.562 2.247-1.73l3.25-8.73-1.282-.02-2.108 6.085h-.08l-2.108-6.085h-1.272l2.823 7.676-.218.597c-.418 1.143-.955 1.253-1.8 1.034l-.298 1.034c.12.06.457.14.855.14zm15.78-6.404a.9.9 0 0 0 .895-.895.9.9 0 0 0-.895-.895.9.9 0 0 0-.895.895.9.9 0 0 0 .895.895zM265.508 62h1.233v-4.554h4.415v-1.094h-4.415v-3.44h4.872v-1.094h-6.105V62zm10.7.16c1.55 0 2.685-.776 3.043-1.93l-1.134-.318c-.298.795-.99 1.193-1.91 1.193-1.377 0-2.326-.9-2.38-2.526h5.543v-.497c0-2.844-1.7-3.818-3.28-3.818-2.068 0-3.44 1.63-3.44 3.977s1.352 3.918 3.56 3.918zm-2.38-4.594c.08-1.188.92-2.247 2.262-2.247 1.273 0 2.088.955 2.088 2.247h-4.35zM281.313 62h1.134v-1.173h.14c.258.418.755 1.332 2.227 1.332 1.91 0 3.242-1.53 3.242-3.957 0-2.406-1.333-3.937-3.262-3.937-1.49 0-1.95.915-2.207 1.313h-.1v-3.76h-1.173V62zm1.153-3.818c0-1.7.756-2.864 2.188-2.864 1.49 0 2.227 1.253 2.227 2.864 0 1.63-.755 2.923-2.227 2.923-1.412 0-2.188-1.193-2.188-2.923zm11.3 3.818h6.423v-1.094h-4.733v-.08l2.287-2.446c1.75-1.874 2.267-2.75 2.267-3.878 0-1.57-1.273-2.824-3.062-2.824s-3.142 1.213-3.142 3.003h1.173c0-1.158.75-1.93 1.93-1.93 1.104 0 1.95.676 1.95 1.75 0 .94-.552 1.636-1.73 2.923l-3.36 3.68V62zm10.246-1.392h-1.272l-.06.557c-.144 1.347-.428 2.7-.557 3.32h.895c.24-.676.746-2.207.915-3.34l.08-.537zM310.105 62h6.423v-1.094h-4.733v-.08l2.287-2.446c1.75-1.874 2.267-2.75 2.267-3.878 0-1.57-1.273-2.824-3.062-2.824s-3.142 1.213-3.142 3.003h1.173c0-1.158.75-1.93 1.93-1.93 1.103 0 1.95.676 1.95 1.75 0 .94-.552 1.636-1.73 2.923l-3.36 3.68V62zm11.797.14c2.248 0 3.54-1.904 3.54-5.23 0-3.3-1.312-5.23-3.54-5.23s-3.54 1.93-3.54 5.23c0 3.326 1.292 5.23 3.54 5.23zm0-1.094c-1.48 0-2.346-1.487-2.346-4.136s.875-4.156 2.346-4.156 2.347 1.51 2.347 4.156-.865 4.136-2.347 4.136zm9.01-9.227h-1.233l-2.546 1.7v1.253l2.486-1.65h.06V62h1.233V51.818zm6.19 10.32c2.034 0 3.45-1.188 3.46-2.844-.01-1.288-.87-2.38-1.97-2.585v-.06c.955-.25 1.58-1.183 1.59-2.267-.01-1.55-1.313-2.704-3.083-2.704-1.79 0-3.092 1.153-3.082 2.704-.01 1.084.617 2.02 1.59 2.267v.06c-1.12.204-1.98 1.298-1.97 2.585-.01 1.656 1.407 2.844 3.46 2.844zm0-1.094c-1.397 0-2.257-.716-2.247-1.8-.01-1.148.94-1.97 2.247-1.97 1.288 0 2.238.82 2.248 1.97-.01 1.094-.87 1.8-2.248 1.8zm0-4.832c-1.113 0-1.9-.696-1.89-1.75-.01-1.034.746-1.7 1.89-1.7 1.124 0 1.88.676 1.9 1.7-.01 1.054-.796 1.75-1.9 1.75zm14.116 2.227a.9.9 0 0 0 .895-.895.9.9 0 0 0-.895-.895.9.9 0 0 0-.895.895.9.9 0 0 0 .895.895zm14.077 3.72c1.55 0 2.685-.776 3.043-1.93l-1.134-.318c-.298.795-.99 1.193-1.91 1.193-1.377 0-2.327-.9-2.38-2.526h5.543v-.497c0-2.844-1.7-3.818-3.28-3.818-2.068 0-3.44 1.63-3.44 3.977s1.353 3.918 3.56 3.918zm-2.38-4.594c.08-1.188.92-2.247 2.262-2.247 1.273 0 2.088.955 2.088 2.247h-4.35zm10.21 4.594c1.472 0 1.97-.915 2.228-1.332h.14V62h1.133V51.818h-1.173v3.76h-.1c-.26-.398-.716-1.312-2.208-1.312-1.93 0-3.26 1.53-3.26 3.938 0 2.426 1.332 3.957 3.24 3.957zm.16-1.054c-1.47 0-2.227-1.293-2.227-2.923 0-1.61.736-2.864 2.227-2.864 1.432 0 2.188 1.153 2.188 2.864 0 1.73-.776 2.923-2.188 2.923zm5.653.895h1.173v-7.636h-1.173V62zm.597-8.91c.457 0 .835-.358.835-.795s-.378-.795-.835-.795-.835.358-.835.795.377.795.835.795zm6.046 1.273h-1.63v-1.83h-1.173v1.83h-1.154v.994h1.154v4.773c0 1.332 1.073 1.97 2.068 1.97.437 0 .716-.08.875-.14l-.24-1.054c-.1.02-.258.06-.517.06-.517 0-1.014-.16-1.014-1.153v-4.455h1.63v-.994zm4.885 7.796c1.55 0 2.685-.776 3.043-1.93l-1.134-.318c-.298.795-.99 1.193-1.91 1.193-1.377 0-2.327-.9-2.38-2.526h5.543v-.497c0-2.844-1.7-3.818-3.28-3.818-2.068 0-3.44 1.63-3.44 3.977s1.353 3.918 3.56 3.918zm-2.38-4.594c.08-1.188.92-2.247 2.262-2.247 1.272 0 2.088.955 2.088 2.247h-4.35zm10.21 4.594c1.472 0 1.97-.915 2.228-1.332h.14V62h1.133V51.818h-1.173v3.76h-.1c-.26-.398-.716-1.312-2.208-1.312-1.93 0-3.26 1.53-3.26 3.938 0 2.426 1.332 3.957 3.24 3.957zm.16-1.054c-1.47 0-2.227-1.293-2.227-2.923 0-1.61.736-2.864 2.227-2.864 1.432 0 2.188 1.153 2.188 2.864 0 1.73-.776 2.923-2.188 2.923zm13.01 1.034c1.974 0 3.44-1.238 3.44-2.903 0-1.293-.765-2.232-2.048-2.446v-.08c1.03-.313 1.67-1.158 1.67-2.307 0-1.442-1.14-2.724-3.023-2.724-1.76 0-3.222 1.084-3.28 2.685h1.193c.045-1.014 1.01-1.61 2.068-1.61 1.124 0 1.85.68 1.85 1.7 0 1.074-.84 1.77-2.048 1.77h-.815v1.094h.815c1.546 0 2.406.785 2.406 1.91 0 1.08-.94 1.8-2.247 1.8-1.178 0-2.113-.607-2.187-1.59h-1.253c.074 1.6 1.486 2.685 3.46 2.685zm10.604-4.733c0-1.332.85-2.088 2.01-2.088 1.104 0 1.77.696 1.77 1.91V62h1.173v-4.852c0-1.964-1.044-2.883-2.605-2.883-1.203 0-1.89.502-2.247 1.293h-.1v-3.74h-1.173V62h1.173v-4.594zm10.2 4.753c2.068 0 3.46-1.57 3.46-3.937 0-2.386-1.392-3.957-3.46-3.957s-3.46 1.57-3.46 3.957c0 2.366 1.392 3.938 3.46 3.938zm0-1.054c-1.57 0-2.287-1.352-2.287-2.883s.716-2.903 2.287-2.903 2.287 1.372 2.287 2.903-.716 2.883-2.287 2.883zm10.064-2.227c0 1.432-1.094 2.088-1.97 2.088-.975 0-1.67-.716-1.67-1.83v-4.773h-1.173v4.852c0 1.95 1.034 2.884 2.466 2.884 1.153 0 1.91-.616 2.267-1.392h.08V62h1.173v-7.636h-1.173v4.514zM445.654 62h1.173v-4.832c0-1.034.816-1.8 1.93-1.8.313 0 .637.06.716.08v-1.193l-.616-.02c-.915 0-1.71.517-1.99 1.273h-.08v-1.153h-1.133V62zm10.618-5.926c-.368-1.084-1.193-1.8-2.705-1.8-1.6 0-2.804.915-2.804 2.207 0 1.054.627 1.76 2.03 2.088l1.273.298c.77.18 1.133.547 1.133 1.074 0 .656-.696 1.193-1.8 1.193-.96 0-1.56-.413-1.77-1.233l-1.113.278c.273 1.298 1.342 1.99 2.903 1.99 1.775 0 2.983-.97 2.983-2.287 0-1.064-.666-1.735-2.028-2.068l-1.134-.278c-.905-.224-1.312-.527-1.312-1.114 0-.656.696-1.134 1.63-1.134 1.025 0 1.447.567 1.65 1.094l1.054-.298zm8.1 6.105c1.332 0 2.028-.716 2.267-1.213h.06V62h1.173v-5.03c0-2.426-1.85-2.705-2.824-2.705-1.153 0-2.466.398-3.062 1.8l1.113.398c.26-.557.87-1.153 1.99-1.153 1.08 0 1.61.572 1.61 1.55v.04c0 .567-.577.517-1.97.696-1.417.184-2.963.497-2.963 2.247 0 1.492 1.153 2.347 2.605 2.347zm.18-1.054c-.935 0-1.61-.418-1.61-1.233 0-.895.816-1.173 1.73-1.293.497-.06 1.83-.2 2.03-.437v1.074c0 .955-.756 1.89-2.148 1.89zm8.545 3.898c1.83 0 3.3-.835 3.3-2.804v-7.855h-1.133v1.213h-.12c-.258-.398-.736-1.312-2.227-1.312-1.93 0-3.26 1.53-3.26 3.878 0 2.386 1.392 3.74 3.24 3.74 1.492 0 1.97-.875 2.227-1.293h.1v1.55c0 1.273-.895 1.85-2.128 1.85-1.387 0-1.874-.73-2.188-1.153l-.934.656c.477.8 1.417 1.53 3.122 1.53zm-.04-4.196c-1.47 0-2.227-1.114-2.227-2.705 0-1.55.736-2.804 2.227-2.804 1.432 0 2.188 1.153 2.188 2.804 0 1.7-.776 2.705-2.188 2.705zm8.59 1.332c2.068 0 3.46-1.57 3.46-3.937 0-2.386-1.392-3.957-3.46-3.957s-3.46 1.57-3.46 3.957c0 2.366 1.392 3.938 3.46 3.938zm0-1.054c-1.57 0-2.287-1.352-2.287-2.883s.716-2.903 2.287-2.903 2.287 1.372 2.287 2.903-.716 2.883-2.287 2.883z" class="C"/><path d="M122.773 99.364c0-7.443-4.455-11.955-10.478-11.955-6.045 0-10.488 4.51-10.488 11.955 0 7.43 4.443 11.954 10.488 11.954 6.023 0 10.478-4.51 10.478-11.954zm-3.478 0c0 5.67-3 8.75-7 8.75-4.01 0-7-3.08-7-8.75s2.99-8.75 7-8.75c4 0 7 3.08 7 8.75zm10.98 1.272c0-2.784 1.704-4.375 4.068-4.375 2.307 0 3.704 1.51 3.704 4.046V111h3.398V99.898c0-4.318-2.375-6.58-5.943-6.58-2.625 0-4.34 1.216-5.148 3.068h-.216v-2.84h-3.26V111h3.398v-10.364zm16 10.364h3.318v-2.716h.284c.613 1.114 1.863 3.057 5.045 3.057 4.228 0 7.296-3.386 7.296-9.034 0-5.66-3.114-8.99-7.33-8.99-3.238 0-4.41 1.977-5.01 3.057h-.205v-8.648h-3.397V111zm3.33-8.727c0-3.648 1.59-6.068 4.557-6.068 3.08 0 4.625 2.602 4.625 6.07 0 3.5-1.59 6.17-4.625 6.17-2.92 0-4.557-2.5-4.557-6.17zm23.78 9.08c4.92 0 8.137-3.602 8.137-9 0-5.43-3.216-9.034-8.137-9.034s-8.136 3.602-8.136 9.034c0 5.398 3.216 9 8.136 9zm.012-2.852c-3.216 0-4.716-2.807-4.716-6.16 0-3.34 1.5-6.182 4.716-6.182 3.193 0 4.693 2.84 4.693 6.182 0 3.352-1.5 6.16-4.693 6.16zm16.997 2.886c2.886 0 4.51-1.466 5.16-2.772h.136V111h3.32V99.41c0-5.08-4-6.09-6.773-6.09-3.16 0-6.068 1.273-7.205 4.454l3.193.727c.5-1.24 1.773-2.432 4.057-2.432 2.193 0 3.318 1.148 3.318 3.125v.08c0 1.238-1.272 1.216-4.41 1.58-3.306.387-6.693 1.25-6.693 5.216 0 3.432 2.58 5.318 5.898 5.318zm.74-2.727c-1.92 0-3.307-.864-3.307-2.545 0-1.82 1.613-2.466 3.58-2.728 1.103-.147 3.716-.443 4.205-.93v2.25c0 2.068-1.648 3.954-4.477 3.954zm12.4 2.34h3.398v-10.66c0-2.284 1.76-3.932 4.17-3.932.705 0 1.5.125 1.773.205v-3.25c-.34-.045-1.01-.08-1.443-.08-2.046 0-3.796 1.16-4.432 3.034h-.182v-2.773h-3.284V111zm18.2.34c3.182 0 4.432-1.943 5.046-3.057h.284V111h3.318V87.727h-3.398v8.648h-.204c-.614-1.08-1.773-3.057-5.023-3.057-4.216 0-7.318 3.33-7.318 8.99 0 5.648 3.057 9.034 7.295 9.034zm.75-2.898c-3.034 0-4.613-2.67-4.613-6.17 0-3.466 1.545-6.068 4.613-6.068 2.966 0 4.557 2.42 4.557 6.07 0 3.67-1.625 6.17-4.557 6.17zM235.222 111h3.397V93.546h-3.397V111zm1.716-20.148c1.17 0 2.147-.91 2.147-2.023s-.977-2.034-2.147-2.034c-1.182 0-2.148.92-2.148 2.034s.966 2.023 2.148 2.023zm9.65 9.784c0-2.784 1.705-4.375 4.068-4.375 2.307 0 3.705 1.51 3.705 4.046V111h3.398V99.898c0-4.318-2.375-6.58-5.944-6.58-2.625 0-4.34 1.216-5.147 3.068h-.216v-2.84H243.2V111h3.398v-10.364zm23.046 17.24c4.443 0 7.875-2.034 7.875-6.49v-17.84h-3.33v2.83h-.25c-.602-1.08-1.807-3.057-5.057-3.057-4.216 0-7.318 3.33-7.318 8.887 0 5.568 3.17 8.534 7.295 8.534 3.205 0 4.444-1.807 5.057-2.92h.216v3.432c0 2.693-1.875 3.886-4.454 3.886-2.83 0-3.932-1.42-4.534-2.386l-2.92 1.205c.92 2.102 3.25 3.92 7.42 3.92zm-.035-9.955c-3.034 0-4.613-2.33-4.613-5.76 0-3.352 1.545-5.955 4.613-5.955 2.966 0 4.557 2.42 4.557 5.955 0 3.602-1.625 5.76-4.557 5.76zm21.208 3.08h8.92c5.41 0 7.853-2.693 7.853-6.26 0-3.603-2.523-5.637-4.83-5.762v-.227c2.136-.546 3.92-2 3.92-4.91 0-3.443-2.386-6.114-7.34-6.114h-8.523V111zm3.51-3.01v-7.455h5.193c2.82 0 4.58 1.818 4.58 4.034 0 1.955-1.33 3.42-4.705 3.42h-5.068zm0-10.193v-7.08h4.796c2.784 0 4.113 1.466 4.113 3.398 0 2.25-1.84 3.682-4.204 3.682h-4.705zm22.233 13.6c2.887 0 4.51-1.466 5.16-2.772h.137V111h3.318V99.41c0-5.08-4-6.09-6.773-6.09-3.16 0-6.068 1.273-7.204 4.454l3.193.727c.5-1.24 1.772-2.432 4.057-2.432 2.193 0 3.318 1.148 3.318 3.125v.08c0 1.238-1.273 1.216-4.41 1.58-3.307.387-6.694 1.25-6.694 5.216 0 3.432 2.58 5.318 5.898 5.318zm.74-2.727c-1.92 0-3.307-.864-3.307-2.545 0-1.82 1.614-2.466 3.58-2.728 1.103-.147 3.716-.443 4.205-.93v2.25c0 2.068-1.648 3.954-4.477 3.954zm25.48-10.852c-.705-2.716-2.83-4.49-6.602-4.49-3.944 0-6.74 2.08-6.74 5.17 0 2.477 1.5 4.125 4.773 4.852l2.954.648c1.682.375 2.466 1.125 2.466 2.216 0 1.352-1.443 2.41-3.67 2.41-2.034 0-3.34-.875-3.75-2.59l-3.284.5c.568 3.09 3.136 4.83 7.056 4.83 4.216 0 7.137-2.238 7.137-5.397 0-2.466-1.568-3.99-4.773-4.728l-2.773-.636c-1.92-.455-2.75-1.102-2.738-2.284-.012-1.34 1.443-2.295 3.375-2.295 2.113 0 3.09 1.17 3.488 2.34l3.08-.546zM346.847 111h3.397V93.546h-3.397V111zm1.715-20.148c1.17 0 2.148-.91 2.148-2.023s-.977-2.034-2.148-2.034c-1.18 0-2.147.92-2.147 2.034s.966 2.023 2.147 2.023zm13.606 20.5c4.125 0 6.795-2.477 7.17-5.875h-3.307c-.432 1.887-1.897 3-3.84 3-2.875 0-4.727-2.397-4.727-6.204 0-3.74 1.886-6.09 4.727-6.09 2.16 0 3.478 1.364 3.84 3h3.307c-.364-3.523-3.24-5.864-7.204-5.864-4.92 0-8.103 3.704-8.103 9.034 0 5.262 3.068 9 8.137 9zm23.883-13.545c-.704-2.716-2.83-4.49-6.602-4.49-3.943 0-6.74 2.08-6.74 5.17 0 2.477 1.5 4.125 4.773 4.852l2.955.648c1.68.375 2.465 1.125 2.465 2.216 0 1.352-1.443 2.41-3.67 2.41-2.034 0-3.34-.875-3.75-2.59l-3.284.5c.568 3.09 3.136 4.83 7.057 4.83 4.216 0 7.136-2.238 7.136-5.397 0-2.466-1.568-3.99-4.773-4.728l-2.772-.636c-1.92-.455-2.75-1.102-2.74-2.284-.01-1.34 1.443-2.295 3.375-2.295 2.114 0 3.09 1.17 3.49 2.34l3.08-.546z" fill="#000"/><rect x="48" y="80" width="40" height="40" rx="20" fill="#14cc52" class="D"/><g class="E B"><path d="M67 107h8m-8-7h8m-8-7h8" stroke="#14cc52" class="F G"/><path d="M61 107a1 1 0 1 1 2 0 1 1 0 1 1-2 0zm0-7a1 1 0 1 1 2 0 1 1 0 1 1-2 0zm0-7a1 1 0 1 1 2 0 1 1 0 1 1-2 0z" stroke="#14cc52"/></g><defs ><path id="B" d="M73 391H63a2 2 0 0 0-2 2v14a2 2 0 0 0 2 2h10a2 2 0 0 0 2-2v-14a2 2 0 0 0-2-2z"/></defs></svg>