<svg version="1" xmlns="http://www.w3.org/2000/svg" width="933.333" height="933.333" viewBox="0 0 700.000000 700.000000"><path d="M214 19.5c-32.6 5.7-58.3 27.3-68.5 57.8-3.4 10.4-4 14.7-3.9 29.2.2 19.1 4 31.5 14.9 47.9 2.1 3.1 15.8 17.8 30.4 32.5 29.4 29.5 33.5 34.2 34.4 38.6 1.1 6-2.1 10-31.6 39.7C174 281 159.3 296.6 157 300c-15.6 22.9-19.8 51.7-11.4 77.3 2.5 7.6 7.6 17.4 12.7 24.3 2.4 3.3 16.9 18.5 32.2 33.8 28.2 28.3 31.8 32.9 30.9 38.5-.9 4.8-5 9.6-32.6 37.2-28.1 28.3-34.2 35.5-39.7 47.1-8.6 18.3-10.4 43.1-4.4 62.3 3.8 12.3 13.1 27.5 21.8 35.9 17 16.4 37.9 25 61 24.9 11 0 17.2-1 27.5-4.3 16.6-5.4 23.1-10.4 56.9-44 28.1-27.9 32.9-32 38.2-32 4.9 0 10.4 4.6 36.7 30.8 15.2 15.1 30.1 29.5 33.1 31.9 7.2 5.8 21.6 12.7 32 15.3 8.8 2.2 23.7 3 32.6 1.7 29.6-4.1 55.4-23.8 67.3-51.2 5.5-12.7 6.7-19.5 6.6-36.5 0-9.6-.5-14.3-2.2-20.2-15.1-53.7-74-79.9-123.4-54.8-10.2 5.2-16.1 10.3-44.6 38.7-15.2 15.2-29.4 28.6-31.4 29.9-4.8 3.1-8.8 3-13.8-.1-5-3.2-105.6-103.8-107.6-107.7-4.9-9.5-5.6-8.6 53.3-67.5 30.5-30.5 53.4-52.6 55.5-53.6 4.5-2.1 7.1-2.1 11.4-.1 1.9.9 13.3 11.5 25.5 23.5 26.1 25.8 30.1 28.9 44.9 33.9 8.5 2.9 25.7 3.6 35 1.5 8.8-2 21.7-8.5 29-14.6 11.6-9.6 19.8-23.7 23.4-40.1.8-3.5.8-18.5.1-22.3-5.3-27.3-22.9-47.2-48.5-54.9-18-5.4-41.5-1.6-57.4 9.3-2.5 1.7-14.4 13-26.5 25-12.2 12-23.6 22.6-25.5 23.5-4.3 2-6.9 2-11.4-.1-4-1.9-103.7-101.1-107.8-107.3-3.3-4.9-3.6-8.6-1.2-13.4 2.6-5.2 104.1-106.6 109-108.9 5-2.3 8.1-2.1 12.8.8 2.2 1.4 16.1 14.5 30.8 29.2 28.2 28.2 35.3 34.3 46.1 39.7 15.2 7.7 35.7 10.9 52.1 8.2 35.7-5.8 64-33.2 71.5-69.1.4-1.7.9-7.5 1.2-13 2.1-40.7-25.6-77.6-65.7-87.6-8.8-2.1-26.3-2.9-34.4-1.5-12.4 2.1-28 8.7-37.3 15.7-2.9 2.2-18.1 16.7-33.8 32.3C360.2 94.6 354.9 99 350 99c-4.9 0-10.2-4.4-36.8-30.9-28.7-28.6-33.3-32.7-41.7-37.7-16.3-9.8-39.1-14-57.5-10.9z"/></svg>