<svg xmlns="http://www.w3.org/2000/svg" width="704" height="336" fill="none" xmlns:v="https://vecta.io/nano"><style><![CDATA[.B{fill:#e1e3e5}.C{stroke-linejoin:round}.D{stroke-width:2}.E{stroke-linecap:round}.F{fill:#b9bcbf}.G{stroke-miterlimit:10}]]></style><g clip-path="url(#A)"><g fill="#242526"><path d="M0 0h704v336H0z"/><rect x="47.5" y="47.5" width="609" height="241" rx="8.5" stroke="#555759"/></g><g class="B"><path d="M171 66h1v22h-1zm-62.477 182.182c1.682 0 2.25-1.046 2.545-1.523h.16V248h1.296v-11.636h-1.34v4.295h-.114c-.295-.454-.818-1.5-2.523-1.5-2.204 0-3.727 1.75-3.727 4.5 0 2.773 1.523 4.523 3.705 4.523zm.182-1.205c-1.682 0-2.546-1.477-2.546-3.34 0-1.84.84-3.272 2.546-3.272 1.636 0 2.5 1.318 2.5 3.272 0 1.978-.887 3.34-2.5 3.34zm10.12 1.205c1.773 0 3.068-.887 3.477-2.205l-1.295-.363c-.34.9-1.13 1.363-2.182 1.363-1.574 0-2.66-1.017-2.722-2.886h6.336v-.568c0-3.25-1.932-4.364-3.75-4.364-2.364 0-3.932 1.864-3.932 4.546s1.545 4.477 4.068 4.477zm-2.722-5.25c.1-1.358 1.05-2.568 2.586-2.568 1.454 0 2.386 1.1 2.386 2.568h-4.972zm15.512-3.66h-1.455l-2.4 6.954h-.1l-2.4-6.954h-1.455l3.228 8.727h1.363l3.228-8.727zm5.116 8.9c1.773 0 3.068-.887 3.477-2.205l-1.295-.363c-.34.9-1.13 1.363-2.182 1.363-1.574 0-2.66-1.017-2.72-2.886h6.335v-.568c0-3.25-1.932-4.364-3.75-4.364-2.364 0-3.932 1.864-3.932 4.546s1.545 4.477 4.068 4.477zm-2.72-5.25c.1-1.358 1.05-2.568 2.585-2.568 1.454 0 2.386 1.1 2.386 2.568h-4.97zm9.715-6.568h-1.34V248h1.34v-11.636zm6.002 11.818c2.363 0 3.954-1.796 3.954-4.5 0-2.727-1.6-4.523-3.954-4.523s-3.955 1.796-3.955 4.523c0 2.704 1.6 4.5 3.955 4.5zm0-1.205c-1.796 0-2.614-1.545-2.614-3.295s.818-3.318 2.614-3.318 2.613 1.568 2.613 3.318-.818 3.295-2.613 3.295zm6 4.296h1.34v-4.614h.114c.295.477.863 1.523 2.545 1.523 2.182 0 3.705-1.75 3.705-4.523 0-2.75-1.523-4.5-3.727-4.5-1.705 0-2.228 1.046-2.523 1.5h-.16v-1.386h-1.296v12zm1.318-7.637c0-1.954.864-3.272 2.5-3.272 1.705 0 2.546 1.43 2.546 3.272 0 1.864-.864 3.34-2.546 3.34-1.613 0-2.5-1.363-2.5-3.34zm8.432 4.364h1.34v-5.455c0-1.278.932-2.18 1.977-2.18 1.017 0 1.728.664 1.728 1.66V248h1.363v-5.682c0-1.125.705-1.954 1.932-1.954.955 0 1.773.505 1.773 1.795V248h1.34v-5.84c0-2.05-1.102-3-2.66-3-1.25 0-2.165.574-2.614 1.477h-.1c-.432-.93-1.193-1.477-2.34-1.477-1.136 0-1.977.546-2.34 1.477h-.113v-1.363h-1.296V248zm17.566.182c1.772 0 3.068-.887 3.477-2.205l-1.296-.363c-.34.9-1.13 1.363-2.18 1.363-1.574 0-2.66-1.017-2.722-2.886h6.335v-.568c0-3.25-1.932-4.364-3.75-4.364-2.363 0-3.932 1.864-3.932 4.546s1.546 4.477 4.07 4.477zm-2.722-5.25c.1-1.358 1.05-2.568 2.585-2.568 1.455 0 2.387 1.1 2.387 2.568h-4.972zm9.716-.182c0-1.523.943-2.386 2.227-2.386 1.245 0 2 .812 2 2.18V248h1.34v-5.545c0-2.228-1.187-3.296-2.954-3.296-1.32 0-2.137.6-2.546 1.477h-.114v-1.363h-1.295V248h1.34v-5.25zm11.814-3.477h-1.864v-2.1h-1.34v2.1h-1.318v1.136h1.318v5.455c0 1.522 1.228 2.25 2.364 2.25.5 0 .818-.1 1-.16l-.273-1.205c-.113.023-.295.068-.6.068-.6 0-1.16-.182-1.16-1.318v-5.1h1.864v-1.136z"/><path d="M104 251.182h60.25v1.09H104v-1.09z"/></g><path d="M108.634 259.818H107.4l-2.546 1.69v1.252l2.486-1.65h.06V270h1.233v-10.182zm6.308 10.32c2.06.025 3.4-1.526 3.4-3.42 0-1.97-1.457-3.38-3.202-3.38-1.05 0-1.95.512-2.505 1.352h-.08c.005-2.5.97-3.937 2.546-3.937 1.073 0 1.72.676 1.948 1.61h1.213c-.248-1.6-1.45-2.705-3.16-2.705-2.292 0-3.7 2.03-3.7 5.648 0 3.763 1.87 4.812 3.54 4.832zm0-1.094c-1.277 0-2.212-1.088-2.207-2.306s.984-2.307 2.247-2.307c1.248 0 2.168 1.024 2.168 2.287 0 1.292-.96 2.326-2.208 2.326zm14.126-2.167c0 1.432-1.094 2.088-1.97 2.088-.974 0-1.67-.716-1.67-1.83v-4.772h-1.173v4.852c0 1.95 1.034 2.883 2.465 2.883 1.154 0 1.9-.616 2.267-1.392h.08V270h1.173v-7.636h-1.173v4.514zm8.73-2.804c-.368-1.084-1.193-1.8-2.704-1.8-1.61 0-2.804.915-2.804 2.208 0 1.054.626 1.76 2.028 2.088l1.273.298c.77.18 1.133.547 1.133 1.074 0 .656-.696 1.193-1.79 1.193-.96 0-1.56-.413-1.77-1.233l-1.114.278c.274 1.298 1.343 1.99 2.904 1.99 1.774 0 2.983-.97 2.983-2.287 0-1.064-.667-1.735-2.03-2.068l-1.133-.278c-.905-.224-1.313-.527-1.313-1.114 0-.656.696-1.134 1.63-1.134 1.024 0 1.447.567 1.65 1.094l1.054-.298zm4.153 6.105c1.332 0 2.028-.716 2.267-1.213h.06V270h1.173v-5.03c0-2.426-1.85-2.705-2.824-2.705-1.153 0-2.466.398-3.062 1.8l1.113.398c.26-.557.87-1.154 1.99-1.154 1.08 0 1.61.572 1.61 1.55v.04c0 .567-.577.517-1.97.696-1.417.184-2.963.497-2.963 2.247 0 1.492 1.153 2.347 2.605 2.347zm.18-1.054c-.935 0-1.61-.418-1.61-1.233 0-.895.815-1.173 1.73-1.293.497-.06 1.83-.198 2.03-.437v1.074c0 .954-.756 1.89-2.148 1.89zm8.545 3.898c1.83 0 3.3-.835 3.3-2.804v-7.855h-1.134v1.213h-.12c-.258-.398-.736-1.313-2.227-1.313-1.93 0-3.262 1.53-3.262 3.878 0 2.386 1.392 3.74 3.242 3.74 1.49 0 1.97-.875 2.227-1.293h.1v1.55c0 1.273-.895 1.85-2.128 1.85-1.387 0-1.875-.73-2.188-1.154l-.934.656c.477.8 1.417 1.532 3.122 1.532zm-.04-4.196c-1.472 0-2.227-1.114-2.227-2.705 0-1.55.736-2.804 2.227-2.804 1.432 0 2.188 1.154 2.188 2.804 0 1.7-.776 2.705-2.188 2.705zm8.7 1.332c1.55 0 2.685-.775 3.043-1.93l-1.134-.318c-.298.795-.99 1.193-1.91 1.193-1.377 0-2.326-.9-2.38-2.525h5.543v-.498c0-2.843-1.7-3.818-3.28-3.818-2.068 0-3.44 1.63-3.44 3.977s1.352 3.918 3.56 3.918zm-2.38-4.594c.08-1.188.92-2.247 2.262-2.247 1.273 0 2.088.955 2.088 2.247h-4.35zm12.737-1.49c-.368-1.084-1.193-1.8-2.704-1.8-1.61 0-2.804.915-2.804 2.208 0 1.054.626 1.76 2.028 2.088l1.273.298c.77.18 1.133.547 1.133 1.074 0 .656-.696 1.193-1.79 1.193-.96 0-1.562-.413-1.77-1.233l-1.114.278c.273 1.298 1.342 1.99 2.903 1.99 1.775 0 2.983-.97 2.983-2.287 0-1.064-.666-1.735-2.028-2.068l-1.134-.278c-.904-.224-1.312-.527-1.312-1.114 0-.656.696-1.134 1.63-1.134 1.024 0 1.446.567 1.65 1.094l1.054-.298zm10.636 2.366a.9.9 0 0 0 .895-.895c0-.492-.403-.894-.895-.894s-.895.402-.895.894.402.895.895.895zm19.625-1.53c0-3.22-1.89-5.23-4.494-5.23s-4.495 2.01-4.495 5.23 1.9 5.23 4.495 5.23 4.494-2.008 4.494-5.23zm-1.193 0c0 2.645-1.452 4.077-3.3 4.077s-3.3-1.432-3.3-4.077 1.45-4.077 3.3-4.077 3.3 1.432 3.3 4.077zm6.21 5.25c1.69 0 2.804-1.034 3.003-2.386h-1.173c-.22.835-.915 1.332-1.83 1.332-1.392 0-2.287-1.153-2.287-2.923 0-1.73.915-2.864 2.287-2.864 1.034 0 1.65.637 1.83 1.333h1.173c-.2-1.432-1.412-2.387-3.023-2.387-2.068 0-3.44 1.63-3.44 3.958 0 2.287 1.313 3.937 3.46 3.937zm8.04-7.795h-1.63v-1.83h-1.174v1.83h-1.153v.994h1.153v4.773c0 1.332 1.074 1.968 2.07 1.968.437 0 .716-.08.875-.14l-.24-1.054c-.1.02-.26.06-.517.06-.517 0-1.014-.16-1.014-1.154v-4.454h1.63v-.994zm9.262-2.546h-1.232l-2.546 1.69v1.252l2.486-1.65h.06V270h1.232v-10.182zm6.11 10.32c1.938 0 3.36-1.432 3.36-3.38 0-1.974-1.372-3.42-3.24-3.42-.686 0-1.352.244-1.77.577h-.06l.358-3.003h4.256v-1.094h-5.3l-.616 5.012 1.153.14c.423-.304 1.144-.522 1.77-.517 1.298.01 2.247.994 2.247 2.326 0 1.308-.915 2.267-2.167 2.267-1.044 0-1.875-.67-1.97-1.6h-1.193c.074 1.55 1.412 2.684 3.162 2.684zm6.627-1.53h-1.273l-.06.557c-.144 1.347-.427 2.69-.557 3.32h.895c.24-.676.746-2.208.915-3.34l.08-.537zm6.09 1.392h6.423v-1.094h-4.733v-.08l2.287-2.446c1.75-1.875 2.267-2.75 2.267-3.878 0-1.57-1.272-2.824-3.062-2.824-1.785 0-3.142 1.213-3.142 3.003h1.173c0-1.16.75-1.93 1.93-1.93 1.104 0 1.95.676 1.95 1.75 0 .94-.552 1.635-1.73 2.923l-3.36 3.68V270zm11.798.14c2.247 0 3.54-1.904 3.54-5.23 0-3.3-1.312-5.23-3.54-5.23s-3.54 1.93-3.54 5.23c0 3.326 1.293 5.23 3.54 5.23zm0-1.094c-1.482 0-2.347-1.486-2.347-4.136 0-2.645.875-4.156 2.347-4.156s2.346 1.51 2.346 4.156c0 2.65-.865 4.136-2.346 4.136zm9.008-9.227h-1.233l-2.545 1.69v1.252l2.486-1.65h.06V270h1.233v-10.182zm6.2 10.32c2.033 0 3.45-1.188 3.46-2.844-.01-1.287-.87-2.38-1.97-2.585v-.06c.955-.25 1.58-1.184 1.59-2.267-.01-1.552-1.312-2.705-3.082-2.705-1.8 0-3.092 1.153-3.083 2.705-.01 1.083.617 2.018 1.59 2.267v.06c-1.118.204-1.978 1.298-1.968 2.585-.01 1.656 1.407 2.844 3.46 2.844zm0-1.094c-1.397 0-2.257-.715-2.247-1.81-.01-1.15.94-1.97 2.247-1.97 1.288 0 2.237.82 2.247 1.97-.01 1.094-.87 1.81-2.247 1.81zm0-4.832c-1.114 0-1.9-.696-1.89-1.75-.01-1.034.745-1.7 1.89-1.7 1.123 0 1.88.676 1.89 1.7-.01 1.054-.795 1.75-1.89 1.75z" class="F"/><path d="M73 254.143s.875-.857 3.5-.857 4.375 1.714 7 1.714 3.5-.857 3.5-.857v-10.286s-.875.857-3.5.857-4.375-1.714-7-1.714-3.5.857-3.5.857v10.286zm0 0V261" stroke="#ffba75" class="C D E"/><g class="B"><path d="M109 192c3.545 0 5.545-2.205 5.545-5.84 0-3.614-2-5.795-5.386-5.795h-3.75V192H109zm-2.182-1.25v-9.136h2.25c2.727 0 4.114 1.727 4.114 4.545 0 2.84-1.387 4.59-4.273 4.59h-2.09zm13.568 1.432c1.773 0 3.07-.887 3.478-2.205l-1.296-.363c-.34.91-1.13 1.363-2.182 1.363-1.574 0-2.66-1.017-2.72-2.886H124v-.568c0-3.25-1.932-4.364-3.75-4.364-2.364 0-3.932 1.864-3.932 4.546s1.546 4.477 4.068 4.477zm-2.72-5.25c.09-1.358 1.05-2.568 2.585-2.568 1.455 0 2.386 1.09 2.386 2.568h-4.97zm15.51-3.66h-1.454l-2.4 6.954h-.1l-2.4-6.954h-1.454l3.227 8.727h1.364l3.227-8.727zm5.117 8.91c1.772 0 3.068-.887 3.477-2.205l-1.296-.363c-.34.91-1.13 1.363-2.18 1.363-1.574 0-2.66-1.017-2.722-2.886h6.335v-.568c0-3.25-1.932-4.364-3.75-4.364-2.363 0-3.932 1.864-3.932 4.546s1.546 4.477 4.07 4.477zm-2.722-5.25c.09-1.358 1.05-2.568 2.585-2.568 1.455 0 2.387 1.09 2.387 2.568h-4.972zm9.716-6.568h-1.34V192h1.34v-11.636zm6 11.818c2.364 0 3.955-1.796 3.955-4.5 0-2.727-1.59-4.523-3.955-4.523s-3.954 1.796-3.954 4.523c0 2.704 1.59 4.5 3.954 4.5zm0-1.205c-1.795 0-2.613-1.545-2.613-3.295s.818-3.318 2.613-3.318 2.614 1.568 2.614 3.318-.818 3.295-2.614 3.295zm6.002 4.296h1.34v-4.614h.113c.296.477.864 1.523 2.546 1.523 2.182 0 3.704-1.75 3.704-4.523 0-2.75-1.522-4.5-3.727-4.5-1.705 0-2.227 1.046-2.523 1.5h-.16v-1.386H157.3v12zm1.318-7.637c0-1.954.864-3.272 2.5-3.272 1.704 0 2.545 1.43 2.545 3.272 0 1.864-.863 3.34-2.545 3.34-1.614 0-2.5-1.363-2.5-3.34zM167.04 192h1.34v-5.455c0-1.278.93-2.18 1.977-2.18 1.017 0 1.727.664 1.727 1.66V192h1.364v-5.682c0-1.125.704-1.954 1.932-1.954.954 0 1.772.505 1.772 1.795V192h1.34v-5.84c0-2.05-1.102-3-2.66-3-1.25 0-2.165.574-2.613 1.477h-.09c-.432-.93-1.193-1.477-2.34-1.477-1.137 0-1.978.546-2.34 1.477h-.114v-1.363h-1.295V192zm17.565.182c1.773 0 3.068-.887 3.477-2.205l-1.295-.363c-.34.91-1.13 1.363-2.182 1.363-1.574 0-2.66-1.017-2.72-2.886h6.335v-.568c0-3.25-1.932-4.364-3.75-4.364-2.364 0-3.932 1.864-3.932 4.546s1.545 4.477 4.068 4.477zm-2.72-5.25c.1-1.358 1.05-2.568 2.585-2.568 1.454 0 2.386 1.09 2.386 2.568h-4.97zm9.715-.182c0-1.523.944-2.386 2.228-2.386 1.244 0 2 .812 2 2.18V192h1.34v-5.545c0-2.228-1.188-3.296-2.955-3.296-1.318 0-2.136.59-2.545 1.477h-.114v-1.363h-1.295V192h1.34v-5.25zm11.814-3.477h-1.863v-2.09h-1.34v2.09h-1.318v1.136h1.318v5.455c0 1.522 1.227 2.25 2.363 2.25.5 0 .82-.09 1-.16l-.272-1.205c-.114.023-.296.068-.59.068-.59 0-1.16-.182-1.16-1.318v-5.09h1.863v-1.136zm6.7 8.727h7.114v-1.25h-5.705v-3.955h5.25v-1.25h-5.25v-3.93h5.614v-1.25h-7.023V192zm10.722-5.25c0-1.523.943-2.386 2.227-2.386 1.244 0 2 .812 2 2.18V192h1.34v-5.545c0-2.228-1.188-3.296-2.955-3.296-1.318 0-2.136.59-2.545 1.477h-.114v-1.363h-1.295V192h1.34v-5.25zm14.842-3.477h-1.454l-2.4 6.954h-.1l-2.4-6.954h-1.454l3.227 8.727h1.364l3.227-8.727zm1.77 8.727h1.34v-8.727h-1.34V192zm.682-10.182c.523 0 .954-.41.954-.91s-.43-.91-.954-.91-.955.41-.955.91.432.91.955.91zM241.243 192h1.34v-5.523c0-1.182.932-2.045 2.204-2.045a4.09 4.09 0 0 1 .819.091v-1.364l-.705-.023c-1.045 0-1.955.59-2.273 1.455h-.09v-1.318h-1.295V192zm9.233.182c2.363 0 3.954-1.796 3.954-4.5 0-2.727-1.59-4.523-3.954-4.523s-3.955 1.796-3.955 4.523c0 2.704 1.59 4.5 3.955 4.5zm0-1.205c-1.796 0-2.614-1.545-2.614-3.295s.818-3.318 2.614-3.318 2.613 1.568 2.613 3.318-.818 3.295-2.613 3.295zm7.342-4.227c0-1.523.943-2.386 2.227-2.386 1.245 0 2 .812 2 2.18V192h1.34v-5.545c0-2.228-1.187-3.296-2.954-3.296-1.318 0-2.137.59-2.546 1.477h-.113v-1.363h-1.296V192h1.34v-5.25zm8.02 5.25h1.34v-5.455c0-1.278.93-2.18 1.977-2.18 1.017 0 1.727.664 1.727 1.66V192h1.364v-5.682c0-1.125.704-1.954 1.932-1.954.954 0 1.772.505 1.772 1.795V192h1.34v-5.84c0-2.05-1.102-3-2.66-3-1.25 0-2.165.574-2.614 1.477h-.1c-.432-.93-1.194-1.477-2.34-1.477-1.137 0-1.978.546-2.34 1.477h-.114v-1.363h-1.295V192zm17.565.182c1.773 0 3.068-.887 3.477-2.205l-1.295-.363c-.34.91-1.13 1.363-2.182 1.363-1.574 0-2.66-1.017-2.722-2.886h6.336v-.568c0-3.25-1.932-4.364-3.75-4.364-2.364 0-3.932 1.864-3.932 4.546s1.545 4.477 4.068 4.477zm-2.722-5.25c.09-1.358 1.052-2.568 2.586-2.568 1.454 0 2.386 1.09 2.386 2.568h-4.972zm9.716-.182c0-1.523.943-2.386 2.228-2.386 1.244 0 2 .812 2 2.18V192h1.34v-5.545c0-2.228-1.187-3.296-2.954-3.296-1.318 0-2.136.59-2.546 1.477h-.113v-1.363h-1.296V192h1.34v-5.25zm11.814-3.477h-1.863v-2.09h-1.34v2.09h-1.318v1.136h1.318v5.455c0 1.522 1.227 2.25 2.363 2.25.5 0 .82-.09 1-.16l-.272-1.205c-.114.023-.296.068-.59.068-.59 0-1.16-.182-1.16-1.318v-5.09h1.863v-1.136z"/><path d="M104 195.182h61.812v1.09H104v-1.09z"/></g><path d="M105.372 214h1.293l4.534-9.028v-1.154h-6.523v1.094h5.25v.08l-4.554 9.01zm12.214 0l1.024-2.884h4.117L123.75 214h1.293l-3.74-10.182h-1.273L116.294 214h1.292zm1.412-3.977l1.63-4.594h.08l1.63 4.594h-3.34zM126.47 214h1.174v-4.832c0-1.034.815-1.8 1.93-1.8a3.68 3.68 0 0 1 .716.079v-1.193l-.617-.02c-.915 0-1.7.517-1.99 1.273h-.08v-1.153h-1.134V214zm9.01-7.636h-1.63v-1.83h-1.173v1.83h-1.154v.994h1.154v4.773c0 1.332 1.074 1.968 2.068 1.968.438 0 .716-.08.875-.14l-.24-1.054c-.1.02-.258.06-.517.06-.517 0-1.014-.16-1.014-1.154v-4.454h1.63v-.994zm1.765 7.636h1.173v-7.636h-1.173V214zm.596-8.91c.458 0 .836-.358.836-.796s-.378-.795-.836-.795-.835.358-.835.795.378.796.835.796zm5.828 9.068c1.69 0 2.804-1.034 3.003-2.386h-1.173c-.22.835-.915 1.332-1.83 1.332-1.392 0-2.287-1.153-2.287-2.923 0-1.73.915-2.864 2.287-2.864 1.034 0 1.65.637 1.83 1.333h1.173c-.2-1.432-1.412-2.387-3.023-2.387-2.068 0-3.44 1.63-3.44 3.958 0 2.287 1.313 3.937 3.46 3.937zm5.892-10.34h-1.174V214h1.174v-10.182zm5.35 10.34c1.55 0 2.685-.775 3.043-1.93l-1.134-.318c-.298.795-.99 1.193-1.91 1.193-1.377 0-2.326-.9-2.38-2.525h5.543v-.498c0-2.843-1.7-3.818-3.28-3.818-2.068 0-3.44 1.63-3.44 3.977s1.352 3.918 3.56 3.918zm-2.38-4.594c.08-1.188.92-2.247 2.262-2.247 1.273 0 2.088.955 2.088 2.247h-4.35zm12.737-1.49c-.368-1.084-1.193-1.8-2.704-1.8-1.61 0-2.804.915-2.804 2.208 0 1.054.626 1.76 2.028 2.088l1.273.298c.77.18 1.133.547 1.133 1.074 0 .656-.696 1.193-1.79 1.193-.96 0-1.562-.413-1.77-1.233l-1.114.278c.273 1.298 1.342 1.99 2.903 1.99 1.775 0 2.983-.97 2.983-2.287 0-1.064-.666-1.735-2.028-2.068l-1.134-.278c-.904-.224-1.312-.527-1.312-1.114 0-.656.696-1.134 1.63-1.134 1.024 0 1.446.567 1.65 1.094l1.054-.298zm10.636 2.366a.9.9 0 0 0 .895-.895c0-.492-.403-.894-.895-.894s-.895.402-.895.894.402.895.895.895zm11.034 3.56h1.233v-4.554h4.415v-1.094h-4.415v-3.44h4.872v-1.094h-6.105V214zm10.7.16c1.55 0 2.685-.775 3.043-1.93l-1.134-.318c-.298.795-.99 1.193-1.91 1.193-1.377 0-2.327-.9-2.38-2.525h5.543v-.498c0-2.843-1.7-3.818-3.28-3.818-2.07 0-3.44 1.63-3.44 3.977s1.353 3.918 3.56 3.918zm-2.38-4.594c.08-1.188.92-2.247 2.262-2.247 1.272 0 2.088.955 2.088 2.247h-4.35zM202.74 214h1.133v-1.173h.14c.26.417.756 1.332 2.228 1.332 1.91 0 3.24-1.53 3.24-3.957 0-2.407-1.332-3.938-3.26-3.938-1.492 0-1.95.915-2.208 1.313h-.1v-3.76h-1.173V214zm1.153-3.818c0-1.7.756-2.864 2.188-2.864 1.49 0 2.227 1.253 2.227 2.864 0 1.63-.756 2.923-2.227 2.923-1.412 0-2.188-1.193-2.188-2.923zm11.3 3.818h6.423v-1.094h-4.733v-.08l2.287-2.446c1.75-1.875 2.267-2.75 2.267-3.878 0-1.57-1.273-2.824-3.063-2.824-1.784 0-3.142 1.213-3.142 3.003h1.174c0-1.16.75-1.93 1.93-1.93 1.103 0 1.95.676 1.95 1.75 0 .94-.552 1.635-1.73 2.923l-3.36 3.68V214zm11.738.14c2.033 0 3.45-1.188 3.46-2.844-.01-1.287-.87-2.38-1.97-2.585v-.06c.955-.25 1.58-1.184 1.59-2.267-.01-1.552-1.313-2.705-3.082-2.705-1.8 0-3.093 1.153-3.083 2.705-.01 1.083.617 2.018 1.59 2.267v.06c-1.12.204-1.98 1.298-1.97 2.585-.01 1.656 1.407 2.844 3.46 2.844zm0-1.094c-1.397 0-2.258-.715-2.248-1.81-.01-1.15.94-1.97 2.248-1.97 1.287 0 2.237.82 2.247 1.97-.01 1.094-.87 1.81-2.247 1.81zm0-4.832c-1.114 0-1.9-.696-1.9-1.75-.01-1.034.746-1.7 1.9-1.7 1.123 0 1.88.676 1.89 1.7-.01 1.054-.796 1.75-1.89 1.75zm6.656 4.395h-1.272l-.06.557c-.144 1.347-.427 2.69-.557 3.32h.895c.24-.676.746-2.208.915-3.34l.08-.537zM239.68 214h6.423v-1.094h-4.733v-.08l2.287-2.446c1.75-1.875 2.267-2.75 2.267-3.878 0-1.57-1.272-2.824-3.062-2.824s-3.142 1.213-3.142 3.003h1.173c0-1.16.75-1.93 1.93-1.93 1.104 0 1.95.676 1.95 1.75 0 .94-.552 1.635-1.73 2.923l-3.36 3.68V214zm11.798.14c2.247 0 3.54-1.904 3.54-5.23 0-3.3-1.312-5.23-3.54-5.23s-3.54 1.93-3.54 5.23c0 3.326 1.292 5.23 3.54 5.23zm0-1.094c-1.482 0-2.347-1.486-2.347-4.136 0-2.645.875-4.156 2.347-4.156s2.346 1.51 2.346 4.156c0 2.65-.865 4.136-2.346 4.136zm9.008-9.227h-1.233l-2.545 1.69v1.252l2.485-1.65h.06V214h1.233v-10.182zm6.17-.16c-2.068-.02-3.4 1.53-3.4 3.42 0 1.968 1.452 3.38 3.202 3.38 1.054 0 1.95-.517 2.506-1.352h.08c0 2.506-.974 3.937-2.545 3.937-1.074 0-1.73-.676-1.95-1.6h-1.213c.238 1.6 1.45 2.704 3.162 2.704 2.287 0 3.7-2.028 3.7-5.648 0-3.758-1.87-4.812-3.54-4.832zm0 1.094c1.273 0 2.207 1.094 2.207 2.307s-.994 2.306-2.247 2.306-2.168-1.014-2.168-2.286c0-1.293.955-2.327 2.208-2.327zm14.245 5.687a.9.9 0 0 0 .895-.895c0-.492-.403-.894-.895-.894s-.895.402-.895.894.402.895.895.895zm14.077 3.72c1.55 0 2.684-.775 3.042-1.93l-1.133-.318c-.3.795-1 1.193-1.91 1.193-1.377 0-2.327-.9-2.382-2.525h5.544v-.498c0-2.843-1.69-3.818-3.282-3.818-2.068 0-3.44 1.63-3.44 3.977s1.352 3.918 3.56 3.918zm-2.382-4.594c.08-1.188.92-2.247 2.262-2.247 1.273 0 2.088.955 2.088 2.247h-4.35zm10.212 4.594c1.472 0 1.97-.915 2.227-1.332h.14V214h1.134v-10.182h-1.173v3.76h-.1c-.258-.398-.716-1.313-2.207-1.313-1.93 0-3.262 1.53-3.262 3.938 0 2.426 1.333 3.957 3.242 3.957zm.16-1.054c-1.472 0-2.227-1.293-2.227-2.923 0-1.61.736-2.864 2.227-2.864 1.432 0 2.188 1.154 2.188 2.864 0 1.73-.776 2.923-2.188 2.923zm5.653.895h1.173v-7.636h-1.173V214zm.596-8.91c.458 0 .836-.358.836-.796s-.378-.795-.836-.795-.835.358-.835.795.378.796.835.796zm6.047 1.273h-1.63v-1.83h-1.173v1.83h-1.153v.994h1.153v4.773c0 1.332 1.074 1.968 2.068 1.968.438 0 .716-.08.875-.14l-.238-1.054c-.1.02-.26.06-.517.06-.517 0-1.015-.16-1.015-1.154v-4.454h1.63v-.994zm4.885 7.795c1.55 0 2.684-.775 3.042-1.93l-1.133-.318c-.3.795-1 1.193-1.91 1.193-1.378 0-2.327-.9-2.382-2.525h5.544v-.498c0-2.843-1.69-3.818-3.282-3.818-2.068 0-3.44 1.63-3.44 3.977s1.352 3.918 3.56 3.918zm-2.382-4.594c.08-1.188.92-2.247 2.262-2.247 1.273 0 2.088.955 2.088 2.247h-4.35zm10.212 4.594c1.47 0 1.97-.915 2.227-1.332h.14V214h1.134v-10.182h-1.173v3.76h-.1c-.258-.398-.716-1.313-2.207-1.313-1.93 0-3.262 1.53-3.262 3.938 0 2.426 1.333 3.957 3.242 3.957zm.16-1.054c-1.472 0-2.227-1.293-2.227-2.923 0-1.61.735-2.864 2.227-2.864 1.432 0 2.187 1.154 2.187 2.864 0 1.73-.775 2.923-2.187 2.923zm13.15-9.287h-1.233l-2.546 1.69v1.252l2.486-1.65h.06V214h1.233v-10.182zM344.216 214h6.423v-1.094h-4.733v-.08l2.287-2.446c1.75-1.875 2.267-2.75 2.267-3.878 0-1.57-1.272-2.824-3.062-2.824s-3.142 1.213-3.142 3.003h1.173c0-1.16.75-1.93 1.93-1.93 1.104 0 1.95.676 1.95 1.75 0 .94-.552 1.635-1.73 2.923l-3.36 3.68V214zm15.318.16c1.47 0 1.968-.915 2.227-1.332h.14V214h1.134v-10.182h-1.174v3.76h-.1c-.26-.398-.716-1.313-2.208-1.313-1.93 0-3.26 1.53-3.26 3.938 0 2.426 1.332 3.957 3.242 3.957zm.16-1.054c-1.472 0-2.228-1.293-2.228-2.923 0-1.61.736-2.864 2.228-2.864 1.43 0 2.187 1.154 2.187 2.864 0 1.73-.775 2.923-2.187 2.923zm7.9 1.074c1.332 0 2.028-.716 2.267-1.213h.06V214h1.174v-5.03c0-2.426-1.85-2.705-2.824-2.705-1.154 0-2.466.398-3.063 1.8l1.114.398c.258-.557.87-1.154 1.988-1.154 1.08 0 1.61.572 1.61 1.55v.04c0 .567-.576.517-1.97.696-1.416.184-2.963.497-2.963 2.247 0 1.492 1.154 2.347 2.606 2.347zm.178-1.054c-.934 0-1.6-.418-1.6-1.233 0-.895.815-1.173 1.73-1.293.497-.06 1.83-.198 2.028-.437v1.074c0 .954-.755 1.89-2.148 1.89zm5.945 3.72c1.06 0 1.8-.562 2.247-1.73l3.252-8.73-1.283-.02-2.108 6.085h-.08l-2.108-6.085h-1.273l2.824 7.676-.22.596c-.418 1.144-.954 1.253-1.8 1.034l-.298 1.035c.12.06.458.14.855.14zm12.46-8.77c-.368-1.084-1.193-1.8-2.704-1.8-1.61 0-2.804.915-2.804 2.208 0 1.054.626 1.76 2.028 2.088l1.273.298c.77.18 1.133.547 1.133 1.074 0 .656-.696 1.193-1.79 1.193-.96 0-1.56-.413-1.77-1.233l-1.114.278c.274 1.298 1.342 1.99 2.904 1.99 1.774 0 2.983-.97 2.983-2.287 0-1.064-.667-1.735-2.03-2.068l-1.133-.278c-.905-.224-1.313-.527-1.313-1.114 0-.656.696-1.134 1.63-1.134 1.024 0 1.447.567 1.65 1.094l1.054-.298zm8.1 6.105c1.333 0 2.03-.716 2.267-1.213h.06V214h1.173v-5.03c0-2.426-1.85-2.705-2.824-2.705-1.153 0-2.465.398-3.062 1.8l1.114.398c.258-.557.87-1.154 1.988-1.154 1.08 0 1.61.572 1.61 1.55v.04c0 .567-.577.517-1.97.696-1.417.184-2.963.497-2.963 2.247 0 1.492 1.154 2.347 2.605 2.347zm.18-1.054c-.934 0-1.6-.418-1.6-1.233 0-.895.815-1.173 1.73-1.293.497-.06 1.83-.198 2.028-.437v1.074c0 .954-.756 1.89-2.148 1.89zm8.545 3.898c1.83 0 3.3-.835 3.3-2.804v-7.855h-1.133v1.213h-.12c-.26-.398-.736-1.313-2.228-1.313-1.93 0-3.26 1.53-3.26 3.878 0 2.386 1.392 3.74 3.24 3.74 1.492 0 1.97-.875 2.228-1.293h.1v1.55c0 1.273-.895 1.85-2.128 1.85-1.387 0-1.874-.73-2.187-1.154l-.935.656c.477.8 1.417 1.532 3.122 1.532zm-.04-4.196c-1.47 0-2.227-1.114-2.227-2.705 0-1.55.736-2.804 2.227-2.804 1.432 0 2.188 1.154 2.188 2.804 0 1.7-.776 2.705-2.188 2.705zm8.59 1.332c2.07 0 3.46-1.57 3.46-3.937 0-2.387-1.392-3.958-3.46-3.958s-3.46 1.57-3.46 3.958c0 2.366 1.392 3.937 3.46 3.937zm0-1.054c-1.57 0-2.287-1.352-2.287-2.883s.716-2.904 2.287-2.904 2.287 1.372 2.287 2.904-.716 2.883-2.287 2.883z" class="F"/><g class="D C"><g stroke="#72e097" class="E G"><path d="M79 203h8m-8-7h8m-8-7h8"/></g><path d="M73 203a1 1 0 1 1 2 0 1 1 0 1 1-2 0zm0-7a1 1 0 1 1 2 0 1 1 0 1 1-2 0zm0-7a1 1 0 1 1 2 0 1 1 0 1 1-2 0z" stroke="#72e097"/></g><g clip-path="url(#B)"><rect x="56" y="112" width="592" height="56" rx="8" fill="#2b2d2e"/><g class="B"><path d="M109 136c3.545 0 5.545-2.205 5.545-5.84 0-3.614-2-5.795-5.386-5.795h-3.75V136H109zm-2.182-1.25v-9.136h2.25c2.727 0 4.114 1.727 4.114 4.545 0 2.84-1.387 4.59-4.273 4.59h-2.09zm13.568 1.432c1.773 0 3.07-.887 3.478-2.205l-1.296-.363c-.34.91-1.13 1.363-2.182 1.363-1.574 0-2.66-1.017-2.72-2.886H124v-.568c0-3.25-1.932-4.364-3.75-4.364-2.364 0-3.932 1.864-3.932 4.546s1.546 4.477 4.068 4.477zm-2.72-5.25c.09-1.358 1.05-2.568 2.585-2.568 1.455 0 2.386 1.09 2.386 2.568h-4.97zm15.51-3.66h-1.454l-2.4 6.954h-.1l-2.4-6.954h-1.454l3.227 8.727h1.364l3.227-8.727zm5.117 8.91c1.772 0 3.068-.887 3.477-2.205l-1.296-.363c-.34.91-1.13 1.363-2.18 1.363-1.574 0-2.66-1.017-2.722-2.886h6.335v-.568c0-3.25-1.932-4.364-3.75-4.364-2.363 0-3.932 1.864-3.932 4.546s1.546 4.477 4.07 4.477zm-2.722-5.25c.09-1.358 1.05-2.568 2.585-2.568 1.455 0 2.387 1.09 2.387 2.568h-4.972zm9.716-6.568h-1.34V136h1.34v-11.636zm6 11.818c2.364 0 3.955-1.796 3.955-4.5 0-2.727-1.59-4.523-3.955-4.523s-3.954 1.796-3.954 4.523c0 2.704 1.59 4.5 3.954 4.5zm0-1.205c-1.795 0-2.613-1.545-2.613-3.295s.818-3.318 2.613-3.318 2.614 1.568 2.614 3.318-.818 3.295-2.614 3.295zm6.002 4.296h1.34v-4.614h.113c.296.477.864 1.523 2.546 1.523 2.182 0 3.704-1.75 3.704-4.523 0-2.75-1.522-4.5-3.727-4.5-1.705 0-2.227 1.046-2.523 1.5h-.16v-1.386H157.3v12zm1.318-7.637c0-1.954.864-3.272 2.5-3.272 1.704 0 2.545 1.43 2.545 3.272 0 1.864-.863 3.34-2.545 3.34-1.614 0-2.5-1.363-2.5-3.34zM167.04 136h1.34v-5.455c0-1.278.93-2.18 1.977-2.18 1.017 0 1.727.664 1.727 1.66V136h1.364v-5.682c0-1.125.704-1.954 1.932-1.954.954 0 1.772.505 1.772 1.795V136h1.34v-5.84c0-2.05-1.102-3-2.66-3-1.25 0-2.165.574-2.613 1.477h-.09c-.432-.93-1.193-1.477-2.34-1.477-1.137 0-1.978.546-2.34 1.477h-.114v-1.363h-1.295V136zm17.565.182c1.773 0 3.068-.887 3.477-2.205l-1.295-.363c-.34.91-1.13 1.363-2.182 1.363-1.574 0-2.66-1.017-2.72-2.886h6.335v-.568c0-3.25-1.932-4.364-3.75-4.364-2.364 0-3.932 1.864-3.932 4.546s1.545 4.477 4.068 4.477zm-2.72-5.25c.1-1.358 1.05-2.568 2.585-2.568 1.454 0 2.386 1.09 2.386 2.568h-4.97zm9.715-.182c0-1.523.944-2.386 2.228-2.386 1.244 0 2 .812 2 2.18V136h1.34v-5.545c0-2.228-1.188-3.296-2.955-3.296-1.318 0-2.136.59-2.545 1.477h-.114v-1.363h-1.295V136h1.34v-5.25zm11.814-3.477h-1.863v-2.09h-1.34v2.09h-1.318v1.136h1.318v5.455c0 1.522 1.227 2.25 2.363 2.25.5 0 .82-.09 1-.16l-.272-1.205c-.114.023-.296.068-.59.068-.59 0-1.16-.182-1.16-1.318v-5.09h1.863v-1.136zm6.7 8.727h1.41v-4.545h2.546l.295-.006 2.455 4.55h1.636l-2.63-4.807c1.483-.505 2.177-1.716 2.177-3.26 0-2.057-1.228-3.568-3.955-3.568h-3.932V136zm1.41-5.818v-4.568H214c1.886 0 2.613.92 2.613 2.318s-.727 2.25-2.59 2.25h-2.5zm12.095 6c2.364 0 3.955-1.796 3.955-4.5 0-2.727-1.59-4.523-3.955-4.523s-3.954 1.796-3.954 4.523c0 2.704 1.59 4.5 3.954 4.5zm0-1.205c-1.795 0-2.613-1.545-2.613-3.295s.818-3.318 2.613-3.318 2.614 1.568 2.614 3.318-.818 3.295-2.614 3.295zm8.57 1.228c1.523 0 2.318-.82 2.59-1.387h.068V136h1.34v-5.75c0-2.773-2.114-3.09-3.227-3.09-1.318 0-2.818.455-3.5 2.046l1.273.454c.295-.636.994-1.318 2.272-1.318 1.233 0 1.84.653 1.84 1.773v.045c0 .648-.66.59-2.25.796-1.62.2-3.386.568-3.386 2.568 0 1.704 1.318 2.682 2.977 2.682zm.205-1.205c-1.07 0-1.84-.477-1.84-1.41 0-1.023.932-1.34 1.977-1.477.568-.07 2.09-.228 2.318-.5v1.227c0 1.09-.863 2.16-2.454 2.16zm9.538 1.182c1.682 0 2.25-1.046 2.545-1.523h.16V136h1.295v-11.636h-1.34v4.295h-.114c-.295-.454-.818-1.5-2.522-1.5-2.205 0-3.728 1.75-3.728 4.5 0 2.773 1.523 4.523 3.705 4.523zm.182-1.205c-1.682 0-2.546-1.477-2.546-3.34 0-1.84.84-3.272 2.546-3.272 1.636 0 2.5 1.318 2.5 3.272 0 1.978-.887 3.34-2.5 3.34zm6.46 1.023h1.34v-5.455c0-1.278.932-2.18 1.977-2.18 1.017 0 1.727.664 1.727 1.66V136h1.364v-5.682c0-1.125.705-1.954 1.932-1.954.954 0 1.773.505 1.773 1.795V136h1.34v-5.84c0-2.05-1.103-3-2.66-3-1.25 0-2.164.574-2.613 1.477h-.09c-.432-.93-1.193-1.477-2.34-1.477-1.136 0-1.977.546-2.34 1.477h-.114v-1.363h-1.295V136zm16.474.205c1.523 0 2.32-.82 2.59-1.387h.07V136h1.34v-5.75c0-2.773-2.113-3.09-3.227-3.09-1.318 0-2.818.455-3.5 2.046l1.273.454c.295-.636.994-1.318 2.273-1.318 1.233 0 1.84.653 1.84 1.773v.045c0 .648-.66.59-2.25.796-1.62.2-3.387.568-3.387 2.568 0 1.704 1.318 2.682 2.977 2.682zm.205-1.205c-1.068 0-1.84-.477-1.84-1.41 0-1.023.932-1.34 1.977-1.477.57-.07 2.09-.228 2.32-.5v1.227c0 1.09-.864 2.16-2.455 2.16zm6.243 4.273h1.34v-4.614h.113c.296.477.864 1.523 2.546 1.523 2.182 0 3.704-1.75 3.704-4.523 0-2.75-1.522-4.5-3.727-4.5-1.704 0-2.227 1.046-2.523 1.5h-.16v-1.386h-1.295v12zm1.318-7.637c0-1.954.864-3.272 2.5-3.272 1.705 0 2.546 1.43 2.546 3.272 0 1.864-.864 3.34-2.546 3.34-1.614 0-2.5-1.363-2.5-3.34z"/><path d="M104 139.182h61.812v1.09H104v-1.09z"/></g><path d="M105.054 158h6.423v-1.094h-4.733v-.08l2.287-2.446c1.75-1.875 2.267-2.75 2.267-3.878 0-1.57-1.272-2.824-3.062-2.824s-3.142 1.213-3.142 3.003h1.173c0-1.16.75-1.93 1.93-1.93 1.104 0 1.95.676 1.95 1.75 0 .94-.552 1.635-1.73 2.923l-3.36 3.68V158zm11.917.14c1.974 0 3.44-1.238 3.44-2.903 0-1.293-.765-2.232-2.048-2.446v-.08c1.03-.313 1.67-1.158 1.67-2.307 0-1.44-1.138-2.724-3.022-2.724-1.76 0-3.222 1.084-3.282 2.685h1.194c.044-1.015 1.01-1.61 2.068-1.61 1.123 0 1.85.68 1.85 1.7 0 1.074-.84 1.77-2.048 1.77h-.815v1.094h.815c1.546 0 2.406.785 2.406 1.91 0 1.08-.94 1.81-2.247 1.81-1.178 0-2.113-.606-2.188-1.6h-1.252c.074 1.6 1.486 2.684 3.46 2.684zm15.675-7.775h-1.272l-2.108 6.085h-.08l-2.108-6.085h-1.273L128.63 158h1.193l2.824-7.636zm1.55 7.636h1.173v-7.636h-1.173V158zm.597-8.91c.457 0 .835-.358.835-.796s-.378-.795-.835-.795-.836.358-.836.795.378.796.836.796zm5.927 9.068c1.55 0 2.685-.775 3.043-1.93l-1.134-.318c-.298.795-.99 1.193-1.91 1.193-1.377 0-2.327-.9-2.38-2.525h5.543v-.498c0-2.843-1.7-3.818-3.28-3.818-2.07 0-3.44 1.63-3.44 3.977s1.353 3.918 3.56 3.918zm-2.38-4.594c.08-1.188.92-2.247 2.262-2.247 1.272 0 2.088.955 2.088 2.247h-4.35zm9.058 4.435h1.153l1.67-5.866h.12l1.67 5.866h1.154l2.327-7.636h-1.233l-1.65 5.826h-.08l-1.6-5.826h-1.253l-1.63 5.846h-.08l-1.65-5.846h-1.233l2.327 7.636zm15.054-5.926c-.368-1.084-1.193-1.8-2.705-1.8-1.61 0-2.804.915-2.804 2.208 0 1.054.627 1.76 2.03 2.088l1.272.298c.77.18 1.134.547 1.134 1.074 0 .656-.696 1.193-1.8 1.193-.96 0-1.56-.413-1.77-1.233l-1.113.278c.273 1.298 1.342 1.99 2.903 1.99 1.775 0 2.983-.97 2.983-2.287 0-1.064-.666-1.735-2.028-2.068l-1.134-.278c-.905-.224-1.312-.527-1.312-1.114 0-.656.696-1.134 1.63-1.134 1.024 0 1.447.567 1.65 1.094l1.054-.298zm10.635 2.366a.9.9 0 0 0 .895-.895c0-.492-.403-.894-.895-.894s-.895.402-.895.894a.9.9 0 0 0 .895.895zm14.932-6.622v7.28c0 1.267-.606 1.948-1.67 1.948-.97 0-1.67-.566-1.67-1.43h-1.213c0 1.566 1.213 2.525 2.884 2.525 1.77 0 2.903-1.09 2.903-3.042v-7.28h-1.233zm8.358 7.06c0 1.432-1.094 2.088-1.97 2.088-.975 0-1.67-.716-1.67-1.83v-4.772h-1.173v4.852c0 1.95 1.034 2.883 2.466 2.883 1.153 0 1.91-.616 2.267-1.392h.08V158h1.173v-7.636h-1.173v4.514zm4.495-1.472c0-1.332.825-2.088 1.95-2.088 1.09 0 1.75.71 1.75 1.91V158h1.173v-4.852c0-1.95-1.04-2.884-2.585-2.884-1.153 0-1.87.517-2.227 1.293h-.1v-1.193h-1.133V158h1.173v-4.594zm14.116 4.733c1.94 0 3.36-1.432 3.36-3.38 0-1.974-1.373-3.42-3.242-3.42-.686 0-1.352.244-1.77.577h-.06l.358-3.003h4.255v-1.094h-5.3l-.616 5.012 1.153.14c.423-.304 1.144-.522 1.77-.517 1.298.01 2.247.994 2.247 2.326 0 1.308-.914 2.267-2.167 2.267-1.044 0-1.874-.67-1.97-1.6h-1.193c.074 1.55 1.412 2.684 3.162 2.684zm6.627-1.53h-1.273l-.06.557c-.145 1.347-.428 2.69-.557 3.32h.895c.238-.676.745-2.208.914-3.34l.08-.537zm6.09 1.392h6.424v-1.094h-4.733v-.08l2.287-2.446c1.75-1.875 2.267-2.75 2.267-3.878 0-1.57-1.273-2.824-3.063-2.824s-3.142 1.213-3.142 3.003h1.173c0-1.16.75-1.93 1.93-1.93 1.104 0 1.95.676 1.95 1.75 0 .94-.552 1.635-1.73 2.923l-3.36 3.68V158zm11.798.14c2.247 0 3.54-1.904 3.54-5.23 0-3.3-1.313-5.23-3.54-5.23s-3.54 1.93-3.54 5.23c0 3.326 1.293 5.23 3.54 5.23zm0-1.094c-1.482 0-2.347-1.486-2.347-4.136 0-2.645.875-4.156 2.347-4.156s2.347 1.51 2.347 4.156c0 2.65-.866 4.136-2.347 4.136zm9.008-9.227h-1.232l-2.546 1.69v1.252l2.486-1.65h.06V158h1.232v-10.182zm6.17-.16c-2.068-.02-3.4 1.53-3.4 3.42 0 1.968 1.45 3.38 3.2 3.38 1.054 0 1.95-.517 2.506-1.352h.08c0 2.506-.975 3.937-2.546 3.937-1.074 0-1.73-.676-1.95-1.6h-1.213c.24 1.6 1.452 2.704 3.162 2.704 2.287 0 3.7-2.028 3.7-5.648 0-3.758-1.87-4.812-3.54-4.832zm0 1.094c1.273 0 2.208 1.094 2.208 2.307s-.995 2.306-2.248 2.306-2.167-1.014-2.167-2.286c0-1.293.954-2.327 2.207-2.327zm14.245 5.687a.9.9 0 0 0 .895-.895c0-.492-.403-.894-.895-.894s-.895.402-.895.894a.9.9 0 0 0 .895.895zm14.077 3.72c1.55 0 2.685-.775 3.043-1.93l-1.134-.318c-.298.795-.99 1.193-1.91 1.193-1.377 0-2.327-.9-2.38-2.525h5.543v-.498c0-2.843-1.7-3.818-3.28-3.818-2.068 0-3.44 1.63-3.44 3.977s1.353 3.918 3.56 3.918zm-2.38-4.594c.08-1.188.92-2.247 2.262-2.247 1.273 0 2.088.955 2.088 2.247h-4.35zm10.21 4.594c1.472 0 1.97-.915 2.228-1.332h.14V158h1.133v-10.182h-1.173v3.76h-.1c-.26-.398-.716-1.313-2.208-1.313-1.93 0-3.26 1.53-3.26 3.938 0 2.426 1.332 3.957 3.24 3.957zm.16-1.054c-1.47 0-2.227-1.293-2.227-2.923 0-1.61.736-2.864 2.227-2.864 1.432 0 2.188 1.154 2.188 2.864 0 1.73-.776 2.923-2.188 2.923zm5.653.895h1.173v-7.636h-1.173V158zm.597-8.91c.457 0 .835-.358.835-.796s-.378-.795-.835-.795-.835.358-.835.795.377.796.835.796zm6.046 1.273h-1.63v-1.83h-1.174v1.83h-1.153v.994h1.153v4.773c0 1.332 1.074 1.968 2.07 1.968.437 0 .716-.08.875-.14l-.24-1.054c-.1.02-.258.06-.517.06-.517 0-1.014-.16-1.014-1.154v-4.454h1.63v-.994zm4.885 7.795c1.55 0 2.685-.775 3.043-1.93l-1.134-.318c-.298.795-.99 1.193-1.91 1.193-1.377 0-2.327-.9-2.38-2.525h5.543v-.498c0-2.843-1.7-3.818-3.28-3.818-2.068 0-3.44 1.63-3.44 3.977s1.353 3.918 3.56 3.918zm-2.38-4.594c.08-1.188.92-2.247 2.262-2.247 1.272 0 2.088.955 2.088 2.247h-4.35zm10.21 4.594c1.472 0 1.97-.915 2.228-1.332h.14V158h1.133v-10.182h-1.173v3.76h-.1c-.26-.398-.716-1.313-2.208-1.313-1.93 0-3.26 1.53-3.26 3.938 0 2.426 1.332 3.957 3.24 3.957zm.16-1.054c-1.47 0-2.227-1.293-2.227-2.923 0-1.61.736-2.864 2.227-2.864 1.432 0 2.188 1.154 2.188 2.864 0 1.73-.776 2.923-2.188 2.923zm9.89.895h1.293l4.534-9.028v-1.154h-6.523v1.094h5.25v.08L326.05 158zm12.8-4.594c0-1.332.85-2.088 2.01-2.088 1.104 0 1.77.696 1.77 1.91V158h1.173v-4.852c0-1.964-1.044-2.884-2.605-2.884-1.203 0-1.89.502-2.247 1.293h-.1v-3.74h-1.173V158h1.173v-4.594zm10.2 4.753c2.068 0 3.46-1.57 3.46-3.937 0-2.387-1.392-3.958-3.46-3.958s-3.46 1.57-3.46 3.958c0 2.366 1.392 3.937 3.46 3.937zm0-1.054c-1.57 0-2.287-1.352-2.287-2.883s.716-2.904 2.287-2.904 2.287 1.372 2.287 2.904-.716 2.883-2.287 2.883zm10.064-2.227c0 1.432-1.094 2.088-1.97 2.088-.975 0-1.67-.716-1.67-1.83v-4.772h-1.173v4.852c0 1.95 1.034 2.883 2.466 2.883 1.153 0 1.91-.616 2.267-1.392h.08V158h1.173v-7.636h-1.173v4.514zm3.322 3.122h1.173v-4.832c0-1.034.816-1.8 1.93-1.8a3.67 3.67 0 0 1 .716.079v-1.193l-.616-.02c-.915 0-1.71.517-1.99 1.273h-.08v-1.153h-1.133V158zm10.618-5.926c-.368-1.084-1.193-1.8-2.705-1.8-1.6 0-2.804.915-2.804 2.208 0 1.054.627 1.76 2.03 2.088l1.273.298c.77.18 1.133.547 1.133 1.074 0 .656-.696 1.193-1.8 1.193-.96 0-1.56-.413-1.77-1.233l-1.113.278c.273 1.298 1.342 1.99 2.903 1.99 1.775 0 2.983-.97 2.983-2.287 0-1.064-.666-1.735-2.028-2.068l-1.134-.278c-.905-.224-1.312-.527-1.312-1.114 0-.656.696-1.134 1.63-1.134 1.025 0 1.447.567 1.65 1.094l1.054-.298zm8.1 6.105c1.332 0 2.028-.716 2.267-1.213h.06V158h1.173v-5.03c0-2.426-1.85-2.705-2.824-2.705-1.153 0-2.466.398-3.062 1.8l1.113.398c.26-.557.87-1.154 1.99-1.154 1.08 0 1.61.572 1.61 1.55v.04c0 .567-.577.517-1.97.696-1.417.184-2.963.497-2.963 2.247 0 1.492 1.153 2.347 2.605 2.347zm.18-1.054c-.935 0-1.61-.418-1.61-1.233 0-.895.816-1.173 1.73-1.293.497-.06 1.83-.198 2.03-.437v1.074c0 .954-.756 1.89-2.148 1.89zm8.545 3.898c1.83 0 3.3-.835 3.3-2.804v-7.855h-1.133v1.213h-.12c-.258-.398-.736-1.313-2.227-1.313-1.93 0-3.26 1.53-3.26 3.878 0 2.386 1.392 3.74 3.24 3.74 1.492 0 1.97-.875 2.227-1.293h.1v1.55c0 1.273-.895 1.85-2.128 1.85-1.387 0-1.874-.73-2.188-1.154l-.934.656c.477.8 1.417 1.532 3.122 1.532zm-.04-4.196c-1.47 0-2.227-1.114-2.227-2.705 0-1.55.736-2.804 2.227-2.804 1.432 0 2.188 1.154 2.188 2.804 0 1.7-.776 2.705-2.188 2.705zm8.59 1.332c2.068 0 3.46-1.57 3.46-3.937 0-2.387-1.392-3.958-3.46-3.958s-3.46 1.57-3.46 3.958c0 2.366 1.392 3.937 3.46 3.937zm0-1.054c-1.57 0-2.287-1.352-2.287-2.883s.716-2.904 2.287-2.904 2.287 1.372 2.287 2.904-.716 2.883-2.287 2.883z" class="F"/><g stroke="#75baff" class="D G C"><g class="E"><path d="M77 144h3m-3-4h6m-6-4h6"/></g><path d="M85 131H75a2 2 0 0 0-2 2v14a2 2 0 0 0 2 2h10a2 2 0 0 0 2-2v-14a2 2 0 0 0-2-2z"/></g></g><path fill="#555759" d="M48 104h608v1H48z"/><path d="M109.088 83.205c1.892 0 2.53-1.176 2.864-1.713h.18V83h1.457V69.91h-1.508v4.832h-.128c-.333-.51-.92-1.687-2.838-1.687-2.48 0-4.194 1.97-4.194 5.063 0 3.12 1.714 5.088 4.168 5.088zm.205-1.355c-1.892 0-2.864-1.662-2.864-3.758 0-2.07.946-3.682 2.864-3.682 1.84 0 2.812 1.483 2.812 3.682 0 2.224-.997 3.758-2.812 3.758zm11.384 1.355c1.994 0 3.452-.997 3.912-2.48l-1.458-.41c-.383 1.023-1.272 1.534-2.454 1.534-1.77 0-2.992-1.144-3.062-3.247h7.127v-.64c0-3.656-2.173-4.91-4.22-4.91-2.66 0-4.423 2.097-4.423 5.114s1.74 5.037 4.577 5.037zm-3.062-5.906c.102-1.528 1.183-2.89 2.908-2.89 1.637 0 2.685 1.227 2.685 2.89h-5.593zm17.45-4.117h-1.636l-2.7 7.824h-.103l-2.7-7.824h-1.636L129.9 83h1.534l3.63-9.818zm5.756 10.023c1.995 0 3.452-.997 3.912-2.48l-1.457-.41c-.384 1.023-1.272 1.534-2.455 1.534-1.77 0-2.99-1.144-3.06-3.247h7.127v-.64c0-3.656-2.174-4.91-4.22-4.91-2.66 0-4.423 2.097-4.423 5.114s1.738 5.037 4.576 5.037zm-3.06-5.906c.102-1.528 1.182-2.89 2.908-2.89 1.636 0 2.685 1.227 2.685 2.89h-5.593zm10.93-7.39h-1.51V83h1.51V69.91zm6.752 13.295c2.66 0 4.448-2.02 4.448-5.062 0-3.068-1.79-5.088-4.448-5.088s-4.45 2.02-4.45 5.088c0 3.043 1.79 5.063 4.45 5.063zm0-1.355c-2.02 0-2.94-1.74-2.94-3.707s.92-3.733 2.94-3.733 2.94 1.764 2.94 3.733-.92 3.707-2.94 3.707zm6.75 4.832h1.51v-5.2h.128c.332.537.97 1.713 2.863 1.713 2.455 0 4.168-1.97 4.168-5.088 0-3.094-1.713-5.062-4.193-5.062-1.918 0-2.506 1.176-2.838 1.688h-.18v-1.56h-1.458v13.5zm1.483-8.59c0-2.2.972-3.682 2.813-3.682 1.917 0 2.863 1.61 2.863 3.682 0 2.097-.97 3.758-2.863 3.758-1.816 0-2.813-1.534-2.813-3.758z" class="B"/><g class="C D E G"><path d="M88.5 84.5l-6.404-6.404m0 0A6.48 6.48 0 0 0 84 73.5a6.5 6.5 0 1 0-13 0 6.5 6.5 0 0 0 6.5 6.5 6.48 6.48 0 0 0 4.596-1.904z" stroke="#e1e3e5"/><path d="M633 71l-10 10m10 0l-10-10" stroke="#b9bcbf"/></g><path d="M584.057 144h1.057v-3.188h1.91c2.032 0 2.95-1.235 2.95-2.778s-.917-2.76-2.966-2.76h-2.95V144zm1.057-4.125V136.2h1.858c1.42 0 1.96.776 1.96 1.824s-.54 1.84-1.943 1.84h-1.875zm6.424 4.125h1.005v-4.142c0-.886.7-1.534 1.654-1.534.268 0 .545.05.613.068v-1.023l-.528-.017c-.784 0-1.466.443-1.705 1.09h-.068v-.988h-.97V144zm7 .136c1.33 0 2.3-.664 2.608-1.653l-.972-.273c-.256.682-.848 1.023-1.636 1.023-1.18 0-1.995-.763-2.042-2.165h4.752v-.426c0-2.437-1.45-3.273-2.813-3.273-1.772 0-2.95 1.398-2.95 3.41s1.16 3.358 3.052 3.358zm-2.042-3.937c.07-1.02.79-1.926 1.94-1.926 1.09 0 1.8.818 1.8 1.926h-3.73zm11.634-2.744h-1.09l-1.807 5.215h-.068l-1.807-5.215h-1.09l2.42 6.545h1.022l2.42-6.545zm1.327 6.545h1.006v-6.545h-1.006V144zm.512-7.636c.392 0 .716-.307.716-.682s-.324-.682-.716-.682-.716.307-.716.682.324.682.716.682zm5.08 7.772c1.33 0 2.3-.664 2.608-1.653l-.97-.273c-.256.682-.848 1.023-1.637 1.023-1.18 0-1.994-.763-2.04-2.165h4.752v-.426c0-2.437-1.45-3.273-2.813-3.273-1.773 0-2.95 1.398-2.95 3.41s1.16 3.358 3.05 3.358zm-2.04-3.937c.068-1.02.788-1.926 1.94-1.926 1.09 0 1.8.818 1.8 1.926h-3.73zm7.764 3.8h.99l1.432-5.028h.102l1.432 5.028h.988l1.995-6.545h-1.057l-1.415 4.994h-.068l-1.38-4.994h-1.074l-1.397 5.01h-.068l-1.415-5.01h-1.057l1.994 6.545z" class="B"/><rect x="546" y="129" width="33" height="22" rx="4" fill="#242526"/><path d="M552.068 136.2h2.744v7.8h1.057v-7.8h2.744v-.937h-6.545v.937zm9.075 7.943c1.143 0 1.74-.613 1.944-1.04h.05V144h1.005v-4.312c0-2.08-1.585-2.32-2.42-2.32-.99 0-2.114.34-2.625 1.534l.955.34c.22-.477.745-.988 1.704-.988.925 0 1.38.5 1.38 1.33v.034c0 .486-.495.443-1.688.597-1.214.158-2.54.426-2.54 1.926 0 1.278.988 2.01 2.232 2.01zm.154-.903c-.8 0-1.38-.358-1.38-1.057 0-.767.7-1.005 1.483-1.108.426-.05 1.568-.17 1.74-.375v.92c0 .818-.648 1.62-1.84 1.62zm4.818.75h.972v-1.006h.12c.222.358.648 1.142 1.91 1.142 1.637 0 2.78-1.312 2.78-3.392 0-2.062-1.142-3.375-2.796-3.375-1.278 0-1.67.784-1.892 1.125h-.085v-3.22h-1.006V144zm.99-3.273c0-1.466.648-2.454 1.875-2.454 1.278 0 1.91 1.074 1.91 2.454 0 1.398-.648 2.506-1.91 2.506-1.2 0-1.875-1.023-1.875-2.506z" class="B"/></g><defs><clipPath id="A"><path fill="#fff" d="M0 0h704v336H0z"/></clipPath><clipPath id="B"><rect x="56" y="112" width="592" height="56" rx="8" fill="#fff"/></clipPath></defs></svg>