<?xml version="1.0" standalone="no"?>
<!DOCTYPE svg PUBLIC "-//W3C//DTD SVG 1.1//EN" "http://www.w3.org/Graphics/SVG/1.1/DTD/svg11.dtd" >
<svg xmlns="http://www.w3.org/2000/svg">
<defs>
  <font id="Emvicon" horiz-adv-x="256">
    <font-face font-family="Emvicon"
      units-per-em="256" ascent="256"
      descent="0" />
    <missing-glyph horiz-adv-x="0" />
    <glyph glyph-name="activity"
      unicode="&#xEA01;"
      horiz-adv-x="256" d="M101.408 233.107C98.047 231.058 99.113 233.266 71.659 171.5L57.435 139.5L42.78 139C28.277 138.505 28.094 138.47 25.111 135.609C21.224 131.881 20.397 128.074 22.508 123.624C25.268 117.808 28.379 117 48 117C68.801 117 70.729 117.611 74.378 125.352C75.712 128.184 82.497 143.325 89.455 159C96.413 174.675 102.435 187.831 102.839 188.236C103.242 188.641 111.582 152.866 121.37 108.736C131.159 64.606 139.81 27.497 140.594 26.271C141.378 25.045 143.438 23.308 145.172 22.411C147.754 21.076 148.998 20.982 152.044 21.895C154.089 22.508 156.34 23.705 157.046 24.556C157.752 25.407 167.387 46.442 178.456 71.301L198.582 116.5L213.274 117L227.967 117.5L231.211 120.747C235.774 125.313 235.773 130.687 231.21 135.253L227.966 138.5L209.233 138.781C192.87 139.026 190.064 138.836 187.057 137.281C183.851 135.622 182.595 133.201 168.754 102C160.58 83.575 153.563 68.169 153.16 67.764C152.757 67.359 144.418 103.134 134.63 147.264C124.841 191.394 116.159 228.55 115.338 229.834C113.907 232.069 108.475 235.004 105.782 234.996C105.077 234.994 103.108 234.144 101.408 233.107" />
    <glyph glyph-name="add-column"
      unicode="&#xEA02;"
      horiz-adv-x="256" d="M70.315 233.536C63.653 230.639 63.998 236.433 64.015 127.8C64.026 51.22 64.305 28.948 65.279 27C65.966 25.625 68.097 23.713 70.014 22.752C73.205 21.151 78.101 21.003 127.782 21.002C187.327 21 187.401 21.007 190.434 26.872C191.628 29.181 192 33.1 192 43.374C192 56.37 191.91 56.954 189.44 59.889C186.411 63.489 181.292 64.778 177.032 63.013C172.446 61.114 171 58.002 171 50.035L171 43L128 43L85 43L85 128L85 213L128 213L171 213L171 206.45C171 198.961 172.664 194.93 176.472 193.195C180.864 191.193 184.692 191.753 188.234 194.915L191.5 197.831L191.824 211.822C192.196 227.893 191.239 231.166 185.466 233.579C180.507 235.651 75.086 235.612 70.315 233.536M177.378 169.539C171.773 167.143 171 164.93 171 151.277L171 139L159.968 139C147.944 139 143.366 137.789 140.631 133.883C137.99 130.113 138.535 124.552 141.915 120.766L144.831 117.5L157.915 117.171L171 116.841L171 104.497C171 92.754 171.123 92.007 173.527 89.15C176.885 85.159 180.969 84.33 185.746 86.67C191.139 89.31 191.968 91.769 191.985 105.168L192 116.837L204.431 117.168C215.191 117.455 217.239 117.782 219.672 119.602C225.164 123.708 225.163 132.296 219.669 136.398C217.238 138.214 215.162 138.548 204.427 138.853L192 139.206L192 150.538C192 156.77 191.57 163.001 191.045 164.383C189.223 169.175 182.479 171.719 177.378 169.539" />
    <glyph glyph-name="add-filter"
      unicode="&#xEA03;"
      horiz-adv-x="256" d="M190 234.338C182.487 231.913 181 228.569 181 214.099L181 203L171.125 203C158.761 203 155.654 202.381 152.578 199.305C149.209 195.936 148.49 191.877 150.508 187.624C153.027 182.316 156.88 181 169.901 181L181 181L181 169.901C181 156.99 182.331 153.02 187.478 150.577C189.307 149.71 191.341 149 192 149C192.659 149 194.693 149.71 196.522 150.577C201.669 153.02 203 156.99 203 169.901L203 181L214.099 181C227.12 181 230.973 182.316 233.492 187.624C235.51 191.877 234.791 195.936 231.422 199.305C228.346 202.381 225.239 203 212.875 203L203 203L203 214.099C203 228.797 201.258 232.51 193.5 234.348C192.4 234.609 190.825 234.604 190 234.338M48.5 222.839C43.282 219.97 43.046 218.881 43.022 197.591L43 177.682L46.902 172.591C49.048 169.791 60.965 155.35 73.384 140.5L95.965 113.5L95.982 71.815C95.993 47.791 96.405 29.066 96.955 27.617C98.214 24.307 102.494 21.591 106.38 21.636C108.277 21.658 118.789 26.221 133.192 33.273C152.972 42.958 157.141 45.371 158.442 47.887C159.755 50.427 160 55.798 160 82.038L160 113.176L166.5 121.3C171.992 128.165 173 130.027 173 133.312C173 136.4 172.301 137.899 169.6 140.6C166.077 144.123 163.179 144.779 158.686 143.071C156.342 142.179 142.802 127.169 140.285 122.671C139.41 121.106 139.061 112.065 139.035 90.259L139 60.018L129.018 55.009C123.528 52.254 118.578 50 118.018 50C117.347 50 117 61.938 117 85.066C117 109.132 116.647 120.791 115.875 122.234C115.256 123.39 103.331 138.026 89.375 154.757L64 185.178L64 194.089L64 203L97.923 203L131.847 203L134.85 205.527C138.62 208.7 139.566 212.708 137.635 217.33C134.855 223.985 134.723 224.004 90.3 223.97C63.291 223.949 49.857 223.586 48.5 222.839" />
    <glyph glyph-name="add-row"
      unicode="&#xEA04;"
      horiz-adv-x="256" d="M26.381 190.09C24.665 189.044 22.753 186.729 22.131 184.945C21.344 182.688 21 165.312 21 127.819C21 68.71 21.011 68.597 26.872 65.566C29.181 64.372 33.1 64 43.374 64C56.37 64 56.954 64.09 59.889 66.56C63.865 69.905 64.931 75.115 62.547 79.542C60.275 83.761 57.302 85 49.453 85L43 85L43 128L43 171L128 171L213 171L213 128L213 85L206.547 85C198.698 85 195.725 83.761 193.453 79.542C191.069 75.115 192.135 69.905 196.111 66.56C199.046 64.09 199.63 64 212.626 64C228.035 64 231.27 65.009 233.579 70.534C235.683 75.57 235.683 180.43 233.579 185.466C230.691 192.378 236.806 192 127.8 191.996C32.95 191.993 29.391 191.926 26.381 190.09M122.117 115.369C118.211 112.634 117 108.056 117 96.032L117 85L104.635 85C93.752 85 91.963 84.758 89.707 82.984C85.886 79.979 84.546 75.023 86.372 70.652C88.66 65.176 92.034 64 105.45 64L117 64L117 52.968C117 40.256 118.311 35.925 122.872 33.566C126.698 31.588 129.302 31.588 133.128 33.566C137.689 35.925 139 40.256 139 52.968L139 64L150.55 64C163.966 64 167.34 65.176 169.628 70.652C171.454 75.023 170.114 79.979 166.293 82.984C164.037 84.758 162.248 85 151.365 85L139 85L139 96.032C139 111.734 136.237 117 128 117C126.045 117 123.397 116.266 122.117 115.369" />
    <glyph glyph-name="add-user"
      unicode="&#xEA05;"
      horiz-adv-x="256" d="M118.181 233.881C108.498 232.271 98.609 226.845 90.644 218.774C79.19 207.167 75 197.042 75 180.971C75 166.235 80.07 154.042 90.556 143.556C111.563 122.548 144.629 122.609 165.507 143.693C176.077 154.368 181.01 166.403 180.988 181.46C180.966 196.62 176.395 207.59 165.474 218.689C152.619 231.755 136.508 236.93 118.181 233.881M141.795 210.129C148.332 206.757 153.645 201.426 156.708 195.165C159.032 190.415 159.474 188.228 159.469 181.505C159.461 171.741 156.91 165.269 150.692 159.235C137.39 146.329 118.61 146.329 105.308 159.235C99.063 165.294 96.531 171.745 96.568 181.5C96.623 195.984 104.059 206.513 117.882 211.679C123.39 213.737 136.442 212.891 141.795 210.129M95.375 105.543C83.834 102.968 73.49 96.564 65.576 87.091C56.248 75.927 53.912 68.413 53.243 47.435C52.651 28.872 53.542 25.394 59.624 22.508C64.074 20.397 67.881 21.224 71.609 25.112L74.5 28.126L75 45.313C75.569 64.858 76.634 68.322 84.394 75.849C92.326 83.544 95.284 84.436 114.733 85L131.966 85.5L135.21 88.747C139.773 93.313 139.774 98.687 135.211 103.253L131.967 106.5L116.734 106.705C106.787 106.838 99.374 106.435 95.375 105.543M190 106.338C182.487 103.913 181 100.569 181 86.099L181 75L171.125 75C158.761 75 155.654 74.381 152.578 71.305C149.209 67.936 148.49 63.877 150.508 59.624C153.027 54.316 156.88 53 169.901 53L181 53L181 41.901C181 28.99 182.331 25.02 187.478 22.577C191.61 20.617 192.39 20.617 196.522 22.577C201.669 25.02 203 28.99 203 41.901L203 53L214.099 53C227.12 53 230.973 54.316 233.492 59.624C235.51 63.877 234.791 67.936 231.422 71.305C228.346 74.381 225.239 75 212.875 75L203 75L203 86.099C203 100.797 201.258 104.51 193.5 106.348C192.4 106.609 190.825 106.604 190 106.338" />
    <glyph glyph-name="add"
      unicode="&#xEA06;"
      horiz-adv-x="256" d="M122.117 211.369C117.334 208.019 117 205.389 117 171.07L117 139.076L82.917 138.788L48.834 138.5L45.917 135.234C40.911 129.629 42.33 121.949 49.011 118.494C51.401 117.258 57.524 117 84.412 117L116.924 117L117.212 82.917L117.5 48.834L120.766 45.917C125.283 41.883 130.717 41.883 135.234 45.917L138.5 48.834L138.788 82.917L139.076 117L171.588 117C198.476 117 204.599 117.258 206.989 118.494C213.67 121.949 215.089 129.629 210.083 135.234L207.166 138.5L173.083 138.788L139 139.076L139 171.07C139 205.389 138.666 208.019 133.883 211.369C132.603 212.266 129.955 213 128 213C126.045 213 123.397 212.266 122.117 211.369" />
    <glyph glyph-name="archive"
      unicode="&#xEA08;"
      horiz-adv-x="256" d="M41.576 221.517C34.283 218.519 26.947 211.532 23.805 204.592L21.5 199.5L21.197 132.5C20.884 63.093 21.185 56.428 24.972 49.102C27.407 44.394 34.35 37.811 40 34.855L44.5 32.5L128 32.5L211.5 32.5L216.54 35.161C221.87 37.974 228.807 44.793 231.358 49.725C234.685 56.159 235.124 64.646 234.809 116.501L234.5 167.5L232.148 172.702C228.979 179.708 221.017 187.102 213.687 189.844C208.169 191.909 206.35 192.001 170.712 192.018L133.5 192.035L126.5 202.737C112.027 224.864 114.165 223.957 76.5 223.954C48.062 223.953 47.385 223.905 41.576 221.517M109.423 189.945C115.449 180.991 119.488 176.043 122.279 174.195L126.349 171.5L166.758 171L207.167 170.5L210.083 167.234L213 163.968L213 112.207C213 55.436 213.239 57.726 206.989 54.494C202.639 52.245 53.361 52.245 49.011 54.494C42.677 57.769 43 53.821 43 128.088C43 195.673 43.002 195.733 45.138 198.448C46.314 199.943 48.227 201.551 49.388 202.02C50.55 202.489 62.556 202.902 76.068 202.937L100.637 203L109.423 189.945" />
    <glyph glyph-name="arrow"
      unicode="&#xEA09;"
      horiz-adv-x="256" d="M144.5 190.894C140.777 188.745 139.045 185.635 139.022 181.06C139 176.626 139.028 176.591 157.694 157.832L176.387 139.044L112.611 138.772L48.835 138.5L45.918 135.234C40.911 129.63 42.33 121.949 49.011 118.494C51.484 117.216 60.881 117 114.166 117L176.431 117L157.715 98.19C140.295 80.682 139 79.128 139 75.737C139 68.394 143.186 64 150.182 64C153.15 64 156.304 66.841 183.231 93.769L213 123.537L213 127.984L213 132.431L183.695 161.784C156.647 188.877 154.086 191.173 150.445 191.594C148.275 191.844 145.6 191.529 144.5 190.894" />
    <glyph glyph-name="article"
      unicode="&#xEA07;"
      horiz-adv-x="256" d="M67.131 233.811C57.607 231.685 48.545 223.572 44.86 213.874C43.102 209.248 43 204.527 43 128.027C43 49.303 43.056 46.927 45.016 41.686C47.266 35.672 54.156 27.982 59.933 25.034C67.5 21.174 73.331 20.86 131.5 21.186C187.117 21.498 187.539 21.516 193.137 23.779C200.655 26.82 208.281 34.461 210.971 41.651C212.948 46.937 213 49.133 213 128.027C213 204.527 212.898 209.248 211.14 213.874C207.317 223.934 198.418 231.672 188.134 233.878C181.503 235.3 73.534 235.24 67.131 233.811M186.288 211.915C187.598 211.318 189.419 209.561 190.335 208.01C191.85 205.446 192 198.227 192 128.046C192 44.291 192.161 46.761 186.528 44.195C184.595 43.314 169.193 43 127.903 43C67.142 43 67.711 42.95 65.195 48.472C64.301 50.432 64 70.536 64 128.143C64 198.325 64.149 205.443 65.67 208.019C66.589 209.574 68.276 211.3 69.42 211.855C72.405 213.304 183.116 213.36 186.288 211.915M89.77 179.034C83.796 174.334 84.088 165.746 90.353 161.926C93.294 160.133 95.747 160.007 127.8 160.004C166.127 160 166.9 160.122 169.628 166.652C171.454 171.023 170.114 175.979 166.293 178.984C163.832 180.92 162.308 181 128 181C93.989 181 92.149 180.905 89.77 179.034M91.321 137.387C88.404 135.948 85 130.893 85 128C85 125.007 88.424 120.027 91.478 118.577C96.436 116.225 159.564 116.225 164.522 118.577C167.576 120.027 171 125.007 171 128C171 130.993 167.576 135.973 164.522 137.423C159.584 139.766 96.082 139.735 91.321 137.387M90.353 94.074C86.782 91.896 84.565 86.582 85.565 82.598C85.924 81.166 87.554 78.87 89.186 77.497C92.132 75.018 92.296 75 112 75C131.767 75 131.859 75.01 134.85 77.527C138.62 80.7 139.566 84.708 137.635 89.33C135.125 95.339 132.562 96.001 111.8 95.996C95.522 95.993 93.152 95.781 90.353 94.074" />
    <glyph glyph-name="at"
      unicode="&#xEA0A;"
      horiz-adv-x="256" d="M127.5 234.355C76.967 230.457 45.31 206.723 28.637 160.234C21.471 140.252 19.373 112.397 23.722 94.99C28.05 77.669 34.396 65.32 45.063 53.459C69.138 26.688 105.15 16.543 150.994 23.617C162.504 25.393 175.026 28.502 180.679 30.987C190.377 35.251 190.346 47.75 180.63 50.957C177.841 51.878 175.99 51.659 169.395 49.628C151.862 44.23 139.055 42.591 119.643 43.262C107.177 43.692 102.916 44.255 95.537 46.449C81.762 50.546 73.709 55.204 64.412 64.453C50.174 78.619 44.092 92.87 43.267 114C42.503 133.577 45.736 148.615 54.552 166.5C63.449 184.547 74.163 195.57 90.5 203.483C105.338 210.67 114.417 212.514 134.5 212.421C149.954 212.349 152.3 212.098 160.297 209.662C175.433 205.05 187.624 197.81 195.586 188.702C203.522 179.626 210.319 165.798 212.055 155.197C213.905 143.905 212.729 126.002 209.365 114.262C205.851 101.992 197.246 94.451 187.717 95.291C181.688 95.823 178.721 98.489 175.895 105.915C173.913 111.126 173.812 112.706 174.399 129.5C174.745 139.4 175.657 152.897 176.426 159.494C178.495 177.257 177.268 179.255 161.99 182.993C120.768 193.081 89.648 176.594 79.895 139.5C77.381 129.937 76.92 115.021 78.891 107C83.163 89.614 96.991 76.908 114.684 74.11C127.043 72.156 142.129 76.393 153.527 85.02L159.681 89.679L161.94 86.382C167.411 78.399 176.964 74 188.833 74C217.736 74 234.292 99.136 234.28 143C234.276 158.827 232.372 167.495 225.95 180.928C211.019 212.162 183.153 230.304 144.5 233.958C138.45 234.53 133.05 234.923 132.5 234.831C131.95 234.739 129.7 234.525 127.5 234.355M152.859 163.32C154.944 162.797 155.15 162.31 154.63 159.114C154.308 157.126 153.511 146.725 152.86 136C151.53 114.066 150.875 111.838 143.747 104.987C134.318 95.923 121.025 92.628 111.657 97.031C103.312 100.954 99.12 108.655 99.044 120.201C98.964 132.386 103.096 144.924 109.878 153.071C113.488 157.408 123.428 162.875 129.812 164.036C134.471 164.882 148.349 164.452 152.859 163.32" />
    <glyph glyph-name="back"
      unicode="&#xEA0B;"
      horiz-adv-x="256" d="M107.11 211.604C103.988 209.874 102.08 206.318 102.035 202.15C102.009 199.646 102.858 197.942 105.4 195.4L108.8 192L134.65 191.983C163.114 191.964 170.485 191.038 178.976 186.417C200.027 174.959 208.129 151.947 198.372 131.322C193.503 121.029 178.9 110.377 166.52 108.088C162.823 107.405 143.499 107 114.58 107L68.528 107L81.793 120.293C92.696 131.218 95.163 134.228 95.644 137.194C96.74 143.95 91.868 149 84.252 149C80.82 149 79.181 147.588 57.349 125.828C44.562 113.084 33.576 101.391 32.936 99.845C30.335 93.567 31.527 91.913 56.802 66.718C79.389 44.203 80.786 43 84.347 43C91.614 43 96 47.222 96 54.217C96 56.889 94.029 59.329 82.355 71.11L68.711 84.88L118.605 85.226L168.5 85.572L176.631 88.102C197.682 94.65 215.442 111.896 221.551 131.72C223.951 139.511 224.438 153.379 222.615 162C217.481 186.266 196.169 206.811 171.17 211.595C161.045 213.532 110.601 213.539 107.11 211.604" />
    <glyph glyph-name="billing"
      unicode="&#xEA0C;"
      horiz-adv-x="256" d="M39.324 211.362C33.65 209.352 26.661 202.979 23.834 197.239L21.5 192.5L21.5 128L21.5 63.5L23.834 58.761C25.117 56.155 28.18 52.251 30.639 50.086C39.065 42.67 34.526 43 128 43C221.474 43 216.935 42.67 225.361 50.086C227.82 52.251 230.883 56.155 232.166 58.761L234.5 63.5L234.5 127C234.5 176.886 234.216 191.442 233.173 194.892C231.352 200.921 223.081 209.103 216.563 211.324C212.106 212.842 203.739 212.993 127.572 212.921C56.047 212.854 42.877 212.621 39.324 211.362M210.777 190.443C212.792 189.032 213 188.051 213 179.943L213 171L128 171L43 171L43 179.943C43 188.051 43.208 189.032 45.223 190.443C47.189 191.821 56.71 192 128 192C199.29 192 208.811 191.821 210.777 190.443M213 108.057L213 67.113L210.777 65.557C208.811 64.179 199.29 64 128 64C56.71 64 47.189 64.179 45.223 65.557L43 67.113L43 108.057L43 149L128 149L213 149L213 108.057M58.353 94.074C54.782 91.896 52.565 86.582 53.565 82.598C53.924 81.166 55.554 78.87 57.186 77.497L60.153 75L85.654 75L111.154 75L114.077 77.923C119.116 82.962 117.708 91.614 111.316 94.883C109.887 95.614 100.893 95.999 85.316 95.996C63.6 95.993 61.223 95.823 58.353 94.074M175.973 94.296C172.037 91.583 171.066 89.79 171.032 85.173C171.006 81.7 171.577 80.269 173.923 77.923C176.744 75.103 177.179 75 186.346 75C195.048 75 196.099 75.212 198.85 77.527C200.502 78.917 202.137 81.345 202.483 82.923C203.372 86.972 200.78 92.545 197.128 94.434C192.803 96.67 179.29 96.582 175.973 94.296" />
    <glyph glyph-name="bold"
      unicode="&#xEA0D;"
      horiz-adv-x="256" d="M58.381 222.09C56.665 221.044 54.753 218.729 54.131 216.945C53.324 214.63 53 189.111 53 127.819C53 55.856 53.23 41.384 54.421 38.534C57.178 31.936 56.64 32 109.314 32C136.85 32 158.985 32.421 162.114 33.005C179.487 36.248 194.901 51.265 200.6 70.5C202.935 78.381 202.922 92.444 200.573 100.5C197.207 112.039 190.342 122.159 181.115 129.185L177.729 131.762L182.477 138.415C194.405 155.131 196.047 176.934 186.797 195.781C182.871 203.781 172.879 214.282 165.425 218.239C155.05 223.749 152.411 224 105.04 223.996C64.011 223.993 61.32 223.883 58.381 222.09M153.863 200.172C165.01 194.224 171.001 183.751 170.999 170.212C170.999 163.77 170.524 161.512 168.118 156.5C164.745 149.474 159.305 143.925 153 141.077C148.741 139.153 146.529 139.043 111.75 139.022L75 139L75 171.056L75 203.112L112.25 202.806C149.048 202.504 149.553 202.472 153.863 200.172M163.538 114.634C169.912 111.666 176.301 104.47 179.064 97.147C182.025 89.298 181.453 77.671 177.751 70.442C174.585 64.26 169.089 58.774 163.042 55.762C158.576 53.538 157.799 53.495 116.75 53.19L75 52.88L75 84.94L75 117L116.75 116.99C158.445 116.98 158.507 116.977 163.538 114.634" />
    <glyph glyph-name="bookmark"
      unicode="&#xEA0E;"
      horiz-adv-x="256" d="M67.131 233.811C57.607 231.685 48.545 223.572 44.86 213.874C43.096 209.232 43 204.289 43 118.566L43 28.153L45.48 25.206C48.3 21.855 52.776 20.584 56.616 22.044C58.055 22.591 74.367 33.91 92.866 47.198C111.365 60.485 127.175 71.352 128 71.345C128.825 71.339 144.93 60.265 163.789 46.738C182.647 33.21 199.377 21.856 200.966 21.508C204.351 20.764 209.123 22.909 211.439 26.217C212.826 28.196 213 38.533 213 118.712C213 204.293 212.903 209.233 211.14 213.874C207.317 223.934 198.418 231.672 188.134 233.878C181.503 235.3 73.534 235.24 67.131 233.811M186.359 211.882C187.708 211.268 189.549 209.355 190.45 207.632C191.933 204.796 192.06 197.349 191.794 128.838L191.5 53.177L161.5 74.576C136.16 92.652 130.956 95.976 128 95.976C125.044 95.976 119.84 92.652 94.5 74.576L64.5 53.177L64.206 128.838C63.939 197.439 64.065 204.793 65.555 207.641C66.459 209.369 68.166 211.251 69.349 211.824C72.461 213.329 183.061 213.385 186.359 211.882" />
    <glyph glyph-name="calender"
      unicode="&#xEA0F;"
      horiz-adv-x="256" d="M81.5 234.055C77.098 232.253 75.521 229.123 75 221.149L74.5 213.5L59.5 213C46.462 212.565 43.886 212.198 39.807 210.188C33.279 206.973 27.281 200.83 24.151 194.155L21.5 188.5L21.204 121.224C21.016 78.448 21.28 51.939 21.928 48.429C24 37.221 29.605 29.797 39.771 24.792L46.458 21.5L128 21.5L209.542 21.5L216.229 24.792C226.395 29.797 232 37.221 234.072 48.429C234.72 51.939 234.984 78.448 234.796 121.224L234.5 188.5L231.849 194.155C228.719 200.83 222.721 206.973 216.193 210.188C212.029 212.24 209.782 212.536 196.25 212.82L181 213.141L181 220.494C181 226.899 180.674 228.234 178.473 230.85C175.3 234.62 171.292 235.566 166.67 233.635C161.9 231.642 160 227.63 160 219.55L160 213L128 213L96 213L96 219.55C96 227.547 94.091 231.646 89.466 233.579C85.665 235.167 84.402 235.242 81.5 234.055M75 184.423C75 177.382 75.207 176.639 77.923 173.923C80.05 171.796 81.808 171 84.376 171C92.658 171 96 175.154 96 185.45L96 192L128 192L160 192L160 185.45C160 175.154 163.342 171 171.624 171C174.192 171 175.95 171.796 178.077 173.923C180.793 176.639 181 177.382 181 184.423L181 192L193.066 192C212.729 192 212.948 191.727 212.978 167.25L213 149L128 149L43 149L43.022 167.25C43.052 191.726 43.207 191.921 62.75 191.97L75 192L75 184.423M213 88.423L213 48.846L210.077 45.923L207.154 43L128 43L48.846 43L45.923 45.923L43 48.846L43 88.423L43 128L128 128L213 128L213 88.423" />
    <glyph glyph-name="check"
      unicode="&#xEA10;"
      horiz-adv-x="256" d="M198.789 191.318C197.848 191.071 175.863 168.176 149.934 140.44L102.791 90.013L81.334 110.756C69.532 122.165 58.499 132.086 56.816 132.803C50.116 135.655 43.024 130.466 42.972 122.673C42.945 118.526 43.111 118.337 69.222 92.686C83.675 78.489 97.035 66.19 98.912 65.355C106.193 62.117 104.53 60.632 159.538 119.526C187.537 149.503 211.005 175.036 211.688 176.265C216.476 184.884 208.724 193.93 198.789 191.318" />
    <glyph glyph-name="checkbox"
      unicode="&#xEA11;"
      horiz-adv-x="256" d="M72.782 222.447C55.851 218.342 41.136 205.175 34.754 188.419C32.515 182.54 32.5 182.133 32.5 128L32.5 73.5L35.209 66.74C41.816 50.252 55.557 37.864 72.131 33.453C76.448 32.304 87.397 32.024 128 32.024C182.644 32.024 183.462 32.092 194.869 37.601C202.386 41.232 214.769 53.705 218.331 61.235C223.94 73.09 224.13 75.543 223.773 131.371C223.454 181.4 223.399 182.627 221.219 188.419C214.88 205.263 200.026 218.424 182.76 222.494C173.913 224.58 81.417 224.541 72.782 222.447M184.161 199.72C190.949 196.386 196.293 190.738 199.865 183.12L202.5 177.5L202.815 132.666C203.134 87.324 202.643 78.265 199.512 71.666C196.568 65.462 191.171 60.209 184.229 56.792L177.542 53.5L128 53.5L78.458 53.5L71.771 56.792C61.728 61.736 56.056 69.158 53.988 80.063C52.694 86.887 52.694 169.113 53.988 175.937C55.251 182.599 57.25 186.763 61.648 191.902C65.912 196.884 72.28 200.762 78.147 201.951C80.541 202.437 104.1 202.759 130.5 202.667L178.5 202.5L184.161 199.72M165.108 168.75C163.354 167.513 150.499 154.204 136.539 139.176C122.58 124.148 110.923 111.773 110.634 111.676C110.345 111.579 105.846 115.434 100.638 120.243C95.429 125.052 89.926 129.458 88.41 130.034C81.884 132.516 75.016 127.217 74.98 119.673C74.961 115.629 75.355 115.12 87.73 103.179C104.622 86.881 106.16 85.727 111.006 85.727C113.184 85.727 115.724 86.351 116.649 87.114C118.401 88.556 170.678 144.325 177.25 151.762C180.172 155.068 181 156.84 181 159.78C181 164.452 178.763 167.783 174.401 169.606C169.917 171.48 168.834 171.38 165.108 168.75" />
    <glyph glyph-name="chevron"
      unicode="&#xEA12;"
      horiz-adv-x="256" d="M58.353 158.074C54.839 155.931 52.561 150.597 53.523 146.764C53.873 145.371 69.001 129.483 88.85 109.664L123.566 75L128 75L132.434 75L167.18 109.694C190.524 133.003 202.121 145.275 202.52 147.09C204.282 155.114 194.925 162.559 187.684 158.895C186.483 158.287 172.563 144.902 156.75 129.151L128 100.513L99.25 129.151C83.438 144.902 69.517 158.287 68.316 158.895C65.123 160.51 61.916 160.246 58.353 158.074" />
    <glyph glyph-name="circle-12"
      unicode="&#xEA13;"
      horiz-adv-x="256" d="M115.881 201.999C87.757 197.523 63.27 175.157 55.837 147.154C52.932 136.207 52.944 119.242 55.865 108.691C63.026 82.82 83.269 62.626 108.846 55.837C119.424 53.03 136.576 53.03 147.154 55.837C167.898 61.344 185.4 75.843 195.446 95.846C204.572 114.016 204.572 141.984 195.446 160.154C185.23 180.495 168.09 194.667 146.5 200.623C140.088 202.391 123.136 203.153 115.881 201.999M141.458 179.469C155.002 175.941 169.653 164.389 175.242 152.829C188.836 124.717 177.959 93.005 150.146 79.659C141.95 75.727 140.957 75.496 130.726 75.146C118.594 74.731 113.698 75.664 104.511 80.144C90.741 86.857 80.023 100.172 76.048 115.5C75.478 117.7 75.009 123.471 75.006 128.324C74.993 148.201 85.433 165.556 103.051 174.946C106.171 176.61 111.149 178.623 114.112 179.419C121.264 181.343 134.174 181.366 141.458 179.469" />
    <glyph glyph-name="circle-18"
      unicode="&#xEA14;"
      horiz-adv-x="256" d="M115.434 233.886C100.676 232.334 82.214 225.457 68.09 216.251C60.729 211.453 44.409 195.057 39.487 187.515C27.473 169.105 21.786 149.994 21.778 128C21.767 97.671 33.066 71.408 55.12 50.5C96.042 11.703 159.958 11.703 200.88 50.5C222.697 71.184 234.16 97.643 234.237 127.5C234.271 140.697 233.133 148.302 229.302 160.456C222.776 181.164 209.573 199.887 192.202 213.068C177.801 223.995 157.15 232.09 138.89 233.963C127.745 235.107 127.022 235.105 115.434 233.886M149.5 210.573C157.566 208.389 170.996 201.894 178.428 196.581C195.134 184.641 207.717 164.618 211.693 143.648C213.742 132.843 212.981 115.344 210.011 105C201.556 75.543 179.276 53.772 148.998 45.383C139.849 42.848 116.151 42.848 107.002 45.383C68.28 56.112 43 88.744 43 128C43 168.49 71.099 203.013 111 211.546C119.462 213.355 141.256 212.805 149.5 210.573" />
    <glyph glyph-name="close"
      unicode="&#xEA15;"
      horiz-adv-x="256" d="M70.388 191.02C65.165 188.909 62.533 181.767 65.106 176.684C65.714 175.483 76.614 164.046 89.329 151.269L112.446 128.038L88.848 104.269C75.869 91.196 64.926 79.448 64.53 78.163C61.829 69.399 71.291 61.043 79.316 65.106C80.517 65.714 91.963 76.623 104.75 89.348L128 112.484L151.25 89.348C164.037 76.623 175.483 65.714 176.684 65.106C184.709 61.043 194.171 69.399 191.47 78.163C191.074 79.448 180.131 91.196 167.152 104.269L143.554 128.038L166.671 151.269C179.386 164.046 190.286 175.483 190.894 176.684C194.955 184.705 186.63 194.142 177.837 191.483C176.552 191.095 164.808 180.148 151.74 167.156L127.98 143.536L104.74 166.662C91.958 179.381 80.517 190.286 79.316 190.894C76.774 192.181 73.38 192.229 70.388 191.02" />
    <glyph glyph-name="code"
      unicode="&#xEA16;"
      horiz-adv-x="256" d="M145.096 222.785C143.774 222.078 141.878 220.375 140.881 219C138.216 215.321 95.698 44.422 96.451 40.411C98.181 31.188 112.08 29.296 115.936 37.759C116.544 39.094 126.737 78.957 138.586 126.343C153.729 186.902 159.957 213.417 159.549 215.589C158.396 221.739 150.497 225.671 145.096 222.785M68.5 179.108C63.577 176.015 23.22 134.742 22.023 131.576C19.745 125.552 21.094 123.655 44.37 100.167C56.541 87.884 67.715 77.197 69.2 76.417C73.767 74.02 78.758 74.604 82.077 77.923C84.482 80.328 85 81.683 85 85.565L85 90.283L66.284 109.165L47.568 128.047L65.177 145.773C74.862 155.523 83.285 164.483 83.893 165.684C87.421 172.646 82.745 181.004 75.327 180.996C73.222 180.994 70.15 180.144 68.5 179.108M173.923 178.077C170.754 174.907 170.009 169.825 172.107 165.684C172.715 164.483 181.138 155.523 190.823 145.773L208.432 128.047L189.716 109.165L171 90.283L171 85.565C171 81.683 171.518 80.328 173.923 77.923C177.245 74.601 182.241 74.02 186.8 76.425C190.957 78.619 232.728 121.116 233.978 124.424C236.255 130.449 234.906 132.345 211.63 155.833C199.459 168.116 188.285 178.803 186.8 179.583C182.233 181.98 177.242 181.396 173.923 178.077" />
    <glyph glyph-name="color"
      unicode="&#xEA17;"
      horiz-adv-x="256" d="M186.5 233.912C184.526 233.347 175.834 225.375 161.078 210.597L138.657 188.14L134.292 191.143C127.465 195.84 122.114 197.254 112.727 196.841C99.098 196.242 99.028 196.189 59.14 156.597C38.159 135.772 23.192 120.136 22.333 118.146C19.904 112.515 21.241 110.143 33.889 97.651L45.685 86L53.717 86L61.749 86L62.199 77.434L62.648 68.868L85.074 46.333C97.408 33.939 108.85 23.209 110.5 22.49C116.595 19.833 118.005 20.851 145.5 47.771C196.359 97.566 196.663 97.938 197.759 111.592C198.5 120.812 194.566 132.795 189.389 137.092C188.087 138.173 191.094 141.586 210.387 160.927C222.772 173.342 233.395 184.816 233.994 186.424C234.593 188.032 234.824 190.526 234.507 191.967C233.74 195.462 195.435 233.583 192 234.27C190.625 234.545 188.15 234.384 186.5 233.912M186.103 166.513C173.503 153.856 162.893 142.48 162.525 141.234C161.404 137.443 163.741 132.688 169.536 126.964C179.275 117.346 178.987 110.802 168.358 100.173L161.917 93.732L136.209 119.043C122.069 132.963 106.684 148.093 102.019 152.664L93.539 160.976L99.519 167.064C106.504 174.174 109.566 176 114.5 176C119.152 176 122.552 174.16 127.5 168.966C132.19 164.043 137.13 161.65 140.895 162.477C142.65 162.862 151.552 171.041 166.529 186.029L189.474 208.99L199.242 199.258L209.011 189.527L186.103 166.513M139.99 85.318L146.479 79.002L130.501 63.001L114.523 47L99.342 62.158L84.16 77.316L83.83 89.242L83.5 101.169L80.234 104.084C77.039 106.937 76.727 107 65.776 107L54.584 107L50.774 110.721L46.964 114.441L62.692 130.192L78.42 145.943L105.96 118.789C121.107 103.854 136.42 88.792 139.99 85.318" />
    <glyph glyph-name="command"
      unicode="&#xEA18;"
      horiz-adv-x="256" d="M37.42 211.855C34.008 210.2 31.688 205.31 32.357 201.185C32.863 198.069 36.994 193.517 62.2 168.3L91.456 139.032L62.348 109.766C46.338 93.67 32.918 79.448 32.525 78.163C29.736 69.046 39.415 60.981 47.8 65.434C51.054 67.163 114.322 130.575 115.895 133.684C116.503 134.886 117 137.578 117 139.668C117 143.328 115.723 144.745 82.234 178.234C47.965 212.504 47.411 212.999 43.484 212.932C41.293 212.895 38.564 212.411 37.42 211.855M122.353 62.09C118.783 59.894 116.567 54.575 117.565 50.598C117.924 49.166 119.554 46.87 121.186 45.497L124.153 43L170.03 43C219.304 43 219.947 43.063 222.575 48.145C224.847 52.538 224.348 56.579 221.083 60.234L218.165 63.5L171.833 63.763C127.516 64.014 125.363 63.941 122.353 62.09" />
    <glyph glyph-name="compass"
      unicode="&#xEA19;"
      horiz-adv-x="256" d="M115.434 233.886C100.676 232.334 82.214 225.457 68.09 216.251C60.729 211.453 44.409 195.057 39.487 187.515C27.473 169.105 21.786 149.994 21.778 128C21.767 97.671 33.066 71.408 55.12 50.5C96.042 11.703 159.958 11.703 200.88 50.5C222.697 71.184 234.16 97.643 234.237 127.5C234.271 140.697 233.133 148.302 229.302 160.456C222.776 181.164 209.573 199.887 192.202 213.068C177.801 223.995 157.15 232.09 138.89 233.963C127.745 235.107 127.022 235.105 115.434 233.886M149.5 210.573C157.566 208.389 170.996 201.894 178.428 196.581C195.134 184.641 207.717 164.618 211.693 143.648C213.742 132.843 212.981 115.344 210.011 105C201.556 75.543 179.276 53.772 148.998 45.383C139.849 42.848 116.151 42.848 107.002 45.383C68.28 56.112 43 88.744 43 128C43 168.49 71.099 203.013 111 211.546C119.462 213.355 141.256 212.805 149.5 210.573M134.664 170.046C113.135 162.926 101.009 158.418 99.451 156.954C96.565 154.242 75 90.629 75 84.827C75 79.848 79.698 75 84.523 75C86.376 75 102.903 79.94 121.25 85.977C145.757 94.041 155.197 97.58 156.828 99.317C159.34 101.991 181 165.596 181 170.299C181 176.266 176.575 180.97 171 180.93C169.075 180.917 152.724 176.019 134.664 170.046M153 152.251C153 151.839 150.272 143.317 146.938 133.313L140.875 115.125L122.375 108.958C112.2 105.567 103.631 103.036 103.333 103.333C103.036 103.631 105.567 112.2 108.958 122.375L115.124 140.875L132.812 146.858C150.966 153 153 153.543 153 152.251" />
    <glyph glyph-name="connect"
      unicode="&#xEA1A;"
      horiz-adv-x="256" d="M104.5 211.123C84.572 207.463 70.537 202.411 56 193.667C41.33 184.842 28.803 173.962 26.991 168.472C24.265 160.211 33.71 152.099 41.316 156.169C42.517 156.812 46.626 160.028 50.448 163.317C59 170.677 68.85 177.119 77.454 180.979C120.549 200.315 169.962 193.7 204.857 163.924C213.174 156.827 216.012 155.012 218.8 155.005C225.692 154.989 231.094 162.155 228.992 168.525C226.731 175.375 207.66 190.339 190.207 198.958C171.835 208.03 154.567 211.998 131 212.564C117.971 212.876 112.396 212.573 104.5 211.123M114.315 159.063C107.016 157.896 95.449 154.26 89.525 151.268C78.165 145.532 65.56 134.825 64.503 130.015C63.628 126.03 66.25 120.439 69.872 118.566C75.557 115.626 77.804 116.44 88.196 125.201C97.374 132.938 114.747 138.93 128 138.93C141.253 138.93 158.626 132.938 167.804 125.201C178.196 116.44 180.443 115.626 186.128 118.566C189.75 120.439 192.372 126.03 191.497 130.015C190.828 133.06 183.224 140.738 176 145.663C162.986 154.535 148.815 158.942 131.5 159.503C124.9 159.716 117.167 159.518 114.315 159.063M122.054 105.838C106.784 103.376 95.181 88.506 96.265 72.789C97.074 61.045 103.369 51.575 114.205 45.796C117.815 43.871 120.015 43.506 128 43.506C135.985 43.506 138.185 43.871 141.795 45.796C156.814 53.806 163.61 70.461 157.964 85.419C155.453 92.07 149.632 98.971 143.558 102.496C139.973 104.576 137.906 105.153 129.5 106.416C128.4 106.581 125.049 106.321 122.054 105.838M133.883 83.369C139.238 79.619 139.76 70.808 134.889 66.4C131.993 63.779 123.995 63.79 121.09 66.419C116.531 70.544 116.751 78.564 121.538 82.75C124.634 85.457 130.484 85.75 133.883 83.369" />
    <glyph glyph-name="copy"
      unicode="&#xEA1B;"
      horiz-adv-x="256" d="M110.147 233.951C101.556 232.21 92.526 224.843 88.447 216.247C86.216 211.546 84.535 200.291 85.386 195.754C86.933 187.51 96.838 184.203 103.133 189.828C106.022 192.409 106.354 193.336 106.935 200.446C107.497 207.316 107.899 208.517 110.342 210.618L113.112 213L160.133 213L207.154 213L210.077 210.077L213 207.154L213 160.133L213 113.112L210.618 110.342C208.517 107.899 207.316 107.497 200.446 106.935C193.336 106.354 192.409 106.022 189.828 103.133C184.831 97.541 186.389 89.919 193.254 86.369C200.98 82.374 219.208 87.752 226.394 96.147C234.85 106.026 235.191 108.768 234.813 163.818L234.5 209.5L231.865 215.12C228.293 222.738 222.949 228.386 216.161 231.72L210.5 234.5L162.5 234.667C136.1 234.759 112.541 234.437 110.147 233.951M46.147 169.951C40.28 168.762 33.912 164.884 29.648 159.902C25.25 154.763 23.251 150.599 21.988 143.937C20.694 137.113 20.694 54.887 21.988 48.063C24.056 37.158 29.728 29.736 39.771 24.792L46.458 21.5L96 21.5L145.542 21.5L152.229 24.792C159.132 28.19 164.567 33.459 167.462 39.56C170.727 46.442 171.13 53.678 170.813 99.818L170.5 145.5L167.865 151.12C164.293 158.738 158.949 164.386 152.161 167.72L146.5 170.5L98.5 170.667C72.1 170.759 48.541 170.437 46.147 169.951M146.077 146.077L149 143.154L149 96L149 48.846L146.077 45.923L143.154 43L96 43L48.846 43L45.923 45.923L43 48.846L43 96L43 143.154L45.923 146.077L48.846 149L96 149L143.154 149L146.077 146.077" />
    <glyph glyph-name="delete-column"
      unicode="&#xEA1C;"
      horiz-adv-x="256" d="M70.315 233.536C64.772 231.126 63.808 227.715 64.176 211.822L64.5 197.831L67.766 194.915C71.421 191.652 75.463 191.154 79.855 193.425C83.611 195.367 85 198.91 85 206.547L85 213L128 213L171 213L171 206.45C171 198.961 172.664 194.93 176.472 193.195C180.864 191.193 184.692 191.753 188.234 194.915L191.5 197.831L191.824 211.822C192.196 227.893 191.239 231.166 185.466 233.579C180.507 235.651 75.086 235.612 70.315 233.536M91.321 169.387C87.255 167.381 84.614 162.032 85.562 157.719C86.059 155.457 90.047 150.681 99.304 141.266L112.346 128L99.304 114.734C90.047 105.319 86.059 100.543 85.562 98.281C84.001 91.174 91.174 84.001 98.281 85.562C100.544 86.059 105.322 90.05 114.748 99.318L128.028 112.373L140.788 99.748C153.862 86.812 157.345 84.478 162.033 85.507C165.309 86.227 169.633 90.593 170.484 94.039C171.593 98.532 169.128 102.199 156.238 115.226L143.599 128L156.238 140.774C169.188 153.861 171.523 157.344 170.493 162.033C169.773 165.309 165.407 169.633 161.961 170.484C157.468 171.593 153.801 169.128 140.774 156.238L128 143.599L115.226 156.238C103.676 167.667 99.197 171.045 95.685 170.977C95.033 170.965 93.069 170.249 91.321 169.387M70.388 63.02C69.227 62.551 67.314 60.943 66.138 59.448C64.19 56.972 64.001 55.522 64.015 43.115C64.031 27.769 64.728 25.402 70.014 22.752C73.205 21.151 78.101 21.003 127.782 21.002C187.327 21 187.401 21.007 190.434 26.872C191.628 29.181 192 33.1 192 43.374C192 56.37 191.91 56.954 189.44 59.889C186.411 63.489 181.292 64.778 177.032 63.013C172.446 61.114 171 58.002 171 50.035L171 43L128 43L85 43L84.978 50.25C84.961 55.605 84.504 58.058 83.228 59.633C79.943 63.688 75.163 64.949 70.388 63.02" />
    <glyph glyph-name="delete-row"
      unicode="&#xEA1D;"
      horiz-adv-x="256" d="M26.381 190.131C24.665 189.062 22.753 186.729 22.131 184.945C21.344 182.688 21 165.312 21 127.819C21 68.71 21.011 68.597 26.872 65.566C29.181 64.372 33.1 64 43.374 64C56.37 64 56.954 64.09 59.889 66.56C63.865 69.905 64.931 75.115 62.547 79.542C60.275 83.761 57.302 85 49.453 85L43 85L43 128L43 171L49.453 171C57.09 171 60.633 172.389 62.575 176.145C64.846 180.537 64.348 184.579 61.085 188.234L58.169 191.5L43.835 191.787C31.077 192.042 29.157 191.859 26.381 190.131M198.388 191.02C192.888 188.798 190.533 181.738 193.425 176.145C195.367 172.389 198.91 171 206.547 171L213 171L213 128L213 85L206.547 85C198.698 85 195.725 83.761 193.453 79.542C191.069 75.115 192.135 69.905 196.111 66.56C199.046 64.09 199.63 64 212.626 64C228.035 64 231.27 65.009 233.579 70.534C235.683 75.57 235.683 180.43 233.579 185.466C231.284 190.958 227.988 192.009 213.3 191.937C206.26 191.902 199.55 191.489 198.388 191.02M91.321 169.387C87.255 167.381 84.614 162.032 85.562 157.719C86.059 155.457 90.047 150.681 99.304 141.266L112.346 128L99.304 114.734C90.047 105.319 86.059 100.543 85.562 98.281C84.001 91.174 91.174 84.001 98.281 85.562C100.544 86.059 105.322 90.05 114.748 99.318L128.028 112.373L140.788 99.748C153.862 86.812 157.345 84.478 162.033 85.507C165.309 86.227 169.633 90.593 170.484 94.039C171.593 98.532 169.128 102.199 156.238 115.226L143.599 128L156.238 140.774C169.188 153.861 171.523 157.344 170.493 162.033C169.773 165.309 165.407 169.633 161.961 170.484C157.468 171.593 153.801 169.128 140.774 156.238L128 143.599L115.226 156.238C103.676 167.667 99.197 171.045 95.685 170.977C95.033 170.965 93.069 170.249 91.321 169.387" />
    <glyph glyph-name="delete-table"
      unicode="&#xEA1E;"
      horiz-adv-x="256" d="M40.431 211.182C37.643 210.218 34.043 208.398 32.431 207.136C28.788 204.285 24.402 197.885 22.821 193.113C21.18 188.159 20.423 78.726 21.962 68.809C23.859 56.581 29.681 48.76 39.667 45.024C44.936 43.052 47.202 43 128 43C208.798 43 211.064 43.052 216.333 45.024C226.319 48.76 232.141 56.581 234.038 68.809C235.577 78.726 234.82 188.159 233.179 193.113C231.477 198.25 227.039 204.52 222.993 207.505C215.449 213.071 216.634 213.003 127.568 212.967C52.011 212.937 45.098 212.796 40.431 211.182M210.545 189.545L213 187.091L213 128L213 68.909L210.545 66.455L208.091 64L128 64L47.909 64L45.455 66.455L43 68.909L43 128L43 187.091L45.455 189.545L47.909 192L128 192L208.091 192L210.545 189.545M91.321 169.387C87.255 167.381 84.614 162.032 85.562 157.719C86.059 155.457 90.047 150.681 99.304 141.266L112.346 128L99.304 114.734C90.047 105.319 86.059 100.543 85.562 98.281C84.001 91.174 91.174 84.001 98.281 85.562C100.544 86.059 105.322 90.05 114.748 99.318L128.028 112.373L140.788 99.748C153.862 86.812 157.345 84.478 162.033 85.507C165.309 86.227 169.633 90.593 170.484 94.039C171.593 98.532 169.128 102.199 156.238 115.226L143.599 128L156.238 140.774C169.188 153.861 171.523 157.344 170.493 162.033C169.773 165.309 165.407 169.633 161.961 170.484C157.468 171.593 153.801 169.128 140.774 156.238L128 143.599L115.226 156.238C103.676 167.667 99.197 171.045 95.685 170.977C95.033 170.965 93.069 170.249 91.321 169.387" />
    <glyph glyph-name="disconnect"
      unicode="&#xEA1F;"
      horiz-adv-x="256" d="M219.469 233.499C217.802 232.654 209.536 225.049 201.1 216.6L185.761 201.237L179.913 203.613C151.347 215.221 111.932 215.894 81 205.302C73.481 202.727 60.648 196.758 54.033 192.759C42.313 185.673 28.589 173.314 26.96 168.379C24.907 162.158 30.396 154.99 37.2 155.005C39.988 155.012 42.826 156.827 51.143 163.924C81.594 189.908 122.652 198.359 162.406 186.826L169.312 184.822L156.651 172.161L143.99 159.5L128.245 159.409C114.201 159.328 111.549 159.03 103.693 156.647C89.715 152.407 80.173 146.994 70.31 137.709C67.431 134.999 64.846 131.573 64.503 130.015C63.628 126.03 66.25 120.439 69.872 118.566C75.558 115.626 77.973 116.433 87 124.294C94.996 131.257 110.952 138 119.432 138C122.165 138 118.78 134.329 82.722 98.197L43 58.394L43 53.62C43 49.677 43.509 48.337 45.923 45.923C49.247 42.6 54.245 42.019 58.8 44.428C63.09 46.697 232.723 217.125 233.974 220.424C235.462 224.348 234.479 228.166 231.165 231.342C227.677 234.684 223.373 235.478 219.469 233.499M206.272 177.472C203.086 174.286 202.798 173.546 203.295 169.834C204.006 164.535 211.669 156.34 216.817 155.375C221.713 154.456 226.73 157.11 228.612 161.614C230.836 166.937 229.631 170.222 223.348 175.965C218.645 180.263 217.25 181 213.819 181C210.553 181 209.139 180.339 206.272 177.472M170.353 141.074C166.833 138.927 164.458 133.352 165.536 129.766C166.39 126.926 172.619 120.298 176.2 118.418C181.474 115.649 187.768 117.717 190.572 123.138C192.927 127.693 191.748 131.864 186.742 136.683C179.649 143.511 175.967 144.497 170.353 141.074M132.93 101.732C129.246 99.249 127.368 94.653 128.384 90.604C128.734 89.213 131.04 86.082 133.51 83.647C137.553 79.661 138 78.757 138 74.565C138 70.976 137.447 69.356 135.586 67.495C130.666 62.575 124.547 63.029 119.619 68.68C115.423 73.491 111.281 75.192 106.785 73.951C102.372 72.733 100.068 70.194 99.348 65.756C98.172 58.51 106.14 48.962 116.64 45.033C132.262 39.188 149.419 45.955 156.713 60.839C159.1 65.71 159.482 67.686 159.446 75C159.396 85.22 156.843 91.124 149.582 97.818C142.325 104.507 138.413 105.427 132.93 101.732" />
    <glyph glyph-name="download"
      unicode="&#xEA20;"
      horiz-adv-x="256" d="M124.5 234.084C123.4 233.608 121.375 232.009 120 230.529L117.5 227.84L117.224 175.231L116.948 122.623L98.724 140.695C88.701 150.635 79.448 159.088 78.163 159.479C69.044 162.254 60.998 152.606 65.421 144.2C66.202 142.715 79.365 129.064 94.671 113.864C123.943 84.794 125.402 83.693 131.576 86.019C134.868 87.259 188.358 140.009 190.573 144.2C195.01 152.596 186.958 162.255 177.837 159.479C176.552 159.088 167.299 150.635 157.276 140.695L139.052 122.623L138.776 175.293L138.5 227.963L135.5 230.958C132.272 234.182 127.718 235.476 124.5 234.084M28.5 106.084C27.4 105.608 25.375 104.009 24 102.531C21.505 99.848 21.499 99.798 21.198 76.93C20.892 53.754 21.609 45.733 24.538 39.56C27.433 33.459 32.868 28.19 39.771 24.792L46.458 21.5L128 21.5L209.542 21.5L216.229 24.792C223.132 28.19 228.567 33.459 231.462 39.56C234.392 45.736 235.108 53.754 234.802 76.991L234.5 99.965L231.253 103.21C226.687 107.774 221.313 107.774 216.747 103.21L213.5 99.966L213 73.894L212.5 47.822L209.694 45.411L206.888 43L128 43L49.112 43L46.306 45.411L43.5 47.822L43 73.894L42.5 99.966L39.5 102.96C36.272 106.182 31.717 107.475 28.5 106.084" />
    <glyph glyph-name="edit"
      unicode="&#xEA21;"
      horiz-adv-x="256" d="M187.448 233.448C185.769 232.62 162.317 209.792 135.332 182.721L86.268 133.5L80.507 110.224C76.326 93.329 74.91 85.927 75.342 83.224C76.081 78.598 80.192 75.012 84.765 75.005C86.562 75.002 98.262 77.537 110.765 80.637L133.5 86.274L182.738 135.352C209.819 162.345 232.687 185.929 233.557 187.762C236.497 193.957 235.209 196.019 216.729 214.704C201.141 230.466 195.528 235.039 191.849 234.977C191.107 234.965 189.126 234.277 187.448 233.448M42.724 211.473C34.29 208.377 27.408 201.656 23.296 192.5C21.635 188.802 21.478 183.426 21.204 121.224C21.016 78.448 21.28 51.939 21.928 48.429C24 37.221 29.605 29.797 39.771 24.792L46.458 21.5L116.979 21.5L187.5 21.5L193.137 23.779C200.655 26.82 208.281 34.461 210.971 41.651C212.821 46.598 213 49.396 213 73.461L213 99.847L210.473 102.85C207.3 106.62 203.292 107.566 198.67 105.635C192.42 103.024 192 101.065 192 74.5C192 48.855 191.574 46.494 186.528 44.195C184.578 43.306 166.603 43 116.376 43L48.846 43L45.923 45.923L43 48.846L43.022 117.173C43.043 180.402 43.173 185.659 44.772 187.633C48.083 191.72 49.99 192 74.484 192C101.051 192 103.025 192.421 105.628 198.652C107.454 203.023 106.114 207.979 102.293 210.984C99.864 212.895 98.343 212.996 73.115 212.93C53.055 212.876 45.57 212.518 42.724 211.473M200.51 199.99L208.472 191.981L165.193 148.693L121.913 105.404L111.216 102.776C105.332 101.331 100.429 100.238 100.319 100.348C100.209 100.457 101.273 105.262 102.683 111.024L105.247 121.5L148.369 164.75C172.086 188.538 191.729 208 192.019 208C192.309 208 196.13 204.396 200.51 199.99" />
    <glyph glyph-name="enlarge"
      unicode="&#xEA23;"
      horiz-adv-x="256" d="M144.5 222.859C140.836 220.808 139.045 217.641 139.022 213.173C139.004 209.707 139.582 208.265 141.923 205.923L144.846 203L166.128 203L187.409 203L163.205 178.665L139 154.33L139 149.588C139 145.68 139.514 144.332 141.923 141.923C145.092 138.754 150.174 138.009 154.316 140.106C155.517 140.714 166.963 151.623 179.75 164.348L203 187.484L203 166.165L203 144.846L205.923 141.923C210.75 137.096 220.087 138.505 222.805 144.472C223.659 146.345 224 157.074 224 182.031L224 216.968L221.083 220.234L218.166 223.5L182.333 223.74C157.33 223.907 145.896 223.641 144.5 222.859M37.349 115.824C36.166 115.251 34.451 113.369 33.537 111.641C32.062 108.851 31.911 104.554 32.188 73.167L32.5 37.834L35.766 34.917L39.032 32L74.065 32C112.069 32 113.391 32.173 115.805 37.472C117.943 42.164 117.3 46.854 114.077 50.077L111.154 53L89.835 53L68.516 53L91.652 76.25C104.377 89.037 115.286 100.483 115.894 101.684C120.586 110.951 110.951 120.586 101.684 115.894C100.483 115.286 89.037 104.377 76.25 91.652L53 68.516L53 89.835L53 111.154L50.077 114.077C46.941 117.212 41.704 117.931 37.349 115.824" />
    <glyph glyph-name="error"
      unicode="&#xEA22;"
      horiz-adv-x="256" d="M115.434 233.886C100.676 232.334 82.214 225.457 68.09 216.251C60.729 211.453 44.409 195.057 39.487 187.515C27.473 169.105 21.786 149.994 21.778 128C21.767 97.671 33.066 71.408 55.12 50.5C96.042 11.703 159.958 11.703 200.88 50.5C222.697 71.184 234.16 97.643 234.237 127.5C234.271 140.697 233.133 148.302 229.302 160.456C222.776 181.164 209.573 199.887 192.202 213.068C177.801 223.995 157.15 232.09 138.89 233.963C127.745 235.107 127.022 235.105 115.434 233.886M149.5 210.573C157.566 208.389 170.996 201.894 178.428 196.581C195.134 184.641 207.717 164.618 211.693 143.648C213.742 132.843 212.981 115.344 210.011 105C201.556 75.543 179.276 53.772 148.998 45.383C139.849 42.848 116.151 42.848 107.002 45.383C68.28 56.112 43 88.744 43 128C43 168.49 71.099 203.013 111 211.546C119.462 213.355 141.256 212.805 149.5 210.573M122.304 190.044C117.155 186.904 116.845 184.272 117.19 146.667L117.5 112.834L120.766 109.917C125.283 105.883 130.717 105.883 135.234 109.917L138.5 112.834L138.81 146.667C139.02 169.49 138.758 181.736 138.006 184.298C136.774 188.495 132.225 191.993 128 191.993C126.625 191.993 124.062 191.116 122.304 190.044M120.789 82.102C112.622 74.806 120.473 61.552 131.148 64.614C135.486 65.858 138.455 70.136 138.455 75.145C138.455 80.651 133.841 85 128 85C125.035 85 123.212 84.268 120.789 82.102" />
    <glyph glyph-name="expand"
      unicode="&#xEA24;"
      horiz-adv-x="256" d="M68.5 179.108C63.577 176.015 23.22 134.742 22.023 131.576C19.745 125.552 21.094 123.655 44.37 100.167C56.541 87.884 67.715 77.197 69.2 76.417C73.767 74.02 78.758 74.604 82.077 77.923C84.475 80.321 85 81.687 85 85.524C85 90.18 84.937 90.266 71.827 103.601L58.654 117L83.377 117C103.355 117 108.654 117.287 110.989 118.494C117.669 121.949 119.089 129.629 114.084 135.234L111.168 138.5L85.065 139L58.962 139.5L70.551 151C76.925 157.325 82.783 163.715 83.57 165.2C89.022 175.494 78.38 185.315 68.5 179.108M173.923 178.077C170.599 174.753 170.019 169.753 172.43 165.2C173.217 163.715 179.075 157.325 185.449 151L197.038 139.5L170.935 139L144.832 138.5L141.916 135.234C136.911 129.629 138.331 121.949 145.011 118.494C147.346 117.287 152.645 117 172.623 117L197.346 117L184.173 103.601C171.063 90.266 171 90.18 171 85.524C171 81.687 171.525 80.321 173.923 77.923C177.245 74.601 182.241 74.02 186.8 76.425C190.957 78.619 232.728 121.116 233.978 124.424C236.255 130.449 234.906 132.345 211.63 155.833C199.459 168.116 188.285 178.803 186.8 179.583C182.233 181.98 177.242 181.396 173.923 178.077" />
    <glyph glyph-name="file"
      unicode="&#xEA25;"
      horiz-adv-x="256" d="M146.181 233.881C135.576 232.117 127.132 227.14 114.821 215.397C87.153 189.004 36.891 138.702 34.025 134.537C25.576 122.256 21.725 109.414 21.72 93.5C21.707 56.074 48.048 26.611 85.554 22.097C103.793 19.901 122.351 24.265 136.669 34.116C139.306 35.931 162.031 57.592 187.169 82.252C220.306 114.76 233.18 128.016 233.987 130.459C235.209 134.163 233.735 139.318 230.744 141.798C228.289 143.834 222.599 144.378 219.691 142.854C218.262 142.105 196.626 121.396 171.61 96.832C129.709 55.69 125.55 51.889 118.813 48.585C107.792 43.179 95.539 41.622 82.891 44.021C65.166 47.382 48.072 63.711 44.061 81.112C42.627 87.328 42.785 100.606 44.361 106.5C47.967 119.977 52.109 124.669 110.105 180.976C135.996 206.112 139.27 208.958 144.605 210.962C163.854 218.19 185.748 205.749 188.964 185.756C190.047 179.029 188.575 170.838 185.273 165.203C182.716 160.839 111.184 90.78 106.805 88.35C105.537 87.647 102.603 87.055 100.285 87.035C92.356 86.969 85.497 95.972 87.932 103.25C88.679 105.482 98.61 115.884 119.653 136.472C136.502 152.957 150.857 167.807 151.553 169.472C154.788 177.215 147.552 185.61 139.405 183.566C137.853 183.176 123.838 170.237 104.518 151.356C66.934 114.628 66.486 114.022 66.522 100C66.548 89.55 69.267 82.972 76.613 75.586C83.709 68.452 90.512 65.611 100.5 65.611C110.068 65.611 117.581 68.56 124.905 75.191C140.894 89.666 200.326 148.832 202.888 152.825C212.603 167.965 213.402 188.357 204.936 205.127C200.712 213.494 189.378 224.706 180.969 228.836C169.997 234.224 158.375 235.91 146.181 233.881" />
    <glyph glyph-name="filter"
      unicode="&#xEA26;"
      horiz-adv-x="256" d="M48.5 222.839C43.282 219.97 43.046 218.881 43.022 197.591L43 177.682L46.902 172.591C49.048 169.791 60.965 155.35 73.384 140.5L95.965 113.5L95.982 71.7C95.997 37.088 96.25 29.417 97.456 27.085C99.241 23.633 105.181 20.609 108.276 21.577C109.499 21.96 120.936 27.358 133.692 33.573C153.061 43.011 157.14 45.37 158.442 47.887C159.754 50.425 160.003 55.837 160.018 82.2L160.035 113.5L182.616 140.5C195.035 155.35 206.952 169.791 209.098 172.591L213 177.682L212.978 197.591C212.954 219.008 212.703 220.128 207.316 222.883C204.254 224.449 51.35 224.407 48.5 222.839M192 194.078L192 185.156L166.197 154.311C152.005 137.347 140.08 122.65 139.697 121.652C139.313 120.653 139 106.377 139 89.927L139 60.018L129.018 55.009C123.528 52.254 118.578 50 118.018 50C117.347 50 117 61.938 117 85.066C117 109.132 116.647 120.791 115.875 122.234C115.256 123.39 103.331 138.026 89.375 154.757L64 185.178L64 194.089L64 203L128 203L192 203L192 194.078" />
    <glyph glyph-name="flash"
      unicode="&#xEA27;"
      horiz-adv-x="256" d="M134.231 233.771C132.195 232.79 36.227 116.627 33.285 111.583C31.585 108.667 31.713 103.855 33.561 101.217C37.132 96.118 38.143 96 78.276 96L115.651 96L111.357 66.25C108.996 49.887 107.049 34.622 107.032 32.327C106.973 24.608 114.749 19.106 121.419 22.145C124.054 23.346 221.164 141.071 223.194 145.526C224.925 149.327 223.333 154.644 219.614 157.481L216.311 160L178.33 160L140.349 160L144.643 189.75C147.004 206.113 148.951 221.312 148.968 223.527C149.007 228.427 146.842 231.75 142.401 233.606C138.51 235.231 137.311 235.256 134.231 233.771M119.88 167.75C118.353 157.162 117.355 147.486 117.661 146.247C117.968 145.008 119.554 142.87 121.186 141.497L124.153 139L157.16 139C178.292 139 190.047 138.647 189.833 138.019C189.468 136.946 135.019 70.13 133.992 69.495C133.644 69.28 134.598 77.718 136.112 88.246C138.506 104.893 138.692 107.803 137.538 110.564C134.836 117.03 135.019 117 98.694 117C77.553 117 65.952 117.351 66.167 117.985C66.509 118.999 121.905 187 122.387 187C122.535 187 121.407 178.338 119.88 167.75" />
    <glyph glyph-name="follow"
      unicode="&#xEA28;"
      horiz-adv-x="256" d="M157 234.315C154.149 233.242 150.095 228.709 149.479 225.906C148.596 221.882 151.452 216.488 155.478 214.577C158.149 213.31 162.6 213 178.128 213L197.454 213L147.337 162.75C119.772 135.112 96.902 111.448 96.515 110.163C93.863 101.367 103.292 93.048 111.316 97.104C112.517 97.712 135.887 120.547 163.25 147.851L213 197.492L213 178.147C213 156.186 213.685 153.326 219.624 150.508C224.075 148.396 227.882 149.224 231.609 153.114L234.5 156.131L234.5 192.046L234.5 227.962L231.232 231.231L227.964 234.5L193.232 234.69C174.129 234.795 157.825 234.626 157 234.315M46.147 201.945C40.286 200.765 33.916 196.888 29.648 191.902C25.25 186.763 23.251 182.599 21.988 175.937C20.674 169.009 20.674 54.991 21.988 48.063C24.056 37.158 29.728 29.736 39.771 24.792L46.458 21.5L112 21.5L177.542 21.5L184.229 24.792C194.272 29.736 199.944 37.158 202.012 48.063C202.555 50.928 203 65.376 203 80.169C203 109.025 202.553 112.098 197.883 115.369C194.897 117.461 189.103 117.461 186.117 115.369C181.394 112.061 181 109.181 181 77.955L181 48.846L178.077 45.923L175.154 43L112 43L48.846 43L45.923 45.923L43 48.846L43 112L43 175.154L45.923 178.077L48.846 181L78.473 181C102.801 181 108.616 181.267 110.989 182.494C117.669 185.949 119.089 193.629 114.083 199.234L111.167 202.5L80.833 202.661C64.15 202.749 48.541 202.427 46.147 201.945" />
    <glyph glyph-name="globe"
      unicode="&#xEA29;"
      horiz-adv-x="256" d="M118 233.814C83.06 231.236 48.799 208.001 33.008 176.176C24.918 159.869 21.657 146.03 21.657 128C21.657 98.397 31.781 74.112 52.946 52.946C69.027 36.866 85.509 27.956 107.5 23.455C134.089 18.013 163.765 24.002 187.765 39.653C195.151 44.47 211.53 60.849 216.347 68.235C235.103 96.996 239.569 132.114 228.436 163.297C217.087 195.084 192.095 219.322 160.341 229.337C146.298 233.766 134.397 235.024 118 233.814M98.92 205.25C87.287 186.096 79.893 167.438 77.024 150C74.991 137.644 77.153 139 59.481 139C41.475 139 42.492 138.088 46.068 151.02C51.853 171.94 66.674 191.11 85.366 201.848C88.637 203.727 99.745 208.829 100.849 208.959C101.041 208.982 100.173 207.312 98.92 205.25M164.987 204.848C170.21 202.793 183.737 192.957 189.163 187.268C199.25 176.692 206.829 163.167 210.408 149.353C213.29 138.234 214.318 139 196.519 139C178.851 139 181.042 137.628 178.942 150C175.955 167.597 168.286 187.087 157.37 204.824L154.709 209.148L158.605 207.487C160.747 206.573 163.619 205.386 164.987 204.848M132.522 202.75C142.705 189.211 148.142 179.216 152.93 165.23C155.594 157.45 159 143.242 159 139.912C159 139.382 146.007 139 128 139C109.993 139 97 139.382 97 139.912C97 146.715 104.028 170.095 109.11 180.198C113.589 189.103 126.429 208 128 208C128.315 208 130.35 205.638 132.522 202.75M75.449 114.75C75.717 113.512 76.634 108.593 77.488 103.818C78.341 99.043 80.177 91.618 81.567 87.318C84.147 79.343 93.755 58.944 98.572 51.217L101.242 46.934L95.871 49.036C72.324 58.252 52.981 79.979 46.068 104.98C42.492 117.912 41.475 117 59.481 117C74.724 117 74.969 116.965 75.449 114.75M159 116.088C159 109.285 151.972 85.905 146.89 75.802C142.411 66.897 129.571 48 128 48C126.429 48 113.589 66.897 109.11 75.802C104.028 85.905 97 109.285 97 116.088C97 116.618 109.993 117 128 117C146.007 117 159 116.618 159 116.088M212 114.894C212 113.736 211.284 110.025 210.408 106.647C203.71 80.796 184.22 58.464 160.129 49.036L154.758 46.934L157.395 51.217C168.279 68.897 175.957 88.418 178.942 106C181.042 118.372 178.851 117 196.519 117C211.592 117 212 116.945 212 114.894" />
    <glyph glyph-name="group"
      unicode="&#xEA2A;"
      horiz-adv-x="256" d="M86.181 233.881C76.498 232.271 66.609 226.845 58.644 218.774C47.19 207.167 43 197.042 43 180.971C43 166.235 48.07 154.042 58.556 143.556C79.563 122.548 112.629 122.609 133.507 143.693C144.077 154.368 149.01 166.403 148.988 181.46C148.966 196.62 144.395 207.59 133.474 218.689C120.619 231.755 104.508 236.93 86.181 233.881M155.321 233.387C152.404 231.948 149 226.893 149 224C149 221.664 152.031 216.462 154.17 215.126C155.364 214.38 159.406 213.385 163.152 212.915C174.839 211.447 183.78 205.237 188.708 195.165C191.032 190.415 191.474 188.228 191.469 181.505C191.461 171.741 188.91 165.269 182.692 159.235C177.021 153.733 171.736 151.199 162.628 149.615C154.241 148.156 151.644 146.482 149.988 141.465C148.536 137.065 150.736 131.705 154.872 129.566C161.098 126.347 174.307 128.381 185.333 134.258C188.631 136.016 194.109 140.262 197.507 143.693C208.077 154.368 213.01 166.403 212.988 181.46C212.966 196.62 208.395 207.59 197.474 218.689C189.203 227.095 179.641 232.204 168.923 233.943C160.506 235.308 159.101 235.251 155.321 233.387M109.795 210.129C116.332 206.757 121.645 201.426 124.708 195.165C127.032 190.415 127.474 188.228 127.469 181.505C127.461 171.741 124.91 165.269 118.692 159.235C105.39 146.329 86.61 146.329 73.308 159.235C67.063 165.294 64.531 171.745 64.568 181.5C64.623 195.984 72.059 206.513 85.882 211.679C91.39 213.737 104.442 212.891 109.795 210.129M63.375 105.548C51.822 102.961 41.487 96.56 33.576 87.091C24.248 75.927 21.912 68.413 21.243 47.435C20.651 28.872 21.542 25.394 27.624 22.508C32.074 20.397 35.881 21.224 39.609 25.112L42.5 28.126L43 45.313C43.454 60.916 43.721 62.932 45.894 67.183C48.832 72.932 55.01 79.059 61 82.166C65.427 84.462 65.997 84.5 96 84.5C126.003 84.5 126.573 84.462 131 82.166C136.99 79.059 143.168 72.932 146.106 67.183C148.275 62.94 148.547 60.901 149.003 45.5C149.556 26.782 150.032 25.162 155.788 22.431C160.069 20.399 163.93 21.274 167.609 25.111C170.421 28.043 170.509 28.456 170.836 40.153C171.021 46.769 170.688 55.853 170.097 60.341C167.527 79.851 153.529 97.007 134.557 103.898C127.661 106.403 126.838 106.467 98.5 106.69C76.86 106.861 67.945 106.572 63.375 105.548M171.321 105.459C168.397 103.951 165 98.867 165 96C165 93.638 168.042 88.455 170.25 87.053C171.517 86.249 176.456 85.358 181.56 85.012C191.962 84.309 197.076 82.183 203.606 75.849C211.346 68.342 212.431 64.836 213.003 45.5C213.556 26.782 214.032 25.162 219.788 22.431C224.069 20.399 227.93 21.274 231.609 25.111C234.421 28.043 234.509 28.456 234.836 40.153C235.322 57.58 233.866 66.786 229.083 76.507C225.011 84.784 217.552 93.248 209.557 98.664C199.721 105.326 178.405 109.115 171.321 105.459" />
    <glyph glyph-name="h1"
      unicode="&#xEA2B;"
      horiz-adv-x="256" d="M26.381 222.09C24.665 221.044 22.753 218.729 22.131 216.945C21.324 214.63 21 189.111 21 127.819C21 33.741 20.816 36.698 26.872 33.566C30.698 31.588 33.302 31.588 37.128 33.566C42.784 36.491 43 38.178 43 79.468L43 117L91 117L139 117L139 78.45C139 36.637 139.121 35.633 144.472 33.195C148.866 31.193 152.692 31.753 156.234 34.918L159.5 37.836L159.766 127.322L160.031 216.809L157.455 219.871C154.41 223.489 149.302 224.782 145.032 223.013C138.949 220.494 139 220.872 139 178.035L139 139L91 139L43 139L43 176.532C43 217.822 42.784 219.509 37.128 222.434C33.133 224.5 30.177 224.405 26.381 222.09M200.516 167.878C186.836 164.505 184.412 163.231 182.367 158.336C180.407 153.644 182.024 148.587 186.353 145.87C189.497 143.897 191.851 143.84 199.75 145.548L203 146.25L203 126.625L203 107L198.125 107C190.859 107 187.303 106.03 184.578 103.305C181.209 99.936 180.49 95.877 182.508 91.624C185.499 85.321 187.84 84.859 215.091 85.2L239.167 85.5L242.084 88.766C244.21 91.147 245 93.051 245 95.793C245 103.061 239.563 107 229.532 107L224 107L224 134.55C224 157.166 223.73 162.622 222.49 165.02C219.422 170.953 215.209 171.501 200.516 167.878" />
    <glyph glyph-name="h2"
      unicode="&#xEA2C;"
      horiz-adv-x="256" d="M26.381 222.09C24.665 221.044 22.753 218.729 22.131 216.945C21.324 214.63 21 189.111 21 127.819C21 33.741 20.816 36.698 26.872 33.566C30.698 31.588 33.302 31.588 37.128 33.566C42.784 36.491 43 38.178 43 79.468L43 117L91 117L139 117L139 78.45C139 36.637 139.121 35.633 144.472 33.195C148.866 31.193 152.692 31.753 156.234 34.918L159.5 37.836L159.766 127.322L160.031 216.809L157.455 219.871C154.41 223.489 149.302 224.782 145.032 223.013C138.949 220.494 139 220.872 139 178.035L139 139L91 139L43 139L43 176.532C43 217.822 42.784 219.509 37.128 222.434C33.133 224.5 30.177 224.405 26.381 222.09M204.375 170.059C194.992 168.558 186.376 161.688 183.544 153.449C181.017 146.098 185.58 139 192.833 139C197.289 139 200.089 140.791 203 145.499C204.775 148.372 205.764 149 208.51 149C212.738 149 215 146.771 215 142.603C215 138.757 213.166 136.897 204 131.444C190.296 123.292 184.006 114.978 181.901 102.233C180.909 96.224 180.982 94.84 182.456 91.733C185.449 85.427 188.073 84.845 211.949 85.194C231.376 85.478 233.059 85.649 235.671 87.602C241.162 91.706 241.163 100.296 235.673 104.395C233.254 106.201 231.03 106.563 219.682 106.996L206.5 107.5L213 111.686C225.827 119.947 229.11 122.564 231.942 126.783C241.325 140.762 236.361 160.435 221.704 167.355C215.761 170.161 210.32 171.01 204.375 170.059" />
    <glyph glyph-name="h3"
      unicode="&#xEA2D;"
      horiz-adv-x="256" d="M26.381 222.09C24.665 221.044 22.753 218.729 22.131 216.945C21.324 214.63 21 189.111 21 127.819C21 33.741 20.816 36.698 26.872 33.566C30.698 31.588 33.302 31.588 37.128 33.566C42.784 36.491 43 38.178 43 79.468L43 117L91 117L139 117L139 78.45C139 36.637 139.121 35.633 144.472 33.195C148.866 31.193 152.692 31.753 156.234 34.918L159.5 37.836L159.766 127.322L160.031 216.809L157.455 219.871C154.41 223.489 149.302 224.782 145.032 223.013C138.949 220.494 139 220.872 139 178.035L139 139L91 139L43 139L43 176.532C43 217.822 42.784 219.509 37.128 222.434C33.133 224.5 30.177 224.405 26.381 222.09M189.327 170.304C186.296 169.714 182.249 165.409 181.494 161.974C180.595 157.879 183.416 152.505 187.478 150.577C189.376 149.677 193.419 149 196.901 149C200.256 149 203 148.822 203 148.605C203 148.387 201.615 144.956 199.923 140.979C197.828 136.056 197.051 132.934 197.487 131.196C197.839 129.792 201.474 125.086 205.564 120.739C209.654 116.391 213 112.229 213 111.488C213 109.109 209.951 107 206.51 107C203.764 107 202.775 107.628 201 110.501C198.117 115.165 195.293 117 191 117C184.327 117 179.142 110.478 180.911 104.31C183.88 93.957 192.229 87.251 204.272 85.546C219.307 83.418 234.248 96.431 234.36 111.751C234.409 118.576 232.739 122.205 225.883 130.17L221.003 135.839L226.101 146.326C231.668 157.775 232.472 162.694 229.35 166.199C225.756 170.234 221.929 171.008 206.282 170.864C198.152 170.789 190.522 170.537 189.327 170.304" />
    <glyph glyph-name="header-cell"
      unicode="&#xEA2E;"
      horiz-adv-x="256" d="M41.576 189.517C34.277 186.517 26.94 179.525 23.815 172.592C21.587 167.649 21.51 166.477 21.18 132.62C20.738 87.278 21.53 82.576 31.167 73.355C37.663 67.139 43.17 64.748 52.235 64.207C61.291 63.666 65.423 64.984 67.547 69.091C69.975 73.786 69.414 78.74 66.077 82.077C63.539 84.615 62.413 85 57.527 85C54.433 85 50.6 85.672 49.011 86.494C42.913 89.648 43 89.044 43 128.207L43 163.968L45.828 167.133C48.409 170.022 49.336 170.354 56.446 170.935C63.316 171.497 64.517 171.899 66.618 174.342C71.006 179.444 69.337 187.804 63.316 190.883C59.366 192.903 48.089 192.195 41.576 189.517M192.5 190.839C186.618 187.604 185.061 179.366 189.382 174.342C191.483 171.899 192.684 171.497 199.554 170.935C206.664 170.354 207.591 170.022 210.172 167.133L213 163.968L213 128.207C213 89.044 213.087 89.648 206.989 86.494C205.4 85.672 201.567 85 198.473 85C193.587 85 192.461 84.615 189.923 82.077C186.586 78.74 186.025 73.786 188.453 69.091C190.577 64.983 194.708 63.666 203.765 64.209C213.175 64.773 219.687 67.767 225.705 74.296C234.675 84.027 235.258 87.756 234.82 132.62C234.488 166.686 234.425 167.621 232.138 172.702C228.984 179.705 221.027 187.098 213.687 189.844C207.356 192.213 195.97 192.748 192.5 190.839M88.766 178.082L85.5 175.164L85.5 128L85.5 80.836L88.766 77.918C93.282 73.883 98.717 73.882 103.234 77.916L106.5 80.831L106.813 98.916L107.126 117L128 117L148.874 117L149.187 98.916L149.5 80.831L152.766 77.916C157.283 73.882 162.718 73.883 167.234 77.918L170.5 80.836L170.5 128L170.5 175.164L167.234 178.082C162.718 182.117 157.283 182.118 152.766 178.084L149.5 175.169L149.187 157.084L148.874 139L128 139L107.126 139L106.813 157.084L106.5 175.169L103.234 178.084C98.717 182.118 93.282 182.117 88.766 178.082" />
    <glyph glyph-name="header-column"
      unicode="&#xEA2F;"
      horiz-adv-x="256" d="M70.315 233.536C64.772 231.126 63.808 227.715 64.176 211.822L64.5 197.831L67.766 194.915C71.421 191.652 75.463 191.154 79.855 193.425C83.611 195.367 85 198.91 85 206.547L85 213L128 213L171 213L171 206.45C171 198.961 172.664 194.93 176.472 193.195C180.864 191.193 184.692 191.753 188.234 194.915L191.5 197.831L191.824 211.822C192.196 227.893 191.239 231.166 185.466 233.579C180.507 235.651 75.086 235.612 70.315 233.536M88.766 178.082L85.5 175.164L85.5 128L85.5 80.836L88.766 77.918C93.282 73.883 98.717 73.882 103.234 77.916L106.5 80.831L106.813 98.916L107.126 117L128 117L148.874 117L149.187 98.916L149.5 80.831L152.766 77.916C157.283 73.882 162.718 73.883 167.234 77.918L170.5 80.836L170.5 128L170.5 175.164L167.234 178.082C162.718 182.117 157.283 182.118 152.766 178.084L149.5 175.169L149.187 157.084L148.874 139L128 139L107.126 139L106.813 157.084L106.5 175.169L103.234 178.084C98.717 182.118 93.282 182.117 88.766 178.082M70.388 63.02C69.227 62.551 67.314 60.943 66.138 59.448C64.19 56.972 64.001 55.522 64.015 43.115C64.031 27.769 64.728 25.402 70.014 22.752C73.205 21.151 78.101 21.003 127.782 21.002C187.327 21 187.401 21.007 190.434 26.872C191.628 29.181 192 33.1 192 43.374C192 56.37 191.91 56.954 189.44 59.889C186.411 63.489 181.292 64.778 177.032 63.013C172.446 61.114 171 58.002 171 50.035L171 43L128 43L85 43L84.978 50.25C84.961 55.605 84.504 58.058 83.228 59.633C79.943 63.688 75.163 64.949 70.388 63.02" />
    <glyph glyph-name="header-row"
      unicode="&#xEA30;"
      horiz-adv-x="256" d="M26.381 190.131C24.665 189.062 22.753 186.729 22.131 184.945C21.344 182.688 21 165.312 21 127.819C21 68.71 21.011 68.597 26.872 65.566C29.181 64.372 33.1 64 43.374 64C56.37 64 56.954 64.09 59.889 66.56C63.865 69.905 64.931 75.115 62.547 79.542C60.275 83.761 57.302 85 49.453 85L43 85L43 128L43 171L49.453 171C57.09 171 60.633 172.389 62.575 176.145C64.846 180.537 64.348 184.579 61.085 188.234L58.169 191.5L43.835 191.787C31.077 192.042 29.157 191.859 26.381 190.131M198.388 191.02C192.888 188.798 190.533 181.738 193.425 176.145C195.367 172.389 198.91 171 206.547 171L213 171L213 128L213 85L206.547 85C198.698 85 195.725 83.761 193.453 79.542C191.069 75.115 192.135 69.905 196.111 66.56C199.046 64.09 199.63 64 212.626 64C228.035 64 231.27 65.009 233.579 70.534C235.683 75.57 235.683 180.43 233.579 185.466C231.284 190.958 227.988 192.009 213.3 191.937C206.26 191.902 199.55 191.489 198.388 191.02M88.766 178.082L85.5 175.164L85.5 128L85.5 80.836L88.766 77.918C93.282 73.883 98.717 73.882 103.234 77.916L106.5 80.831L106.813 98.916L107.126 117L128 117L148.874 117L149.187 98.916L149.5 80.831L152.766 77.916C157.283 73.882 162.718 73.883 167.234 77.918L170.5 80.836L170.5 128L170.5 175.164L167.234 178.082C162.718 182.117 157.283 182.118 152.766 178.084L149.5 175.169L149.187 157.084L148.874 139L128 139L107.126 139L106.813 157.084L106.5 175.169L103.234 178.084C98.717 182.118 93.282 182.117 88.766 178.082" />
    <glyph glyph-name="help"
      unicode="&#xEA31;"
      horiz-adv-x="256" d="M115.434 233.886C100.676 232.334 82.214 225.457 68.09 216.251C60.729 211.453 44.409 195.057 39.487 187.515C27.473 169.105 21.786 149.994 21.778 128C21.767 97.671 33.066 71.408 55.12 50.5C96.042 11.703 159.958 11.703 200.88 50.5C222.697 71.184 234.16 97.643 234.237 127.5C234.271 140.697 233.133 148.302 229.302 160.456C222.776 181.164 209.573 199.887 192.202 213.068C177.801 223.995 157.15 232.09 138.89 233.963C127.745 235.107 127.022 235.105 115.434 233.886M149.5 210.573C157.566 208.389 170.996 201.894 178.428 196.581C195.134 184.641 207.717 164.618 211.693 143.648C213.742 132.843 212.981 115.344 210.011 105C201.556 75.543 179.276 53.772 148.998 45.383C139.849 42.848 116.151 42.848 107.002 45.383C68.28 56.112 43 88.744 43 128C43 168.49 71.099 203.013 111 211.546C119.462 213.355 141.256 212.805 149.5 210.573M119.459 189.605C116.686 188.931 112.282 187.347 109.672 186.083C104.137 183.404 94.54 174.945 92.45 170.904C88.512 163.289 92.918 155 100.903 155C104.458 155 105.777 155.74 111.566 160.987C121.237 169.751 131.476 172.237 140.684 168.057C147.479 164.971 149.853 157.708 146.427 150.487C145.561 148.663 140.155 142.814 134.412 137.489C122.549 126.488 119.618 122.144 118.017 113.184C116.59 105.2 117.882 100.653 122.353 97.926C130.319 93.069 139 98.922 139 109.152C139 111.941 140.571 113.9 150.852 123.934C165.345 138.078 168.157 143.011 168.784 155.392C169.645 172.415 160.948 184.469 144.119 189.577C138.541 191.269 126.367 191.284 119.459 189.605M120.789 82.102C112.622 74.806 120.473 61.552 131.148 64.614C135.486 65.858 138.455 70.136 138.455 75.145C138.455 80.651 133.841 85 128 85C125.035 85 123.212 84.268 120.789 82.102" />
    <glyph glyph-name="history"
      unicode="&#xEA32;"
      horiz-adv-x="256" d="M115.434 233.886C100.676 232.334 82.214 225.457 68.09 216.251C60.729 211.453 44.409 195.057 39.487 187.515C27.473 169.105 21.786 149.994 21.778 128C21.767 97.671 33.066 71.408 55.12 50.5C96.042 11.703 159.958 11.703 200.88 50.5C222.697 71.184 234.16 97.643 234.237 127.5C234.271 140.697 233.133 148.302 229.302 160.456C222.776 181.164 209.573 199.887 192.202 213.068C177.801 223.995 157.15 232.09 138.89 233.963C127.745 235.107 127.022 235.105 115.434 233.886M149.5 210.573C157.566 208.389 170.996 201.894 178.428 196.581C195.134 184.641 207.717 164.618 211.693 143.648C213.742 132.843 212.981 115.344 210.011 105C201.556 75.543 179.276 53.772 148.998 45.383C139.849 42.848 116.151 42.848 107.002 45.383C68.28 56.112 43 88.744 43 128C43 168.49 71.099 203.013 111 211.546C119.462 213.355 141.256 212.805 149.5 210.573M124.5 186.084C123.4 185.608 121.375 184.008 120 182.528L117.5 179.838L117.5 152.124C117.5 127.662 117.701 124.104 119.21 121.802C120.612 119.662 124.209 118.097 139.211 113.096C149.27 109.743 158.903 107 160.616 107C167.436 107 172.302 114.948 169.536 121.569C167.866 125.565 165.821 126.657 150.802 131.572L139.103 135.401L138.802 157.683L138.5 179.966L135.5 182.96C132.272 186.182 127.717 187.475 124.5 186.084" />
    <glyph glyph-name="home"
      unicode="&#xEA33;"
      horiz-adv-x="256" d="M128 224L134.6453333333333 232.3413333333333A10.666666666666666 10.666666666666666 0 0 1 121.3546666666667 232.3413333333333L128 224zM42.6666666666667 156.0746666666667L36.0213333333333 164.416A10.666666666666666 10.666666666666666 0 0 1 32 156.0746666666667H42.6666666666667zM42.6666666666667 32H32A10.666666666666666 10.666666666666666 0 0 1 42.6666666666667 21.3333333333333V32zM213.3333333333333 32V21.3333333333333A10.666666666666666 10.666666666666666 0 0 1 224 32H213.3333333333333zM213.3333333333333 156.0746666666667H224A10.666666666666666 10.666666666666666 0 0 1 219.9786666666667 164.416L213.3333333333333 156.0746666666667zM96 32V21.3333333333333A10.666666666666666 10.666666666666666 0 0 1 106.6666666666667 32H96zM160 32H149.3333333333334A10.666666666666666 10.666666666666666 0 0 1 160 21.3333333333333V32zM96 117.3333333333333V128A10.666666666666666 10.666666666666666 0 0 1 85.3333333333333 117.3333333333333H96zM160 117.3333333333333H170.6666666666667A10.666666666666666 10.666666666666666 0 0 1 160 128V117.3333333333333zM121.3546666666667 232.3413333333333L36.0213333333333 164.416L49.312 147.7226666666667L134.6453333333333 215.6586666666667L121.3546666666667 232.3413333333334zM32 156.0746666666667V32H53.3333333333333V156.0746666666667H32zM224 32V156.0746666666667H202.6666666666667V32H224zM219.9786666666667 164.416L134.6453333333333 232.3413333333333L121.3546666666667 215.6586666666667L206.688 147.7226666666667L219.9786666666667 164.416zM42.6666666666667 21.3333333333333H96V42.6666666666667H42.6666666666667V21.3333333333333zM213.3333333333333 42.6666666666667H160V21.3333333333333H213.3333333333333V42.6666666666667zM106.6666666666667 32V117.3333333333334H85.3333333333333V32.0000000000001H106.6666666666667zM96 106.6666666666667H160V128H96V106.6666666666667zM149.3333333333333 117.3333333333334V32H170.6666666666667V117.3333333333333H149.3333333333333z" />
    <glyph glyph-name="hr"
      unicode="&#xEA34;"
      horiz-adv-x="256" d="M70.315 233.536C64.13 230.847 63.883 229.324 64.208 195.885L64.5 165.833L67.766 162.917L71.032 160L128 160L184.968 160L188.234 162.917L191.5 165.833L191.792 195.885C192.119 229.537 191.891 230.894 185.466 233.579C180.507 235.651 75.086 235.612 70.315 233.536M170.775 197.25L170.5 181.5L127.75 181.239L85 180.979L85 196.989L85 213L128.025 213L171.051 213L170.775 197.25M27.321 137.387C24.404 135.948 21 130.893 21 128C21 127.341 21.71 125.307 22.577 123.478C25.814 116.658 20.249 117 128 117C235.751 117 230.186 116.658 233.423 123.478C235.383 127.61 235.383 128.39 233.423 132.522C230.185 139.344 235.774 139.002 127.849 138.977C41.495 138.957 30.141 138.777 27.321 137.387M70.388 95.033C69.227 94.556 67.314 92.943 66.138 91.448C64.062 88.81 64 87.865 64.015 59.115C64.031 26.488 64.163 25.686 70.014 22.752C73.205 21.151 78.101 21.003 127.782 21.002C187.327 21 187.401 21.007 190.434 26.872C191.752 29.421 192 34.582 192 59.435L192 88.968L189.082 92.234L186.165 95.5L129.332 95.699C98.075 95.809 71.55 95.509 70.388 95.033M170.775 58.75L171.051 43L128.025 43L85 43L85 59.011L85 75.021L127.75 74.761L170.5 74.5L170.775 58.75" />
    <glyph glyph-name="img"
      unicode="&#xEA35;"
      horiz-adv-x="256" d="M46.147 233.942C40.289 232.767 33.918 228.89 29.648 223.902C25.25 218.763 23.251 214.599 21.988 207.937C20.663 200.949 20.663 55.051 21.988 48.063C24.056 37.158 29.728 29.736 39.771 24.792L46.458 21.5L128 21.5L209.542 21.5L216.229 24.792C226.385 29.792 232 37.223 234.066 48.4C234.713 51.901 234.976 82.06 234.79 131.694L234.5 209.5L231.865 215.12C228.293 222.738 222.949 228.386 216.161 231.72L210.5 234.5L130.5 234.657C86.5 234.744 48.541 234.422 46.147 233.942M210.077 210.077L213 207.154L213 164.96L213 122.767L201.088 134.252C186.109 148.693 182.707 150.5 170.5 150.5C163.722 150.5 160.513 150.03 157.5 148.597C154.866 147.344 135.688 128.939 101.33 94.69L49.16 42.686L46.08 45.766L43 48.846L43 128L43 207.154L45.923 210.077L48.846 213L128 213L207.154 213L210.077 210.077M86.296 190.612C76.154 187.297 67.128 177.359 64.923 167.076C61.439 150.832 71.256 133.889 86.764 129.38C102.251 124.878 117.92 132.066 124.852 146.852C128.517 154.669 128.591 166.159 125.023 173.484C122.039 179.609 115.536 186.078 109.355 189.07C103.602 191.855 92.394 192.605 86.296 190.612M103.477 166.98C107.588 162.875 107.632 157.313 103.587 153.091C102.009 151.444 99.453 149.819 97.906 149.479C91.394 148.049 84.049 155.394 85.479 161.906C86.093 164.699 90.124 169.216 93 170.333C95.844 171.439 100.508 169.946 103.477 166.98M194.25 110.24L213 91.52L213 70.183L213 48.846L210.077 45.923L207.154 43L143.331 43L79.509 43L121.504 85.098C144.602 108.252 164.85 127.827 166.5 128.598C172.459 131.382 174.285 130.174 194.25 110.24" />
    <glyph glyph-name="info"
      unicode="&#xEA36;"
      horiz-adv-x="256" d="M115.434 233.886C100.676 232.334 82.214 225.457 68.09 216.251C60.729 211.453 44.409 195.057 39.487 187.515C27.473 169.105 21.786 149.994 21.778 128C21.767 97.671 33.066 71.408 55.12 50.5C96.042 11.703 159.958 11.703 200.88 50.5C222.697 71.184 234.16 97.643 234.237 127.5C234.271 140.697 233.133 148.302 229.302 160.456C222.776 181.164 209.573 199.887 192.202 213.068C177.801 223.995 157.15 232.09 138.89 233.963C127.745 235.107 127.022 235.105 115.434 233.886M149.5 210.573C157.566 208.389 170.996 201.894 178.428 196.581C195.134 184.641 207.717 164.618 211.693 143.648C213.742 132.843 212.981 115.344 210.011 105C201.556 75.543 179.276 53.772 148.998 45.383C139.849 42.848 116.151 42.848 107.002 45.383C68.28 56.112 43 88.744 43 128C43 168.49 71.099 203.013 111 211.546C119.462 213.355 141.256 212.805 149.5 210.573M120.789 178.102C112.622 170.806 120.473 157.552 131.148 160.614C135.486 161.858 138.455 166.136 138.455 171.145C138.455 174.461 137.86 175.736 135.211 178.102C130.727 182.109 125.273 182.109 120.789 178.102M123.321 137.387C117.354 134.444 116.863 131.839 117.2 104.909L117.5 80.833L120.766 77.916C125.282 73.883 130.718 73.883 135.234 77.916L138.5 80.833L138.8 104.909C139.139 132.022 138.658 134.511 132.522 137.423C128.421 139.369 127.331 139.364 123.321 137.387" />
    <glyph glyph-name="infobox"
      unicode="&#xEA37;"
      horiz-adv-x="256" d="M41.576 221.517C34.283 218.519 26.947 211.532 23.805 204.592L21.5 199.5L21.197 132.5C20.884 63.093 21.185 56.428 24.972 49.102C27.407 44.394 34.35 37.811 40 34.855L44.5 32.5L128 32.5L211.5 32.5L216.54 35.161C221.87 37.974 228.807 44.793 231.358 49.725C234.777 56.337 235.111 64.362 234.803 132.5L234.5 199.5L232.148 204.702C228.979 211.708 221.017 219.102 213.687 221.844C207.96 223.987 207.439 224 127.712 223.976L47.5 223.953L41.576 221.517M210.082 199.234L213 195.968L213 128.207C213 53.809 213.323 57.77 206.989 54.494C202.639 52.245 53.361 52.245 49.011 54.494C42.677 57.769 43 53.821 43 128.088C43 195.673 43.002 195.733 45.138 198.448C46.314 199.943 48.227 201.555 49.388 202.029C50.55 202.504 86.525 202.804 129.332 202.696L207.165 202.5L210.082 199.234M120.789 178.102C112.622 170.806 120.473 157.552 131.148 160.614C135.486 161.858 138.455 166.136 138.455 171.145C138.455 174.461 137.86 175.736 135.211 178.102C130.727 182.109 125.273 182.109 120.789 178.102M123.321 137.387C117.354 134.444 116.863 131.839 117.2 104.909L117.5 80.833L120.766 77.916C125.282 73.883 130.718 73.883 135.234 77.916L138.5 80.833L138.8 104.909C139.139 132.022 138.658 134.511 132.522 137.423C128.421 139.369 127.331 139.364 123.321 137.387" />
    <glyph glyph-name="italic"
      unicode="&#xEA38;"
      horiz-adv-x="256" d="M90.353 222.074C86.782 219.896 84.565 214.582 85.565 210.598C85.924 209.166 87.554 206.87 89.186 205.497L92.153 203L115.684 203C134.721 203 139.118 202.749 138.709 201.685C138.35 200.748 103.426 82.328 95.376 54.75C94.909 53.149 92.908 53 71.856 53L48.846 53L45.923 50.077C41.096 45.25 42.505 35.913 48.472 33.195C50.404 32.314 65.695 32 106.597 32C168.363 32 166.779 31.833 169.628 38.652C171.454 43.023 170.114 47.979 166.293 50.984C163.889 52.875 162.277 53 140.258 53C121.713 53 116.888 53.266 117.273 54.268C117.621 55.176 150.118 165.359 160.623 201.25C161.091 202.851 163.092 203 184.144 203L207.154 203L210.077 205.923C215.116 210.962 213.708 219.614 207.316 222.883C205.784 223.666 188.462 223.999 149.316 223.996C96.05 223.993 93.356 223.905 90.353 222.074" />
    <glyph glyph-name="key"
      unicode="&#xEA39;"
      horiz-adv-x="256" d="M209.5 234.018C208.4 233.547 188.439 214.063 165.142 190.719L122.784 148.276L117.142 151.68C107.457 157.523 99.332 159.5 85 159.5C74.485 159.5 71.329 159.116 65.124 157.084C46.294 150.917 30.185 134.415 23.722 114.674C22.16 109.905 21.692 105.769 21.666 96.5C21.636 86.116 21.992 83.412 24.305 76.422C29.74 60 41.11 47.021 57.16 38.919C73.019 30.913 96.122 30.999 112.447 39.124C125.807 45.772 136.064 56.162 142.437 69.5C146.926 78.895 148.367 85.654 148.301 97C148.235 108.368 146.176 116.932 141.249 126.329L137.669 133.158L148.813 144.302L159.958 155.447L173.229 142.305C186.7 128.966 189.504 127.163 194.75 128.467C198.534 129.407 232.63 163.35 234.02 167.559C235.7 172.652 233.836 175.56 219.944 189.52L206.987 202.54L214.067 209.52C221.486 216.834 224 220.498 224 224C224 227.687 220.983 232.109 217.466 233.579C213.641 235.177 212.373 235.247 209.5 234.018M200.773 178.729L209.001 170.457L200.501 162.001L192 153.544L183.499 162.001L174.999 170.457L183.227 178.729C187.753 183.278 191.701 187 192 187C192.299 187 196.247 183.278 200.773 178.729M91.855 137.954C105.359 135.762 117.475 126.621 123.26 114.258C127.245 105.742 128.169 93.784 125.539 84.764C120.843 68.659 106.126 56.323 89.421 54.487C69.059 52.25 50.144 64.683 44.379 84.094C41.801 92.775 42.788 105.823 46.646 114.062C53.202 128.062 67.676 137.677 84 138.875C84.825 138.935 88.36 138.521 91.855 137.954" />
    <glyph glyph-name="library"
      unicode="&#xEA3A;"
      horiz-adv-x="256" d="M49.388 234.042C48.227 233.56 46.314 231.943 45.138 230.448L43 227.73L43 128.088C43 18.545 42.586 25.817 49.011 22.494C53.27 20.292 106.73 20.292 110.989 22.494C117.414 25.817 117 18.533 117 128.207L117 227.968L114.083 231.234L111.167 234.5L81.333 234.708C64.925 234.823 50.55 234.523 49.388 234.042M96 128L96 43L80 43L64 43L64 128L64 213L80 213L96 213L96 128M160.158 195.976C131.5 190.754 129.621 190.019 128.485 183.59C127.912 180.348 153.128 34.67 155.106 29.799C156.563 26.208 160.131 24 164.477 24C169.476 24 218.972 32.89 222 34.332C223.375 34.987 225.333 37.093 226.35 39.011L228.201 42.5L214.686 118.979L201.171 195.458L198.07 198.229C193.939 201.919 192.217 201.817 160.158 195.976M193.662 115.25C199.757 80.738 204.68 52.416 204.601 52.313C204.216 51.807 173.862 46.805 173.482 47.184C173.004 47.663 150.945 172.302 151.289 172.585C151.607 172.846 179.267 177.79 181.039 177.903C182.301 177.982 184.579 166.676 193.662 115.25" />
    <glyph glyph-name="light"
      unicode="&#xEA3B;"
      horiz-adv-x="256" d="M125.327 234.292C122.082 233.678 118.133 229.227 117.409 225.367C117.057 223.492 116.959 218.984 117.191 215.347C117.568 209.42 117.943 208.44 120.822 205.868C125.276 201.888 130.741 201.903 135.223 205.908C138.298 208.656 138.497 209.252 138.839 216.794C139.109 222.727 138.779 225.663 137.555 228.242C135.391 232.803 130.431 235.257 125.327 234.292M53.206 203.52C46.98 198.281 48.483 191.415 57.698 182.993C62.556 178.553 63.659 178 67.658 178C71.294 178 72.713 178.559 75.077 180.923C77.473 183.319 78 184.688 78 188.516C78 192.923 77.64 193.546 71.593 199.593C65.608 205.577 64.887 206 60.669 206C57.321 206 55.391 205.359 53.206 203.52M184.407 199.593C178.36 193.546 178 192.923 178 188.516C178 184.688 178.527 183.319 180.923 180.923C183.287 178.559 184.706 178 188.342 178C192.341 178 193.444 178.553 198.302 182.993C201.307 185.74 204.492 189.517 205.379 191.387C208.84 198.679 203.806 206 195.331 206C191.113 206 190.392 205.577 184.407 199.593M114.5 190.567C105.017 188.344 100.29 186.347 92.932 181.455C79.327 172.41 68.741 156.991 65.499 141.5C55.991 96.058 96.058 55.991 141.5 65.499C170.287 71.523 191.965 98.37 191.965 128C191.965 155.391 173.339 180.834 147.282 189.034C138.535 191.787 122.832 192.521 114.5 190.567M134.855 169.954C149.631 167.556 163.851 155.665 168.284 142C176.427 116.897 160.38 90.116 134.75 86.036C106.247 81.499 82 105.752 86.1 134.699C88.859 154.184 106 169.345 127 170.876C127.825 170.936 131.36 170.521 134.855 169.954M29.327 138.304C26.296 137.714 22.249 133.409 21.494 129.974C20.573 125.778 23.414 120.506 27.691 118.477C30.344 117.218 33.22 116.889 39.206 117.161C46.748 117.503 47.344 117.702 50.092 120.777C55.279 126.583 53.514 134.634 46.401 137.606C43.29 138.906 34.302 139.274 29.327 138.304M209.378 137.563C202.465 134.554 200.799 126.495 205.908 120.777C208.656 117.702 209.252 117.503 216.794 117.161C226.548 116.718 231.04 118.457 233.492 123.624C236.423 129.801 232.693 137.011 225.861 138.378C220.722 139.406 212.701 139.009 209.378 137.563M61.5 76.156C57.705 73.833 51.2 66.656 49.98 63.448C48.64 59.922 49.814 55.541 52.858 52.712C58.802 47.19 64.748 48.661 73.007 57.698C77.447 62.556 78 63.659 78 67.658C78 76.373 69.232 80.889 61.5 76.156M180.923 75.077C178.559 72.713 178 71.294 178 67.658C178 63.659 178.553 62.556 182.993 57.698C191.369 48.533 197.821 47.073 203.543 53.045C207.492 57.167 207.434 62.654 203.387 67.68C195.053 78.033 186.647 80.801 180.923 75.077M120.822 50.132C117.943 47.56 117.568 46.58 117.191 40.653C116.633 31.894 117.515 27.758 120.597 24.676C124.059 21.214 128.086 20.473 132.376 22.508C137.543 24.96 139.282 29.452 138.839 39.206C138.497 46.748 138.298 47.344 135.223 50.092C130.741 54.097 125.276 54.112 120.822 50.132" />
    <glyph glyph-name="link"
      unicode="&#xEA3C;"
      horiz-adv-x="256" d="M150 230.659C137.965 227.076 132.528 223.512 119.247 210.503C107.501 198.997 106.994 198.33 106.997 194.385C107.001 189.375 109.705 185.583 114.372 184.042C119.466 182.361 122.353 184.006 133.5 194.937C147.695 208.858 156.1 212.613 171.282 211.816C177.915 211.468 180.945 210.746 186.304 208.239C209.553 197.359 218.554 170.69 206.78 147.575C205.68 145.415 200.314 139.059 194.856 133.448C189.363 127.803 184.574 121.964 184.13 120.374C182.184 113.397 187.086 107.003 194.385 106.997C198.327 106.994 199.011 107.512 210.625 119.298C221.141 129.969 223.286 132.724 226.785 140.051C231.707 150.358 233 156.276 233 168.5C233 180.727 231.707 186.642 226.778 196.963C223.491 203.846 221.129 207.032 214.119 214.038C200.382 227.765 187.515 233.045 168.04 232.946C160.16 232.906 155.607 232.329 150 230.659M164.5 179.106C162.85 178.068 142.038 157.686 118.25 133.811L75 90.402L75 85.624C75 81.677 75.508 80.338 77.923 77.923C81.249 74.597 86.253 74.019 90.8 76.435C94.059 78.167 178.325 162.578 179.895 165.684C183.418 172.651 178.744 181.004 171.327 180.996C169.222 180.994 166.15 180.144 164.5 179.106M45.4 136.75C34.803 126.048 32.759 123.426 29.225 116C24.291 105.631 23 99.722 23 87.5C23 75.286 24.293 69.358 29.196 59.09C32.455 52.266 34.842 49.049 41.856 42.031C55.706 28.172 67.934 23.044 87.201 23.015C99.711 22.996 105.573 24.26 115.949 29.215C123.276 32.714 126.031 34.859 136.702 45.375C148.681 57.179 149.007 57.614 149.003 61.827C148.999 68.083 144.955 72 138.5 72C133.951 72 133.604 71.766 123.024 61.568C117.072 55.83 110.019 50.036 107.351 48.692C78.386 34.102 44.024 55.159 44.024 87.5C44.024 101.044 48.06 109.083 62.169 123.646C71.765 133.549 72 133.903 72 138.473C72 144.952 68.094 149 61.842 149C57.654 149 57.181 148.648 45.4 136.75" />
    <glyph glyph-name="list"
      unicode="&#xEA3D;"
      horiz-adv-x="256" d="M55.5 222.104C47.796 218.537 43 211.016 43 202.5C43 190.538 51.976 181.609 64 181.609C76.13 181.609 85.034 190.568 84.978 202.718C84.908 218.003 69.098 228.4 55.5 222.104M109.923 210.077C104.884 205.038 106.292 196.386 112.684 193.117C115.874 191.486 203.936 191.558 207.528 193.195C213.495 195.913 214.904 205.25 210.077 210.077L207.154 213L160 213L112.846 213L109.923 210.077M55.112 147.34C53.248 146.392 50.229 144.078 48.403 142.197C39.557 133.089 41.622 117.473 52.661 110C55.802 107.873 57.495 107.5 64 107.5C70.505 107.5 72.198 107.873 75.339 110C77.371 111.375 80.263 114.262 81.766 116.415C84.166 119.851 84.5 121.265 84.5 127.988C84.5 134.506 84.128 136.196 82 139.337C77.882 145.415 72.543 148.369 65 148.742C60.314 148.974 57.555 148.582 55.112 147.34M113.388 138.035C107.771 135.725 105.139 127.102 108.561 122.217C112.187 117.04 112.58 117 160 117C197.169 117 204.553 117.235 206.989 118.494C213.67 121.949 215.089 129.63 210.083 135.234L207.165 138.5L161.333 138.702C136.125 138.813 114.55 138.513 113.388 138.035M60 74.011C39.436 70.174 36.772 41.676 56.218 33.553C69.707 27.918 84.909 38.347 84.978 53.282C85.04 66.847 73.397 76.51 60 74.011M112.5 62.839C108.849 60.832 107.045 57.648 107.022 53.173C107.004 49.707 107.582 48.265 109.923 45.923L112.846 43L160 43L207.154 43L210.077 45.923C215.116 50.962 213.708 59.614 207.316 62.883C204.283 64.434 115.325 64.393 112.5 62.839" />
    <glyph glyph-name="lock"
      unicode="&#xEA3E;"
      horiz-adv-x="256" d="M118.181 233.881C108.498 232.271 98.609 226.845 90.644 218.774C77.202 205.153 75 198.204 75 169.417L75 149.254L70.108 148.784C60.839 147.894 50.65 140.487 45.894 131.183C43.504 126.507 43.5 126.438 43.217 86.875C42.947 49.005 43.026 47.007 44.984 41.773C47.267 35.67 54.115 28.002 59.933 25.034C67.5 21.174 73.331 20.86 131.5 21.186C187.117 21.498 187.539 21.516 193.137 23.779C200.698 26.837 208.279 34.457 211.003 41.738C212.978 47.016 213.053 48.926 212.783 86.875C212.502 126.171 212.481 126.537 210.166 131C205.156 140.659 195.266 147.884 185.81 148.792L181 149.254L180.988 169.377C180.971 197.697 178.548 205.402 165.474 218.689C152.619 231.755 136.508 236.93 118.181 233.881M141.795 210.129C148.327 206.759 153.642 201.429 156.72 195.161C159.437 189.628 159.508 189.042 159.839 169.25L160.178 149L128 149L95.822 149L96.174 169.25C96.486 187.23 96.76 190.01 98.619 194.051C102.384 202.238 109.123 208.405 117.882 211.679C123.39 213.737 136.442 212.891 141.795 210.129M189.082 124.234L192 120.968L192 85.935C192 47.931 191.827 46.609 186.528 44.195C182.777 42.486 73.223 42.486 69.472 44.195C64.175 46.608 64 47.941 64 85.815C64 119.968 64.047 120.79 66.138 123.448C67.314 124.943 69.227 126.556 70.388 127.033C71.55 127.509 98.075 127.809 129.332 127.699L186.165 127.5L189.082 124.234" />
    <glyph glyph-name="login"
      unicode="&#xEA3F;"
      horiz-adv-x="256" d="M145.388 234.064C139.752 231.669 137.141 223.099 140.561 218.217C143.948 213.381 146.23 213 171.815 213C194.424 213 195.873 212.888 198.341 210.946C199.777 209.817 201.436 207.229 202.029 205.196C202.768 202.658 203.011 177.618 202.803 125.272L202.5 49.045L199.73 46.272L196.96 43.5L170.896 43L144.832 42.5L141.916 39.234C136.911 33.629 138.331 25.949 145.011 22.494C147.317 21.302 152.329 21 169.814 21C193.067 21 200.003 21.776 206.476 25.101C212.346 28.116 218.552 34.568 221.192 40.401L223.5 45.5L223.5 127.5C223.5 206.07 223.419 209.709 221.573 214.497C219.041 221.063 211.273 229.181 204.702 232.129C199.74 234.355 198.303 234.474 173.5 234.712C159.2 234.849 146.55 234.558 145.388 234.064M101.42 179.855C98.012 178.201 95.688 173.31 96.356 169.194C96.837 166.228 99.304 163.218 110.207 152.293L123.472 139L82.704 139C37.076 139 36.353 138.906 33.331 132.568C31.125 127.943 32.374 122.528 36.322 119.596C39.067 117.557 40.294 117.492 81.244 117.218L123.345 116.936L109.672 103.138C97.974 91.332 96 88.889 96 86.217C96 79.213 100.386 75 107.677 75C111.274 75 112.58 76.129 135.165 98.75C150.465 114.075 159.115 123.476 159.547 125.25C160.931 130.931 159.282 133.095 135.165 157.25C112.004 180.449 111.361 180.998 107.477 180.932C105.29 180.895 102.564 180.411 101.42 179.855" />
    <glyph glyph-name="logout"
      unicode="&#xEA40;"
      horiz-adv-x="256" d="M57.344 233.983C51.032 232.697 45.926 229.697 40.893 224.316C31.998 214.807 32.5 220.596 32.5 127.5L32.5 45.5L34.808 40.401C37.448 34.568 43.654 28.116 49.524 25.101C55.997 21.776 62.933 21 86.186 21C103.671 21 108.683 21.302 110.989 22.494C117.669 25.949 119.089 33.629 114.084 39.234L111.168 42.5L85.104 43L59.04 43.5L56.27 46.272L53.5 49.045L53.232 126.271C53.035 182.882 53.271 204.241 54.117 206.282C54.752 207.814 56.395 209.953 57.77 211.034C60.097 212.864 61.921 213 84.185 213C103.446 213 108.662 213.291 110.989 214.494C117.669 217.949 119.089 225.629 114.084 231.234L111.167 234.5L86.334 234.664C72.675 234.755 59.63 234.448 57.344 233.983M165.42 179.855C162.012 178.201 159.688 173.31 160.356 169.194C160.837 166.228 163.304 163.218 174.207 152.293L187.472 139L146.704 139C101.076 139 100.353 138.906 97.331 132.568C95.125 127.943 96.374 122.528 100.322 119.596C103.067 117.557 104.294 117.492 145.244 117.218L187.345 116.936L173.672 103.138C161.974 91.332 160 88.889 160 86.217C160 79.213 164.386 75 171.677 75C175.274 75 176.58 76.129 199.165 98.75C214.465 114.075 223.115 123.476 223.547 125.25C224.931 130.931 223.282 133.095 199.165 157.25C176.004 180.449 175.361 180.998 171.477 180.932C169.29 180.895 166.564 180.411 165.42 179.855" />
    <glyph glyph-name="mail"
      unicode="&#xEA41;"
      horiz-adv-x="256" d="M42.871 211.533C34.309 208.362 27.81 202.158 23.677 193.212C21.517 188.537 21.5 188.029 21.5 128L21.5 67.5L24.165 61.814C27.597 54.493 34.8 47.593 41.708 45.008C46.92 43.058 49.415 43 128 43C206.585 43 209.08 43.058 214.292 45.008C221.2 47.593 228.403 54.493 231.835 61.814L234.5 67.5L234.5 128L234.5 188.5L231.903 194C228.663 200.861 222.818 206.929 216.415 210.081L211.5 212.5L129 212.688C62.025 212.841 45.817 212.624 42.871 211.533M192.481 189.065C187.637 184.296 128.546 132.006 128 132.006C127.454 132.006 68.363 184.296 63.519 189.065L60.538 192L128 192L195.462 192L192.481 189.065M83 142.893C103.075 125.048 120.613 109.672 121.973 108.724C125.062 106.57 130.839 106.499 133.807 108.578C135.046 109.445 153.259 125.445 174.28 144.132L212.5 178.108L212.763 125.304C212.953 87.148 212.706 71.724 211.872 69.703C209.444 63.816 212.156 64 128 64C44.295 64 46.761 63.839 44.195 69.472C43.316 71.4 43 86.157 43 125.202C43 175.68 43.087 178.236 44.75 176.824C45.712 176.007 62.925 160.738 83 142.893" />
    <glyph glyph-name="menu"
      unicode="&#xEA42;"
      horiz-adv-x="256" d="M49.388 202.029C43.774 199.736 41.139 191.103 44.561 186.217C48.324 180.844 45.827 181 128 181C193.559 181 204.5 181.207 206.989 182.494C213.67 185.949 215.089 193.63 210.082 199.234L207.165 202.5L129.332 202.696C86.525 202.804 50.55 202.504 49.388 202.029M49.388 138.029C43.774 135.736 41.139 127.103 44.561 122.217C48.324 116.844 45.827 117 128 117C193.559 117 204.5 117.207 206.989 118.494C213.67 121.949 215.089 129.63 210.082 135.234L207.165 138.5L129.332 138.696C86.525 138.804 50.55 138.504 49.388 138.029M49.388 74.02C43.78 71.754 41.138 63.104 44.561 58.217C48.144 53.101 49.037 53 90.549 53C133.555 53 134.404 53.117 137.423 59.478C139.383 63.61 139.383 64.39 137.423 68.522C134.397 74.897 133.591 75.007 90.349 74.937C68.982 74.902 50.55 74.489 49.388 74.02" />
    <glyph glyph-name="merge-cell"
      unicode="&#xEA43;"
      horiz-adv-x="256" d="M35.131 201.811C25.607 199.685 16.545 191.572 12.86 181.874C11.139 177.343 11 173.329 11 128.027C11 81.39 11.095 78.82 13.016 73.686C15.266 67.672 22.156 59.982 27.933 57.034C35.768 53.037 40.095 52.877 131.5 53.194L219.5 53.5L225.137 55.779C232.655 58.82 240.281 66.461 242.971 73.651C244.908 78.83 245 81.287 245 128.027C245 173.329 244.861 177.343 243.14 181.874C239.317 191.934 230.418 199.672 220.134 201.878C213.41 203.32 41.613 203.258 35.131 201.811M218.288 179.915C223.989 177.317 224 177.219 224 128.143C224 79.753 223.93 79.049 218.855 76.425C214.734 74.294 41.266 74.294 37.145 76.425C32.07 79.049 32 79.753 32 128.143C32 168.431 32.176 173.49 33.67 176.019C34.589 177.574 36.276 179.3 37.42 179.855C40.425 181.313 215.092 181.371 218.288 179.915M70.388 159.02C67.211 157.736 64 153.102 64 149.799C64 145.533 65.416 143.323 73.29 135.297L80.356 128.095L72.784 120.169C64.552 111.554 63.487 109.549 64.439 104.473C65.71 97.698 73.504 94.116 79.8 97.415C83.793 99.507 104.714 121.117 105.987 124.465C108.036 129.856 106.363 132.797 94.124 145.31C79.834 159.921 76.863 161.636 70.388 159.02M175.5 158.176C170.745 155.118 151.218 134.703 150.011 131.529C147.964 126.144 149.64 123.2 161.876 110.69C174.145 98.146 177.067 96 181.874 96C188.043 96 193.442 103.881 191.489 110.035C191.103 111.25 187.38 115.81 183.216 120.169L175.644 128.095L182.71 135.297C186.597 139.259 190.277 143.483 190.888 144.684C195.584 153.91 184.279 163.822 175.5 158.176" />
    <glyph glyph-name="minimize"
      unicode="&#xEA44;"
      horiz-adv-x="256" d="M144.5 222.894C138.944 219.686 139.046 220.467 139.022 181.173L139 144.846L141.923 141.923L144.846 139L180.473 139C219.118 139 220.387 139.164 222.805 144.472C224.807 148.865 224.247 152.692 221.084 156.234L218.168 159.5L197.072 160L175.976 160.5L198.555 183C210.973 195.375 221.778 206.715 222.567 208.2C227.017 216.585 218.971 226.245 209.837 223.483C208.552 223.095 196.813 212.152 183.75 199.166L160 175.555L160 196.262L160 216.968L157.25 220.046C154.169 223.494 147.946 224.884 144.5 222.894M37.349 115.824C31.251 112.873 30.559 103.232 36.111 98.56L39.153 96L59.781 96L80.408 96L56.829 72.25C43.861 59.187 32.926 47.448 32.53 46.163C29.724 37.058 39.413 28.981 47.8 33.433C49.285 34.222 60.625 45.027 73 57.445L95.5 80.024L96 58.928L96.5 37.832L99.766 34.916C103.421 31.652 107.463 31.154 111.855 33.425C116.828 35.997 117 37.405 117 75.624L117 111.154L114.077 114.077L111.154 117L75.327 116.932C52.688 116.89 38.708 116.481 37.349 115.824" />
    <glyph glyph-name="more"
      unicode="&#xEA45;"
      horiz-adv-x="256" d="M119.5 222.104C111.796 218.537 107 211.016 107 202.5C107 190.538 115.976 181.609 128 181.609C140.13 181.609 149.034 190.568 148.978 202.718C148.908 218.003 133.098 228.4 119.5 222.104M119.112 147.34C117.248 146.392 114.229 144.078 112.403 142.197C103.557 133.089 105.622 117.473 116.661 110C119.802 107.873 121.495 107.5 128 107.5C134.505 107.5 136.198 107.873 139.339 110C141.371 111.375 144.263 114.262 145.766 116.415C148.166 119.851 148.5 121.265 148.5 127.988C148.5 134.506 148.128 136.196 146 139.337C141.882 145.415 136.543 148.369 129 148.742C124.314 148.974 121.555 148.582 119.112 147.34M124 74.011C103.436 70.174 100.772 41.676 120.218 33.553C133.707 27.918 148.909 38.347 148.978 53.282C149.04 66.847 137.397 76.51 124 74.011" />
    <glyph glyph-name="night"
      unicode="&#xEA46;"
      horiz-adv-x="256" d="M109 232.41C73.272 221.973 44.996 191.922 35.381 154.17C27.92 124.876 33.471 93.348 50.681 67.257C56.479 58.468 70.209 44.771 79.322 38.685C100.233 24.721 119.164 19.372 144.5 20.27C171.121 21.214 192.199 29.396 212 46.472C219.998 53.369 229.061 63.882 232.596 70.364C234.988 74.749 235.136 75.604 234.1 79.06C233.469 81.168 231.804 83.795 230.402 84.898C228.008 86.781 226.833 86.869 211.176 86.329C196.384 85.82 193.505 85.994 185.693 87.872C149.311 96.619 124.608 121.622 117.452 156.942C116.157 163.33 115.871 168.377 116.262 177.927C116.857 192.446 118.763 199.658 125.598 213.258C128.019 218.074 130 222.934 130 224.057C130 227.594 127.216 231.669 123.643 233.365C119.326 235.414 119.266 235.41 109 232.41M98.542 203.25C94.893 193.755 93.526 169.377 95.878 155.732C102.663 116.36 128.345 85.858 166.987 71.274C174.778 68.333 189.057 65.052 194.191 65.022C196.221 65.01 198.139 64.584 198.453 64.077C199.828 61.851 185.51 52.37 173.399 47.487C149.411 37.817 124.181 38.946 100.562 50.748C91.423 55.314 84.821 60.287 77.5 68.12C61.446 85.295 53.814 104.567 53.786 128C53.757 152.959 62.387 173.219 80.688 191.156C88.004 198.327 96.408 204.896 98.357 204.968C98.828 204.986 98.911 204.212 98.542 203.25" />
    <glyph glyph-name="notification"
      unicode="&#xEA47;"
      horiz-adv-x="256" d="M116.763 234.035C89.36 229.026 69.615 209.79 61.315 180.015C60.26 176.23 59.554 167.128 59.067 151L58.356 127.5L54.747 117.5C44.951 90.361 43.684 86.215 43.22 79.777C42.643 71.78 44.092 67.521 48.091 65.453C52.301 63.276 203.699 63.276 207.909 65.453C211.908 67.521 213.357 71.78 212.78 79.777C212.313 86.248 210.939 90.745 201.406 117L197.594 127.5L196.893 151C196.394 167.726 195.723 176.204 194.567 180.409C187.404 206.462 170.557 224.915 147.5 231.963C139.637 234.366 124.249 235.404 116.763 234.035M140.54 211.448C143.818 210.594 148.525 208.717 151 207.276C160.256 201.888 169.483 189.984 173.261 178.558C173.817 176.876 174.626 164.7 175.058 151.5C175.94 124.555 176.399 121.986 183.814 102.5C186.535 95.35 189.07 88.488 189.448 87.25L190.135 85L128.067 85C93.93 85 66 85.26 66 85.579C66 85.897 68.315 92.31 71.144 99.829C79.632 122.384 80.086 124.723 80.594 148.5C80.84 160.05 81.537 171.975 82.141 175C84.597 187.284 94.384 201.095 105.024 207.291C114.463 212.787 128.905 214.478 140.54 211.448M97.11 51.604C94.007 49.885 92.08 46.323 92.035 42.228C91.953 34.609 107.774 23.702 121.351 22.018C131.19 20.798 140.061 22.232 148.507 26.406C157.234 30.719 164 37.499 164 41.931C164 48.324 159.558 53 153.484 53C150.468 53 147.917 51.774 143 47.961C138.563 44.521 133.965 43 128 43C122.035 43 117.437 44.521 113 47.961C106.104 53.309 101.917 54.269 97.11 51.604" />
    <glyph glyph-name="ol"
      unicode="&#xEA48;"
      horiz-adv-x="256" d="M54 221.87C36.856 217.417 36.016 217.075 33.965 213.711C31.496 209.661 31.485 206.357 33.926 202.353C36.433 198.242 41.499 196.489 46.7 197.934C53.356 199.782 53 200.823 53 179.5L53 160L49.45 160C44.339 160 40.081 157.438 38.365 153.33C36.434 148.708 37.38 144.7 41.15 141.527C44.141 139.01 44.233 139 64 139C83.767 139 83.859 139.01 86.85 141.527C94.756 148.179 89.445 160 78.55 160L75 160L75 187.032C75 216.924 74.551 219.629 69.128 222.434C65.358 224.384 63.396 224.311 54 221.87M122.353 190.09C118.783 187.894 116.567 182.575 117.565 178.598C117.924 177.166 119.554 174.87 121.186 173.497L124.153 171L170.03 171C219.304 171 219.947 171.063 222.575 176.145C224.847 180.538 224.348 184.579 221.083 188.234L218.165 191.5L171.833 191.763C127.516 192.014 125.363 191.941 122.353 190.09M50.5 115.824C42.19 112.671 35.081 105.198 33.487 97.939C32.034 91.327 39.374 84.045 46.02 85.504C47.629 85.858 50.067 87.576 51.436 89.324C56.072 95.236 56.995 96 59.5 96C62.829 96 66 92.671 66 89.174C66 85.692 63.782 83.579 53.822 77.57C39.557 68.964 32 57.296 32 43.879C32 39.436 32.426 38.374 35.4 35.4L38.8 32L60.65 32.015C85.044 32.031 86.431 32.333 89.33 38.254C91.67 43.031 90.841 47.115 86.85 50.473C83.961 52.904 83.329 53 70.301 53C54.478 53 54.451 53.072 67.384 61.008C83.354 70.807 87.198 76.478 87.132 90.142C87.084 100.276 81.41 109.624 72.5 114.253C67.791 116.7 55.182 117.6 50.5 115.824M121.77 83.034C115.796 78.334 116.088 69.746 122.353 65.926C125.334 64.109 127.907 64.007 171.173 64.004L216.847 64L219.889 66.56C225.575 71.345 224.724 80.982 218.359 83.882C216.665 84.654 201.718 85 170.088 85C126.047 85 124.173 84.924 121.77 83.034" />
    </font>
</defs>
</svg>
